<svg width="371" height="66" viewBox="0 0 371 66" fill="none" xmlns="http://www.w3.org/2000/svg">
<g clip-path="url(#clip0_107_2)">
<path d="M126.585 28.4928C126.659 31.2382 126.14 33.9094 125.25 36.5064C124.433 38.7324 123.172 40.81 121.54 42.5166C119.907 44.2232 117.978 45.4846 115.752 46.3008C113.378 47.1912 110.855 47.6364 108.332 47.6364H94.3082V9.4234H108.332C110.855 9.4234 113.378 9.8686 115.752 10.759C117.904 11.5752 119.907 12.9108 121.54 14.5432C123.172 16.2498 124.433 18.3274 125.25 20.5534C126.14 23.1504 126.585 25.8216 126.585 28.4928ZM123.691 28.4928C123.766 26.0442 123.395 23.6698 122.578 21.3696C121.911 19.4404 120.872 17.5854 119.462 16.1014C118.126 14.6916 116.42 13.5044 114.565 12.7624C112.561 12.0204 110.41 11.5752 108.332 11.6494H97.1278V45.4104H108.332C110.484 45.4104 112.636 45.0394 114.565 44.2974C116.42 43.5554 118.052 42.4424 119.462 41.0326C120.872 39.4744 121.911 37.6936 122.578 35.6902C123.395 33.39 123.766 30.9414 123.691 28.4928Z" fill="white"/>
<path d="M158.417 45.4104L158.343 47.7106H135.415V9.4234H158.343V11.7236H138.16V27.1572H154.93V29.3832H138.16V45.3362L158.417 45.4104Z" fill="white"/>
<path d="M196.333 9.4234V47.7106H194.998C194.775 47.7106 194.627 47.7106 194.404 47.5622C194.256 47.488 194.107 47.3396 193.959 47.117L169.176 13.9496C169.25 14.469 169.25 14.9884 169.25 15.5078V47.7106H166.802V9.4234H168.211C168.434 9.4234 168.582 9.4234 168.805 9.4976C168.953 9.5718 169.102 9.7202 169.25 9.9428L194.033 43.036C193.959 42.5166 193.959 41.9972 193.959 41.4778V9.4234H196.333Z" fill="white"/>
<path d="M232.543 11.7978H219.113V47.7106H216.293V11.7978H202.789V9.4234H232.543V11.7978Z" fill="white"/>
<path d="M241.744 47.6364H238.924V9.4234H241.744V47.6364Z" fill="white"/>
<path d="M271.646 14.098C271.498 14.3948 271.275 14.5432 270.904 14.5432C270.533 14.469 270.236 14.3206 270.014 14.0238C269.569 13.6528 269.049 13.2818 268.53 12.9108C267.788 12.4656 266.972 12.0946 266.155 11.7978C263.781 11.0558 261.258 11.0558 258.958 11.872C257.993 12.243 257.103 12.7624 256.287 13.5044C255.619 14.1722 255.025 14.9884 254.654 15.8788C254.283 16.7692 254.135 17.7338 254.135 18.6984C254.061 19.8114 254.358 20.9244 254.951 21.889C255.545 22.7794 256.287 23.5214 257.103 24.0408C258.068 24.6344 259.106 25.1538 260.145 25.5248C261.258 25.8958 262.445 26.341 263.707 26.712C264.894 27.083 266.081 27.5282 267.268 28.0476C268.381 28.4928 269.42 29.0864 270.311 29.8284C271.201 30.5704 271.943 31.4608 272.462 32.4996C273.056 33.761 273.353 35.0966 273.279 36.4322C273.279 37.9904 272.982 39.5486 272.462 40.9584C271.943 42.3682 271.127 43.6296 270.088 44.6684C268.975 45.7814 267.714 46.5976 266.23 47.117C264.597 47.7106 262.816 48.0816 261.036 48.0074C258.81 48.0816 256.584 47.5622 254.506 46.6718C252.651 45.7814 251.093 44.52 249.683 43.036L250.425 41.8488C250.573 41.6262 250.87 41.4778 251.167 41.4778C251.39 41.4778 251.612 41.6262 251.761 41.7746L252.651 42.5908C253.022 42.8876 253.467 43.2586 253.987 43.6296C254.506 44.0006 255.1 44.3716 255.767 44.6684C256.509 45.0394 257.326 45.262 258.142 45.4846C259.106 45.7072 260.145 45.7814 261.11 45.7814C262.52 45.7814 263.855 45.5588 265.191 45.1136C266.304 44.6684 267.343 44.0748 268.233 43.2586C269.049 42.4424 269.643 41.4778 270.088 40.439C270.533 39.326 270.756 38.1388 270.756 36.9516C270.83 35.7644 270.533 34.6514 269.94 33.6126C269.42 32.7222 268.678 31.9802 267.788 31.3866C266.823 30.793 265.784 30.2736 264.746 29.9026C263.633 29.5316 262.445 29.1606 261.184 28.7154C259.923 28.2702 258.81 27.8992 257.622 27.454C256.509 27.0088 255.471 26.4152 254.58 25.6732C253.69 24.9312 252.948 23.9666 252.428 22.9278C251.835 21.6664 251.538 20.2566 251.612 18.8468C251.612 17.5854 251.835 16.324 252.354 15.1368C252.874 13.9496 253.541 12.9108 254.506 12.0204C255.545 11.0558 256.658 10.3138 257.993 9.8686C259.477 9.275 261.11 8.9782 262.742 9.0524C264.597 9.0524 266.378 9.3492 268.085 10.017C269.717 10.6848 271.201 11.6494 272.388 12.9108L271.646 14.098Z" fill="white"/>
<path d="M306.817 11.7978H293.387V47.7106H290.567V11.7978H277.063V9.4234H306.817V11.7978Z" fill="white"/>
<path d="M339.688 47.6364H337.313C337.091 47.6364 336.794 47.5622 336.571 47.488C336.349 47.3396 336.126 47.1912 335.978 46.8944L323.66 31.3866C323.512 31.2382 323.364 31.0156 323.215 30.8672C323.067 30.7188 322.918 30.6446 322.696 30.4962C322.473 30.422 322.251 30.3478 322.028 30.3478C321.731 30.2736 321.36 30.2736 321.063 30.2736H316.092V47.5622H313.272V9.4234H323.067C327.445 9.4234 330.784 10.2396 332.935 11.9462C335.087 13.6528 336.2 16.1756 336.2 19.4404C336.2 20.776 335.978 22.1858 335.458 23.4472C334.939 24.6344 334.197 25.7474 333.306 26.6378C332.342 27.6024 331.155 28.3444 329.893 28.8638C328.483 29.4574 326.925 29.8284 325.367 30.051C325.812 30.3478 326.183 30.7188 326.554 31.164L339.688 47.6364ZM322.696 28.3444C324.254 28.3444 325.738 28.196 327.222 27.7508C328.483 27.3798 329.596 26.7862 330.635 26.0442C331.526 25.3022 332.268 24.4118 332.787 23.2988C333.306 22.1858 333.529 20.9244 333.529 19.663C333.529 16.9176 332.639 14.9142 330.858 13.5786C329.077 12.243 326.48 11.5752 323.067 11.5752H316.092V28.2702H322.696V28.3444Z" fill="white"/>
<path d="M356.828 31.906V47.6364H354.082V31.906L339.91 9.4234H342.359C342.581 9.4234 342.804 9.4976 342.952 9.5718C343.101 9.7202 343.249 9.8686 343.323 10.0912L354.305 27.6766C354.528 28.1218 354.75 28.4928 354.973 28.8638C355.195 29.2348 355.344 29.6058 355.492 29.9768C355.641 29.6058 355.789 29.2348 356.012 28.8638C356.234 28.4928 356.383 28.0476 356.605 27.6766L367.587 10.0912C367.661 9.8686 367.809 9.7202 367.958 9.5718C368.18 9.4234 368.403 9.3492 368.626 9.4234H371.074L356.828 31.906Z" fill="white"/>
<path d="M63.812 22.1116C62.2538 22.1116 60.9182 23.373 60.9182 25.0054V48.3784C60.9182 50.0108 60.6956 51.569 60.1762 53.1272C59.731 54.4628 58.989 55.7242 58.0244 56.8372C57.0598 57.876 55.9468 58.6922 54.6112 59.2858C53.1272 59.8794 51.569 60.1762 50.0108 60.1762C48.4526 60.1762 46.8944 59.8794 45.4104 59.2858C44.149 58.6922 42.9618 57.876 42.0714 56.8372C41.1068 55.7242 40.439 54.4628 39.9196 53.1272C39.4002 51.569 39.1776 50.0108 39.1776 48.3784V47.3396C39.1776 47.2654 39.1776 47.1912 39.1776 47.1912V24.7086C39.1776 23.1504 37.9162 21.8148 36.2838 21.8148C35.4676 21.8148 34.7256 22.1116 34.132 22.7052C33.5384 23.2988 33.2416 24.0408 33.3158 24.857C33.3158 25.0054 33.3158 35.9128 33.3158 37.5452C33.3158 37.842 33.3158 38.1388 33.3158 38.4356L5.565 1.2614C5.2682 0.816202 4.8972 0.519402 4.452 0.296802C4.0068 0.148402 3.5616 2.43284e-06 3.1164 0.0742024H2.8938C1.2614 0.0742024 0 1.3356 0 2.968V37.1C0 38.6582 1.2614 39.9938 2.8938 39.9938H2.968C4.5262 39.9938 5.8618 38.7324 5.8618 37.1V11.501L33.39 48.23V48.3042C33.39 50.6044 33.761 52.8304 34.503 54.9822C35.245 57.0598 36.358 58.9148 37.842 60.5472C39.326 62.1796 41.1068 63.441 43.1102 64.2572C47.5622 66.038 52.4594 66.038 56.9114 64.2572C58.9148 63.441 60.6956 62.1796 62.1796 60.5472C63.6636 58.989 64.7766 57.0598 65.5186 55.0564C66.2606 52.9046 66.7058 50.6786 66.6316 48.3784V25.0054C66.7058 23.373 65.3702 22.1116 63.812 22.1116Z" fill="url(#paint0_linear_107_2)"/>
<path d="M36.5806 16.2498C38.2872 16.2498 39.6228 14.9142 39.6228 13.2076C39.6228 11.501 38.2872 10.1654 36.5806 10.1654C34.874 10.1654 33.5384 11.501 33.5384 13.2076C33.5384 14.84 34.874 16.1756 36.5806 16.2498Z" fill="url(#paint1_linear_107_2)"/>
<path d="M36.5806 4.6004C37.851 4.6004 38.8808 3.57057 38.8808 2.3002C38.8808 1.02983 37.851 0 36.5806 0C35.3102 0 34.2804 1.02983 34.2804 2.3002C34.2804 3.57057 35.3102 4.6004 36.5806 4.6004Z" fill="url(#paint2_linear_107_2)"/>
</g>
<defs>
<linearGradient id="paint0_linear_107_2" x1="33.3382" y1="65.5766" x2="33.3382" y2="0.0501622" gradientUnits="userSpaceOnUse">
<stop stop-color="#00C3FF"/>
<stop offset="1" stop-color="#00FFFF"/>
</linearGradient>
<linearGradient id="paint1_linear_107_2" x1="36.5806" y1="16.2127" x2="36.5806" y2="10.1135" gradientUnits="userSpaceOnUse">
<stop stop-color="#00C3FF"/>
<stop offset="1" stop-color="#00FFFF"/>
</linearGradient>
<linearGradient id="paint2_linear_107_2" x1="36.5806" y1="4.60782" x2="36.5806" y2="0" gradientUnits="userSpaceOnUse">
<stop stop-color="#00C3FF"/>
<stop offset="1" stop-color="#00FFFF"/>
</linearGradient>
<clipPath id="clip0_107_2">
<rect width="371" height="65.5928" fill="white"/>
</clipPath>
</defs>
</svg>
