<?xml version="1.0" encoding="utf-8"?>
<!-- Generator: Adobe Illustrator 24.1.0, SVG Export Plug-In . SVG Version: 6.00 Build 0)  -->
<svg version="1.1" id="Layer_1" xmlns="http://www.w3.org/2000/svg" xmlns:xlink="http://www.w3.org/1999/xlink" x="0px" y="0px"
	 viewBox="0 0 500 88.4" style="enable-background:new 0 0 500 88.4;" xml:space="preserve">
<style type="text/css">
	.st0{fill:#FFFFFF;}
</style>
<path class="st0" d="M170.6,38.4c0.1,3.7-0.6,7.3-1.8,10.8c-1.1,3-2.8,5.8-5,8.1c-2.2,2.3-4.8,4-7.8,5.1c-3.2,1.2-6.6,1.8-10,1.8
	h-18.9V12.7H146c3.4,0,6.8,0.6,10,1.8c2.9,1.1,5.6,2.9,7.8,5.1c2.2,2.3,3.9,5.1,5,8.1C170,31.2,170.6,34.8,170.6,38.4z M166.7,38.4
	c0.1-3.3-0.4-6.5-1.5-9.6c-0.9-2.6-2.3-5.1-4.2-7.1c-1.8-1.9-4.1-3.5-6.6-4.5c-2.7-1-5.6-1.6-8.4-1.5h-15.1v45.5H146
	c2.9,0,5.8-0.5,8.4-1.5c2.5-1,4.7-2.5,6.6-4.4c1.9-2.1,3.3-4.5,4.2-7.2C166.3,45,166.8,41.7,166.7,38.4L166.7,38.4z"/>
<path class="st0" d="M213.5,61.2l-0.1,3.1h-30.9V12.7h30.9v3.1h-27.2v20.8h22.6v3h-22.6v21.5L213.5,61.2z"/>
<path class="st0" d="M264.6,12.7v51.6h-1.8c-0.3,0-0.5,0-0.8-0.2c-0.2-0.1-0.4-0.3-0.6-0.6L228,18.8c0.1,0.7,0.1,1.4,0.1,2.1v43.4
	h-3.3V12.7h1.9c0.3,0,0.5,0,0.8,0.1c0.2,0.1,0.4,0.3,0.6,0.6L261.5,58c-0.1-0.7-0.1-1.4-0.1-2.1V12.7H264.6z"/>
<path class="st0" d="M313.4,15.9h-18.1v48.4h-3.8V15.9h-18.2v-3.2h40.1V15.9z"/>
<path class="st0" d="M325.8,64.2H322V12.7h3.8L325.8,64.2z"/>
<path class="st0" d="M366.1,19c-0.2,0.4-0.5,0.6-1,0.6c-0.5-0.1-0.9-0.3-1.2-0.7c-0.6-0.5-1.3-1-2-1.5c-1-0.6-2.1-1.1-3.2-1.5
	c-3.2-1-6.6-1-9.7,0.1c-1.3,0.5-2.5,1.2-3.6,2.2c-0.9,0.9-1.7,2-2.2,3.2c-0.5,1.2-0.7,2.5-0.7,3.8c-0.1,1.5,0.3,3,1.1,4.3
	c0.8,1.2,1.8,2.2,2.9,2.9c1.3,0.8,2.7,1.5,4.1,2c1.5,0.5,3.1,1.1,4.8,1.6c1.6,0.5,3.2,1.1,4.8,1.8c1.5,0.6,2.9,1.4,4.1,2.4
	c1.2,1,2.2,2.2,2.9,3.6c0.8,1.7,1.2,3.5,1.1,5.3c0,2.1-0.4,4.2-1.1,6.1c-0.7,1.9-1.8,3.6-3.2,5c-1.5,1.5-3.2,2.6-5.2,3.3
	c-2.2,0.8-4.6,1.3-7,1.2c-3,0.1-6-0.6-8.8-1.8c-2.5-1.2-4.6-2.9-6.5-4.9l1-1.6c0.2-0.3,0.6-0.5,1-0.5c0.3,0,0.6,0.2,0.8,0.4l1.2,1.1
	c0.5,0.4,1.1,0.9,1.8,1.4c0.7,0.5,1.5,1,2.4,1.4c1,0.5,2.1,0.8,3.2,1.1c1.3,0.3,2.7,0.4,4,0.4c1.9,0,3.7-0.3,5.5-0.9
	c1.5-0.6,2.9-1.4,4.1-2.5c1.1-1.1,1.9-2.4,2.5-3.8c0.6-1.5,0.9-3.1,0.9-4.7c0.1-1.6-0.3-3.1-1.1-4.5c-0.7-1.2-1.7-2.2-2.9-3
	c-1.3-0.8-2.7-1.5-4.1-2c-1.5-0.5-3.1-1-4.8-1.6s-3.2-1.1-4.8-1.7c-1.5-0.6-2.9-1.4-4.1-2.4c-1.2-1-2.2-2.3-2.9-3.7
	c-0.8-1.7-1.2-3.6-1.1-5.5c0-1.7,0.3-3.4,1-5c0.7-1.6,1.6-3,2.9-4.2c1.4-1.3,2.9-2.3,4.7-2.9c2-0.8,4.2-1.2,6.4-1.1
	c2.5,0,4.9,0.4,7.2,1.3c2.2,0.9,4.2,2.2,5.8,3.9L366.1,19z"/>
<path class="st0" d="M413.5,15.9h-18.1v48.4h-3.8V15.9h-18.2v-3.2h40.1V15.9z"/>
<path class="st0" d="M457.8,64.2h-3.2c-0.3,0-0.7-0.1-1-0.2c-0.3-0.2-0.6-0.4-0.8-0.8l-16.6-20.9c-0.2-0.2-0.4-0.5-0.6-0.7
	c-0.2-0.2-0.4-0.3-0.7-0.5c-0.3-0.1-0.6-0.2-0.9-0.2c-0.4-0.1-0.9-0.1-1.3-0.1H426v23.3h-3.8V12.7h13.2c5.9,0,10.4,1.1,13.3,3.4
	s4.4,5.7,4.4,10.1c0,1.8-0.3,3.7-1,5.4c-0.7,1.6-1.7,3.1-2.9,4.3c-1.3,1.3-2.9,2.3-4.6,3c-1.9,0.8-4,1.3-6.1,1.6
	c0.6,0.4,1.1,0.9,1.6,1.5L457.8,64.2z M434.9,38.2c2.1,0,4.1-0.2,6.1-0.8c1.7-0.5,3.2-1.3,4.6-2.3c1.2-1,2.2-2.2,2.9-3.7
	c0.7-1.5,1-3.2,1-4.9c0-3.7-1.2-6.4-3.6-8.2s-5.9-2.7-10.5-2.7H426v22.5H434.9z"/>
<path class="st0" d="M480.9,43v21.2h-3.7V43l-19.1-30.3h3.3c0.3,0,0.6,0.1,0.8,0.2c0.2,0.2,0.4,0.4,0.5,0.7l14.8,23.7
	c0.3,0.6,0.6,1.1,0.9,1.6c0.3,0.5,0.5,1,0.7,1.5c0.2-0.5,0.4-1,0.7-1.5s0.5-1.1,0.8-1.6l14.8-23.7c0.1-0.3,0.3-0.5,0.5-0.7
	c0.3-0.2,0.6-0.3,0.9-0.2h3.3L480.9,43z"/>
<path class="st0" d="M86,29.8c-2.1,0-3.9,1.7-3.9,3.9l0,0v31.5c0,2.2-0.3,4.3-1,6.4c-0.6,1.8-1.6,3.5-2.9,5
	c-1.3,1.4-2.8,2.5-4.6,3.3c-2,0.8-4.1,1.2-6.2,1.2c-2.1,0-4.2-0.4-6.2-1.2c-1.7-0.8-3.3-1.9-4.5-3.3c-1.3-1.5-2.2-3.2-2.9-5
	c-0.7-2.1-1-4.2-1-6.4v-1.4c0-0.1,0-0.2,0-0.2V33.3c0-2.1-1.7-3.9-3.9-3.9c-1.1,0-2.1,0.4-2.9,1.2c-0.8,0.8-1.2,1.8-1.1,2.9
	c0,0.2,0,14.9,0,17.1c0,0.4,0,0.8,0,1.2L7.5,1.7C7.1,1.1,6.6,0.7,6,0.4l0,0C5.4,0.2,4.8,0,4.2,0.1H3.9C1.7,0.1,0,1.8,0,4
	c0,0,0,0,0,0v46c0,2.1,1.7,3.9,3.9,3.9H4c2.1,0,3.9-1.7,3.9-3.9V15.5L45,65v0.1c0,3.1,0.5,6.1,1.5,9c1,2.8,2.5,5.3,4.5,7.5
	c2,2.2,4.4,3.9,7.1,5c6,2.4,12.6,2.4,18.6,0c2.7-1.1,5.1-2.8,7.1-5c2-2.1,3.5-4.7,4.5-7.4c1-2.9,1.6-5.9,1.5-9V33.7
	C89.9,31.5,88.1,29.8,86,29.8z"/>
<path class="st0" d="M49.3,21.9c2.3,0,4.1-1.8,4.1-4.1s-1.8-4.1-4.1-4.1s-4.1,1.8-4.1,4.1C45.2,20,47,21.8,49.3,21.9z"/>
<circle class="st0" cx="49.3" cy="3.1" r="3.1"/>
</svg>
