<?xml version="1.0" encoding="utf-8"?>
<!-- Generator: Adobe Illustrator 24.1.0, SVG Export Plug-In . SVG Version: 6.00 Build 0)  -->
<svg version="1.1" id="Layer_1" xmlns="http://www.w3.org/2000/svg" xmlns:xlink="http://www.w3.org/1999/xlink" x="0px" y="0px"
	 viewBox="0 0 800 800" style="enable-background:new 0 0 800 800;" xml:space="preserve">
<style type="text/css">
	.st0{fill:#FFFFFF;}
</style>
<g>
	<g>
		<g>
			<polygon class="st0" points="749.37,233.26 678.68,233.26 728.81,183.14 697.87,183.14 697.87,166.11 769.94,166.11 
				719.82,216.22 749.37,216.22 			"/>
		</g>
		<g>
			<polygon class="st0" points="562.86,233.26 492.17,233.26 542.29,183.14 511.36,183.14 511.36,166.11 583.43,166.11 
				533.31,216.22 562.86,216.22 			"/>
		</g>
		<g>
			<polygon class="st0" points="682.94,263.38 552.03,263.38 662.37,153.03 569.56,153.03 569.56,135.99 703.51,135.99 
				593.16,246.34 682.94,246.34 			"/>
		</g>
	</g>
	<g>
		<g>
			<path class="st0" d="M319.71,613.71c-32.48,0-63.89-11.31-89.04-31.97c-14.78,5.98-30.28,9-46.15,9
				c-68.28,0-123.82-55.55-123.82-123.82c0-48.84,28.08-92.24,72.1-112.43c-0.65-4.76-0.98-9.58-0.98-14.38
				c0-57.99,47.18-105.17,105.16-105.17c32.35,0,62.12,14.65,81.98,39.79c16.59-23.82,43.47-38.14,72.93-38.14
				c49.31,0,89.42,40.11,89.42,89.42c0,3.74-0.24,7.51-0.7,11.2l-16.9-2.13c0.38-2.99,0.57-6.04,0.57-9.08
				c0-39.91-32.47-72.38-72.38-72.38c-27.59,0-52.39,15.57-64.72,40.63l-6.89,14l-8.05-13.37c-16.19-26.87-44.32-42.92-75.26-42.92
				c-48.59,0-88.13,39.54-88.13,88.13c0,5.99,0.61,11.99,1.82,17.86l1.44,7.02l-6.66,2.63c-41.13,16.2-67.71,55.18-67.71,99.3
				c0,58.88,47.9,106.78,106.79,106.78c15.24,0,30.08-3.24,44.13-9.63l5.04-2.29l4.14,3.67c22.69,20.13,51.77,31.22,81.89,31.22
				c18.34,0,36.17-4.06,53-12.08l3.44-1.64l3.52,1.48c8.89,3.73,18.31,5.63,27.99,5.63c38.9,0,92.2-71.45,92.2-112.01h17.04
				c0,49.79-59.65,129.05-109.24,129.05c-10.67,0-21.1-1.87-31.03-5.55C358.5,609.62,339.37,613.71,319.71,613.71z"/>
		</g>
		<g>
			<path class="st0" d="M398.84,472.56c-22.95,0-38.89-34.59-42.38-68.21c-4.92-47.47,13.68-105.8,82.3-113.93
				c95.29-11.29,121.98,14.04,155.78,46.11c7.19,6.83,14.63,13.89,23.21,21.01c15.01,12.46,22.09,26.45,21.04,41.57
				c-2.09,30.2-37.02,52.2-38.51,53.12l-2.3,1.43l-109.3-6.6c-10.72,0.84-19.88-2.52-26.55-9.8c-3.67-4.01-6.37-8.99-8.33-14.5
				c-2.69,7.73-6.27,15.07-10.69,21.74c-11.02,16.6-26.01,26.53-42.22,27.97C400.2,472.53,399.52,472.56,398.84,472.56z
				 M480.51,304.72c-11.59,0-24.71,0.83-39.75,2.61c-56.26,6.67-71.68,53.58-67.36,95.26c3.41,32.89,17.81,53.53,25.98,52.91
				c10.94-0.97,21.43-8.23,29.53-20.43c13.47-20.28,17.55-49.39,10.17-72.45l-3.56-11.12h35.13l-1.88,10.08
				c-3.45,18.54-4.9,52.36,5.93,64.17c2.01,2.19,5.53,5.03,13.04,4.28l0.67-0.07l0.67,0.04l104.4,6.31
				c9.17-6.34,27.21-22.02,28.32-38.42c0.64-9.47-4.24-18.38-14.93-27.26c-9.01-7.48-16.66-14.74-24.05-21.76
				C556.53,323.94,536.27,304.72,480.51,304.72z"/>
		</g>
		<g>
			<polygon class="st0" points="441.24,660.59 417.37,627.36 431.21,617.42 446.54,638.75 472.08,625.71 464.4,604.96 
				480.39,599.05 493.31,634 			"/>
		</g>
		<g>
			<polygon class="st0" points="148.86,664.01 106.03,624.23 127.74,592.32 141.83,601.91 128.35,621.71 149.36,641.22 
				192.58,604.51 203.61,617.49 			"/>
		</g>
		<g>
			<rect x="527.01" y="336.5" class="st0" width="37.41" height="17.04"/>
		</g>
	</g>
</g>
</svg>
