<svg id="Layer_1" data-name="Layer 1" xmlns="http://www.w3.org/2000/svg" viewBox="0 0 60.93 85.71"><defs><style>.cls-1{fill:#fff;}</style></defs><path class="cls-1" d="M46.45,51.88a1,1,0,0,1-1-1V19.46c0-2.53-1.77-4.58-3.93-4.58s-3.93,2-3.93,4.58V50.54a1,1,0,1,1-2,0V19.46c0-3.63,2.66-6.59,5.94-6.59s5.94,3,5.94,6.59V50.87A1,1,0,0,1,46.45,51.88Z" transform="translate(-18.01 -7.28)"/><path class="cls-1" d="M46.45,50.73a1,1,0,0,1-1-1V13.87c0-3.63,2.66-6.59,5.93-6.59s5.94,3,5.94,6.59V49.72a1,1,0,1,1-2,0V13.87c0-2.53-1.76-4.58-3.93-4.58s-3.92,2.05-3.92,4.58V49.73A1,1,0,0,1,46.45,50.73Z" transform="translate(-18.01 -7.28)"/><path class="cls-1" d="M66.18,51.55a1,1,0,0,1-1-1V20.12c0-2.53-1.76-4.58-3.93-4.58s-3.93,2.05-3.93,4.58V50.54a1,1,0,1,1-2,0V20.12c0-3.63,2.67-6.59,5.94-6.59s5.94,3,5.94,6.59V50.54A1,1,0,0,1,66.18,51.55Z" transform="translate(-18.01 -7.28)"/><path class="cls-1" d="M58.73,93a1,1,0,0,1-.16-2C68,89.46,74.15,83.44,75.88,74c1.93-10.5.71-15.05,0-17.77a10.21,10.21,0,0,1-.49-2.6h0A15.4,15.4,0,0,1,75,51V30.32c0-2.53-1.76-4.59-3.92-4.59s-3.93,2.06-3.93,4.59V49.73a1,1,0,0,1-2,0V30.32c0-3.64,2.66-6.6,5.94-6.6s5.93,3,5.93,6.6V51a16.94,16.94,0,0,0,.31,2.43,9.81,9.81,0,0,0,.44,2.28c.78,2.88,2.07,7.71.06,18.65C76,84.71,69.23,91.3,58.89,93Z" transform="translate(-18.01 -7.28)"/><path class="cls-1" d="M52.13,92.74H52c-9.19-1.14-15.28-6.13-17.92-10.42-2.32-3.77-3.49-11.86-4.18-16.7-.15-1-.28-1.91-.39-2.57-.82-4.81-5.15-10-8-13.52-1-1.2-1.83-2.23-2.36-3-1.22-1.84-1.47-3.71-.67-5.14.62-1.13,2.15-2.47,5.81-2.35,5.78.18,12.4,9.87,13.14,11a1,1,0,0,1-.28,1.39,1,1,0,0,1-1.39-.28c-1.85-2.76-7.51-10-11.53-10.08-2,0-3.5.42-4,1.31s-.21,1.87.58,3.05c.47.71,1.29,1.7,2.25,2.86,3,3.63,7.52,9.13,8.43,14.46.12.67.24,1.57.4,2.62.67,4.68,1.8,12.52,3.91,15.94,2.39,3.89,8,8.42,16.45,9.48a1,1,0,0,1-.12,2Z" transform="translate(-18.01 -7.28)"/><path class="cls-1" d="M58.17,92.92a1,1,0,0,1-.71-1.72c5-5,16.34-17.44,12.26-25.56-1.44-2.87-3.16-4.4-5.09-4.55-4.21-.38-8.47,5.52-8.51,5.58a1,1,0,0,1-.82.42h0a1,1,0,0,1-.81-.41c0-.07-4.34-6-8.54-5.59-1.94.15-3.66,1.69-5.1,4.55C36.79,73.73,48,86.15,53.06,91.12a1,1,0,0,1-1.42,1.43C45,86,34.57,73.67,39.06,64.74c1.77-3.54,4-5.44,6.74-5.66,4.13-.3,7.89,3.49,9.5,5.39,1.61-1.9,5.38-5.68,9.48-5.39,2.69.21,5,2.12,6.74,5.66,4.5,9-6,21.32-12.65,27.89A1,1,0,0,1,58.17,92.92Z" transform="translate(-18.01 -7.28)"/><path class="cls-1" d="M55.54,74c-1.83,0-3.16-1.71-3.16-4.06s2.25-4.28,2.51-4.5a1,1,0,0,1,1.31,0c.26.22,2.51,2.22,2.51,4.5S57.38,74,55.54,74Zm0-6.37a4.09,4.09,0,0,0-1.16,2.31c0,1.19.49,2,1.15,2s1.16-.86,1.16-2A4.13,4.13,0,0,0,55.55,67.63Z" transform="translate(-18.01 -7.28)"/></svg>