<svg xmlns="http://www.w3.org/2000/svg" viewBox="0 0 346.6 344.64"><defs><style>.a{fill:#fff;}</style></defs><path class="a" d="M235.62,345.62h0a30.93,30.93,0,0,1,8.62,21.56h-.05a31.85,31.85,0,0,1-3,13.51l3.86,4.05h0l1.06,1.1h0a19.29,19.29,0,0,0,28,0h0a20.89,20.89,0,0,0,5.78-14.51h-.05a21,21,0,0,0-5.73-14.51L253,335.67l6.84-7.05,21.06,21.1a19.28,19.28,0,0,0,27.91,0v0a21.13,21.13,0,0,0,.48-28.52l-.28-.3v0l-.2-.15v-.05l-21.06-21.1,6.79-7.05,21.11,21.1h0c.19.2.33.4.53.6a19,19,0,0,0,13.38,5.45,19.34,19.34,0,0,0,13.86-5.85l.14-.15h0a21.17,21.17,0,0,0,0-29.07h0l-21.06-21.1,6.79-7.05,21.06,21.1a19.4,19.4,0,0,0,28,0h0a21.24,21.24,0,0,0,0-29l-1.1-1.15-93.86-97.55s-5.07-5.56-12.47-5.21A21,21,0,0,0,256.46,151h0l-46.25,48v.05a28.71,28.71,0,0,1-20.74,8.86V208a28.88,28.88,0,0,1-20.8-8.91,31.09,31.09,0,0,1-8.57-21.61h0a31.24,31.24,0,0,1,8.57-21.61s16.41-17.11,22.09-23c12.66-13.26,25.32-26.52,37.93-39.43a94.13,94.13,0,0,0-61.85-24.36,90.15,90.15,0,0,0-66.37,28,97.67,97.67,0,0,0-27,69A102.47,102.47,0,0,0,97.82,231.4a28.75,28.75,0,0,1,33.6,5.86A31,31,0,0,1,140,258.87h0a30.46,30.46,0,0,1-.62,6.25,27.33,27.33,0,0,1,6-.65h0a28.71,28.71,0,0,1,20.79,8.9h0A31,31,0,0,1,174.74,295a30.34,30.34,0,0,1-.63,6.2,30.35,30.35,0,0,1,6-.6,28.74,28.74,0,0,1,20.79,8.91,31.19,31.19,0,0,1,8.57,21.56,30.47,30.47,0,0,1-.63,6.25,30.4,30.4,0,0,1,6-.65,28.6,28.6,0,0,1,20.74,9Zm-.09,43.32-1,1-.53.55h0L233,391.64h0a28.72,28.72,0,0,1-41.59,0h0A31.19,31.19,0,0,1,182.87,370h-.05a30.13,30.13,0,0,1,.63-6.25,27.08,27.08,0,0,1-6,.65,28.59,28.59,0,0,1-20.74-8.91,30.76,30.76,0,0,1-8.57-21.16,29.94,29.94,0,0,1,.58-6.61,29.2,29.2,0,0,1-6.36.61,28.69,28.69,0,0,1-20.4-9,31.51,31.51,0,0,1-8-27.82,26.42,26.42,0,0,1-6,.66,29,29,0,0,1-20.8-8.91h0a31.56,31.56,0,0,1,0-43.22h0l1.06-1.1.53-.55h0l1.11-1.2a112.82,112.82,0,0,1-26-71.15C63.65,138.55,73.42,111,93.63,90a99.66,99.66,0,0,1,73.26-31,104,104,0,0,1,68.73,27.36A101,101,0,0,1,380,88.77a111.33,111.33,0,0,1,2.64,150.14l1.35,1.4,1.06,1.1a31.47,31.47,0,0,1,0,43.17h0a28.69,28.69,0,0,1-20.74,8.91,30.28,30.28,0,0,1-6-.6,34.41,34.41,0,0,1,.63,6.25,31,31,0,0,1-8.62,21.56h0l-.19.2a29,29,0,0,1-20.6,8.76,26.13,26.13,0,0,1-5.92-.65,34.22,34.22,0,0,1,.57,6.2,31.18,31.18,0,0,1-7.17,20v.1l-1.39,1.5a28.88,28.88,0,0,1-20.8,8.91,27.31,27.31,0,0,1-6-.65,30.46,30.46,0,0,1,.62,6.25h0a30.93,30.93,0,0,1-8.56,21.56h0a28.55,28.55,0,0,1-41.54,0h0l-1.06-1.1h0Z" transform="translate(-63.89 -57.2)"/></svg>