<?xml version="1.0" encoding="utf-8"?>
<!-- Generator: Adobe Illustrator 24.1.2, SVG Export Plug-In . SVG Version: 6.00 Build 0)  -->
<svg version="1.1" id="Layer_1" xmlns="http://www.w3.org/2000/svg" xmlns:xlink="http://www.w3.org/1999/xlink" x="0px" y="0px"
	 viewBox="0 0 70.6 78.4" style="enable-background:new 0 0 70.6 78.4;" xml:space="preserve">
<style type="text/css">
	.st0{fill:#FFFFFF;}
</style>
<g>
	<path class="st0" d="M18,52.8c3.3,11.5,8.8,22,15,25.2c0.6,0.3,1.3,0.5,1.9,0.5c0.7,0,1.4-0.2,2.1-0.6c1.1-0.7,1.8-1.9,1.8-3.2
		V60.8c0-2.1,1.7-3.8,3.8-3.8c2.1,0,3.8,1.7,3.8,3.8v13.9c0,1.3,0.7,2.5,1.8,3.2c0.6,0.4,1.3,0.6,2.1,0.6c0.7,0,1.3-0.2,1.9-0.5
		c6.2-3.2,11.7-13.7,15-25.2c0.2-0.7,0.4-1.4,0.6-2.1c1.7-6.6,2.8-13.5,2.8-19.4c0-10-4.1-16.9-11.1-18.8c-7.2-2-11.1-0.1-16.5,2.5
		c-0.6,0.3-1.2,0.6-1.8,0.9c-3.6-2.3-8-5.1-15.3-3.4c-7,1.7-11.2,8.7-11.2,18.8c0,5.9,1,12.8,2.8,19.4C17.6,51.4,17.8,52.1,18,52.8z
		 M26.6,15.8c5.9-1.4,9.3,0.9,12.7,3c2.5,1.6,5.2,3.3,8.5,3.2c1,0,1.7-0.9,1.7-1.8c0-1-0.9-1.7-1.8-1.7c-1,0.1-1.9-0.2-2.9-0.6
		c5-2.4,7.9-3.7,13.7-2.1c7.7,2.1,8.6,11.5,8.6,15.5c0,6.2-1.1,13-2.9,19.4c-0.2,0.7-0.4,1.4-0.6,2.1c-3.2,10.5-8.2,19.6-13,22
		c-0.2,0.1-0.4,0.1-0.6,0c-0.1,0-0.1-0.1-0.1-0.2V60.8c0-4-3.3-7.3-7.3-7.3c-4,0-7.3,3.3-7.3,7.3v13.9c0,0.1,0,0.2-0.1,0.2
		c-0.1,0.1-0.3,0.1-0.6,0c-4.8-2.5-9.8-11.5-13-22c-0.2-0.7-0.4-1.4-0.6-2.1c-1.8-6.4-2.9-13.3-2.9-19.4
		C18.1,27.2,19,17.6,26.6,15.8z"/>
	<path class="st0" d="M43.2,32.8c6.6-0.3,9.7-5.3,10.1-9.9c0.3,4.7,3.5,9.7,10.1,9.9c-6.6,0.3-9.7,5.3-10.1,9.9
		C53,38.1,49.8,33.1,43.2,32.8z"/>
	<path class="st0" d="M0,9.9C6.6,9.6,9.7,4.7,10,0c0.3,4.7,3.5,9.7,10.1,9.9c-6.6,0.3-9.7,5.3-10.1,9.9C9.7,15.2,6.6,10.2,0,9.9z"/>
</g>
</svg>
