<svg xmlns="http://www.w3.org/2000/svg" viewBox="0 0 66.99 39"><g data-name="Layer 2"><path d="M33.49 27.87a1.5 1.5 0 01-1.5-1.5V14.48a1.5 1.5 0 013 0v11.89a1.5 1.5 0 01-1.5 1.5zm-10.67-2.31a1.5 1.5 0 01-1.5-1.5V11.84a1.5 1.5 0 113 0v12.22a1.5 1.5 0 01-1.5 1.5zm-10.66-5.14a1.5 1.5 0 01-1.5-1.5v-8.74a1.5 1.5 0 013 0v8.74a1.5 1.5 0 01-1.5 1.5zm32 5.14a1.5 1.5 0 01-1.5-1.5V11.84a1.5 1.5 0 013 0v12.22a1.5 1.5 0 01-1.5 1.5zm10.66-5.14a1.5 1.5 0 01-1.5-1.5v-8.74a1.5 1.5 0 013 0v8.74a1.5 1.5 0 01-1.5 1.5z" fill="#0ff"/><path d="M67 12.59v-.09a1.52 1.52 0 00-.13-.85v-.07a1.52 1.52 0 00-.26-.35C66 10.74 54.57 0 45.05 0a14.06 14.06 0 00-8.91 2.9 4.5 4.5 0 01-2.65 1.22 4.55 4.55 0 01-2.65-1.22 14 14 0 00-8.9-2.9C12.41 0 1 10.74.46 11.2a1.52 1.52 0 00-.26.35v.06a1.41 1.41 0 00-.2.89.28.28 0 000 .09.17.17 0 000 .07 1.43 1.43 0 00.18.34c.59 1.06 14.86 26 33.3 26S66.2 14.09 66.8 13a1.43 1.43 0 00.14-.34.17.17 0 01.06-.07zM29 5.26c3.22 2.54 5.79 2.54 9 0A11.07 11.07 0 0145 3c4.88 0 10.66 3.53 14.64 6.47a45.94 45.94 0 00-9.07-1.06 20.65 20.65 0 00-6.91 2C40.8 11.62 37.5 13 33.49 13s-7.3-1.36-10.21-2.57a20.78 20.78 0 00-6.91-2 46 46 0 00-9.08 1.04C11.27 6.53 17.05 3 21.94 3A11.09 11.09 0 0129 5.26zm32.54 7.65c-5.52 3.8-18.49 12-28 12s-22.51-8.16-28-12c3.28-.72 8-1.61 10.79-1.5a18.48 18.48 0 015.88 1.77C25.3 14.5 28.89 16 33.49 16s8.2-1.48 11.36-2.8a18.61 18.61 0 015.89-1.77c2.73-.13 7.49.77 10.79 1.48zM33.49 36C22 36 11.83 24.51 6.58 17.28c6.64 4.29 17.9 10.59 26.91 10.59s20.28-6.3 26.91-10.59C55.15 24.51 45 36 33.49 36z" fill="#fff"/></g></svg>