<svg xmlns="http://www.w3.org/2000/svg" viewBox="0 0 141.66 122.09"><path d="M141.66 42.39A42.44 42.44 0 0099.27 0c-7.9 0-17.87 3.08-28 8.68l-.39.21-.38-.21C60.26 3.08 50.3 0 42.39 0A42.43 42.43 0 000 42.39c0 14 7.58 33.08 20.28 51.18a117.21 117.21 0 0016.93 19.53c6.6 5.88 12.55 9 17.22 9 1.12 0 3 0 11.49-8.41 1.44-1.42 2.89-2.91 4.32-4.44l.59-.62.58.62c1.52 1.62 3 3.11 4.33 4.44 8.5 8.41 10.37 8.41 11.49 8.41 4.67 0 10.62-3.11 17.22-9a117.21 117.21 0 0016.93-19.53c12.69-18.09 20.28-37.22 20.28-51.18zm-70.83 57.86l-.6-.69c-2.68-3-5.34-6.24-7.89-9.48a175.54 175.54 0 01-11.81-16.76 71.18 71.18 0 01-7.66-15.87 15.59 15.59 0 01-1.11-5.81v-.36a15.94 15.94 0 0115.83-15.56 15.7 15.7 0 018.59 2.54 16 16 0 014.65 4.61 16 16 0 014.64-4.61 15.84 15.84 0 0124.44 13v.33a15.61 15.61 0 01-1 5.63v.17l-.09.09a72.09 72.09 0 01-7.66 15.86 175.9 175.9 0 01-11.84 16.74c-2.58 3.26-5.23 6.45-7.89 9.48zm17 16.19h-.25l-.22-.13c-2-1.16-6.92-5.73-12.21-11.37l-.5-.53.49-.55c2.56-2.91 5-5.87 7.4-8.81 7.85-9.8 18-24 21.62-35.87v-.06a28.85 28.85 0 001.37-7.93 21.46 21.46 0 00-21.47-21A21.23 21.23 0 0071.3 34.4l-.48.36-.47-.36a21.47 21.47 0 00-34.23 16.74A28.64 28.64 0 0037.45 59l.09.09v.2c3.67 11.88 13.77 26 21.6 35.8 2.33 2.91 4.86 5.91 7.4 8.8l.48.55-.5.53c-5.28 5.64-10.19 10.21-12.2 11.37l-.22.13h-.26c-6.71-.63-18.61-11.36-29-26.1C13 73.41 5.62 55 5.62 42.39A36.82 36.82 0 0142.39 5.62c5.91 0 13.56 2.14 21.55 6 2.28 1.11 4.6 2.36 6.89 3.75 2.26-1.36 4.57-2.62 6.9-3.75 8-3.89 15.63-6 21.54-6A36.81 36.81 0 01136 42.39c0 12.65-7.38 31-19.25 48-10.32 14.69-22.23 25.42-28.94 26.05z" fill="#fff" data-name="Layer 2"/></svg>