<svg xmlns="http://www.w3.org/2000/svg" viewBox="0 0 39.39 39.39"><path d="M19.69 1A18.74 18.74 0 1033 6.44 18.69 18.69 0 0019.69 1zm-2 21.51a.47.47 0 01-.67-.67l1.19-1.19-7.75-5.79a.46.46 0 01-.09-.66l1.39-1.86a.48.48 0 01.66-.1L18.85 17l-.13-.87a.49.49 0 01.41-.53.47.47 0 01.53.4l.25 1.8.61.45 8-8a.47.47 0 11.67.67l-7.86 7.86 1 .75a.48.48 0 01.1.66L21 22.11a.47.47 0 01-.47.18l1.38 9.89a.49.49 0 01-.41.54.48.48 0 01-.53-.41l-1.49-10.74-.53-.4-1.29 1.29zm2.86-1.3l-1.32-1-7.79-5.82.82-1.1 8.06 6 1.05.78-.82 1.1zm10-12.25a15.21 15.21 0 011.91 2.32 15.42 15.42 0 011.41 2.63 15.93 15.93 0 01.86 2.85 15.51 15.51 0 010 6 15.68 15.68 0 01-.86 2.85 15.15 15.15 0 01-3.29 4.93 15.71 15.71 0 01-2.32 1.91 15.42 15.42 0 01-2.63 1.41 15.93 15.93 0 01-2.85.86 15.51 15.51 0 01-6 0 15.93 15.93 0 01-2.85-.86A15.44 15.44 0 019 30.57a15.71 15.71 0 01-2-2.41 14.7 14.7 0 01-1.4-2.63 15 15 0 01-.87-2.85 15.51 15.51 0 010-6 15.17 15.17 0 01.87-2.85 14.7 14.7 0 011.4-2.6 15.21 15.21 0 011.91-2.32A14.58 14.58 0 0111.23 7a14.79 14.79 0 012.63-1.42 15.79 15.79 0 012.86-.86 15.46 15.46 0 016 0 15.7 15.7 0 012.83.85A15.23 15.23 0 0128.17 7a15.45 15.45 0 012.31 1.9zm-1.86-2.74a15.47 15.47 0 012.46 2 16.28 16.28 0 013.52 5.26 16.34 16.34 0 01.92 3 16.31 16.31 0 010 6.33 16.34 16.34 0 01-.92 3 15.66 15.66 0 01-1.5 2.8 16.07 16.07 0 01-2 2.44 16.28 16.28 0 01-5.26 3.52 16.19 16.19 0 01-12.39 0 16 16 0 01-2.8-1.5 16.57 16.57 0 01-2.44-2 15.47 15.47 0 01-2-2.46 16 16 0 01-1.5-2.8 16.12 16.12 0 01-1.23-6.2 16.52 16.52 0 01.31-3.16 16.34 16.34 0 01.92-3 16.28 16.28 0 013.46-5.21 15.93 15.93 0 012.46-2 16.37 16.37 0 012.8-1.5 16.34 16.34 0 013-.92 16.31 16.31 0 016.33 0 16.11 16.11 0 013 .91 16 16 0 012.8 1.5zM5.77 5.77A19.69 19.69 0 110 19.69 19.64 19.64 0 015.77 5.77z" fill="#30383b" fill-rule="evenodd" data-name="Layer 2"/></svg>