<svg xmlns="http://www.w3.org/2000/svg" viewBox="0 0 48.84 48.84"><g data-name="Layer 2"><path d="M12.7 48.84a12.7 12.7 0 01-9-21.68l11.74-11.72a1.12 1.12 0 011.54 0L33.4 31.86a1.09 1.09 0 010 1.54L21.69 45.12a12.62 12.62 0 01-8.99 3.72zm3.51-31.08L5.27 28.7a10.51 10.51 0 1014.87 14.87l10.94-10.94z" fill="#fff"/><path d="M32.63 33.72a1.05 1.05 0 01-.77-.32L15.44 17a1.09 1.09 0 010-1.54L27.16 3.72a12.7 12.7 0 0118 18L33.4 33.4a1.05 1.05 0 01-.77.32zM17.76 16.21l14.87 14.87 10.95-10.94A10.52 10.52 0 0028.7 5.27z" fill="#0ff"/></g></svg>