<svg xmlns="http://www.w3.org/2000/svg" viewBox="0 0 49.48 60.3"><path d="M13.8 60.3c-2.15 0-3.09-3.19-3.4-4.24a65.71 65.71 0 01-2.32-25.92C5.52 27.8-4.13 17.89 2 6.4 4.31 2.09 7.21 0 10.87 0c2.75 0 5.42 1.17 8 2.31 2.15.95 4.19 1.84 5.87 1.84s3.72-.89 5.87-1.84c2.58-1.14 5.25-2.31 8-2.31 3.66 0 6.56 2.09 8.86 6.4C53.61 17.89 44 27.8 41.4 30.14a65.71 65.71 0 01-2.32 25.92c-.31 1-1.25 4.24-3.4 4.24-2.41 0-3-3.72-3.19-4.95-1.77-11.19-5.26-16.29-7.75-16.29s-6 5.1-7.75 16.29c-.19 1.23-.78 4.95-3.19 4.95zm10.94-23.94c4.68 0 8.58 6.94 10.42 18.57a9.55 9.55 0 00.58 2.28 9.37 9.37 0 00.75-1.91 63 63 0 002.14-25.47 1.35 1.35 0 01.49-1.28c.48-.39 11.91-9.76 6-20.88-2.38-4.45-4.84-5-6.48-5-2.21.03-4.64 1.09-6.94 2.11s-4.71 2.07-7 2.07-4.54-1-7-2.07-4.65-2.08-6.83-2.08c-1.64 0-4.1.52-6.48 5-5.94 11.12 5.49 20.49 6 20.88a1.36 1.36 0 01.48 1.28A63 63 0 0013 55.3a9.37 9.37 0 00.75 1.91 9.7 9.7 0 00.58-2.28c1.83-11.63 5.73-18.57 10.41-18.57z" fill="#fff" data-name="Layer 2"/></svg>