<svg xmlns="http://www.w3.org/2000/svg" viewBox="0 0 34.76 43.73"><path d="M17 43.56c-1.38-1.6-2.92-3.31-4.5-5.06a129.7 129.7 0 01-9.33-11.12A17.49 17.49 0 01.8 22.6a17.11 17.11 0 01-.8-5.22 17.38 17.38 0 1134.76 0 17.19 17.19 0 01-3.16 10 129.91 129.91 0 01-9.36 11.12c-1.58 1.76-3.12 3.46-4.5 5.07a.47.47 0 01-.67 0l-.07-.01zm.36-33.88a7.7 7.7 0 00-7.7 7.7 7.7 7.7 0 1015.4 0 7.68 7.68 0 00-7.7-7.7zm-6.12 1.58a8.66 8.66 0 00-2.53 6.12 8.65 8.65 0 1017.3 0 8.64 8.64 0 00-8.65-8.65 8.66 8.66 0 00-6.12 2.53zm2 26.61c1.47 1.63 2.9 3.21 4.16 4.66 1.26-1.45 2.69-3 4.16-4.66a130.82 130.82 0 009.28-11 16.41 16.41 0 003-9.46A16.43 16.43 0 101 17.38a16.61 16.61 0 00.75 4.94 17.17 17.17 0 002.24 4.52 130.82 130.82 0 009.23 11.03z" fill="#30383b" fill-rule="evenodd" data-name="Layer 2"/></svg>