<svg xmlns="http://www.w3.org/2000/svg" viewBox="0 0 85.06 36.44"><defs><style>.cls-1{fill:none;stroke-linecap:round;stroke-linejoin:round;stroke:#fff;stroke-width:2.64px}</style></defs><g id="Layer_2" data-name="Layer 2"><g id="body"><path class="cls-1" d="M74.43 32.5c-5.15 0-9.32.28-9.32-4.12V15.54c0-4.4 4.17-11 9.32-11 5.14 0 9.31 6.63 9.31 11v12.84c0 4.4-4.17 4.12-9.31 4.12z"/><path d="M53.82 35.06h0c-6.23 0-11.29.88-11.29-4.69V14.93c0-5.57 5.06-13.61 11.29-13.61h0c6.24 0 11.29 8 11.29 13.61v15.44c0 5.57-5.05 4.69-11.29 4.69z" stroke-width="1.47" stroke="#fff" fill="none" stroke-linecap="round" stroke-linejoin="round"/><path class="cls-1" d="M53.82 35.06c-6.23 0-11.29.88-11.29-4.69V14.93c0-5.57 5.06-13.61 11.29-13.61 6.24 0 11.29 8 11.29 13.61v15.44c0 5.57-5.05 4.69-11.29 4.69zm-22.67 0c-6.24 0-11.29.88-11.29-4.69V14.93c0-5.57 5.05-13.61 11.29-13.61 6.23 0 11.29 8 11.29 13.61v15.44c0 5.57-5.06 4.69-11.29 4.69z"/><path d="M11.88 22.45v-2.49m-1.24 1.25h2.49m61.3 1.24v-2.49m-1.25 1.25h2.5M53 15.5l.42 1.15a4.88 4.88 0 002.88 2.88l1.15.43-1.15.42a4.92 4.92 0 00-2.88 2.89L53 24.41l-.43-1.14a4.87 4.87 0 00-2.88-2.89L48.53 20l1.15-.43a4.83 4.83 0 002.88-2.88zm-22.62 1.17l.31.85a3.64 3.64 0 002.13 2.13l.84.31-.84.31a3.61 3.61 0 00-2.13 2.13l-.31.84-.31-.84a3.64 3.64 0 00-2.13-2.13l-.85-.27.85-.31a3.67 3.67 0 002.13-2.13z" stroke-width="1.47" stroke="#0ff" fill="none" stroke-linecap="round" stroke-linejoin="round"/><path class="cls-1" d="M10.64 32.5c-5.15 0-9.32.28-9.32-4.12V15.54c0-4.4 4.17-11 9.32-11 5.14 0 9.31 6.63 9.31 11v12.84c.05 4.4-4.17 4.12-9.31 4.12z"/></g></g></svg>