<svg xmlns="http://www.w3.org/2000/svg" viewBox="0 0 72.02 57.61"><defs><style>.cls-2{fill:#0ff}</style></defs><g id="Layer_2" data-name="Layer 2"><g id="body"><path d="M36.24 56.16h.16a30 30 0 003.69.24 5.55 5.55 0 001.79-.21 14.08 14.08 0 011.42-.31A30.56 30.56 0 0048 54.5a5.28 5.28 0 002-1.64 5.89 5.89 0 011-1 3.78 3.78 0 011.69-.57 8 8 0 002.12-.58c2-.87 2.64-1.91 3.35-4.39a1.17 1.17 0 01.8-.81 9.86 9.86 0 003.21-2.94 6.16 6.16 0 001-5.28 1.2 1.2 0 01.83-1.42c1.69-.58 2.79-1.12 3.9-3.77a7.24 7.24 0 00.25-4.73c-.09-.47-.18-.95-.24-1.45a1.17 1.17 0 01.41-1.05 8.15 8.15 0 002.46-4.75 9.87 9.87 0 00-.29-4.64 5.28 5.28 0 01-.24-1.26 8.94 8.94 0 01.72-2.93A14.61 14.61 0 0072 6.83c.15-3.31-.58-5.73-4.65-6.74A3.52 3.52 0 0066.5 0a8.76 8.76 0 00-4 1.08l-.23.17c-1.9 1.45-3.16 2.41-3.13 5.2s.64 3.57 1.14 4.21a3.06 3.06 0 01.79 2.34 8.07 8.07 0 01-.72 2.45 6.27 6.27 0 00-.63 2.55 12.16 12.16 0 00.58 4.09 6.39 6.39 0 01.36 2.07 3.63 3.63 0 01-.84 2.06 5.22 5.22 0 00-.94 2 9.17 9.17 0 00-.26 4.45 7.81 7.81 0 01.14.82A1.21 1.21 0 0158 34.7a6.27 6.27 0 00-2.55 2.4 7.29 7.29 0 00-.7 2.9 2.7 2.7 0 01-.46 1.61 2.14 2.14 0 01-1.08.63A4.35 4.35 0 0051 43.79a7.28 7.28 0 00-1.28 2 6.69 6.69 0 01-.57 1 1.24 1.24 0 01-.48.4 2.77 2.77 0 01-.89.24 3.84 3.84 0 00-1.63.65 9.54 9.54 0 00-1.35.94 6.72 6.72 0 01-1.7 1.08 5.76 5.76 0 01-2.08.43 6.9 6.9 0 00-1.05.12 24.45 24.45 0 01-3.73.48h-.07a24.6 24.6 0 01-3.73-.48 6.9 6.9 0 00-1-.12 5.85 5.85 0 01-2.09-.43 6.72 6.72 0 01-1.77-1.1 9.72 9.72 0 00-1.36-.94 3.9 3.9 0 00-1.64-.65 2.83 2.83 0 01-.89-.24 1.09 1.09 0 01-.48-.4 7.69 7.69 0 01-.58-1 7.08 7.08 0 00-1.3-2 4.47 4.47 0 00-2.2-1.52 2.17 2.17 0 01-1.13-.61 2.64 2.64 0 01-.46-1.6 7.37 7.37 0 00-.75-2.93c-.73-1.32-1.62-2.21-2.27-2.27a1.2 1.2 0 01-.92-.56 1.22 1.22 0 01-.09-1.07 6.58 6.58 0 00-.1-4.62 10.24 10.24 0 00-1-2.1 4.72 4.72 0 01-.9-2.32 6.41 6.41 0 01.37-2.07 11 11 0 00.53-4.1 6.65 6.65 0 00-.7-2.71 6.76 6.76 0 01-.71-2.24 3 3 0 01.78-2.38c.49-.65 1.1-1.45 1.1-4.21 0-3.09-1-4-2.81-5.38A11.31 11.31 0 005.5 0a3.85 3.85 0 00-.9.09C.55 1.1-.16 3.51 0 6.82a14.58 14.58 0 001.09 4.46 9 9 0 01.75 2.92 4.68 4.68 0 01-.24 1.27 9 9 0 00-.25 4.45 8.86 8.86 0 002.53 4.95A1.19 1.19 0 014.32 26c-.05.31-.11.64-.17 1a8.09 8.09 0 00.22 5.14 7 7 0 003.17 3.49c.32.2.62.39.91.61a1.19 1.19 0 01.46 1.16 7.33 7.33 0 001.27 5.23 9.75 9.75 0 003.25 2.94 1.21 1.21 0 01.79.81c.74 2.49 1.36 3.52 3.4 4.4a8.1 8.1 0 002.13.58 3.82 3.82 0 011.69.57 6.64 6.64 0 011 1 5.43 5.43 0 002 1.65 31 31 0 004.75 1.39 14.08 14.08 0 011.42.31 5.58 5.58 0 001.8.21 30 30 0 003.7-.24z" fill="#fff"/><circle class="cls-2" cx="26.63" cy="12.38" r="4.93"/><circle class="cls-2" cx="46.4" cy="12.38" r="4.93"/></g></g></svg>