<svg xmlns="http://www.w3.org/2000/svg" viewBox="0 0 43.44 66.8"><g data-name="Layer 2"><path d="M31.14 39.8h-3.32l1.05-5.4h-2.44l-1.05 5.4h-7.44l-1.05-5.4h-2.44l1.05 5.4h-3.32a1.54 1.54 0 000 3h3.9l1.35 7h-3.67a1.54 1.54 0 000 3H18l2.49 12.86a1.27 1.27 0 001.15 1.14 1.27 1.27 0 001.15-1.14L25.3 52.8h4.26a1.54 1.54 0 000-3h-3.68l1.36-7h3.9a1.54 1.54 0 000-3zM21.66 59l-1.2-6.21h2.4zm1.78-9.21h-3.56l-1.36-7h6.28z" fill="#0ff"/><path d="M41.67 7.11C39.65 2.33 37.11 0 33.89 0c-2.41 0-4.75 1.3-7 2.57-1.89 1.05-3.7 2.05-5.17 2.05s-3.27-1-5.16-2.05C14.3 1.3 12 0 9.54 0 6.33 0 3.79 2.33 1.77 7.11c-6.15 14.57 5.73 26.83 5.85 27a1 1 0 00.74.32h26.72a1 1 0 00.74-.32c.12-.17 12-12.43 5.85-27zm-7 24.28H8.8C7.11 29.5-.86 19.7 3.86 8.53 6 3.57 8.1 3 9.54 3c1.92 0 4 1.17 6.07 2.31s4.13 2.31 6.11 2.31 4-1.12 6.11-2.31S32 3 33.89 3c1.44 0 3.6.57 5.69 5.53 4.77 11.29-3.2 20.95-4.94 22.86z" fill="#fff"/></g></svg>