<svg version="1.1" id="Layer_1" xmlns="http://www.w3.org/2000/svg" xmlns:xlink="http://www.w3.org/1999/xlink" x="0px" y="0px"
	 viewBox="0 0 116.5 234.2" style="enable-background:new 0 0 116.5 234.2;" xml:space="preserve">
<style type="text/css">
	.st0{fill:#00C3FF;}
	.st1{fill:#00FFFF;stroke:#231F20;stroke-width:2;stroke-linecap:round;stroke-linejoin:round;}
	.st2{fill:none;stroke:#313131;stroke-width:2;stroke-linecap:round;stroke-linejoin:round;}
	.st3{fill:none;stroke:#231F20;stroke-width:2;stroke-linecap:round;stroke-linejoin:round;}
	.st4{fill:none;stroke:#231F20;stroke-width:3;stroke-linecap:round;stroke-linejoin:round;}
</style>
<g id="Layer_2_1_">
	<g id="Layer_1-2">
		<path class="st0" d="M59,1c-4.2,0-8.4,0.9-12.2,2.6c13.4,6,23,21.4,23,39.6s-9.5,33.6-23,39.6c3.9,1.7,8,2.6,12.2,2.6
			c19.4,0,35.2-18.9,35.2-42.2S78.5,1,59,1z"/>
		<path class="st1" d="M71.4,43.2c0,23.3-15.8,42.2-35.2,42.2S1,66.6,1,43.2S16.8,1,36.2,1S71.4,19.9,71.4,43.2z"/>
		<path class="st2" d="M112.5,43.2c0-23.3-18.9-42.1-42.1-42.1c-2.2,0-6.1-0.1-6.1-0.1"/>
		<path class="st3" d="M36.2,1h24.6C80.2,1,96,19.9,96,43.2S80.2,85.5,60.8,85.5H36.2"/>
		<path class="st3" d="M112.5,43.2c0,39.1,3,178,3,178s-4.2,12-28.3,12s-28.6-12-28.6-12l2.8-134.9"/>
		<line class="st4" x1="49.2" y1="27.1" x2="52.6" y2="27.1"/>
		<line class="st4" x1="52.4" y1="43.2" x2="55.8" y2="43.2"/>
		<line class="st4" x1="49.2" y1="59.4" x2="52.6" y2="59.4"/>
		<line class="st4" x1="14.9" y1="27.1" x2="18.3" y2="27.1"/>
		<line class="st4" x1="11.2" y1="43.2" x2="14.7" y2="43.2"/>
		<line class="st4" x1="15.6" y1="59.4" x2="19.1" y2="59.4"/>
		<line class="st4" x1="31.7" y1="15.1" x2="35.1" y2="15.1"/>
		<line class="st4" x1="32" y1="70.2" x2="35.5" y2="70.2"/>
	</g>
</g>
</svg>
