<?xml version="1.0" encoding="UTF-8" standalone="no"?>
<!DOCTYPE svg PUBLIC "-//W3C//DTD SVG 1.1//EN" "http://www.w3.org/Graphics/SVG/1.1/DTD/svg11.dtd">
<svg width="100%" height="100%" viewBox="0 0 257 605" version="1.1" xmlns="http://www.w3.org/2000/svg" xmlns:xlink="http://www.w3.org/1999/xlink" xml:space="preserve" xmlns:serif="http://www.serif.com/" style="fill-rule:evenodd;clip-rule:evenodd;stroke-miterlimit:10;">
    <g id="Layer_2_1_" transform="matrix(1,0,0,1,-511,0)">
        <g id="Layer_1-2">
            <path d="M664.8,433.7C666.6,434.7 666.6,436.4 664.8,437.5C662.7,438.5 660.3,438.5 658.3,437.5C656.5,436.5 656.5,434.8 658.3,433.7C660.4,432.6 662.8,432.6 664.8,433.7Z" style="fill:url(#_Linear1);fill-rule:nonzero;"/>
            <path d="M640.4,466.3L640.5,468.2C640.4,467.8 640.4,467.3 640.4,466.9L640.4,466.3Z" style="fill:rgb(255,0,0);fill-rule:nonzero;"/>
            <path d="M655.1,366.9C655,366 655.3,365.1 655.9,364.4L657.6,365.8C657.4,366 657.3,366.3 657.3,366.6L655.1,366.9Z" style="fill:rgb(35,31,32);fill-rule:nonzero;"/>
            <path d="M667.9,366.9L665.8,366.6C665.8,366.3 665.7,366 665.5,365.8L667.2,364.4C667.8,365.1 668.1,366 667.9,366.9Z" style="fill:rgb(35,31,32);fill-rule:nonzero;"/>
            <path d="M661.6,366.7C660.1,366.7 658.6,366.4 657.3,365.7C656.2,365.2 655.5,364.2 655.2,363.1C655.1,362.2 655.3,361.2 656,360.6L657.7,362C657.5,362.2 657.4,362.5 657.4,362.8C657.6,363.3 657.9,363.7 658.4,363.9C660.4,364.9 662.8,364.9 664.9,363.9C665.4,363.7 665.7,363.3 665.9,362.8C665.9,362.5 665.8,362.2 665.6,362L667.3,360.6C667.9,361.3 668.2,362.2 668.1,363.2C667.9,364.3 667.1,365.3 666.1,365.8C664.6,366.4 663.1,366.8 661.6,366.7Z" style="fill:rgb(35,31,32);fill-rule:nonzero;"/>
            <path d="M661.6,362.8C660.1,362.8 658.6,362.5 657.3,361.7C656.2,361.2 655.5,360.2 655.2,359.1C655.1,358.2 655.3,357.2 656,356.6L657.7,358C657.5,358.2 657.4,358.5 657.4,358.8C657.6,359.3 657.9,359.7 658.4,359.9C660.4,360.9 662.8,360.9 664.9,359.9C665.4,359.7 665.7,359.3 665.9,358.8C665.9,358.5 665.8,358.2 665.6,358L667.3,356.6C667.9,357.3 668.2,358.2 668.1,359.2C667.8,360.3 667.1,361.3 666.1,361.8C664.6,362.5 663.1,362.8 661.6,362.8Z" style="fill:rgb(35,31,32);fill-rule:nonzero;"/>
            <path d="M661.6,358.9C660.1,358.9 658.6,358.6 657.3,357.8C656.2,357.3 655.5,356.3 655.2,355.2C655.1,354.3 655.3,353.3 656,352.7L657.7,354.1C657.5,354.3 657.4,354.6 657.4,354.9C657.6,355.4 657.9,355.8 658.4,356C660.4,357 662.8,357 664.9,356C665.4,355.8 665.7,355.4 665.9,354.9C665.9,354.6 665.8,354.3 665.6,354.1L667.3,352.7C667.9,353.4 668.2,354.3 668.1,355.3C667.9,356.4 667.1,357.4 666.1,357.9C664.6,358.6 663.1,359 661.6,358.9Z" style="fill:rgb(35,31,32);fill-rule:nonzero;"/>
            <path d="M661.6,355C660.1,355 658.6,354.7 657.3,353.9C656.2,353.4 655.5,352.4 655.2,351.3C655.1,350.4 655.3,349.4 656,348.8L657.7,350.2C657.5,350.4 657.4,350.7 657.4,351C657.6,351.5 657.9,351.9 658.4,352.1C660.4,353.1 662.8,353.1 664.9,352.1C665.4,351.9 665.7,351.5 665.9,351C665.9,350.7 665.8,350.4 665.6,350.2L667.3,348.8C667.9,349.5 668.2,350.4 668.1,351.4C667.8,352.5 667.1,353.5 666.1,354C664.6,354.7 663.1,355 661.6,355Z" style="fill:rgb(35,31,32);fill-rule:nonzero;"/>
            <path d="M668.1,92.7L662.9,94L660.3,94.9C659.4,95.2 658.3,95.5 657.3,96L653.9,97.4L650.1,99.2C647.5,100.5 644.7,102 641.7,103.6L637,106C635.4,106.8 633.7,107.5 632,108.3L629.4,109.3C628.5,109.6 627.6,110 626.7,110.3L622.5,111.5L621.1,111.8C619.2,112.3 617.2,112.6 615.3,112.9C613.3,113.2 611.3,113.4 609.3,113.4C605.3,113.5 601.4,113.4 597.5,113L591.8,112.2L590.4,112L589,111.7L583.6,110.5L582.3,110.2C581.8,110.1 581.4,110 581,109.8C580.6,109.6 580.1,109.5 579.7,109.4C579.3,109.3 578.8,109.1 578.4,108.9C577.6,108.6 576.8,108.2 576,107.7C573.1,106.1 570.5,104 568.4,101.4C566.7,99.2 565.2,96.8 564,94.3C563.1,92.3 562.4,90.3 561.8,88.2L561,86C560.9,85.3 560.7,84.8 560.6,84.3C560.4,83.4 560.3,82.9 560.3,82.9C560.1,81.7 560.8,80.6 562,80.3C563.1,80.1 564.2,80.8 564.5,81.9L564.5,82.3C564.5,82.3 564.5,82.8 564.6,83.6C564.6,84 564.7,84.6 564.7,85.2C564.7,85.8 564.9,86.6 565,87.4C565.3,89.3 565.8,91.3 566.5,93.1C567.4,95.5 568.6,97.8 570.1,99.8C570.3,100.1 570.5,100.4 570.7,100.6L571.4,101.4C571.9,102 572.4,102.5 572.9,103C573.4,103.5 574.1,104 574.7,104.5C576,105.4 577.4,106.2 578.9,106.8C579.3,107 579.7,107.1 580,107.2C580.4,107.4 580.8,107.5 581.2,107.6C581.6,107.7 582.1,107.9 582.4,107.9L583.7,108.2L589.1,109.4L590.5,109.7L597.5,110.7C601.3,111.1 605.2,111.2 609,111C612.8,110.8 616.6,110.2 620.3,109.3L621.7,109L623,108.6L625.6,107.7C626.5,107.4 627.3,107.1 628.2,106.7L630.7,105.7C632.3,104.9 633.9,104.1 635.5,103.3L640,100.8L648.3,96.1L652.1,94.1L655.6,92.4C656.7,91.8 657.8,91.5 658.8,91.1L661.6,90L666.7,88.4C667.8,88 669.1,88.5 669.5,89.7C669.9,90.9 669.4,92.1 668.2,92.5C668.3,92.7 668.2,92.7 668.1,92.7Z" style="fill:white;fill-rule:nonzero;"/>
            <path d="M667.5,92.8C666.3,92.8 665.3,91.8 665.3,90.6C665.3,89.6 666,88.7 667,88.5C676.4,86.3 686.5,86.8 696.4,87.3C718,88.5 738.5,89.6 753.5,64.3C753.7,64 753.7,63.7 753.7,63.4C753,61 747,57.7 743,55.5C738.2,52.8 735.6,51.4 734.8,49.4C725.8,27.4 714.4,13.9 699.8,7.9C684.3,1.6 664.7,3.7 639.8,14.4C633,17.3 625.5,16.4 617.6,15.5C603.7,13.8 589.3,12.1 577.3,32.7L577.2,32.9L576.4,34C570.4,42.3 563.5,73.2 564.7,82.3C564.8,83.5 563.9,84.5 562.7,84.7C561.6,84.8 560.6,84 560.4,82.9C559.1,72.7 566.2,40.8 572.9,31.5L573.7,30.5C587.1,7.5 603.6,9.5 618.2,11.3C625.5,12.2 632.4,13 638.2,10.5C664.2,-0.7 685,-2.9 701.6,4C717.3,10.4 729.5,24.8 738.9,47.9C739.4,48.7 742.7,50.5 745.2,51.9C750.9,55 756.8,58.3 757.9,62.5C758.3,63.9 758.1,65.5 757.3,66.8C740.9,94.3 718.2,93.1 696.2,91.9C686.2,91.4 676.8,90.9 668.1,93C667.8,92.8 667.7,92.8 667.5,92.8Z" style="fill:white;fill-rule:nonzero;"/>
            <path d="M600.3,10.2L601.3,10.1L602.4,10C602.8,9.9 603.4,9.9 604.1,9.9C604.8,9.8 605.4,9.8 606.1,9.8C606.8,9.8 607.6,9.8 608.5,9.9C609.4,9.9 610.3,10 611.2,10.2C612.2,10.3 613.1,10.5 614.2,10.7C616.4,11.2 618.5,11.9 620.6,12.7C622.9,13.6 625.1,14.7 627.2,16C629.4,17.3 631.6,18.9 633.6,20.5C635.7,22.2 637.6,24 639.5,26C641.3,28 643,30 644.6,32.2C645.4,33.2 646.1,34.3 646.9,35.4C647.7,36.5 648.3,37.6 648.9,38.6C650.2,40.7 651.3,42.9 652.3,44.9C653.3,46.9 654.2,48.9 654.9,50.8C655.6,52.7 656.3,54.3 656.8,55.9C657.3,57.5 657.7,58.8 658.1,59.9C658.8,62.1 659.1,63.4 659.1,63.4C659.1,63.4 658.7,62.1 657.9,60C657.5,58.9 657,57.6 656.4,56.1C655.8,54.6 655.1,52.9 654.2,51.1C653.3,49.3 652.4,47.4 651.3,45.4C650.2,43.4 649,41.4 647.6,39.3C646.9,38.3 646.2,37.3 645.5,36.2C644.8,35.1 644,34.2 643.1,33.2C641.5,31.2 639.7,29.3 637.8,27.5C636,25.7 634,24 631.9,22.5C629.9,21 627.8,19.7 625.6,18.5C623.6,17.4 621.5,16.5 619.3,15.7C617.4,15 615.4,14.5 613.4,14.2C612.5,14.1 611.6,13.9 610.7,13.9C609.8,13.9 609,13.8 608.3,13.8L606.2,13.8C605.6,13.8 605,13.9 604.4,13.9C603.9,14 603.4,14 603,14.1L601.9,14.3L601,14.5C599.8,14.7 598.7,13.9 598.5,12.7C598.3,11.5 599.1,10.4 600.3,10.2Z" style="fill:white;fill-rule:nonzero;"/>
            <path d="M745.5,56.7L742.4,56.2C741.4,56 740.3,55.9 738.9,55.7C737.5,55.5 736,55.4 734.4,55.3C732.8,55.2 730.9,55.1 729,55.1C728,55.1 727.1,55.1 726.1,55.2C725.1,55.3 724.1,55.3 723,55.4C721.9,55.5 720.9,55.6 719.8,55.8L716.6,56.3C714.5,56.8 712.3,57.2 710.1,57.9C707.9,58.6 705.8,59.3 703.7,60C702.7,60.4 701.6,60.8 700.6,61.2C699.6,61.6 698.6,62 697.6,62.4C695.7,63.3 693.8,64.1 692.1,65C690.4,65.9 688.7,66.7 687.2,67.5L683.1,69.8L680,71.6L677.3,73.2L679.9,71.4L686.8,66.8C688.2,65.8 689.8,65 691.5,64C693.2,63 695,62 696.9,61C697.8,60.5 698.8,60 699.8,59.5C700.8,59 701.8,58.5 702.8,58.1C704.9,57.3 707,56.3 709.2,55.6C711.4,54.9 713.6,54.2 715.8,53.6L719.1,52.8C720.2,52.6 721.3,52.4 722.4,52.2C723.5,52 724.5,51.9 725.6,51.8C726.7,51.7 727.7,51.6 728.7,51.5C730.7,51.3 732.6,51.3 734.3,51.3C736,51.3 737.6,51.4 739,51.5C740.4,51.6 741.7,51.7 742.7,51.8L745.8,52.1C747,52.2 747.9,53.2 747.8,54.4C747.7,55.6 746.7,56.5 745.5,56.4L745.4,56.4L745.5,56.7Z" style="fill:white;fill-rule:nonzero;"/>
            <path d="M576.9,176C575.9,176 575,175.3 574.8,174.2C573.2,165.8 571.1,157.9 569,149.6C565.4,135.8 561.7,121.6 560.2,104.6C559.4,95.6 559.2,86.6 559.8,77.6C559.9,76.4 561,75.5 562.2,75.6C563.3,75.7 564.2,76.6 564.2,77.8C564.1,79.2 564.2,80.6 564.3,81.9C566.1,95.6 572.4,104.1 582.4,106.6C613.3,114.5 627.4,106.8 642.3,98.6C649.6,94.6 657.1,90.5 666.7,88.1C676,85.9 686.2,86.4 696,86.9C717.7,88.1 738.1,89.2 753.1,63.9C753.3,63.6 753.3,63.3 753.3,63C753.2,61.9 753.8,60.9 754.9,60.6L755.1,60.6C756.3,60.3 757.4,61 757.8,62.1C757.8,62.2 757.8,62.3 757.9,62.4C762,90.8 759.4,106.3 756.2,120.9C755.7,123.3 755.1,125.7 754.5,128.1C751.9,139.2 748.9,151.8 747.7,169.9C747.6,171.1 746.6,172 745.4,171.9C744.2,171.8 743.3,170.8 743.4,169.6C744.7,151.2 747.7,138.4 750.3,127.2C750.9,124.8 751.4,122.4 751.9,120.1C754.8,107.1 757.1,93.4 754.4,70.2C738.3,93.7 716.7,92.5 695.8,91.4C685.8,90.9 676.4,90.4 667.7,92.5C658.7,94.7 651.4,98.7 644.4,102.5C629.4,110.7 613.9,119.3 581.4,110.9C573.8,109 567.4,103.8 564.1,96.7C564.2,99.3 564.4,101.8 564.6,104.3C566.1,121 569.7,135 573.3,148.6C575.4,156.6 577.6,164.9 579.2,173.5C579.4,174.7 578.7,175.8 577.5,176L576.9,176Z" style="fill:white;fill-rule:nonzero;"/>
            <path d="M661,239.4C615.3,239.4 581.6,213.8 575.1,174.1C574.9,172.9 575.7,171.8 576.9,171.6C578.1,171.4 579.2,172.2 579.4,173.4C585.5,210.8 617.6,235 661,235C708.9,235 743.7,203.4 743.7,159.9C743.7,158.7 744.7,157.7 745.9,157.7C747.1,157.7 748.1,158.7 748.1,159.9C748.1,206 711.5,239.4 661,239.4Z" style="fill:white;fill-rule:nonzero;"/>
            <path d="M627.6,224.9L625.9,224C624.3,223.1 622.7,222.1 621.3,221C619,219.2 617,217.1 615.3,214.7C613.1,211.4 612,207.6 612.2,203.6C612.6,198.9 614.5,194.5 617.7,191C619.4,189.1 621.2,187.5 623.2,186C623.7,185.6 624.2,185.3 624.8,184.9L626.5,183.8L629.8,182C634.6,179.7 639.8,177.9 645,176.9C655.8,174.6 667,174.7 677.8,177C683.1,178.1 688.1,179.8 693,182.2C697.6,184.4 701.7,187.4 705.2,191.1C708.4,194.5 710.4,198.9 710.9,203.6C711.2,207.5 710.1,211.4 707.9,214.7C706.3,217.1 704.3,219.3 702,221.1C700.5,222.2 699,223.2 697.4,224.1L695.7,225L697.3,223.9C698.8,222.8 700.2,221.7 701.5,220.4C703.5,218.5 705.2,216.3 706.5,213.8C708.2,210.8 708.8,207.2 708.4,203.8C707.7,199.8 705.7,196.1 702.8,193.3C699.5,190.1 695.6,187.4 691.3,185.6C686.7,183.6 681.9,182.1 676.9,181.1C671.8,180.1 666.6,179.6 661.4,179.6C656.2,179.6 651.1,180.1 646,181.1C641.1,182 636.3,183.5 631.7,185.5L628.4,187.2L625.4,189C623.5,190.2 621.8,191.7 620.2,193.3C617.3,196.1 615.4,199.9 614.7,203.9C614.3,207.4 615.1,210.9 616.8,213.9C618.2,216.3 619.9,218.5 621.9,220.4C623.2,221.6 624.6,222.8 626.1,223.9L627.6,224.9Z" style="fill:white;fill-rule:nonzero;"/>
            <g opacity="0.7">
                <path d="M661.6,500.3C660.3,500.3 659,500 657.8,499.4C656.2,498.8 655.4,497.1 656,495.6C656.3,494.8 657,494.1 657.8,493.8C660.2,492.6 663,492.6 665.4,493.8C666.5,494.3 667.2,495.4 667.3,496.6C667.2,497.8 666.5,498.9 665.4,499.4C664.3,500 663,500.3 661.6,500.3ZM661.6,495C660.7,495 659.7,495.2 658.9,495.6C658.4,495.9 658.1,496.2 658.1,496.5C658.1,496.8 658.4,497.2 658.9,497.5C660.6,498.3 662.6,498.3 664.3,497.5C664.8,497.2 665.1,496.9 665.1,496.6C665.1,496.3 664.8,495.9 664.3,495.6C663.5,495.2 662.5,495 661.6,495Z" style="fill:rgb(35,31,32);fill-rule:nonzero;"/>
                <rect x="665.1" y="435.5" width="2.2" height="61" style="fill:rgb(35,31,32);"/>
                <rect x="655.9" y="435.5" width="2.2" height="61" style="fill:rgb(35,31,32);"/>
            </g>
            <path d="M661.7,458.4C656.3,458.5 650.9,457.2 646.1,454.7C641.8,452.2 639.3,448.8 639.3,445.1C639.3,444.5 639.8,444 640.4,444C641,444 641.5,444.5 641.5,445.1C641.5,448 643.6,450.7 647.2,452.8C655.2,457.4 668.2,457.4 676.1,452.9C679.8,450.8 681.8,448 681.7,445.1C681.7,444.5 682.2,444 682.8,444C683.4,444 683.9,444.5 683.9,445.1C683.9,448.8 681.6,452.2 677.2,454.7C672.4,457.2 667.1,458.5 661.7,458.4Z" style="fill:rgb(35,31,32);fill-rule:nonzero;"/>
            <path d="M661.7,480.1C656.3,480.2 650.9,478.9 646.1,476.4C641.8,473.9 639.3,470.5 639.3,466.8C639.3,466.2 639.8,465.7 640.4,465.7C641,465.7 641.5,466.2 641.5,466.8C641.5,469.7 643.6,472.4 647.2,474.5C655.2,479.1 668.2,479.1 676.1,474.6C679.8,472.5 681.8,469.7 681.7,466.8C681.7,466.2 682.2,465.7 682.8,465.7C683.4,465.7 683.9,466.2 683.9,466.8C683.9,470.5 681.6,473.9 677.2,476.5C672.4,479 667.1,480.2 661.7,480.1Z" style="fill:rgb(35,31,32);fill-rule:nonzero;"/>
            <path d="M661.7,488C656,488.1 650.3,486.7 645.2,484C641.4,481.8 639,479 638.3,475.9C637.7,473.4 638.2,470.8 639.7,468.7L641.5,469.9C640.4,471.5 640,473.5 640.4,475.4C641,477.9 643,480.3 646.3,482.1C654.8,487 668.5,487 676.9,482.2C680.1,480.3 682.2,478 682.7,475.4C683.1,473.4 682.6,471.3 681.4,469.7L683.2,468.5C684.8,470.6 685.4,473.3 684.9,475.9C684.2,479.1 681.8,481.9 678,484.1C673,486.8 667.4,488.1 661.7,488Z" style="fill:rgb(35,31,32);fill-rule:nonzero;"/>
            <path d="M661.7,493.3C656.1,493.4 650.5,492.1 645.5,489.4C641.8,487.3 639.4,484.5 638.7,481.4C638.1,478.9 638.6,476.4 640.1,474.3L641.9,475.5C640.8,477.1 640.4,479 640.8,480.9C641.4,483.4 643.4,485.7 646.6,487.5C654.9,492.3 668.4,492.3 676.6,487.6C679.8,485.8 681.8,483.5 682.3,481C682.7,479 682.2,477 681,475.4L682.8,474.1C684.4,476.2 685,478.8 684.5,481.4C683.8,484.5 681.5,487.3 677.7,489.4C672.8,492 667.3,493.4 661.7,493.3Z" style="fill:rgb(35,31,32);fill-rule:nonzero;"/>
            <path d="M661.7,498.5C656.2,498.6 650.7,497.3 645.8,494.7C642.1,492.6 639.8,489.9 639.1,486.8C638.6,484.4 639.1,481.8 640.5,479.8L642.3,481C641.2,482.5 640.8,484.5 641.2,486.3C641.8,488.7 643.7,491 646.9,492.8C655.1,497.5 668.3,497.5 676.4,492.8C679.5,491 681.5,488.8 682,486.3C682.4,484.4 681.9,482.4 680.7,480.8L682.5,479.5C684.1,481.5 684.7,484.2 684.2,486.7C683.5,489.8 681.2,492.5 677.6,494.6C672.6,497.3 667.2,498.6 661.7,498.5Z" style="fill:rgb(35,31,32);fill-rule:nonzero;"/>
            <path d="M661.7,503.8C656.3,503.9 650.9,502.6 646.1,500.1C642.5,498 640.2,495.3 639.5,492.3C639,489.9 639.5,487.4 640.9,485.4L642.7,486.6C641.6,488.1 641.2,490 641.6,491.8C642.1,494.2 644.1,496.4 647.1,498.2C655.1,502.8 668,502.8 675.9,498.2C679,496.4 680.9,494.2 681.4,491.8C681.8,489.9 681.3,488 680.1,486.4L681.9,485.1C683.5,487.1 684.1,489.7 683.6,492.2C683,495.2 680.7,497.9 677.1,500C672.4,502.6 667.1,503.9 661.7,503.8Z" style="fill:rgb(35,31,32);fill-rule:nonzero;"/>
            <path d="M661.7,509C656.4,509.1 651.1,507.8 646.4,505.3C642.9,503.3 640.6,500.6 639.9,497.7C639.4,495.3 639.9,492.9 641.3,490.9L643.1,492.1C642,493.6 641.6,495.4 642,497.2C642.5,499.5 644.4,501.7 647.4,503.4C655.2,507.9 667.9,507.9 675.6,503.5C678.6,501.8 680.5,499.6 681,497.3C681.4,495.4 680.9,493.5 679.7,492L681.5,490.7C683,492.7 683.7,495.2 683.2,497.7C682.6,500.7 680.4,503.3 676.8,505.4C672.2,507.9 667,509.1 661.7,509Z" style="fill:rgb(35,31,32);fill-rule:nonzero;"/>
            <path d="M661.7,514.3C656.5,514.4 651.3,513.2 646.7,510.7C643.2,508.7 641,506.1 640.4,503.2C639.9,500.9 640.4,498.4 641.8,496.5L643.6,497.7C642.5,499.1 642.1,501 642.5,502.7C643,505 644.9,507.1 647.8,508.8C655.5,513.2 667.8,513.2 675.5,508.9C678.4,507.2 680.3,505.1 680.7,502.8C681,501 680.6,499.1 679.4,497.7L681.1,496.4C682.6,498.3 683.2,500.8 682.8,503.3C682.2,506.2 680,508.8 676.5,510.8C672,513.2 666.9,514.4 661.7,514.3Z" style="fill:rgb(35,31,32);fill-rule:nonzero;"/>
            <path d="M661.7,519.5C656.6,519.6 651.5,518.4 647,516C643.6,514 641.4,511.5 640.8,508.6C640.3,506.3 640.8,503.9 642.3,502L644.1,503.3C643,504.7 642.6,506.5 643,508.2C643.5,510.4 645.3,512.5 648.2,514.2C655.7,518.5 667.8,518.5 675.2,514.3C678.1,512.6 679.9,510.6 680.3,508.3C680.6,506.5 680.2,504.7 679,503.3L680.7,502C682.2,503.9 682.8,506.4 682.4,508.8C681.8,511.7 679.7,514.2 676.2,516.2C671.7,518.4 666.8,519.6 661.7,519.5Z" style="fill:rgb(35,31,32);fill-rule:nonzero;"/>
            <path d="M661.7,524.8C656.7,524.9 651.7,523.7 647.3,521.3C643.9,519.4 641.8,516.8 641.2,514C640.7,511.7 641.3,509.3 642.7,507.5L644.5,508.8C643.5,510.2 643.1,511.9 643.4,513.6C643.9,515.8 645.6,517.8 648.5,519.5C655.8,523.7 667.7,523.7 675,519.5C677.8,517.9 679.5,515.8 680,513.7C680.3,512 679.9,510.2 678.8,508.8L680.5,507.5C682,509.4 682.6,511.8 682.2,514.2C681.6,517 679.5,519.5 676.2,521.5C671.6,523.7 666.7,524.9 661.7,524.8Z" style="fill:rgb(35,31,32);fill-rule:nonzero;"/>
            <path d="M661.7,530C656.8,530.1 651.9,528.9 647.6,526.6C644.3,524.7 642.2,522.2 641.6,519.4C641.1,517.1 641.7,514.8 643.1,513L644.9,514.3C643.9,515.6 643.5,517.3 643.8,519C644.3,521.1 646,523.1 648.8,524.7C656,528.8 667.6,528.9 674.7,524.7C677.4,523.1 679.2,521.1 679.6,519C679.9,517.3 679.5,515.5 678.4,514.2L680.1,512.9C681.6,514.7 682.2,517.1 681.8,519.4C681.2,522.2 679.2,524.7 675.9,526.6C671.4,529 666.6,530.1 661.7,530Z" style="fill:rgb(35,31,32);fill-rule:nonzero;"/>
            <path d="M661.7,535.3C656.9,535.4 652.1,534.3 647.9,532C644.7,530.1 642.6,527.7 642,525C641.6,522.8 642.1,520.5 643.5,518.7L645.2,520C644.2,521.3 643.8,523 644.1,524.6C644.5,526.7 646.2,528.6 648.9,530.2C655.9,534.2 667.2,534.3 674.2,530.2C676.9,528.7 678.5,526.7 679,524.6C679.3,522.9 678.8,521.2 677.8,519.9L679.5,518.6C681,520.4 681.6,522.8 681.2,525.1C680.7,527.8 678.6,530.3 675.4,532.1C671.2,534.2 666.5,535.4 661.7,535.3Z" style="fill:rgb(35,31,32);fill-rule:nonzero;"/>
            <path d="M661.7,540.5C657,540.6 652.4,539.5 648.2,537.3C645,535.5 643,533 642.4,530.4C642,528.2 642.5,525.9 643.9,524.2L645.6,525.5C644.6,526.8 644.2,528.4 644.5,530C644.9,532 646.6,534 649.2,535.5C656,539.4 667.1,539.5 673.9,535.5C676.5,534 678.1,532.1 678.6,530.1C678.9,528.5 678.4,526.8 677.4,525.5L679.1,524.2C680.6,526 681.2,528.3 680.8,530.5C680.3,533.2 678.3,535.6 675.1,537.4C670.9,539.5 666.4,540.6 661.7,540.5Z" style="fill:rgb(35,31,32);fill-rule:nonzero;"/>
            <path d="M661.7,545.8C657.1,545.9 652.6,544.8 648.5,542.6C645.4,540.8 643.4,538.4 642.9,535.8C642.5,533.6 643,531.4 644.4,529.7L646.1,531C645.1,532.2 644.7,533.8 645,535.4C645.4,537.4 647,539.3 649.6,540.7C656.3,544.5 667.1,544.6 673.7,540.7C676.2,539.2 677.8,537.4 678.2,535.4C678.5,533.8 678,532.2 677,531L678.7,529.7C680.1,531.4 680.8,533.7 680.4,535.9C679.9,538.5 677.9,540.9 674.8,542.7C670.8,544.8 666.3,545.9 661.7,545.8Z" style="fill:rgb(35,31,32);fill-rule:nonzero;"/>
            <path d="M661.7,551C657.2,551.1 652.8,550.1 648.8,548C645.7,546.2 643.8,543.9 643.3,541.3C642.9,539.2 643.5,537 644.8,535.3L646.5,536.6C645.5,537.8 645.1,539.4 645.4,540.9C645.8,542.8 647.4,544.7 649.9,546.1C656.4,549.9 666.9,549.9 673.4,546.1C675.9,544.7 677.4,542.9 677.8,540.9C678.1,539.3 677.6,537.7 676.6,536.5L678.3,535.2C679.7,536.9 680.3,539.1 679.9,541.3C679.4,543.9 677.5,546.2 674.4,548C670.5,550.1 666.1,551.1 661.7,551Z" style="fill:rgb(35,31,32);fill-rule:nonzero;"/>
            <path d="M661.7,556.3C657.3,556.4 653,555.4 649.1,553.3C646.1,551.6 644.2,549.3 643.7,546.7C643.3,544.6 643.9,542.4 645.2,540.8L646.9,542.1C645.9,543.3 645.5,544.8 645.8,546.3C646.2,548.2 647.7,550 650.2,551.4C656.5,555.1 666.8,555.1 673.1,551.4C675.5,550 677,548.2 677.4,546.4C677.6,544.9 677.2,543.3 676.2,542.1L677.9,540.7C679.3,542.4 679.9,544.6 679.6,546.7C679.1,549.2 677.2,551.5 674.3,553.2C670.3,555.3 666,556.4 661.7,556.3Z" style="fill:rgb(35,31,32);fill-rule:nonzero;"/>
            <path d="M661.7,561.5C657.4,561.6 653.2,560.6 649.4,558.6C646.4,556.9 644.6,554.6 644.1,552.2C643.7,550.1 644.3,548 645.7,546.4L647.4,547.7C646.4,548.8 646,550.3 646.3,551.8C646.7,553.6 648.1,555.4 650.5,556.8C656.7,560.4 666.7,560.4 672.8,556.8C675.2,555.4 676.6,553.7 677,551.9C677.2,550.4 676.8,548.9 675.8,547.7L677.5,546.3C678.9,547.9 679.5,550.1 679.1,552.2C678.6,554.7 676.8,556.9 673.9,558.6C670.1,560.6 665.9,561.6 661.7,561.5Z" style="fill:rgb(35,31,32);fill-rule:nonzero;"/>
            <path d="M661.7,566.8C657.5,566.9 653.4,565.9 649.7,563.9C646.8,562.2 645,560 644.5,557.6C644.1,555.5 644.7,553.4 646.1,551.8L647.8,553.1C646.8,554.2 646.4,555.7 646.7,557.1C647,558.9 648.5,560.6 650.8,561.9C656.8,565.4 666.5,565.4 672.5,561.9C674.8,560.6 676.2,558.9 676.6,557.1C676.8,555.7 676.4,554.2 675.4,553.1L677.1,551.7C678.5,553.3 679.1,555.4 678.7,557.5C678.2,559.9 676.5,562.1 673.6,563.8C669.9,565.9 665.8,566.9 661.7,566.8Z" style="fill:rgb(35,31,32);fill-rule:nonzero;"/>
            <path d="M661.7,572C657.6,572.1 653.6,571.1 650,569.2C647.2,567.6 645.4,565.4 645,563C644.6,561 645.2,558.9 646.6,557.3L648.3,558.7C647.4,559.8 646.9,561.2 647.2,562.6C647.5,564.3 648.9,566 651.2,567.3C657,570.7 666.5,570.7 672.3,567.3C674.5,566 675.9,564.4 676.2,562.6C676.4,561.2 676,559.7 675,558.7L676.7,557.3C678.1,558.9 678.7,560.9 678.3,563C677.9,565.4 676.1,567.5 673.3,569.1C669.7,571.1 665.7,572.1 661.7,572Z" style="fill:rgb(35,31,32);fill-rule:nonzero;"/>
            <path d="M661.7,577.3C657.7,577.4 653.8,576.4 650.3,574.6C647.5,573 645.8,570.8 645.4,568.5C645.1,566.5 645.7,564.5 647,562.9L648.7,564.3C647.8,565.3 647.4,566.7 647.6,568.1C647.9,569.8 649.3,571.4 651.5,572.7C657.2,576 666.3,576 672,572.7C674.2,571.5 675.5,569.9 675.8,568.2C676,566.8 675.6,565.4 674.6,564.4L676.3,563C677.7,564.5 678.3,566.6 677.9,568.6C677.5,570.9 675.8,573 673,574.6C669.5,576.4 665.6,577.3 661.7,577.3Z" style="fill:rgb(35,31,32);fill-rule:nonzero;"/>
            <path d="M661.7,582.5C657.8,582.6 654,581.7 650.6,579.8C647.9,578.2 646.2,576.1 645.8,573.8C645.5,571.8 646.1,569.8 647.4,568.3L649.1,569.7C648.2,570.7 647.8,572.1 648,573.4C648.3,575 649.6,576.6 651.8,577.9C657.3,581.1 666.2,581.1 671.7,577.9C673.8,576.7 675.1,575.1 675.4,573.5C675.6,572.1 675.2,570.8 674.2,569.8L675.9,568.4C677.3,569.9 677.9,571.9 677.5,573.9C677.1,576.2 675.4,578.2 672.7,579.8C669.3,581.7 665.5,582.6 661.7,582.5Z" style="fill:rgb(35,31,32);fill-rule:nonzero;"/>
            <path d="M661.7,587.8C657.9,587.9 654.2,587 650.9,585.2C648.2,583.7 646.6,581.6 646.2,579.4C645.9,577.5 646.5,575.5 647.8,574L649.5,575.4C648.6,576.4 648.2,577.7 648.4,579C648.7,580.6 650,582.1 652.1,583.3C657.4,586.4 666.1,586.4 671.4,583.3C673.4,582.1 674.7,580.6 675,579C675.2,577.7 674.8,576.4 673.8,575.4L675.5,574C676.8,575.5 677.4,577.4 677.1,579.4C676.7,581.6 675.1,583.7 672.5,585.2C669.1,587 665.4,587.8 661.7,587.8Z" style="fill:rgb(35,31,32);fill-rule:nonzero;"/>
            <path d="M661.7,587.8C657.9,587.9 654.2,587 650.9,585.2C648.2,583.7 646.6,581.6 646.2,579.4C645.9,577.5 646.5,575.5 647.8,574L649.5,575.4C648.6,576.4 648.2,577.7 648.4,579C648.7,580.6 650,582.1 652.1,583.3C657.4,586.4 666.1,586.4 671.4,583.3C673.4,582.1 674.7,580.6 675,579C675.2,577.7 674.8,576.4 673.8,575.4L675.5,574C676.8,575.5 677.4,577.4 677.1,579.4C676.7,581.6 675.1,583.7 672.5,585.2C669.1,587 665.4,587.8 661.7,587.8Z" style="fill:rgb(35,31,32);fill-rule:nonzero;"/>
            <path d="M661.7,587.8C657.9,587.9 654.2,587 650.9,585.2C648.2,583.7 646.6,581.6 646.2,579.4C645.9,577.5 646.5,575.5 647.8,574L649.5,575.4C648.6,576.4 648.2,577.7 648.4,579C648.7,580.6 650,582.1 652.1,583.3C657.4,586.4 666.1,586.4 671.4,583.3C673.4,582.1 674.7,580.6 675,579C675.2,577.7 674.8,576.4 673.8,575.4L675.5,574C676.8,575.5 677.4,577.4 677.1,579.4C676.7,581.6 675.1,583.7 672.5,585.2C669.1,587 665.4,587.8 661.7,587.8Z" style="fill:rgb(35,31,32);fill-rule:nonzero;"/>
            <path d="M661.7,587.8C657.9,587.9 654.2,587 650.9,585.2C648.2,583.7 646.6,581.6 646.2,579.4C645.9,577.5 646.5,575.5 647.8,574L649.5,575.4C648.6,576.4 648.2,577.7 648.4,579C648.7,580.6 650,582.1 652.1,583.3C657.4,586.4 666.1,586.4 671.4,583.3C673.4,582.1 674.7,580.6 675,579C675.2,577.7 674.8,576.4 673.8,575.4L675.5,574C676.8,575.5 677.4,577.4 677.1,579.4C676.7,581.6 675.1,583.7 672.5,585.2C669.1,587 665.4,587.8 661.7,587.8Z" style="fill:rgb(35,31,32);fill-rule:nonzero;"/>
            <path d="M661.7,587.8C657.9,587.9 654.2,587 650.9,585.2C648.2,583.7 646.6,581.6 646.2,579.4C645.9,577.5 646.5,575.5 647.8,574L649.5,575.4C648.6,576.4 648.2,577.7 648.4,579C648.7,580.6 650,582.1 652.1,583.3C657.4,586.4 666.1,586.4 671.4,583.3C673.4,582.1 674.7,580.6 675,579C675.2,577.7 674.8,576.4 673.8,575.4L675.5,574C676.8,575.5 677.4,577.4 677.1,579.4C676.7,581.6 675.1,583.7 672.5,585.2C669.1,587 665.4,587.8 661.7,587.8Z" style="fill:rgb(35,31,32);fill-rule:nonzero;"/>
            <path d="M661.7,587.8C657.9,587.9 654.2,587 650.9,585.2C648.2,583.7 646.6,581.6 646.2,579.4C645.9,577.5 646.5,575.5 647.8,574L649.5,575.4C648.6,576.4 648.2,577.7 648.4,579C648.7,580.6 650,582.1 652.1,583.3C657.4,586.4 666.1,586.4 671.4,583.3C673.4,582.1 674.7,580.6 675,579C675.2,577.7 674.8,576.4 673.8,575.4L675.5,574C676.8,575.5 677.4,577.4 677.1,579.4C676.7,581.6 675.1,583.7 672.5,585.2C669.1,587 665.4,587.8 661.7,587.8Z" style="fill:rgb(35,31,32);fill-rule:nonzero;"/>
            <path d="M661.7,587.8C657.9,587.9 654.2,587 650.9,585.2C648.2,583.7 646.6,581.6 646.2,579.4C645.9,577.5 646.5,575.5 647.8,574L649.5,575.4C648.6,576.4 648.2,577.7 648.4,579C648.7,580.6 650,582.1 652.1,583.3C657.4,586.4 666.1,586.4 671.4,583.3C673.4,582.1 674.7,580.6 675,579C675.2,577.7 674.8,576.4 673.8,575.4L675.5,574C676.8,575.5 677.4,577.4 677.1,579.4C676.7,581.6 675.1,583.7 672.5,585.2C669.1,587 665.4,587.8 661.7,587.8Z" style="fill:rgb(35,31,32);fill-rule:nonzero;"/>
            <path d="M661.7,587.8C657.9,587.9 654.2,587 650.9,585.2C648.2,583.7 646.6,581.6 646.2,579.4C645.9,577.5 646.5,575.5 647.8,574L649.5,575.4C648.6,576.4 648.2,577.7 648.4,579C648.7,580.6 650,582.1 652.1,583.3C657.4,586.4 666.1,586.4 671.4,583.3C673.4,582.1 674.7,580.6 675,579C675.2,577.7 674.8,576.4 673.8,575.4L675.5,574C676.8,575.5 677.4,577.4 677.1,579.4C676.7,581.6 675.1,583.7 672.5,585.2C669.1,587 665.4,587.8 661.7,587.8Z" style="fill:rgb(35,31,32);fill-rule:nonzero;"/>
            <path d="M661.7,587.8C657.9,587.9 654.2,587 650.9,585.2C648.2,583.7 646.6,581.6 646.2,579.4C645.9,577.5 646.5,575.5 647.8,574L649.5,575.4C648.6,576.4 648.2,577.7 648.4,579C648.7,580.6 650,582.1 652.1,583.3C657.4,586.4 666.1,586.4 671.4,583.3C673.4,582.1 674.7,580.6 675,579C675.2,577.7 674.8,576.4 673.8,575.4L675.5,574C676.8,575.5 677.4,577.4 677.1,579.4C676.7,581.6 675.1,583.7 672.5,585.2C669.1,587 665.4,587.8 661.7,587.8Z" style="fill:rgb(35,31,32);fill-rule:nonzero;"/>
            <path d="M661.7,587.8C657.9,587.9 654.2,587 650.9,585.2C648.2,583.7 646.6,581.6 646.2,579.4C645.9,577.5 646.5,575.5 647.8,574L649.5,575.4C648.6,576.4 648.2,577.7 648.4,579C648.7,580.6 650,582.1 652.1,583.3C657.4,586.4 666.1,586.4 671.4,583.3C673.4,582.1 674.7,580.6 675,579C675.2,577.7 674.8,576.4 673.8,575.4L675.5,574C676.8,575.5 677.4,577.4 677.1,579.4C676.7,581.6 675.1,583.7 672.5,585.2C669.1,587 665.4,587.8 661.7,587.8Z" style="fill:rgb(35,31,32);fill-rule:nonzero;"/>
            <path d="M661.7,587.8C657.9,587.9 654.2,587 650.9,585.2C648.2,583.7 646.6,581.6 646.2,579.4C645.9,577.5 646.5,575.5 647.8,574L649.5,575.4C648.6,576.4 648.2,577.7 648.4,579C648.7,580.6 650,582.1 652.1,583.3C657.4,586.4 666.1,586.4 671.4,583.3C673.4,582.1 674.7,580.6 675,579C675.2,577.7 674.8,576.4 673.8,575.4L675.5,574C676.8,575.5 677.4,577.4 677.1,579.4C676.7,581.6 675.1,583.7 672.5,585.2C669.1,587 665.4,587.8 661.7,587.8Z" style="fill:rgb(35,31,32);fill-rule:nonzero;"/>
            <path d="M661.7,587.8C657.9,587.9 654.2,587 650.9,585.2C648.2,583.7 646.6,581.6 646.2,579.4C645.9,577.5 646.5,575.5 647.8,574L649.5,575.4C648.6,576.4 648.2,577.7 648.4,579C648.7,580.6 650,582.1 652.1,583.3C657.4,586.4 666.1,586.4 671.4,583.3C673.4,582.1 674.7,580.6 675,579C675.2,577.7 674.8,576.4 673.8,575.4L675.5,574C676.8,575.5 677.4,577.4 677.1,579.4C676.7,581.6 675.1,583.7 672.5,585.2C669.1,587 665.4,587.8 661.7,587.8Z" style="fill:rgb(35,31,32);fill-rule:nonzero;"/>
            <path d="M661.7,587.8C657.9,587.9 654.2,587 650.9,585.2C648.2,583.7 646.6,581.6 646.2,579.4C645.9,577.5 646.5,575.5 647.8,574L649.5,575.4C648.6,576.4 648.2,577.7 648.4,579C648.7,580.6 650,582.1 652.1,583.3C657.4,586.4 666.1,586.4 671.4,583.3C673.4,582.1 674.7,580.6 675,579C675.2,577.7 674.8,576.4 673.8,575.4L675.5,574C676.8,575.5 677.4,577.4 677.1,579.4C676.7,581.6 675.1,583.7 672.5,585.2C669.1,587 665.4,587.8 661.7,587.8Z" style="fill:rgb(35,31,32);fill-rule:nonzero;"/>
            <path d="M661.7,587.8C657.9,587.9 654.2,587 650.9,585.2C648.2,583.7 646.6,581.6 646.2,579.4C645.9,577.5 646.5,575.5 647.8,574L649.5,575.4C648.6,576.4 648.2,577.7 648.4,579C648.7,580.6 650,582.1 652.1,583.3C657.4,586.4 666.1,586.4 671.4,583.3C673.4,582.1 674.7,580.6 675,579C675.2,577.7 674.8,576.4 673.8,575.4L675.5,574C676.8,575.5 677.4,577.4 677.1,579.4C676.7,581.6 675.1,583.7 672.5,585.2C669.1,587 665.4,587.8 661.7,587.8Z" style="fill:rgb(35,31,32);fill-rule:nonzero;"/>
            <path d="M661.7,587.8C657.9,587.9 654.2,587 650.9,585.2C648.2,583.7 646.6,581.6 646.2,579.4C645.9,577.5 646.5,575.5 647.8,574L649.5,575.4C648.6,576.4 648.2,577.7 648.4,579C648.7,580.6 650,582.1 652.1,583.3C657.4,586.4 666.1,586.4 671.4,583.3C673.4,582.1 674.7,580.6 675,579C675.2,577.7 674.8,576.4 673.8,575.4L675.5,574C676.8,575.5 677.4,577.4 677.1,579.4C676.7,581.6 675.1,583.7 672.5,585.2C669.1,587 665.4,587.8 661.7,587.8Z" style="fill:rgb(35,31,32);fill-rule:nonzero;"/>
            <path d="M661.7,587.8C657.9,587.9 654.2,587 650.9,585.2C648.2,583.7 646.6,581.6 646.2,579.4C645.9,577.5 646.5,575.5 647.8,574L649.5,575.4C648.6,576.4 648.2,577.7 648.4,579C648.7,580.6 650,582.1 652.1,583.3C657.4,586.4 666.1,586.4 671.4,583.3C673.4,582.1 674.7,580.6 675,579C675.2,577.7 674.8,576.4 673.8,575.4L675.5,574C676.8,575.5 677.4,577.4 677.1,579.4C676.7,581.6 675.1,583.7 672.5,585.2C669.1,587 665.4,587.8 661.7,587.8Z" style="fill:rgb(35,31,32);fill-rule:nonzero;"/>
            <path d="M661.7,587.8C657.9,587.9 654.2,587 650.9,585.2C648.2,583.7 646.6,581.6 646.2,579.4C645.9,577.5 646.5,575.5 647.8,574L649.5,575.4C648.6,576.4 648.2,577.7 648.4,579C648.7,580.6 650,582.1 652.1,583.3C657.4,586.4 666.1,586.4 671.4,583.3C673.4,582.1 674.7,580.6 675,579C675.2,577.7 674.8,576.4 673.8,575.4L675.5,574C676.8,575.5 677.4,577.4 677.1,579.4C676.7,581.6 675.1,583.7 672.5,585.2C669.1,587 665.4,587.8 661.7,587.8Z" style="fill:rgb(35,31,32);fill-rule:nonzero;"/>
            <path d="M661.7,587.8C657.9,587.9 654.2,587 650.9,585.2C648.2,583.7 646.6,581.6 646.2,579.4C645.9,577.5 646.5,575.5 647.8,574L649.5,575.4C648.6,576.4 648.2,577.7 648.4,579C648.7,580.6 650,582.1 652.1,583.3C657.4,586.4 666.1,586.4 671.4,583.3C673.4,582.1 674.7,580.6 675,579C675.2,577.7 674.8,576.4 673.8,575.4L675.5,574C676.8,575.5 677.4,577.4 677.1,579.4C676.7,581.6 675.1,583.7 672.5,585.2C669.1,587 665.4,587.8 661.7,587.8Z" style="fill:rgb(35,31,32);fill-rule:nonzero;"/>
            <path d="M661.7,587.8C657.9,587.9 654.2,587 650.9,585.2C648.2,583.7 646.6,581.6 646.2,579.4C645.9,577.5 646.5,575.5 647.8,574L649.5,575.4C648.6,576.4 648.2,577.7 648.4,579C648.7,580.6 650,582.1 652.1,583.3C657.4,586.4 666.1,586.4 671.4,583.3C673.4,582.1 674.7,580.6 675,579C675.2,577.7 674.8,576.4 673.8,575.4L675.5,574C676.8,575.5 677.4,577.4 677.1,579.4C676.7,581.6 675.1,583.7 672.5,585.2C669.1,587 665.4,587.8 661.7,587.8Z" style="fill:rgb(35,31,32);fill-rule:nonzero;"/>
            <path d="M661.7,587.8C657.9,587.9 654.2,587 650.9,585.2C648.2,583.7 646.6,581.6 646.2,579.4C645.9,577.5 646.5,575.5 647.8,574L649.5,575.4C648.6,576.4 648.2,577.7 648.4,579C648.7,580.6 650,582.1 652.1,583.3C657.4,586.4 666.1,586.4 671.4,583.3C673.4,582.1 674.7,580.6 675,579C675.2,577.7 674.8,576.4 673.8,575.4L675.5,574C676.8,575.5 677.4,577.4 677.1,579.4C676.7,581.6 675.1,583.7 672.5,585.2C669.1,587 665.4,587.8 661.7,587.8Z" style="fill:rgb(35,31,32);fill-rule:nonzero;"/>
            <path d="M661.6,439.3C660.3,439.3 659,439 657.8,438.4C656.7,437.9 656,436.8 655.9,435.6C656,434.4 656.7,433.3 657.8,432.8C660.2,431.6 663,431.6 665.4,432.8C666.5,433.3 667.2,434.4 667.3,435.6C667.2,436.8 666.5,437.9 665.4,438.4C664.3,439 662.9,439.3 661.6,439.3ZM661.6,434C660.7,434 659.7,434.2 658.9,434.6C658.4,434.9 658.1,435.2 658.1,435.5C658.1,435.8 658.4,436.1 658.9,436.5C660.6,437.3 662.6,437.3 664.3,436.5C664.8,436.2 665.1,435.9 665.1,435.6C665.1,435.3 664.8,434.9 664.3,434.6C663.5,434.2 662.5,434 661.6,434Z" style="fill:rgb(35,31,32);fill-rule:nonzero;"/>
            <path d="M661.7,443.8C658.4,443.9 655.2,443.1 652.3,441.5C649.6,439.9 648.1,437.8 648.1,435.4C648.1,433 649.6,430.9 652.3,429.4C658.2,426.4 665.2,426.4 671.1,429.4C673.8,431 675.3,433.1 675.3,435.5C675.3,437.9 673.8,440 671.1,441.5C668.1,443.1 664.9,443.9 661.7,443.8ZM661.5,429.4C658.6,429.3 655.8,430 653.3,431.4C651.3,432.5 650.2,434 650.2,435.5C650.2,437 651.3,438.5 653.4,439.7C656,441.1 658.8,441.8 661.7,441.7C664.6,441.8 667.4,441.1 669.9,439.7C671.9,438.6 673,437.1 673,435.6C673,434.1 671.9,432.6 669.9,431.4C667.3,430 664.4,429.3 661.5,429.4Z" style="fill:rgb(35,31,32);fill-rule:nonzero;"/>
            <path d="M683.9,445.1L681.7,445.1C681.7,436 668.9,431 668.8,431L669.6,429C670.2,429.1 683.9,434.5 683.9,445.1Z" style="fill:rgb(35,31,32);fill-rule:nonzero;"/>
            <path d="M641.5,445.1L639.3,445.1C639.3,434.5 653,429.2 653.6,429L654.4,431C654.2,431 641.5,436 641.5,445.1Z" style="fill:rgb(35,31,32);fill-rule:nonzero;"/>
            <path d="M649.3,583.9C648.7,583.9 648.3,583.5 648.2,582.9L639.3,466.3L639.3,445C639.3,444.4 639.8,443.9 640.4,443.9C641,443.9 641.5,444.4 641.5,445L641.5,466.2L650.4,582.7C650.4,583.3 650,583.9 649.3,583.9Z" style="fill:rgb(35,31,32);fill-rule:nonzero;"/>
            <path d="M673.9,583.9C673.2,583.9 672.8,583.3 672.8,582.7L681.7,466.1L681.7,445C681.6,444.4 682.1,443.9 682.7,443.8C683.3,443.7 683.8,444.2 683.9,444.8L683.9,466.2L675,582.9C675,583.5 674.5,583.9 673.9,583.9Z" style="fill:rgb(35,31,32);fill-rule:nonzero;"/>
            <path d="M661.6,596.2C654.2,596.2 648.2,590.2 648.2,582.8C648.1,582.2 648.6,581.7 649.2,581.6C649.8,581.5 650.3,582 650.4,582.6L650.4,582.8C650.6,589 655.8,593.9 662,593.7C667.9,593.5 672.7,588.7 672.9,582.8C672.8,582.2 673.3,581.7 673.9,581.6C674.5,581.5 675,582 675.1,582.6L675.1,582.8C675,590.2 669,596.2 661.6,596.2Z" style="fill:rgb(35,31,32);fill-rule:nonzero;"/>
            <path d="M682.8,467.9C682.2,467.9 681.7,467.4 681.7,466.8L681.7,445.1C681.7,444.5 682.2,444 682.8,444C683.4,444 683.9,444.5 683.9,445.1L683.9,466.8C683.9,467.4 683.4,467.9 682.8,467.9Z" style="fill:rgb(35,31,32);fill-rule:nonzero;"/>
            <path d="M640.4,467.9C639.8,467.9 639.3,467.4 639.3,466.8L639.3,445.1C639.3,444.5 639.8,444 640.4,444C641,444 641.5,444.5 641.5,445.1L641.5,466.8C641.5,467.4 641,467.9 640.4,467.9Z" style="fill:rgb(35,31,32);fill-rule:nonzero;"/>
            <rect x="665.1" y="340.8" width="2.2" height="21.5" style="fill:rgb(35,31,32);"/>
            <rect x="655.9" y="340.8" width="2.2" height="21.5" style="fill:rgb(35,31,32);"/>
            <path d="M682.8,351.4C682.2,351.4 681.7,350.9 681.7,350.3C681.7,347.4 679.6,344.7 676,342.6C668,338 655,337.9 647.1,342.5C643.4,344.6 641.4,347.4 641.5,350.2C641.5,350.8 641,351.3 640.4,351.3C639.8,351.3 639.3,350.8 639.3,350.2C639.3,346.5 641.6,343.1 646,340.6C654.5,335.7 668.5,335.7 677.1,340.7C681.4,343.2 683.9,346.6 683.9,350.3C683.9,350.9 683.5,351.4 682.8,351.4C682.9,351.4 682.9,351.4 682.8,351.4Z" style="fill:rgb(35,31,32);fill-rule:nonzero;"/>
            <path d="M661.7,363.6C656.3,363.7 650.9,362.4 646.1,359.8C641.8,357.3 639.3,353.9 639.3,350.2C639.3,349.6 639.8,349.1 640.4,349.1C641,349.1 641.5,349.6 641.5,350.2C641.5,353.1 643.6,355.8 647.2,357.9C655.2,362.5 668.2,362.5 676.1,357.9C679.8,355.8 681.8,353 681.7,350.2C681.7,349.6 682.2,349.1 682.8,349.1C683.4,349.1 683.9,349.6 683.9,350.2C683.9,353.9 681.6,357.3 677.2,359.8C672.4,362.5 667.1,363.7 661.7,363.6Z" style="fill:rgb(35,31,32);fill-rule:nonzero;"/>
            <path d="M689.7,347.2C689.3,347.2 688.9,347 688.7,346.6C687.5,343.9 685,341.4 681.5,339.4C670.5,333 652.6,333 641.6,339.3C638.1,341.3 635.7,343.8 634.5,346.5C634.3,347.1 633.6,347.3 633.1,347.1C632.6,346.9 632.3,346.2 632.5,345.7C633.8,342.6 636.6,339.7 640.5,337.5C652.1,330.8 670.9,330.9 682.6,337.6C686.5,339.8 689.3,342.7 690.7,345.8C690.9,346.3 690.7,347 690.2,347.2L689.7,347.2Z" style="fill:rgb(35,31,32);fill-rule:nonzero;"/>
            <path d="M661.7,331.1C655.7,331.1 649.6,329.8 645,327.1C640.4,324.4 637.8,320.8 637.7,316.9C637.7,316.3 638.2,315.8 638.8,315.8C639.4,315.8 639.9,316.3 639.9,316.9C639.9,320 642.1,323 646.1,325.2C654.7,330.2 668.7,330.2 677.2,325.3C681.2,323 683.3,320 683.3,316.9C683.3,316.3 683.8,315.8 684.4,315.8C685,315.8 685.5,316.3 685.5,316.9C685.5,320.8 683,324.5 678.3,327.2C673.6,329.9 667.8,331.1 661.7,331.1Z" style="fill:rgb(35,31,32);fill-rule:nonzero;"/>
            <path d="M661.7,296.9C658.4,297 655.2,296.2 652.3,294.6C649.6,293 648.1,290.9 648.1,288.5C648.1,286.1 649.6,284 652.3,282.5C653.7,281.7 655.2,281.1 656.7,280.8C657.3,280.7 657.9,281 658,281.6C658.1,282.2 657.8,282.8 657.2,282.9C655.9,283.2 654.6,283.7 653.4,284.4C651.4,285.5 650.3,287 650.3,288.5C650.3,290 651.4,291.5 653.5,292.7C658.1,295.3 665.5,295.4 670.1,292.7C672.1,291.6 673.2,290.1 673.2,288.6C673.2,287.1 672.1,285.6 670.1,284.4C668.9,283.7 667.6,283.2 666.3,282.9C665.7,282.8 665.3,282.3 665.4,281.7C665.5,281.1 666,280.7 666.6,280.8L666.8,280.8C668.3,281.1 669.8,281.7 671.2,282.5C673.9,284.1 675.4,286.2 675.4,288.6C675.4,291 673.9,293.1 671.2,294.6C668.1,296.2 664.9,296.9 661.7,296.9Z" style="fill:rgb(35,31,32);fill-rule:nonzero;"/>
            <path d="M661.7,349.1C658.4,349.2 655.2,348.4 652.3,346.8C649.6,345.2 648.1,343.1 648.1,340.7C648.1,338.3 649.6,336.2 652.3,334.7C655.2,333.2 658.4,332.4 661.6,332.5C664.9,332.4 668.1,333.2 671,334.8C673.7,336.4 675.2,338.5 675.2,340.9C675.2,343.3 673.7,345.4 671,346.9C668.1,348.4 664.9,349.1 661.7,349.1ZM661.5,334.6C658.6,334.5 655.8,335.2 653.3,336.6C651.3,337.7 650.2,339.2 650.2,340.7C650.2,342.2 651.3,343.7 653.4,344.9C656,346.3 658.8,347 661.7,346.9C664.6,347 667.4,346.3 669.9,344.9C671.9,343.8 673,342.3 673,340.8C673,339.3 671.9,337.8 669.9,336.6C667.3,335.3 664.4,334.6 661.5,334.6Z" style="fill:rgb(35,31,32);fill-rule:nonzero;"/>
            <path d="M661.6,284.9C660.3,284.9 659,284.6 657.8,284C656.7,283.5 656,282.4 655.9,281.2C656,280 656.7,278.9 657.8,278.4C660.2,277.2 663,277.2 665.4,278.4C666.5,278.9 667.2,280 667.3,281.2C667.2,282.4 666.5,283.5 665.4,284C664.3,284.6 662.9,284.9 661.6,284.9ZM661.6,279.5C660.7,279.5 659.7,279.7 658.9,280.1C658.4,280.4 658.1,280.7 658.1,281C658.1,281.3 658.4,281.6 658.9,282C660.6,282.8 662.6,282.8 664.3,282C664.8,281.7 665.1,281.4 665.1,281.1C665.1,280.8 664.8,280.4 664.3,280.1C663.5,279.7 662.5,279.5 661.6,279.5Z" style="fill:rgb(35,31,32);fill-rule:nonzero;"/>
            <path d="M661.6,292.3C660.3,292.3 659,292 657.8,291.4C656.7,290.9 656,289.8 655.9,288.6L658.1,288.6C658.1,288.9 658.4,289.2 658.9,289.6C660.6,290.5 662.6,290.5 664.3,289.6C664.8,289.3 665.1,289 665.1,288.7L667.3,288.7C667.2,289.9 666.5,291 665.4,291.5C664.2,292.1 662.9,292.4 661.6,292.3Z" style="fill:rgb(35,31,32);fill-rule:nonzero;"/>
            <rect x="665.1" y="281.1" width="2.2" height="7.5" style="fill:rgb(35,31,32);"/>
            <path d="M683.9,350.3L681.7,350.3C681.7,341.2 668.9,336.2 668.8,336.2L669.6,334.2C670.2,334.4 683.9,339.7 683.9,350.3Z" style="fill:rgb(35,31,32);fill-rule:nonzero;"/>
            <path d="M641.5,350.3L639.3,350.3C639.3,339.7 653,334.4 653.6,334.2L654.4,336.2C654.2,336.2 641.5,341.2 641.5,350.3Z" style="fill:rgb(35,31,32);fill-rule:nonzero;"/>
            <rect x="655.9" y="281.1" width="2.2" height="7.5" style="fill:rgb(35,31,32);"/>
            <path d="M661.6,344.5C660.3,344.5 659,344.2 657.8,343.6C656.7,343.1 656,342 655.9,340.8C656,339.6 656.7,338.5 657.8,338C660.2,336.8 663,336.8 665.4,338C667,338.6 667.8,340.3 667.2,341.8C666.9,342.6 666.2,343.3 665.4,343.6C664.2,344.2 662.9,344.5 661.6,344.5ZM661.6,339.2C660.7,339.2 659.7,339.4 658.9,339.8C658.4,340.1 658.1,340.4 658.1,340.7C658.1,341 658.4,341.4 658.9,341.7C660.6,342.5 662.6,342.5 664.3,341.7C664.8,341.4 665.1,341.1 665.1,340.8C665.1,340.5 664.8,340.1 664.3,339.8C663.5,339.4 662.5,339.2 661.6,339.2Z" style="fill:rgb(35,31,32);fill-rule:nonzero;"/>
            <rect x="665.1" y="362.3" width="2.2" height="4.5" style="fill:rgb(35,31,32);fill-opacity:0.7;"/>
            <rect x="655.9" y="362.2" width="2.2" height="4.5" style="fill:rgb(35,31,32);fill-opacity:0.7;"/>
            <path d="M661.6,405.5C660.3,405.5 659,405.2 657.8,404.6C656.7,404.1 656,403 655.9,401.8L658.1,401.8C658.1,402.1 658.4,402.5 658.9,402.8C660.6,403.7 662.6,403.7 664.3,402.8C664.8,402.5 665.1,402.2 665.1,401.9L667.3,401.9C667.2,403.1 666.5,404.2 665.4,404.7C664.2,405.3 662.9,405.6 661.6,405.5Z" style="fill:rgb(35,31,32);fill-rule:nonzero;"/>
            <rect x="665.1" y="366.8" width="2.2" height="35" style="fill:rgb(35,31,32);"/>
            <rect x="655.9" y="366.8" width="2.2" height="35" style="fill:rgb(35,31,32);"/>
            <path d="M684.4,318C683.8,318 683.3,317.5 683.3,316.9C683.3,314.4 682.3,313.1 681.1,311.4C679,308.9 677.9,305.7 677.9,302.4C677.9,294.4 674.3,286.6 671.2,285.3C670.6,285.1 670.4,284.4 670.6,283.9C670.8,283.3 671.5,283.1 672,283.3C676.3,285.1 680.1,294 680.1,302.4C680,305.2 681,308 682.8,310.1C684.1,311.8 685.4,313.6 685.4,316.8C685.5,317.5 685,318 684.4,318Z" style="fill:rgb(35,31,32);fill-rule:nonzero;"/>
            <path d="M689.7,347.3C689.2,347.3 688.9,347 688.7,346.6C685.4,337 683.6,327.1 683.4,317C683.5,316.4 684,316 684.6,316C685.1,316 685.5,316.5 685.6,317C685.9,326.8 687.6,336.6 690.8,345.9C691,346.5 690.7,347.1 690.2,347.3C689.9,347.2 689.8,347.3 689.7,347.3Z" style="fill:rgb(35,31,32);fill-rule:nonzero;"/>
            <path d="M638.8,318C638.2,318 637.7,317.5 637.7,316.9C637.7,313.7 639,311.9 640.3,310.2C642.1,308.1 643.1,305.3 643,302.5C643,294.1 646.8,285.2 651.1,283.4C651.7,283.2 652.3,283.4 652.5,284C652.7,284.6 652.5,285.2 651.9,285.4C648.8,286.7 645.2,294.4 645.2,302.5C645.3,305.8 644.2,309 642,311.5C640.8,313.2 639.8,314.5 639.8,317C639.9,317.5 639.4,318 638.8,318Z" style="fill:rgb(35,31,32);fill-rule:nonzero;"/>
            <path d="M633.5,347.3C633.4,347.3 633.2,347.3 633.1,347.2C632.5,347 632.2,346.4 632.4,345.8C635.6,336.5 637.4,326.7 637.6,316.9C637.6,316.3 638.1,315.8 638.7,315.8C639.3,315.8 639.8,316.3 639.8,316.9C639.5,327 637.7,337 634.5,346.5C634.4,347 634,347.3 633.5,347.3Z" style="fill:rgb(35,31,32);fill-rule:nonzero;"/>
            <path d="M661.8,368.1C654.1,368.1 646.5,366.4 640.6,363C632.9,358.5 629.8,351.9 632.4,345.7C632.6,345.2 633.3,344.9 633.8,345.1C634.3,345.3 634.6,346 634.4,346.5C632.2,351.7 634.9,357.2 641.6,361.1C652.6,367.5 670.5,367.5 681.5,361.2C688.3,357.3 690.9,351.8 688.5,346.6C688.3,346 688.5,345.4 689.1,345.2C689.7,345 690.3,345.2 690.5,345.8C693.3,352.1 690.3,358.7 682.6,363.2C676.9,366.4 669.4,368.1 661.8,368.1Z" style="fill:rgb(35,31,32);fill-rule:nonzero;"/>
            <path d="M666.2,138.3L666,138.3C663.1,137.6 660.1,137.6 657.2,138.3C656.6,138.4 656,138.1 655.9,137.5C655.8,136.9 656.1,136.3 656.7,136.2C659.9,135.5 663.3,135.5 666.5,136.2C667.1,136.3 667.5,136.9 667.4,137.5C667.2,138 666.7,138.4 666.2,138.3Z" style="fill:rgb(35,31,32);fill-rule:nonzero;"/>
            <path d="M661.7,186.4C655.7,186.4 649.6,185.1 645,182.4C640.4,179.7 637.8,176.1 637.7,172.2C637.7,171.6 638.2,171.1 638.8,171.1C639.4,171.1 639.9,171.6 639.9,172.2C639.9,175.3 642.1,178.3 646.1,180.5C654.7,185.5 668.7,185.5 677.2,180.6C681.2,178.3 683.3,175.3 683.3,172.2C683.3,171.6 683.8,171.1 684.4,171.1C685,171.1 685.5,171.6 685.5,172.2C685.5,176.1 683,179.8 678.3,182.5C673.6,185.2 667.8,186.4 661.7,186.4Z" style="fill:rgb(35,31,32);fill-rule:nonzero;"/>
            <path d="M684.4,173.3C683.8,173.3 683.3,172.8 683.3,172.2C683.3,169.1 681.1,166.1 677.1,163.9C668.5,158.9 654.5,158.9 646,163.8C642,166.1 639.9,169.1 639.9,172.2C639.9,172.8 639.4,173.3 638.8,173.3C638.2,173.3 637.7,172.8 637.7,172.2C637.7,168.3 640.2,164.6 644.9,161.9C654.1,156.6 669,156.6 678.2,162C682.8,164.7 685.4,168.3 685.5,172.2C685.5,172.8 685,173.3 684.4,173.3Z" style="fill:rgb(35,31,32);fill-rule:nonzero;"/>
            <path d="M661.7,152.2C658.4,152.3 655.2,151.5 652.3,149.9C649.6,148.3 648.1,146.2 648.1,143.8C648.1,141.4 649.6,139.4 652.3,137.8C653.7,137 655.2,136.4 656.7,136.1C657.3,136 657.9,136.3 658,136.9C658.1,137.5 657.8,138.1 657.2,138.2C655.9,138.5 654.6,139 653.4,139.7C651.4,140.8 650.3,142.3 650.3,143.8C650.3,145.3 651.4,146.8 653.5,148C658.1,150.6 665.5,150.7 670.1,148C672.1,146.9 673.2,145.4 673.2,143.9C673.2,142.4 672.1,140.9 670.1,139.7C668.9,139 667.6,138.5 666.2,138.2C665.6,138.1 665.3,137.5 665.4,136.9C665.5,136.3 666.1,136 666.7,136.1C668.3,136.5 669.8,137 671.2,137.8C673.9,139.4 675.4,141.5 675.4,143.9C675.4,146.3 673.9,148.3 671.2,149.9C668.1,151.5 664.9,152.3 661.7,152.2Z" style="fill:rgb(35,31,32);fill-rule:nonzero;"/>
            <path d="M689.7,203.7C688.8,203.7 688.1,203.2 687.7,202.4C686.6,199.9 684.3,197.6 681,195.7C670.3,189.5 652.8,189.5 642.2,195.6C638.9,197.5 636.6,199.8 635.5,202.3C635,203.4 633.7,203.9 632.6,203.4C631.5,202.9 631,201.6 631.5,200.5C632.9,197.1 635.9,194.1 640,191.8C651.9,184.9 671.2,185 683.2,191.9C687.3,194.3 690.2,197.3 691.7,200.6C692.2,201.7 691.6,203 690.6,203.4C690.2,203.6 689.9,203.6 689.7,203.7Z" style="fill:rgb(35,31,32);fill-rule:nonzero;"/>
            <path d="M661.6,140.2C660.3,140.2 659,139.9 657.8,139.3C656.7,138.8 656,137.7 655.9,136.5C656,135.3 656.7,134.2 657.8,133.7C660.2,132.5 663,132.5 665.4,133.7C666.5,134.2 667.2,135.3 667.3,136.5C667.2,137.7 666.5,138.8 665.4,139.3C664.3,139.9 662.9,140.2 661.6,140.2ZM661.6,134.9C660.7,134.9 659.7,135.1 658.9,135.5C658.4,135.8 658.1,136.1 658.1,136.4C658.1,136.7 658.4,137 658.9,137.3C660.6,138.1 662.6,138.1 664.3,137.3C664.8,137 665.1,136.7 665.1,136.4C665.1,136.1 664.8,135.7 664.3,135.5C663.5,135.1 662.5,134.9 661.6,134.9Z" style="fill:rgb(35,31,32);fill-rule:nonzero;"/>
            <path d="M655.9,144.3C655.8,142.9 656.5,141.6 657.7,141.1C660.1,139.9 662.9,139.9 665.3,141.1C666.4,141.6 667.1,142.7 667.2,143.9L665,143.9C665,143.6 664.7,143.2 664.2,143C662.5,142.1 660.5,142.1 658.8,143C658.3,143.3 658,143.7 658,144L655.9,144.3Z" style="fill:rgb(35,31,32);fill-rule:nonzero;"/>
            <path d="M661.6,147.7C660.3,147.7 659,147.4 657.8,146.8C656.7,146.3 656,145.2 655.9,144L658.1,144C658.1,144.3 658.4,144.6 658.9,145C660.6,145.9 662.6,145.9 664.3,145C664.8,144.7 665.1,144.4 665.1,144.1L667.3,144.1C667.2,145.3 666.5,146.4 665.4,146.9C664.2,147.4 662.9,147.7 661.6,147.7Z" style="fill:rgb(35,31,32);fill-rule:nonzero;"/>
            <rect x="665.1" y="136.4" width="2.2" height="7.5" style="fill:rgb(35,31,32);"/>
            <rect x="655.9" y="136.4" width="2.2" height="7.5" style="fill:rgb(35,31,32);"/>
            <path d="M684.4,173.3C683.8,173.3 683.3,172.8 683.3,172.2C683.3,169.7 682.3,168.4 681.1,166.7C679,164.2 677.9,161 677.9,157.7C677.9,149.6 674.3,141.9 671.2,140.6C670.6,140.4 670.4,139.7 670.6,139.2C670.8,138.6 671.5,138.4 672,138.6C676.3,140.4 680.1,149.3 680.1,157.7C680,160.5 681,163.3 682.8,165.4C684.1,167.1 685.4,168.9 685.4,172.1C685.5,172.8 685,173.3 684.4,173.3Z" style="fill:rgb(35,31,32);fill-rule:nonzero;"/>
            <path d="M638.8,173.3C638.2,173.3 637.7,172.8 637.7,172.2C637.7,169 639,167.2 640.3,165.5C642.1,163.4 643.1,160.6 643,157.8C643,149.4 646.8,140.5 651.1,138.7C651.7,138.5 652.3,138.7 652.5,139.3C652.7,139.9 652.5,140.5 651.9,140.7C648.8,142 645.2,149.7 645.2,157.8C645.3,161.1 644.2,164.3 642,166.8C640.8,168.5 639.8,169.8 639.8,172.3C639.9,172.8 639.4,173.3 638.8,173.3Z" style="fill:rgb(35,31,32);fill-rule:nonzero;"/>
            <path d="M685.5,172.2C685.5,172.2 685.5,172.7 685.6,173.5C685.7,174.3 685.8,175.4 685.9,176.8C686,177.5 686.1,178.2 686.2,179C686.3,179.8 686.4,180.6 686.5,181.5C686.8,183.2 687.1,185 687.5,186.8C687.7,187.7 687.9,188.6 688.1,189.5C688.3,190.4 688.6,191.2 688.8,192.1C689,193 689.3,193.7 689.5,194.5C689.6,194.9 689.7,195.2 689.8,195.6C689.9,196 690,196.3 690.2,196.6L691.7,200.9L691.7,201C692.1,202.1 691.5,203.4 690.4,203.8C689.3,204.2 688,203.6 687.6,202.5L687.6,202.4L686.3,197.8C686.2,197.5 686.1,197.1 686,196.7C685.9,196.3 685.8,195.9 685.8,195.5C685.6,194.7 685.5,193.9 685.3,193C685.1,192.1 684.9,191.2 684.8,190.3C684.7,189.4 684.5,188.4 684.4,187.5C684.1,185.6 684,183.7 683.8,182C683.7,181.1 683.7,180.3 683.6,179.4C683.5,178.5 683.5,177.8 683.5,177.1C683.4,175.7 683.4,174.5 683.4,173.7L683.4,172.4C683.4,171.8 683.9,171.3 684.5,171.3C684.9,171.2 685.4,171.6 685.5,172.2Z" style="fill:rgb(35,31,32);fill-rule:nonzero;"/>
            <path d="M639.9,172.2L639.9,173.5C639.9,174.3 639.9,175.5 639.8,176.9C639.8,177.6 639.7,178.4 639.7,179.2C639.7,180 639.6,180.9 639.5,181.8C639.3,183.6 639.2,185.5 638.9,187.3C638.7,188.2 638.6,189.2 638.5,190.1C638.4,191 638.2,191.9 638,192.8C637.8,193.7 637.6,194.5 637.5,195.3C637.4,195.7 637.3,196.1 637.3,196.5C637.3,196.9 637.1,197.2 637,197.6C636.2,200.4 635.7,202.2 635.7,202.2C635.4,203.4 634.2,204 633,203.7C631.8,203.4 631.2,202.2 631.5,201L631.5,200.8C631.5,200.8 632.1,199.1 633,196.5C633.1,196.2 633.2,195.8 633.4,195.5C633.6,195.2 633.6,194.8 633.7,194.4C633.9,193.6 634.1,192.8 634.4,192C634.7,191.2 634.9,190.3 635.1,189.4L635.7,186.7C636.1,184.9 636.4,183.1 636.7,181.4C636.8,180.5 636.9,179.7 637,178.9C637.1,178.1 637.2,177.4 637.3,176.7C637.5,175.3 637.6,174.2 637.6,173.4C637.6,172.6 637.7,172.1 637.7,172.1C637.7,171.5 638.2,171 638.8,171C639.3,171.1 639.8,171.6 639.9,172.2Z" style="fill:rgb(35,31,32);fill-rule:nonzero;"/>
            <path d="M661.8,224.5C654,224.5 646.1,222.8 640.1,219.3C631.9,214.5 628.6,207.4 631.5,200.6C632,199.5 633.3,199 634.4,199.5C635.5,200 636,201.3 635.5,202.4C633.5,207.1 636,212 642.3,215.6C653,221.8 670.5,221.8 681.1,215.7C687.3,212.1 689.8,207.1 687.7,202.5C687.2,201.4 687.7,200.1 688.8,199.6C689.9,199.1 691.2,199.6 691.7,200.7C694.8,207.5 691.6,214.7 683.3,219.5C677.3,222.8 669.6,224.5 661.8,224.5Z" style="fill:rgb(35,31,32);fill-rule:nonzero;"/>
            <path d="M661.6,401.9C660.1,401.9 658.6,401.6 657.3,400.8C656.2,400.3 655.5,399.3 655.2,398.2C655.1,397.3 655.3,396.3 656,395.7L657.7,397.1C657.5,397.3 657.4,397.6 657.4,397.9C657.6,398.4 657.9,398.8 658.4,399C660.4,400 662.8,400 664.9,399C665.4,398.8 665.7,398.4 665.9,397.9C665.9,397.6 665.8,397.3 665.6,397.1L667.3,395.7C667.9,396.4 668.2,397.3 668.1,398.3C667.8,399.4 667.1,400.4 666.1,400.9C664.6,401.5 663.1,401.9 661.6,401.9Z" style="fill:rgb(35,31,32);fill-rule:nonzero;"/>
            <path d="M661.6,398C660.1,398 658.6,397.7 657.3,396.9C656.2,396.4 655.5,395.4 655.2,394.3C655.1,393.4 655.3,392.4 656,391.8L657.7,393.2C657.5,393.4 657.4,393.7 657.4,394C657.6,394.5 657.9,394.9 658.4,395.1C660.4,396.1 662.8,396.1 664.9,395.1C665.4,394.9 665.7,394.5 665.9,394C665.9,393.7 665.8,393.4 665.6,393.2L667.3,391.8C667.9,392.5 668.2,393.4 668.1,394.4C667.8,395.5 667.1,396.5 666.1,397C664.6,397.7 663.1,398 661.6,398Z" style="fill:rgb(35,31,32);fill-rule:nonzero;"/>
            <path d="M661.6,394.1C660.1,394.1 658.6,393.8 657.3,393C656.2,392.5 655.5,391.5 655.2,390.4C655.1,389.5 655.3,388.5 656,387.9L657.7,389.3C657.5,389.5 657.4,389.8 657.4,390.1C657.6,390.6 657.9,391 658.4,391.2C660.4,392.2 662.8,392.2 664.9,391.2C665.4,391 665.7,390.6 665.9,390.1C665.9,389.8 665.8,389.5 665.6,389.3L667.3,387.9C667.9,388.6 668.2,389.5 668.1,390.5C667.9,391.6 667.1,392.6 666.1,393.1C664.6,393.7 663.1,394.1 661.6,394.1Z" style="fill:rgb(35,31,32);fill-rule:nonzero;"/>
            <path d="M661.6,390.2C660.1,390.2 658.6,389.9 657.3,389.1C656.2,388.6 655.5,387.6 655.2,386.5C655.1,385.6 655.3,384.6 656,383.9L657.7,385.3C657.5,385.5 657.4,385.8 657.4,386.1C657.6,386.6 657.9,387 658.4,387.2C660.4,388.2 662.8,388.2 664.9,387.2C665.4,387 665.7,386.6 665.9,386.1C665.9,385.8 665.8,385.5 665.6,385.3L667.3,383.9C667.9,384.6 668.2,385.5 668.1,386.5C667.8,387.6 667.1,388.6 666.1,389.1C664.6,389.8 663.1,390.2 661.6,390.2Z" style="fill:rgb(35,31,32);fill-rule:nonzero;"/>
            <path d="M661.6,386.3C660.1,386.3 658.6,386 657.3,385.2C656.2,384.7 655.5,383.7 655.2,382.6C655.1,381.7 655.3,380.7 656,380.1L657.7,381.5C657.5,381.7 657.4,382 657.4,382.3C657.6,382.8 657.9,383.2 658.4,383.4C660.4,384.4 662.8,384.4 664.9,383.4C665.4,383.2 665.7,382.8 665.9,382.3C665.9,382 665.8,381.7 665.6,381.5L667.3,380.1C667.9,380.8 668.2,381.7 668.1,382.7C667.9,383.8 667.1,384.8 666.1,385.3C664.6,385.9 663.1,386.3 661.6,386.3Z" style="fill:rgb(35,31,32);fill-rule:nonzero;"/>
            <path d="M661.6,382.4C660.1,382.4 658.6,382.1 657.3,381.3C656.2,380.8 655.5,379.8 655.2,378.7C655.1,377.8 655.3,376.8 656,376.2L657.7,377.6C657.5,377.8 657.4,378.1 657.4,378.4C657.6,378.9 657.9,379.3 658.4,379.5C660.4,380.5 662.8,380.5 664.9,379.5C665.4,379.3 665.7,378.9 665.9,378.4C665.9,378.1 665.8,377.8 665.6,377.6L667.3,376.2C667.9,376.9 668.2,377.8 668.1,378.8C667.8,379.9 667.1,380.9 666.1,381.4C664.6,382 663.1,382.4 661.6,382.4Z" style="fill:rgb(35,31,32);fill-rule:nonzero;"/>
            <path d="M661.6,378.5C660.1,378.5 658.6,378.2 657.3,377.4C656.2,376.9 655.5,375.9 655.2,374.8C655.1,373.9 655.3,372.9 656,372.2L657.7,373.6C657.5,373.8 657.4,374.1 657.4,374.4C657.6,374.9 657.9,375.3 658.4,375.5C660.4,376.5 662.8,376.5 664.9,375.5C665.4,375.3 665.7,374.9 665.9,374.4C665.9,374.1 665.8,373.8 665.6,373.6L667.3,372.2C667.9,372.9 668.2,373.8 668.1,374.8C667.8,375.9 667.1,376.9 666.1,377.4C664.6,378.1 663.1,378.5 661.6,378.5Z" style="fill:rgb(35,31,32);fill-rule:nonzero;"/>
            <path d="M661.6,374.5C660.1,374.5 658.6,374.2 657.3,373.4C656.2,372.9 655.5,371.9 655.2,370.8C655.1,369.9 655.3,368.9 656,368.3L657.7,369.7C657.5,369.9 657.4,370.2 657.4,370.5C657.6,371 657.9,371.4 658.4,371.6C660.4,372.6 662.8,372.6 664.9,371.6C665.4,371.4 665.7,371 665.9,370.5C665.9,370.2 665.8,369.9 665.6,369.7L667.3,368.3C667.9,369 668.2,369.9 668.1,370.9C667.9,372 667.1,373 666.1,373.5C664.6,374.2 663.1,374.6 661.6,374.5Z" style="fill:rgb(35,31,32);fill-rule:nonzero;"/>
            <path d="M661.6,370.6C660.1,370.6 658.6,370.3 657.3,369.5C656.2,369 655.5,368 655.2,366.8L657.3,366.5C657.5,367 657.8,367.4 658.3,367.6C660.3,368.6 662.7,368.6 664.8,367.6C665.3,367.4 665.6,367 665.8,366.5L667.9,366.9C667.6,368 666.9,369 665.8,369.5C664.5,370.3 663.1,370.7 661.6,370.6Z" style="fill:rgb(35,31,32);fill-rule:nonzero;"/>
            <path d="M661.6,434C661.3,434 661,433.9 660.8,433.7C660.6,433.5 660.5,433.2 660.5,432.9C660.5,432.6 660.6,432.3 660.8,432.1C661.2,431.7 661.9,431.7 662.3,432.1C662.5,432.3 662.6,432.6 662.6,432.9C662.7,433.5 662.2,434 661.6,434Z" style="fill:white;fill-rule:nonzero;"/>
            <path d="M660.5,429.7C660.5,429.1 661,428.6 661.6,428.6C662.2,428.6 662.7,429.1 662.7,429.7C662.7,430.3 662.2,430.8 661.6,430.8C661,430.8 660.5,430.3 660.5,429.7ZM660.5,426.5C660.5,425.9 661,425.4 661.6,425.4C662.2,425.4 662.7,425.9 662.7,426.5C662.7,427.1 662.2,427.6 661.6,427.6C661,427.6 660.5,427.2 660.5,426.5ZM660.5,423.4C660.5,422.8 661,422.3 661.6,422.3C662.2,422.3 662.7,422.8 662.7,423.4C662.7,424 662.2,424.5 661.6,424.5C661,424.5 660.5,424 660.5,423.4ZM660.5,420.2C660.5,419.6 661,419.1 661.6,419.1C662.2,419.1 662.7,419.6 662.7,420.2C662.7,420.8 662.2,421.3 661.6,421.3C661,421.3 660.5,420.8 660.5,420.2ZM660.5,417.1C660.5,416.5 661,416 661.6,416C662.2,416 662.7,416.5 662.7,417.1C662.7,417.7 662.2,418.2 661.6,418.2C661,418.2 660.5,417.7 660.5,417.1ZM660.5,413.9C660.5,413.3 661,412.8 661.6,412.8C662.2,412.8 662.7,413.3 662.7,413.9C662.7,414.5 662.2,415 661.6,415C661,415 660.5,414.5 660.5,413.9ZM660.5,410.8C660.5,410.2 661,409.7 661.6,409.7C662.2,409.7 662.7,410.2 662.7,410.8C662.7,411.4 662.2,411.9 661.6,411.9C661,411.8 660.5,411.4 660.5,410.8ZM660.5,407.6C660.5,407 661,406.5 661.6,406.5C662.2,406.5 662.7,407 662.7,407.6C662.7,408.2 662.2,408.7 661.6,408.7C661,408.7 660.5,408.2 660.5,407.6Z" style="fill:white;fill-rule:nonzero;"/>
            <path d="M661.6,405.5C661.3,405.5 661,405.4 660.8,405.2C660.6,405 660.5,404.7 660.5,404.4C660.5,403.8 661,403.3 661.6,403.3C661.9,403.3 662.2,403.4 662.4,403.6C662.6,403.8 662.7,404.1 662.7,404.4C662.7,404.7 662.6,405 662.4,405.2C662.2,405.4 661.9,405.5 661.6,405.5Z" style="fill:white;fill-rule:nonzero;"/>
            <path d="M661.6,279.4C661.3,279.4 661,279.3 660.8,279.1C660.6,278.9 660.5,278.6 660.5,278.3C660.5,278 660.6,277.7 660.8,277.5C661.2,277.1 661.9,277.1 662.3,277.5C662.5,277.7 662.6,278 662.6,278.3C662.6,278.6 662.5,278.9 662.3,279.1C662.2,279.3 661.9,279.4 661.6,279.4Z" style="fill:white;fill-rule:nonzero;"/>
            <path d="M660.5,275C660.5,274.4 661,273.9 661.6,274C662.2,274 662.7,274.5 662.7,275.1C662.7,275.7 662.2,276.2 661.6,276.2C661,276.2 660.5,275.7 660.5,275C660.5,275.1 660.5,275.1 660.5,275ZM660.5,271.8C660.5,271.2 661,270.7 661.6,270.7C662.2,270.7 662.7,271.2 662.7,271.8C662.7,272.4 662.2,272.9 661.6,272.9C661,272.9 660.5,272.4 660.5,271.8ZM660.5,268.6C660.5,268 661,267.5 661.6,267.5C662.2,267.5 662.7,268 662.7,268.6C662.7,269.2 662.2,269.7 661.6,269.7C661,269.7 660.5,269.2 660.5,268.6ZM660.5,265.3C660.5,264.7 661,264.2 661.6,264.2C662.2,264.2 662.7,264.7 662.7,265.3C662.7,265.9 662.2,266.4 661.6,266.4C661,266.4 660.5,265.9 660.5,265.3ZM660.5,262.1C660.5,261.5 661,261 661.6,261C662.2,261 662.7,261.5 662.7,262.1C662.7,262.7 662.2,263.2 661.6,263.2C661,263.2 660.5,262.7 660.5,262.1ZM660.5,258.9C660.5,258.3 661,257.8 661.6,257.8C662.2,257.8 662.7,258.3 662.7,258.9C662.7,259.5 662.3,260 661.7,260L661.6,260C661,260 660.5,259.5 660.5,258.9ZM660.5,255.6C660.5,255 661,254.5 661.6,254.5C662.2,254.5 662.7,255 662.7,255.6C662.7,256.2 662.2,256.7 661.6,256.7C661,256.7 660.5,256.2 660.5,255.6ZM660.5,252.4C660.5,251.8 661,251.3 661.6,251.3C662.2,251.3 662.7,251.8 662.7,252.4C662.7,253 662.2,253.5 661.6,253.5C661,253.5 660.5,253 660.5,252.4ZM660.5,249.2C660.5,248.6 661,248.1 661.6,248.1C662.2,248.1 662.7,248.6 662.7,249.2C662.7,249.8 662.2,250.3 661.6,250.3C661,250.2 660.5,249.8 660.5,249.2ZM660.5,245.9C660.5,245.3 661,244.8 661.6,244.8C662.2,244.8 662.7,245.3 662.7,245.9C662.7,246.5 662.2,247 661.6,247C661,247 660.5,246.5 660.5,245.9ZM660.5,242.7C660.5,242.1 661,241.6 661.6,241.6C662.2,241.6 662.7,242.1 662.7,242.7C662.7,243.3 662.2,243.8 661.6,243.8C661,243.8 660.5,243.3 660.5,242.7ZM660.5,239.4C660.5,238.8 661,238.3 661.6,238.3C662.2,238.3 662.7,238.8 662.7,239.4C662.7,240 662.2,240.5 661.6,240.5C661,240.5 660.5,240.1 660.5,239.4C660.5,239.5 660.5,239.5 660.5,239.4ZM660.5,236.2C660.5,235.6 661,235.1 661.6,235.1C662.2,235.1 662.7,235.6 662.7,236.2C662.7,236.8 662.2,237.3 661.6,237.3C661,237.3 660.5,236.8 660.5,236.2ZM660.5,233C660.5,232.4 661,231.9 661.6,231.9C662.2,231.9 662.7,232.4 662.7,233C662.7,233.6 662.2,234.1 661.6,234.1C661,234.1 660.5,233.6 660.5,233ZM660.5,229.7C660.5,229.1 661,228.6 661.6,228.6C662.2,228.6 662.7,229.1 662.7,229.7C662.7,230.3 662.2,230.8 661.6,230.8C661,230.8 660.5,230.3 660.5,229.7ZM660.5,226.5C660.5,225.9 661,225.4 661.6,225.4C662.2,225.4 662.7,225.9 662.7,226.5C662.7,227.1 662.2,227.6 661.6,227.6C661,227.6 660.5,227.1 660.5,226.5ZM660.5,223.3C660.5,222.7 661,222.2 661.6,222.2C662.2,222.2 662.7,222.7 662.7,223.3C662.7,223.9 662.2,224.4 661.6,224.4C661,224.4 660.5,223.9 660.5,223.3ZM660.5,220C660.5,219.4 661,218.9 661.6,218.9C662.2,218.9 662.7,219.4 662.7,220C662.7,220.6 662.2,221.1 661.6,221.1C661,221.1 660.5,220.6 660.5,220ZM660.5,216.8C660.5,216.2 661,215.7 661.6,215.7C662.2,215.7 662.7,216.2 662.7,216.8C662.7,217.4 662.2,217.9 661.6,217.9C661,217.9 660.5,217.4 660.5,216.8ZM660.5,213.5C660.5,212.9 661,212.4 661.6,212.4C662.2,212.4 662.7,212.9 662.7,213.5C662.7,214.1 662.2,214.6 661.6,214.6C661,214.6 660.5,214.2 660.5,213.5ZM660.5,210.3C660.5,209.7 661,209.2 661.6,209.2C662.2,209.2 662.7,209.7 662.7,210.3C662.7,210.9 662.2,211.4 661.6,211.4C661,211.4 660.5,210.9 660.5,210.3ZM660.5,207.1C660.5,206.5 661,206 661.6,206C662.2,206 662.7,206.5 662.7,207.1C662.7,207.7 662.2,208.2 661.6,208.2C661,208.2 660.5,207.7 660.5,207.1ZM660.5,203.8C660.5,203.2 661,202.7 661.6,202.7C662.2,202.7 662.7,203.2 662.7,203.8C662.7,204.4 662.2,204.9 661.6,204.9C661,204.9 660.5,204.5 660.5,203.8ZM660.5,200.6C660.5,200 661,199.5 661.6,199.5C662.2,199.5 662.7,200 662.7,200.6C662.7,201.2 662.2,201.7 661.6,201.7C661,201.7 660.5,201.2 660.5,200.6ZM660.5,197.4C660.5,196.8 661,196.3 661.6,196.3C662.2,196.3 662.7,196.8 662.7,197.4C662.7,198 662.2,198.5 661.6,198.5C661,198.5 660.5,198 660.5,197.4ZM660.5,194.1C660.5,193.5 661,193 661.6,193C662.2,193 662.7,193.5 662.7,194.1C662.7,194.7 662.2,195.2 661.6,195.2C661,195.2 660.5,194.7 660.5,194.1ZM660.5,190.9C660.5,190.3 661,189.8 661.6,189.8C662.2,189.8 662.7,190.3 662.7,190.9C662.7,191.5 662.2,192 661.6,192C661,192 660.5,191.5 660.5,190.9ZM660.5,187.7C660.5,187.1 661,186.6 661.6,186.6C662.2,186.6 662.7,187.1 662.7,187.7C662.7,188.3 662.2,188.8 661.6,188.8C661,188.7 660.5,188.3 660.5,187.7ZM660.5,184.4C660.5,183.8 661,183.3 661.6,183.3C662.2,183.3 662.7,183.8 662.7,184.4C662.7,185 662.2,185.5 661.6,185.5C661,185.5 660.5,185 660.5,184.4ZM660.5,181.2C660.5,180.6 661,180.1 661.6,180.1C662.2,180.1 662.7,180.6 662.7,181.2C662.7,181.8 662.2,182.3 661.6,182.3C661,182.3 660.5,181.8 660.5,181.2ZM660.5,178C660.5,177.4 661,176.9 661.6,176.9C662.2,176.9 662.7,177.4 662.7,178C662.7,178.6 662.2,179 661.6,179C661,179 660.6,178.6 660.5,178ZM660.5,174.7C660.5,174.1 661,173.6 661.6,173.6C662.2,173.6 662.7,174.1 662.7,174.7C662.7,175.3 662.2,175.8 661.6,175.8C661,175.8 660.5,175.3 660.5,174.7ZM660.5,171.5C660.5,170.9 661,170.4 661.6,170.4C662.2,170.4 662.7,170.9 662.7,171.5C662.7,172.1 662.2,172.6 661.6,172.6C661,172.6 660.5,172.1 660.5,171.5ZM660.5,168.2C660.5,167.6 661,167.1 661.6,167.1C662.2,167.1 662.7,167.6 662.7,168.2C662.7,168.8 662.2,169.3 661.6,169.3C661,169.3 660.5,168.8 660.5,168.2ZM660.5,165C660.5,164.4 661,163.9 661.6,163.9C662.2,163.9 662.7,164.4 662.7,165C662.7,165.6 662.2,166.1 661.6,166.1C661,166.1 660.5,165.6 660.5,165ZM660.5,161.8C660.5,161.2 661,160.7 661.6,160.7C662.2,160.7 662.7,161.2 662.7,161.8C662.7,162.4 662.2,162.9 661.6,162.9C661,162.9 660.5,162.4 660.5,161.8ZM660.5,158.5C660.5,157.9 661,157.4 661.6,157.4C662.2,157.4 662.7,157.9 662.7,158.5C662.7,159.1 662.2,159.6 661.6,159.6C661,159.6 660.5,159.1 660.5,158.5ZM660.5,155.3C660.5,154.7 661,154.2 661.6,154.2C662.2,154.2 662.7,154.7 662.7,155.3C662.7,155.9 662.2,156.4 661.6,156.4C661,156.4 660.5,155.9 660.5,155.3ZM660.5,152.1C660.5,151.5 661,151 661.6,151C662.2,151 662.7,151.5 662.7,152.1C662.7,152.7 662.2,153.2 661.6,153.2C661,153.2 660.5,152.7 660.5,152.1ZM660.5,148.8C660.5,148.2 661,147.7 661.6,147.7C662.2,147.7 662.7,148.2 662.7,148.8C662.7,149.4 662.2,149.9 661.6,149.9C661,149.9 660.5,149.4 660.5,148.8ZM660.5,145.6C660.5,145 661,144.5 661.6,144.5C662.2,144.5 662.7,145 662.7,145.6C662.7,146.2 662.2,146.7 661.6,146.7C661,146.7 660.5,146.2 660.5,145.6ZM660.5,142.4C660.5,141.8 661,141.3 661.6,141.3C662.2,141.3 662.7,141.8 662.7,142.4C662.7,143 662.2,143.5 661.6,143.5C661,143.4 660.5,143 660.5,142.4Z" style="fill:white;fill-rule:nonzero;"/>
            <path d="M661.6,140.2C661,140.2 660.5,139.7 660.5,139.1C660.5,138.8 660.6,138.5 660.8,138.3C661.2,137.9 661.9,137.9 662.3,138.3C662.5,138.5 662.6,138.8 662.6,139.1C662.6,139.4 662.5,139.7 662.3,139.9C662.2,140.1 661.9,140.2 661.6,140.2Z" style="fill:white;fill-rule:nonzero;"/>
            <circle cx="530.2" cy="128.3" r="13" style="fill:rgb(0,195,255);stroke:white;stroke-width:2.17px;"/>
            <circle cx="602.6" cy="322.4" r="13" style="fill:rgb(0,195,255);stroke:white;stroke-width:2.17px;"/>
            <circle cx="609.3" cy="514" r="13" style="fill:rgb(0,195,255);stroke:white;stroke-width:2.17px;"/>
        </g>
    </g>
    <defs>
        <linearGradient id="_Linear1" x1="0" y1="0" x2="1" y2="0" gradientUnits="userSpaceOnUse" gradientTransform="matrix(9.22,0,0,9.22,656.99,435.562)"><stop offset="0" style="stop-color:rgb(229,226,223);stop-opacity:1"/><stop offset="0" style="stop-color:rgb(222,217,214);stop-opacity:1"/><stop offset="0.06" style="stop-color:rgb(207,202,201);stop-opacity:1"/><stop offset="0.18" style="stop-color:rgb(168,164,167);stop-opacity:1"/><stop offset="0.26" style="stop-color:rgb(139,135,141);stop-opacity:1"/><stop offset="0.52" style="stop-color:rgb(243,244,244);stop-opacity:1"/><stop offset="0.58" style="stop-color:rgb(229,229,230);stop-opacity:1"/><stop offset="0.7" style="stop-color:rgb(192,190,192);stop-opacity:1"/><stop offset="0.86" style="stop-color:rgb(133,128,133);stop-opacity:1"/><stop offset="0.88" style="stop-color:rgb(128,123,128);stop-opacity:1"/><stop offset="1" style="stop-color:rgb(209,211,212);stop-opacity:1"/><stop offset="1" style="stop-color:rgb(167,169,172);stop-opacity:1"/></linearGradient>
    </defs>
</svg>
