<?xml version="1.0" encoding="utf-8"?>
<!-- Generator: Adobe Illustrator 24.1.0, SVG Export Plug-In . SVG Version: 6.00 Build 0)  -->
<svg version="1.1" id="Layer_1" xmlns="http://www.w3.org/2000/svg" xmlns:xlink="http://www.w3.org/1999/xlink" x="0px" y="0px"
	 viewBox="0 0 238.2 316.4" style="enable-background:new 0 0 238.2 316.4;" xml:space="preserve">
<style type="text/css">
	.st0{fill:#FFFFFF;stroke:#FFFFFF;stroke-miterlimit:10;}
	.st1{fill:#231F20;}
	.st2{fill:none;stroke:#231F20;stroke-width:2;stroke-miterlimit:10;}
	.st3{fill:#00C3FF;stroke:#231F20;stroke-width:2.17;stroke-miterlimit:10;}
	.st4{fill:#2CD1D1;stroke:#231F20;stroke-width:2.17;stroke-miterlimit:10;}
	.st5{fill:#7DFFFB;stroke:#231F20;stroke-width:2;stroke-miterlimit:10;}
</style>
<g id="Layer_2_1_">
	<g id="Layer_1-2">
		<path class="st0" d="M16.9,141.4c0-31.2,19.1-56.5,47.5-56.5c14.2,0,28.3,8.4,40.2,8.4s26-8.4,40.2-8.4
			c28.4,0,47.5,25.3,47.5,56.5c0,40.9-11.9,55.4-20.6,64.4c-18.8,19.5-115.4,19.5-134.2,0C28.8,196.8,16.9,182.3,16.9,141.4z"/>
		<path class="st1" d="M104.6,91.8c-5.5,0-11.5-1.8-17.9-3.8c-7.2-2.3-14.7-4.6-22.3-4.6c-13.8,0-26.9,6.2-35.5,17.1
			c-8.6,10.6-13.4,25.1-13.4,40.9c0,38.4,10.1,54.2,21,65.4c7,7.3,28.6,15,68.2,15s61.1-7.8,68.2-15c10.9-11.3,21-27,21-65.4
			c0-15.7-4.8-30.2-13.4-40.8c-8.6-10.8-21.7-17.1-35.5-17.1c-0.5,0-1,0-1.5,0c-7.2,0.3-14.4,2.5-20.8,4.5l-0.2-0.5l0.2,0.5
			C116.1,90,110.1,91.8,104.6,91.8z M144.9,86.3c26.7,0,46,23.2,46,55c0,42.6-13.1,56.2-20.2,63.4c-8.2,8.5-34.7,14.2-66.1,14.2
			s-57.9-5.7-66.1-14.2c-7-7.3-20.2-20.9-20.2-63.4c0-31.9,19.4-55,46-55c7.2,0,14.4,2.2,21.5,4.4c2.9,0.9,5.4,1.7,7.8,2.3l7,1.9
			l-7,2c-8.1,2.3-13,3.3-15.9,3.3c-0.8,0-1.4,0.6-1.4,1.4c0,0.8,0.6,1.4,1.4,1.4c5.9,0,17.6-3.7,31.2-7.9
			C122.5,91,137.6,86.3,144.9,86.3z"/>
		<polyline class="st2" points="217.7,315.4 148.1,304.1 143.3,255.1 69.2,255.1 64.3,304.9 0.2,314.6 		"/>
		<path class="st3" d="M232.7,36.5c-3.5-1.4-7.5,0.4-8.9,4c-1,2.5-0.4,5.4,1.5,7.3l-51.6,31.1l21.5,8.3L227,48.9
			c0.2,0.2,0.5,0.3,0.8,0.5c3.5,1.4,7.5-0.2,9-3.8c1.4-3.5-0.2-7.5-3.8-9C232.9,36.6,232.8,36.5,232.7,36.5L232.7,36.5z"/>
		<path class="st3" d="M157.2,72.5l-17.5-57.7c3.8-0.3,6.6-3.5,6.4-7.3c-0.3-3.8-3.5-6.6-7.3-6.4s-6.6,3.5-6.4,7.3
			c0.2,2.7,1.9,5,4.4,5.9c0.3,0.1,0.6,0.1,0.9,0.1l-2,49.7L157.2,72.5z"/>
		<polygon class="st4" points="163.3,81.2 132,69.1 126.1,78 159.6,90.9 193.2,103.8 194.7,93.3 		"/>
		<path class="st5" d="M165.5,75.7L198,57.5L189.6,16c3.7,0.8,7.4-1.5,8.2-5.3s-1.5-7.4-5.3-8.2c-3.7-0.8-7.4,1.5-8.2,5.3
			c-0.6,2.9,0.7,5.9,3.3,7.4l-34,25.1L165.5,75.7z"/>
	</g>
</g>
</svg>
