<svg xmlns="http://www.w3.org/2000/svg" xmlns:xlink="http://www.w3.org/1999/xlink" viewBox="0 0 200.32 596.24"><defs><style>.cls-1{fill:url(#Silver);}.cls-2{fill:red;}.cls-3,.cls-6{fill:#231f20;}.cls-4{fill:#fff;}.cls-5,.cls-6{opacity:0.7;}</style><linearGradient id="Silver" x1="97.62" y1="435.54" x2="106.83" y2="435.54" gradientUnits="userSpaceOnUse"><stop offset="0" stop-color="#e5e2df"/><stop offset="0" stop-color="#ded9d6"/><stop offset="0.06" stop-color="#cfcac9"/><stop offset="0.18" stop-color="#a8a4a7"/><stop offset="0.26" stop-color="#8b878d"/><stop offset="0.52" stop-color="#f3f4f4"/><stop offset="0.58" stop-color="#e5e5e6"/><stop offset="0.7" stop-color="#c0bec0"/><stop offset="0.86" stop-color="#858085"/><stop offset="0.88" stop-color="#807b80"/><stop offset="1" stop-color="#d1d3d4"/><stop offset="1" stop-color="#a7a9ac"/></linearGradient></defs><title>Asset 2infog</title><g id="Layer_2" data-name="Layer 2"><g id="Layer_1-2" data-name="Layer 1"><path class="cls-1" d="M105.48,433.66c1.8,1,1.81,2.73,0,3.77a7.22,7.22,0,0,1-6.53,0c-1.8-1-1.81-2.72,0-3.76A7.25,7.25,0,0,1,105.48,433.66Z"/><path class="cls-2" d="M81,466.27l.14,1.86a5.92,5.92,0,0,1-.14-1.32Z"/><path class="cls-3" d="M95.75,366.88a3.12,3.12,0,0,1,.77-2.5l1.65,1.41a1,1,0,0,0-.28.76Z"/><path class="cls-3" d="M108.56,366.94l-2.14-.34a1,1,0,0,0-.28-.78l1.66-1.4A3.1,3.1,0,0,1,108.56,366.94Z"/><path class="cls-3" d="M102.19,366.73a8.92,8.92,0,0,1-4.35-1.05A4,4,0,0,1,95.76,363a3.08,3.08,0,0,1,.76-2.55l1.65,1.4a.92.92,0,0,0-.27.78,1.89,1.89,0,0,0,1,1.14,7.29,7.29,0,0,0,6.5,0,1.84,1.84,0,0,0,1-1.11,1,1,0,0,0-.28-.79l1.66-1.4a3.14,3.14,0,0,1,.76,2.56,3.91,3.91,0,0,1-2.06,2.62A8.76,8.76,0,0,1,102.19,366.73Z"/><path class="cls-3" d="M102.19,362.83a8.81,8.81,0,0,1-4.35-1.06,4,4,0,0,1-2.08-2.64,3.08,3.08,0,0,1,.76-2.55l1.65,1.4a.91.91,0,0,0-.27.78,1.88,1.88,0,0,0,1,1.13,7.29,7.29,0,0,0,6.5,0,1.87,1.87,0,0,0,1-1.11,1,1,0,0,0-.28-.79l1.66-1.4a3.14,3.14,0,0,1,.76,2.56,4,4,0,0,1-2.06,2.62A8.86,8.86,0,0,1,102.19,362.83Z"/><path class="cls-3" d="M102.19,358.93a8.92,8.92,0,0,1-4.35-1.06,4,4,0,0,1-2.08-2.65,3.09,3.09,0,0,1,.76-2.55l1.65,1.4a.92.92,0,0,0-.27.78,1.89,1.89,0,0,0,1,1.14,7.29,7.29,0,0,0,6.5,0,1.84,1.84,0,0,0,1-1.11,1,1,0,0,0-.28-.78l1.66-1.41a3.16,3.16,0,0,1,.76,2.56,3.91,3.91,0,0,1-2.06,2.62A8.76,8.76,0,0,1,102.19,358.93Z"/><path class="cls-3" d="M102.19,355A8.81,8.81,0,0,1,97.84,354a4,4,0,0,1-2.08-2.64,3.08,3.08,0,0,1,.76-2.55l1.65,1.4a.92.92,0,0,0-.27.78,1.92,1.92,0,0,0,1,1.14,7.32,7.32,0,0,0,6.5,0,1.87,1.87,0,0,0,1-1.11,1,1,0,0,0-.28-.79l1.66-1.4a3.14,3.14,0,0,1,.76,2.56A3.93,3.93,0,0,1,106.5,354,8.86,8.86,0,0,1,102.19,355Z"/><path class="cls-4" d="M108.71,92.7,103.49,94l-2.56.89c-.93.34-2,.63-3,1.12l-3.43,1.45-3.76,1.8c-2.61,1.28-5.4,2.78-8.39,4.36L77.68,106c-1.62.77-3.29,1.53-5,2.29l-2.64,1c-.89.33-1.76.73-2.7,1l-2.78.85-1.41.42-1.44.3A47.66,47.66,0,0,1,55.88,113a45.8,45.8,0,0,1-6,.52,84.82,84.82,0,0,1-11.85-.42l-5.74-.83L30.93,112l-1.39-.31-2.73-.6-2.69-.6-1.33-.29c-.51-.12-.88-.24-1.32-.36s-.85-.26-1.3-.42-.88-.3-1.29-.49a24.43,24.43,0,0,1-2.42-1.15,25,25,0,0,1-7.59-6.35,33.74,33.74,0,0,1-4.38-7.14A51.52,51.52,0,0,1,2.3,88.27L1.65,86q-.22-1-.39-1.71c-.21-.93-.33-1.43-.33-1.43a2.18,2.18,0,0,1,4.24-1c0,.1,0,.21,0,.31v.12s0,.47.11,1.35c0,.44.09,1,.14,1.63s.21,1.36.34,2.18a37.75,37.75,0,0,0,1.5,5.73,27.5,27.5,0,0,0,3.55,6.74l.63.85.72.8a19.34,19.34,0,0,0,1.56,1.58c.53.53,1.17,1,1.76,1.46a20.51,20.51,0,0,0,2,1.25,20.08,20.08,0,0,0,2.18,1.08c.38.19.76.3,1.14.45a9.53,9.53,0,0,0,1.21.4c.41.12.88.28,1.24.35l1.31.29,2.64.57,2.69.58,1.36.3,1.39.2,5.61.79a75.89,75.89,0,0,0,11.49.29,43.64,43.64,0,0,0,5.72-.58,43.52,43.52,0,0,0,5.59-1.11l1.37-.33,1.34-.44,2.65-.88a26.85,26.85,0,0,0,2.57-1l2.51-1c1.63-.78,3.23-1.57,4.78-2.36l4.51-2.46,8.3-4.66,3.77-2,3.51-1.66c1.08-.55,2.2-.94,3.19-1.35l2.76-1.09,5.14-1.63a2.17,2.17,0,0,1,1.31,4.13Z"/><path class="cls-4" d="M108.11,92.78a2.17,2.17,0,0,1-.5-4.28c9.35-2.25,19.52-1.7,29.36-1.17,21.64,1.17,42.08,2.27,57.12-23a1,1,0,0,0,.14-.91c-.66-2.45-6.65-5.76-10.62-8-4.83-2.66-7.38-4.14-8.18-6.11-9-21.95-20.38-35.53-34.94-41.5C125,1.55,105.37,3.67,80.43,14.38c-6.83,2.94-14.3,2-22.2,1.11C44.29,13.83,29.88,12.11,17.91,32.7l-.13.2L17,34C11,42.3,4,73.18,5.23,82.28a2.17,2.17,0,0,1-4.3.56C-.41,72.66,6.74,40.75,13.46,31.46l.76-1c13.39-23,29.93-21,44.53-19.25,7.3.87,14.2,1.7,20-.78,26.06-11.19,46.8-13.33,63.41-6.52,15.7,6.43,27.9,20.79,37.32,43.88.48.76,3.82,2.6,6.25,4,5.69,3.14,11.58,6.39,12.72,10.6a5.45,5.45,0,0,1-.61,4.27c-16.38,27.49-39.1,26.26-61.08,25.08-10-.54-19.37-1-28.11,1.06A2.22,2.22,0,0,1,108.11,92.78Z"/><path class="cls-4" d="M40.89,10.25l.94-.12L43,10c.45-.06,1-.07,1.66-.11a19.33,19.33,0,0,1,2.06-.06c.73,0,1.53,0,2.38.09a26.91,26.91,0,0,1,2.69.27c1,.11,1.93.31,3,.52a40.05,40.05,0,0,1,6.4,2A42.54,42.54,0,0,1,67.74,16a50.15,50.15,0,0,1,6.41,4.54A57.74,57.74,0,0,1,80,26a67.52,67.52,0,0,1,5.12,6.17c.8,1,1.51,2.14,2.25,3.2s1.41,2.15,2,3.24c1.29,2.14,2.42,4.28,3.44,6.33s1.88,4,2.64,5.88S96.88,54.41,97.4,56s.93,2.87,1.29,4c.65,2.23,1,3.5,1,3.5s-.41-1.26-1.17-3.44c-.42-1.09-.87-2.42-1.5-3.9s-1.32-3.16-2.15-5S93.06,47.42,92,45.45s-2.33-4-3.71-6.07c-.66-1-1.43-2-2.15-3.07s-1.52-2-2.36-3a67.73,67.73,0,0,0-5.27-5.73,56.77,56.77,0,0,0-5.9-5,46.33,46.33,0,0,0-6.29-4A40.92,40.92,0,0,0,60,15.8,36.09,36.09,0,0,0,54,14.31,27.1,27.1,0,0,0,51.33,14c-.85-.09-1.66-.11-2.42-.12a21.18,21.18,0,0,0-2.14,0A14.94,14.94,0,0,0,45,14c-.54.06-1,.09-1.42.16l-1.13.2-.94.16a2.17,2.17,0,0,1-.73-4.28Z"/><path class="cls-4" d="M186.12,56.72,183,56.24c-1-.15-2.13-.28-3.48-.46s-2.87-.29-4.54-.41-3.47-.18-5.37-.15c-1,0-1.94,0-2.94.08s-2,.08-3.06.22-2.1.2-3.16.36l-3.22.53c-2.15.46-4.35.9-6.49,1.56s-4.29,1.36-6.39,2.06c-1,.39-2,.82-3.07,1.21s-2,.8-3,1.25c-1.92.89-3.81,1.7-5.53,2.61s-3.4,1.69-4.87,2.54l-4,2.27-3.07,1.85-2.68,1.62,2.58-1.77,3-2,3.93-2.51c1.43-1,3.05-1.84,4.74-2.84s3.52-1.95,5.41-3c.94-.52,1.93-1,2.93-1.45s2-1,3-1.41c2.1-.85,4.2-1.78,6.39-2.49s4.4-1.4,6.59-2l3.31-.75c1.09-.23,2.19-.39,3.26-.58s2.14-.29,3.18-.41,2.07-.23,3.06-.27c2-.15,3.89-.17,5.63-.18s3.33.08,4.75.15,2.66.17,3.66.26l3.11.3a2.17,2.17,0,0,1-.41,4.32Z"/><path class="cls-4" d="M17.49,176a2.18,2.18,0,0,1-2.13-1.77c-1.6-8.45-3.65-16.31-5.82-24.64-3.59-13.75-7.3-28-8.8-45a179.51,179.51,0,0,1-.43-27,2.19,2.19,0,0,1,2.27-2,2.16,2.16,0,0,1,2.06,2.24,26.74,26.74,0,0,0,.1,4.13c1.82,13.65,8.08,22.2,18.11,24.73,30.87,7.89,44.95.15,59.85-8,7.28-4,14.82-8.14,24.42-10.47,9.36-2.24,19.52-1.7,29.36-1.17,21.65,1.17,42.09,2.27,57.11-23a1.2,1.2,0,0,0,.18-.88,2.17,2.17,0,0,1,1.58-2.39l.15,0a2.19,2.19,0,0,1,1.76.28,2.16,2.16,0,0,1,1,1.51c4.08,28.38,1.52,43.87-1.71,58.51-.53,2.37-1.08,4.75-1.65,7.17-2.6,11.11-5.56,23.7-6.8,41.75a2.16,2.16,0,1,1-4.32-.29c1.26-18.41,4.26-31.18,6.9-42.45.56-2.41,1.12-4.77,1.64-7.12,2.86-13,5.18-26.65,2.55-49.94-16.11,23.47-37.68,22.31-58.58,21.18-10-.53-19.36-1-28.1,1.06-9,2.19-16.32,6.19-23.35,10-15,8.24-30.49,16.76-63,8.45A25.87,25.87,0,0,1,4.52,96.61c.12,2.55.3,5.06.54,7.55,1.46,16.67,5.13,30.71,8.67,44.3,2.1,8,4.26,16.32,5.89,24.92a2.16,2.16,0,0,1-1.72,2.54A2.85,2.85,0,0,1,17.49,176Z"/><path class="cls-4" d="M101.66,239.4c-45.69,0-79.42-25.62-85.91-65.27a2.17,2.17,0,1,1,4.28-.7c6.13,37.44,38.17,61.64,81.63,61.64,47.93,0,82.72-31.59,82.72-75.11a2.17,2.17,0,1,1,4.34,0C188.72,206,152.11,239.4,101.66,239.4Z"/><path class="cls-4" d="M68.23,224.91l-1.72-.9a37.89,37.89,0,0,1-4.61-3A26.53,26.53,0,0,1,56,214.67a18.2,18.2,0,0,1-3.12-11.06,20.93,20.93,0,0,1,5.55-12.56,34.57,34.57,0,0,1,5.55-5c.52-.36,1-.74,1.56-1.1l1.71-1.06,3.3-1.78A63.59,63.59,0,0,1,85.75,177a84.46,84.46,0,0,1,16.39-1.67A84.49,84.49,0,0,1,118.52,177a63.93,63.93,0,0,1,15.16,5.16,39.64,39.64,0,0,1,12.2,8.95,21.26,21.26,0,0,1,5.71,12.48,17.79,17.79,0,0,1-2.93,11.11,25.82,25.82,0,0,1-5.9,6.37,34.84,34.84,0,0,1-4.61,3l-1.72.91,1.59-1.11a41.69,41.69,0,0,0,4.17-3.48,26.59,26.59,0,0,0,5-6.55,16.43,16.43,0,0,0,1.89-10,19.19,19.19,0,0,0-5.6-10.53A38.82,38.82,0,0,0,132,185.63a66.35,66.35,0,0,0-14.35-4.5,82.21,82.21,0,0,0-31.11-.07,65.06,65.06,0,0,0-14.31,4.41l-3.35,1.69-1.46.86c-.51.3-1,.63-1.49.94a31.83,31.83,0,0,0-5.21,4.27,19,19,0,0,0-5.45,10.59,16.8,16.8,0,0,0,2.07,10,27.16,27.16,0,0,0,5.09,6.52,43.86,43.86,0,0,0,4.18,3.47Z"/><g class="cls-5"><path class="cls-3" d="M102.26,500.29a7.78,7.78,0,0,1-3.83-.93,3,3,0,0,1,0-5.64,8.54,8.54,0,0,1,7.6,0,3.4,3.4,0,0,1,1.91,2.84,3.36,3.36,0,0,1-1.88,2.81A7.71,7.71,0,0,1,102.26,500.29Zm-.07-5.32a5.54,5.54,0,0,0-2.69.63c-.5.29-.8.64-.8.93s.31.66.82,1a6.41,6.41,0,0,0,5.43,0c.5-.29.8-.64.8-.93s-.31-.66-.82-1A5.72,5.72,0,0,0,102.19,495Z"/><rect class="cls-3" x="105.75" y="435.53" width="2.17" height="61.01"/><rect class="cls-3" x="96.53" y="435.53" width="2.17" height="61.01"/></g><path class="cls-3" d="M102.36,458.38a32.05,32.05,0,0,1-15.65-3.74c-4.35-2.52-6.77-5.91-6.8-9.57A1.08,1.08,0,0,1,81,444h0a1.08,1.08,0,0,1,1.08,1.08c0,2.86,2.07,5.6,5.73,7.71,8,4.62,21,4.65,28.94.06,3.66-2.12,5.66-4.87,5.63-7.75a1.07,1.07,0,0,1,1.07-1.09h0a1.08,1.08,0,0,1,1.09,1.07c0,3.7-2.35,7.12-6.72,9.64A31.56,31.56,0,0,1,102.36,458.38Z"/><path class="cls-3" d="M102.36,480.12a32.05,32.05,0,0,1-15.65-3.74c-4.35-2.51-6.77-5.91-6.8-9.57A1.07,1.07,0,0,1,81,465.72h0a1.07,1.07,0,0,1,1.08,1.07c0,2.86,2.07,5.6,5.73,7.71,8,4.63,21,4.65,28.94.06,3.66-2.12,5.66-4.87,5.63-7.75a1.08,1.08,0,0,1,1.07-1.1h0a1.1,1.1,0,0,1,1.09,1.07c0,3.7-2.34,7.13-6.72,9.66A31.67,31.67,0,0,1,102.36,480.12Z"/><path class="cls-3" d="M102.37,488a33.72,33.72,0,0,1-16.5-3.95c-3.78-2.18-6.18-5-6.92-8.12a9,9,0,0,1,1.37-7.19L82.13,470a7,7,0,0,0-1.08,5.5c.61,2.53,2.65,4.86,5.9,6.74,8.48,4.9,22.22,4.92,30.64.06,3.26-1.88,5.27-4.22,5.83-6.76a7.1,7.1,0,0,0-1.32-5.7l1.77-1.25a9.23,9.23,0,0,1,1.67,7.41c-.69,3.16-3.07,6-6.86,8.18A33.39,33.39,0,0,1,102.37,488Z"/><path class="cls-3" d="M102.36,493.28a33.14,33.14,0,0,1-16.19-3.88c-3.73-2.15-6.08-4.92-6.81-8a8.88,8.88,0,0,1,1.39-7.09l1.8,1.2a6.82,6.82,0,0,0-1.08,5.4c.59,2.48,2.59,4.77,5.78,6.61,8.31,4.8,21.79,4.83,30,.06,3.19-1.84,5.17-4.13,5.71-6.63a6.9,6.9,0,0,0-1.31-5.58l1.77-1.26a9,9,0,0,1,1.66,7.3c-.68,3.11-3,5.89-6.74,8A32.72,32.72,0,0,1,102.36,493.28Z"/><path class="cls-3" d="M102.36,498.53a32.46,32.46,0,0,1-15.9-3.81c-3.66-2.11-6-4.84-6.69-7.87a8.8,8.8,0,0,1,1.4-7l1.8,1.21a6.67,6.67,0,0,0-1.08,5.3c.57,2.43,2.53,4.68,5.66,6.49,8.14,4.7,21.35,4.72,29.44,0,3.13-1.8,5.07-4,5.59-6.5a6.77,6.77,0,0,0-1.3-5.47l1.76-1.27a8.89,8.89,0,0,1,1.66,7.2c-.66,3.06-3,5.8-6.62,7.92A32.14,32.14,0,0,1,102.36,498.53Z"/><path class="cls-3" d="M102.36,503.78a32,32,0,0,1-15.6-3.73c-3.6-2.08-5.88-4.78-6.57-7.76a8.65,8.65,0,0,1,1.41-6.9l1.79,1.22a6.56,6.56,0,0,0-1.09,5.2c.56,2.38,2.48,4.59,5.55,6.36,8,4.61,20.91,4.63,28.84.05,3.07-1.76,5-4,5.48-6.37a6.64,6.64,0,0,0-1.3-5.36l1.76-1.27a8.77,8.77,0,0,1,1.66,7.08c-.65,3-2.91,5.72-6.51,7.8A31.56,31.56,0,0,1,102.36,503.78Z"/><path class="cls-3" d="M102.35,509a31.24,31.24,0,0,1-15.29-3.66c-3.54-2.05-5.78-4.7-6.46-7.64a8.51,8.51,0,0,1,1.43-6.8l1.78,1.23a6.39,6.39,0,0,0-1.09,5.09c.53,2.34,2.42,4.51,5.42,6.24,7.82,4.51,20.49,4.54,28.25.06,3-1.74,4.86-3.9,5.36-6.24a6.56,6.56,0,0,0-1.28-5.26l1.74-1.28a8.6,8.6,0,0,1,1.66,7c-.63,3-2.85,5.63-6.39,7.67A30.89,30.89,0,0,1,102.35,509Z"/><path class="cls-3" d="M102.35,514.28a30.66,30.66,0,0,1-15-3.59c-3.49-2-5.69-4.62-6.34-7.52a8.32,8.32,0,0,1,1.44-6.7l1.77,1.24a6.26,6.26,0,0,0-1.1,5c.52,2.29,2.37,4.41,5.31,6.11,7.65,4.42,20,4.44,27.65.06,2.94-1.7,4.76-3.82,5.24-6.11a6.32,6.32,0,0,0-1.27-5.14l1.74-1.29a8.45,8.45,0,0,1,1.65,6.87c-.61,2.91-2.79,5.53-6.27,7.54A30.28,30.28,0,0,1,102.35,514.28Z"/><path class="cls-3" d="M102.35,519.53A30,30,0,0,1,87.66,516c-3.43-2-5.59-4.55-6.23-7.39A8.24,8.24,0,0,1,82.89,502l1.76,1.26a6.06,6.06,0,0,0-1.1,4.89c.5,2.24,2.31,4.32,5.19,6,7.48,4.33,19.62,4.35,27.05.06,2.87-1.66,4.66-3.74,5.12-6a6.19,6.19,0,0,0-1.26-5l1.73-1.3a8.31,8.31,0,0,1,1.66,6.77c-.6,2.86-2.74,5.44-6.16,7.42A29.81,29.81,0,0,1,102.35,519.53Z"/><path class="cls-3" d="M102.35,524.78A29.41,29.41,0,0,1,88,521.33c-3.36-1.94-5.49-4.47-6.1-7.27a8,8,0,0,1,1.47-6.52l1.75,1.27A5.92,5.92,0,0,0,84,513.6c.48,2.19,2.25,4.23,5.07,5.86,7.32,4.22,19.18,4.25,26.45,0,2.81-1.62,4.55-3.66,5-5.84a6.12,6.12,0,0,0-1.26-4.93l1.73-1.3a8.16,8.16,0,0,1,1.65,6.66c-.58,2.81-2.68,5.35-6,7.29A29.13,29.13,0,0,1,102.35,524.78Z"/><path class="cls-3" d="M102.34,530a28.9,28.9,0,0,1-14.09-3.37c-3.3-1.91-5.39-4.41-6-7.16a7.94,7.94,0,0,1,1.48-6.42l1.75,1.28a5.81,5.81,0,0,0-1.11,4.69c.47,2.14,2.2,4.14,5,5.73,7.15,4.13,18.75,4.15,25.85.05,2.75-1.58,4.45-3.58,4.89-5.71a5.94,5.94,0,0,0-1.25-4.82l1.72-1.31a8,8,0,0,1,1.65,6.55c-.56,2.77-2.63,5.26-5.92,7.17A28.56,28.56,0,0,1,102.34,530Z"/><path class="cls-3" d="M102.34,535.28A28.18,28.18,0,0,1,88.55,532c-3.24-1.87-5.3-4.33-5.87-7a7.76,7.76,0,0,1,1.49-6.32l1.74,1.29a5.67,5.67,0,0,0-1.11,4.59c.45,2.09,2.14,4,4.83,5.6,7,4,18.32,4.06,25.26,0,2.68-1.55,4.35-3.49,4.77-5.58a5.78,5.78,0,0,0-1.24-4.7l1.72-1.33a7.94,7.94,0,0,1,1.65,6.45c-.55,2.71-2.58,5.17-5.81,7A27.87,27.87,0,0,1,102.34,535.28Z"/><path class="cls-3" d="M102.34,540.53a27.58,27.58,0,0,1-13.49-3.23c-3.19-1.84-5.2-4.26-5.76-6.91a7.67,7.67,0,0,1,1.51-6.23l1.73,1.3A5.52,5.52,0,0,0,85.22,530c.43,2,2.08,3.95,4.71,5.47,6.82,3.94,17.89,4,24.66.05,2.62-1.51,4.24-3.41,4.65-5.44a5.63,5.63,0,0,0-1.23-4.6l1.71-1.33a7.77,7.77,0,0,1,1.65,6.34c-.53,2.66-2.52,5.08-5.69,6.91A27.27,27.27,0,0,1,102.34,540.53Z"/><path class="cls-3" d="M102.34,545.78a26.89,26.89,0,0,1-13.19-3.16c-3.13-1.8-5.1-4.18-5.64-6.79A7.5,7.5,0,0,1,85,529.69L86.75,531a5.38,5.38,0,0,0-1.12,4.39c.42,2,2,3.86,4.6,5.35,6.66,3.84,17.45,3.86,24.06,0,2.56-1.47,4.14-3.33,4.54-5.31A5.51,5.51,0,0,0,117.6,531l1.71-1.34a7.58,7.58,0,0,1,1.64,6.24c-.51,2.61-2.46,5-5.57,6.78A26.69,26.69,0,0,1,102.34,545.78Z"/><path class="cls-3" d="M102.33,551A26.42,26.42,0,0,1,89.44,548c-3.06-1.77-5-4.12-5.52-6.68a7.36,7.36,0,0,1,1.54-6l1.71,1.33a5.24,5.24,0,0,0-1.12,4.29c.39,1.94,2,3.77,4.48,5.22,6.49,3.75,17,3.77,23.46,0,2.49-1.43,4-3.25,4.42-5.18a5.34,5.34,0,0,0-1.22-4.38l1.7-1.34a7.44,7.44,0,0,1,1.65,6.13c-.5,2.56-2.42,4.89-5.46,6.65A26,26,0,0,1,102.33,551Z"/><path class="cls-3" d="M102.33,556.28a25.84,25.84,0,0,1-12.59-3c-3-1.74-4.9-4-5.4-6.56a7.25,7.25,0,0,1,1.54-5.94l1.71,1.34a5.13,5.13,0,0,0-1.13,4.19c.38,1.89,1.91,3.67,4.37,5.09,6.32,3.65,16.58,3.67,22.86,0,2.43-1.4,3.94-3.17,4.3-5a5.21,5.21,0,0,0-1.2-4.26l1.69-1.36a7.33,7.33,0,0,1,1.64,6c-.48,2.51-2.36,4.8-5.34,6.52A25.44,25.44,0,0,1,102.33,556.28Z"/><path class="cls-3" d="M102.33,561.53A25.1,25.1,0,0,1,90,558.59c-3-1.7-4.81-4-5.29-6.44a7.11,7.11,0,0,1,1.56-5.84l1.7,1.35a5,5,0,0,0-1.13,4.09c.36,1.84,1.85,3.58,4.24,5,6.16,3.56,16.15,3.58,22.27,0,2.36-1.37,3.83-3.1,4.18-4.92a5.06,5.06,0,0,0-1.19-4.16l1.68-1.36a7.15,7.15,0,0,1,1.64,5.91c-.46,2.46-2.3,4.72-5.22,6.4A24.86,24.86,0,0,1,102.33,561.53Z"/><path class="cls-3" d="M102.33,566.78a24.52,24.52,0,0,1-12-2.87c-2.89-1.67-4.71-3.89-5.17-6.31a7,7,0,0,1,1.57-5.75l1.69,1.35a4.89,4.89,0,0,0-1.13,4c.34,1.79,1.79,3.49,4.12,4.83,6,3.47,15.72,3.49,21.67.05,2.3-1.33,3.73-3,4.06-4.79a4.92,4.92,0,0,0-1.18-4l1.68-1.37a7.07,7.07,0,0,1,1.64,5.81c-.45,2.41-2.25,4.62-5.11,6.27A24.15,24.15,0,0,1,102.33,566.78Z"/><path class="cls-3" d="M102.32,572a23.86,23.86,0,0,1-11.69-2.8c-2.82-1.63-4.61-3.82-5-6.19a6.86,6.86,0,0,1,1.59-5.65l1.68,1.36a4.78,4.78,0,0,0-1.14,3.9c.33,1.74,1.74,3.4,4,4.71,5.83,3.36,15.28,3.38,21.08,0,2.23-1.29,3.62-2.93,3.94-4.66a4.8,4.8,0,0,0-1.18-3.94l1.67-1.37a6.87,6.87,0,0,1,1.64,5.7c-.43,2.36-2.2,4.53-5,6.14A23.61,23.61,0,0,1,102.32,572Z"/><path class="cls-3" d="M102.32,577.28a23.37,23.37,0,0,1-11.39-2.72c-2.76-1.6-4.51-3.75-4.93-6.08a6.69,6.69,0,0,1,1.6-5.56l1.67,1.38a4.61,4.61,0,0,0-1.14,3.8c.31,1.69,1.68,3.31,3.89,4.58,5.66,3.27,14.85,3.29,20.48,0,2.16-1.25,3.52-2.85,3.82-4.52a4.66,4.66,0,0,0-1.17-3.83l1.67-1.39a6.75,6.75,0,0,1,1.63,5.6c-.41,2.31-2.14,4.44-4.87,6A23,23,0,0,1,102.32,577.28Z"/><path class="cls-3" d="M102.32,582.53a22.65,22.65,0,0,1-11.09-2.65c-2.71-1.57-4.41-3.68-4.82-6A6.55,6.55,0,0,1,88,568.46l1.66,1.39a4.51,4.51,0,0,0-1.15,3.7c.3,1.64,1.63,3.21,3.77,4.45,5.5,3.18,14.42,3.19,19.89,0,2.1-1.22,3.41-2.77,3.7-4.39a4.5,4.5,0,0,0-1.16-3.72l1.66-1.39A6.6,6.6,0,0,1,118,574c-.4,2.26-2.09,4.34-4.76,5.89A22.45,22.45,0,0,1,102.32,582.53Z"/><path class="cls-3" d="M102.32,587.78a22,22,0,0,1-10.79-2.58c-2.65-1.53-4.32-3.6-4.71-5.83A6.47,6.47,0,0,1,88.45,574l1.66,1.4A4.38,4.38,0,0,0,89,579c.28,1.59,1.57,3.12,3.65,4.32,5.34,3.08,14,3.1,19.29,0,2-1.18,3.31-2.69,3.58-4.26a4.34,4.34,0,0,0-1.15-3.61l1.66-1.4a6.47,6.47,0,0,1,1.63,5.38c-.38,2.22-2,4.26-4.64,5.77A21.88,21.88,0,0,1,102.32,587.78Z"/><path class="cls-3" d="M102.32,587.78a22,22,0,0,1-10.79-2.58c-2.65-1.53-4.32-3.6-4.71-5.83A6.47,6.47,0,0,1,88.45,574l1.66,1.4A4.38,4.38,0,0,0,89,579c.28,1.59,1.57,3.12,3.65,4.32,5.34,3.08,14,3.1,19.29,0,2-1.18,3.31-2.69,3.58-4.26a4.34,4.34,0,0,0-1.15-3.61l1.66-1.4a6.47,6.47,0,0,1,1.63,5.38c-.38,2.22-2,4.26-4.64,5.77A21.88,21.88,0,0,1,102.32,587.78Z"/><path class="cls-3" d="M102.32,587.78a22,22,0,0,1-10.79-2.58c-2.65-1.53-4.32-3.6-4.71-5.83A6.47,6.47,0,0,1,88.45,574l1.66,1.4A4.38,4.38,0,0,0,89,579c.28,1.59,1.57,3.12,3.65,4.32,5.34,3.08,14,3.1,19.29,0,2-1.18,3.31-2.69,3.58-4.26a4.34,4.34,0,0,0-1.15-3.61l1.66-1.4a6.47,6.47,0,0,1,1.63,5.38c-.38,2.22-2,4.26-4.64,5.77A21.88,21.88,0,0,1,102.32,587.78Z"/><path class="cls-3" d="M102.32,587.78a22,22,0,0,1-10.79-2.58c-2.65-1.53-4.32-3.6-4.71-5.83A6.47,6.47,0,0,1,88.45,574l1.66,1.4A4.38,4.38,0,0,0,89,579c.28,1.59,1.57,3.12,3.65,4.32,5.34,3.08,14,3.1,19.29,0,2-1.18,3.31-2.69,3.58-4.26a4.34,4.34,0,0,0-1.15-3.61l1.66-1.4a6.47,6.47,0,0,1,1.63,5.38c-.38,2.22-2,4.26-4.64,5.77A21.88,21.88,0,0,1,102.32,587.78Z"/><path class="cls-3" d="M102.32,587.78a22,22,0,0,1-10.79-2.58c-2.65-1.53-4.32-3.6-4.71-5.83A6.47,6.47,0,0,1,88.45,574l1.66,1.4A4.38,4.38,0,0,0,89,579c.28,1.59,1.57,3.12,3.65,4.32,5.34,3.08,14,3.1,19.29,0,2-1.18,3.31-2.69,3.58-4.26a4.34,4.34,0,0,0-1.15-3.61l1.66-1.4a6.47,6.47,0,0,1,1.63,5.38c-.38,2.22-2,4.26-4.64,5.77A21.88,21.88,0,0,1,102.32,587.78Z"/><path class="cls-3" d="M102.32,587.78a22,22,0,0,1-10.79-2.58c-2.65-1.53-4.32-3.6-4.71-5.83A6.47,6.47,0,0,1,88.45,574l1.66,1.4A4.38,4.38,0,0,0,89,579c.28,1.59,1.57,3.12,3.65,4.32,5.34,3.08,14,3.1,19.29,0,2-1.18,3.31-2.69,3.58-4.26a4.34,4.34,0,0,0-1.15-3.61l1.66-1.4a6.47,6.47,0,0,1,1.63,5.38c-.38,2.22-2,4.26-4.64,5.77A21.88,21.88,0,0,1,102.32,587.78Z"/><path class="cls-3" d="M102.32,587.78a22,22,0,0,1-10.79-2.58c-2.65-1.53-4.32-3.6-4.71-5.83A6.47,6.47,0,0,1,88.45,574l1.66,1.4A4.38,4.38,0,0,0,89,579c.28,1.59,1.57,3.12,3.65,4.32,5.34,3.08,14,3.1,19.29,0,2-1.18,3.31-2.69,3.58-4.26a4.34,4.34,0,0,0-1.15-3.61l1.66-1.4a6.47,6.47,0,0,1,1.63,5.38c-.38,2.22-2,4.26-4.64,5.77A21.88,21.88,0,0,1,102.32,587.78Z"/><path class="cls-3" d="M102.32,587.78a22,22,0,0,1-10.79-2.58c-2.65-1.53-4.32-3.6-4.71-5.83A6.47,6.47,0,0,1,88.45,574l1.66,1.4A4.38,4.38,0,0,0,89,579c.28,1.59,1.57,3.12,3.65,4.32,5.34,3.08,14,3.1,19.29,0,2-1.18,3.31-2.69,3.58-4.26a4.34,4.34,0,0,0-1.15-3.61l1.66-1.4a6.47,6.47,0,0,1,1.63,5.38c-.38,2.22-2,4.26-4.64,5.77A21.88,21.88,0,0,1,102.32,587.78Z"/><path class="cls-3" d="M102.32,587.78a22,22,0,0,1-10.79-2.58c-2.65-1.53-4.32-3.6-4.71-5.83A6.47,6.47,0,0,1,88.45,574l1.66,1.4A4.38,4.38,0,0,0,89,579c.28,1.59,1.57,3.12,3.65,4.32,5.34,3.08,14,3.1,19.29,0,2-1.18,3.31-2.69,3.58-4.26a4.34,4.34,0,0,0-1.15-3.61l1.66-1.4a6.47,6.47,0,0,1,1.63,5.38c-.38,2.22-2,4.26-4.64,5.77A21.88,21.88,0,0,1,102.32,587.78Z"/><path class="cls-3" d="M102.32,587.78a22,22,0,0,1-10.79-2.58c-2.65-1.53-4.32-3.6-4.71-5.83A6.47,6.47,0,0,1,88.45,574l1.66,1.4A4.38,4.38,0,0,0,89,579c.28,1.59,1.57,3.12,3.65,4.32,5.34,3.08,14,3.1,19.29,0,2-1.18,3.31-2.69,3.58-4.26a4.34,4.34,0,0,0-1.15-3.61l1.66-1.4a6.47,6.47,0,0,1,1.63,5.38c-.38,2.22-2,4.26-4.64,5.77A21.88,21.88,0,0,1,102.32,587.78Z"/><path class="cls-3" d="M102.32,587.78a22,22,0,0,1-10.79-2.58c-2.65-1.53-4.32-3.6-4.71-5.83A6.47,6.47,0,0,1,88.45,574l1.66,1.4A4.38,4.38,0,0,0,89,579c.28,1.59,1.57,3.12,3.65,4.32,5.34,3.08,14,3.1,19.29,0,2-1.18,3.31-2.69,3.58-4.26a4.34,4.34,0,0,0-1.15-3.61l1.66-1.4a6.47,6.47,0,0,1,1.63,5.38c-.38,2.22-2,4.26-4.64,5.77A21.88,21.88,0,0,1,102.32,587.78Z"/><path class="cls-3" d="M102.32,587.78a22,22,0,0,1-10.79-2.58c-2.65-1.53-4.32-3.6-4.71-5.83A6.47,6.47,0,0,1,88.45,574l1.66,1.4A4.38,4.38,0,0,0,89,579c.28,1.59,1.57,3.12,3.65,4.32,5.34,3.08,14,3.1,19.29,0,2-1.18,3.31-2.69,3.58-4.26a4.34,4.34,0,0,0-1.15-3.61l1.66-1.4a6.47,6.47,0,0,1,1.63,5.38c-.38,2.22-2,4.26-4.64,5.77A21.88,21.88,0,0,1,102.32,587.78Z"/><path class="cls-3" d="M102.32,587.78a22,22,0,0,1-10.79-2.58c-2.65-1.53-4.32-3.6-4.71-5.83A6.47,6.47,0,0,1,88.45,574l1.66,1.4A4.38,4.38,0,0,0,89,579c.28,1.59,1.57,3.12,3.65,4.32,5.34,3.08,14,3.1,19.29,0,2-1.18,3.31-2.69,3.58-4.26a4.34,4.34,0,0,0-1.15-3.61l1.66-1.4a6.47,6.47,0,0,1,1.63,5.38c-.38,2.22-2,4.26-4.64,5.77A21.88,21.88,0,0,1,102.32,587.78Z"/><path class="cls-3" d="M102.32,587.78a22,22,0,0,1-10.79-2.58c-2.65-1.53-4.32-3.6-4.71-5.83A6.47,6.47,0,0,1,88.45,574l1.66,1.4A4.38,4.38,0,0,0,89,579c.28,1.59,1.57,3.12,3.65,4.32,5.34,3.08,14,3.1,19.29,0,2-1.18,3.31-2.69,3.58-4.26a4.34,4.34,0,0,0-1.15-3.61l1.66-1.4a6.47,6.47,0,0,1,1.63,5.38c-.38,2.22-2,4.26-4.64,5.77A21.88,21.88,0,0,1,102.32,587.78Z"/><path class="cls-3" d="M102.32,587.78a22,22,0,0,1-10.79-2.58c-2.65-1.53-4.32-3.6-4.71-5.83A6.47,6.47,0,0,1,88.45,574l1.66,1.4A4.38,4.38,0,0,0,89,579c.28,1.59,1.57,3.12,3.65,4.32,5.34,3.08,14,3.1,19.29,0,2-1.18,3.31-2.69,3.58-4.26a4.34,4.34,0,0,0-1.15-3.61l1.66-1.4a6.47,6.47,0,0,1,1.63,5.38c-.38,2.22-2,4.26-4.64,5.77A21.88,21.88,0,0,1,102.32,587.78Z"/><path class="cls-3" d="M102.32,587.78a22,22,0,0,1-10.79-2.58c-2.65-1.53-4.32-3.6-4.71-5.83A6.47,6.47,0,0,1,88.45,574l1.66,1.4A4.38,4.38,0,0,0,89,579c.28,1.59,1.57,3.12,3.65,4.32,5.34,3.08,14,3.1,19.29,0,2-1.18,3.31-2.69,3.58-4.26a4.34,4.34,0,0,0-1.15-3.61l1.66-1.4a6.47,6.47,0,0,1,1.63,5.38c-.38,2.22-2,4.26-4.64,5.77A21.88,21.88,0,0,1,102.32,587.78Z"/><path class="cls-3" d="M102.32,587.78a22,22,0,0,1-10.79-2.58c-2.65-1.53-4.32-3.6-4.71-5.83A6.47,6.47,0,0,1,88.45,574l1.66,1.4A4.38,4.38,0,0,0,89,579c.28,1.59,1.57,3.12,3.65,4.32,5.34,3.08,14,3.1,19.29,0,2-1.18,3.31-2.69,3.58-4.26a4.34,4.34,0,0,0-1.15-3.61l1.66-1.4a6.47,6.47,0,0,1,1.63,5.38c-.38,2.22-2,4.26-4.64,5.77A21.88,21.88,0,0,1,102.32,587.78Z"/><path class="cls-3" d="M102.32,587.78a22,22,0,0,1-10.79-2.58c-2.65-1.53-4.32-3.6-4.71-5.83A6.47,6.47,0,0,1,88.45,574l1.66,1.4A4.38,4.38,0,0,0,89,579c.28,1.59,1.57,3.12,3.65,4.32,5.34,3.08,14,3.1,19.29,0,2-1.18,3.31-2.69,3.58-4.26a4.34,4.34,0,0,0-1.15-3.61l1.66-1.4a6.47,6.47,0,0,1,1.63,5.38c-.38,2.22-2,4.26-4.64,5.77A21.88,21.88,0,0,1,102.32,587.78Z"/><path class="cls-3" d="M102.32,587.78a22,22,0,0,1-10.79-2.58c-2.65-1.53-4.32-3.6-4.71-5.83A6.47,6.47,0,0,1,88.45,574l1.66,1.4A4.38,4.38,0,0,0,89,579c.28,1.59,1.57,3.12,3.65,4.32,5.34,3.08,14,3.1,19.29,0,2-1.18,3.31-2.69,3.58-4.26a4.34,4.34,0,0,0-1.15-3.61l1.66-1.4a6.47,6.47,0,0,1,1.63,5.38c-.38,2.22-2,4.26-4.64,5.77A21.88,21.88,0,0,1,102.32,587.78Z"/><path class="cls-3" d="M102.32,587.78a22,22,0,0,1-10.79-2.58c-2.65-1.53-4.32-3.6-4.71-5.83A6.47,6.47,0,0,1,88.45,574l1.66,1.4A4.38,4.38,0,0,0,89,579c.28,1.59,1.57,3.12,3.65,4.32,5.34,3.08,14,3.1,19.29,0,2-1.18,3.31-2.69,3.58-4.26a4.34,4.34,0,0,0-1.15-3.61l1.66-1.4a6.47,6.47,0,0,1,1.63,5.38c-.38,2.22-2,4.26-4.64,5.77A21.88,21.88,0,0,1,102.32,587.78Z"/><path class="cls-3" d="M102.25,439.28a7.77,7.77,0,0,1-3.82-.93,3,3,0,0,1,0-5.64,8.5,8.5,0,0,1,7.6,0,3.37,3.37,0,0,1,1.9,2.83,3.33,3.33,0,0,1-1.88,2.81A7.66,7.66,0,0,1,102.25,439.28Zm-.06-5.32a5.54,5.54,0,0,0-2.69.63c-.5.28-.8.63-.8.93s.3.65.82,1a6.37,6.37,0,0,0,5.43,0c.5-.28.8-.63.8-.93s-.31-.66-.82-.95A5.63,5.63,0,0,0,102.19,434Z"/><path class="cls-3" d="M102.3,443.83a19.22,19.22,0,0,1-9.42-2.27c-2.73-1.58-4.23-3.73-4.23-6.07s1.48-4.46,4.17-6a20.58,20.58,0,0,1,18.75,0c2.72,1.57,4.23,3.72,4.23,6.06s-1.48,4.45-4.18,6A19,19,0,0,1,102.3,443.83Zm-.15-14.42a16.73,16.73,0,0,0-8.24,1.95c-2,1.15-3.09,2.62-3.09,4.13s1.12,3,3.14,4.19a17,17,0,0,0,8.34,2,16.73,16.73,0,0,0,8.24-2c2-1.15,3.09-2.62,3.09-4.13s-1.12-3-3.15-4.19A16.91,16.91,0,0,0,102.15,429.41Z"/><path class="cls-3" d="M124.54,445.06h-2.17c0-9.08-12.74-14.08-12.87-14.13l.78-2C110.86,429.13,124.54,434.49,124.54,445.06Z"/><path class="cls-3" d="M82.08,445.06H79.91c0-10.57,13.68-15.93,14.26-16.15l.78,2C94.82,431,82.08,436,82.08,445.06Z"/><path class="cls-3" d="M89.9,583.92a1.09,1.09,0,0,1-1.08-1L79.91,466.35V445.06a1.09,1.09,0,0,1,2.17,0v21.2L91,582.75a1.09,1.09,0,0,1-1,1.17Z"/><path class="cls-3" d="M114.54,583.92h-.08a1.09,1.09,0,0,1-1-1.17l8.91-116.57V445.06a1.09,1.09,0,1,1,2.17,0v21.2l-8.92,116.66A1.08,1.08,0,0,1,114.54,583.92Z"/><path class="cls-3" d="M102.22,596.24a13.41,13.41,0,0,1-13.4-13.4,1.08,1.08,0,1,1,2.16,0,11.24,11.24,0,0,0,22.48,0,1.09,1.09,0,1,1,2.17,0A13.42,13.42,0,0,1,102.22,596.24Z"/><path class="cls-3" d="M123.45,467.89a1.09,1.09,0,0,1-1.08-1.09V445.06a1.09,1.09,0,1,1,2.17,0V466.8A1.09,1.09,0,0,1,123.45,467.89Z"/><path class="cls-3" d="M81,467.89a1.08,1.08,0,0,1-1.08-1.09V445.06a1.09,1.09,0,1,1,2.17,0V466.8A1.09,1.09,0,0,1,81,467.89Z"/><rect class="cls-3" x="105.75" y="340.77" width="2.17" height="21.5"/><rect class="cls-3" x="96.53" y="340.77" width="2.17" height="21.47"/><path class="cls-3" d="M123.45,351.38a1.09,1.09,0,0,1-1.08-1.07c0-2.86-2.07-5.6-5.73-7.71-8-4.63-21-4.66-28.93-.06-3.67,2.11-5.66,4.86-5.64,7.74a1.08,1.08,0,0,1-1.07,1.1h0a1.08,1.08,0,0,1-1.08-1.07c0-3.7,2.34-7.13,6.71-9.65,8.56-4.94,22.51-4.91,31.11.06,4.35,2.51,6.76,5.91,6.81,9.56a1.1,1.1,0,0,1-1.07,1.1Z"/><path class="cls-3" d="M102.36,363.62a32,32,0,0,1-15.65-3.75c-4.35-2.51-6.77-5.91-6.8-9.56a1.08,1.08,0,0,1,1.07-1.1h0a1.08,1.08,0,0,1,1.08,1.07c0,2.86,2.07,5.6,5.73,7.72,8,4.62,21,4.64,28.94.05,3.66-2.11,5.66-4.86,5.63-7.74a1.08,1.08,0,0,1,1.07-1.1h0a1.09,1.09,0,0,1,1.09,1.07c0,3.7-2.35,7.13-6.72,9.65A31.56,31.56,0,0,1,102.36,363.62Z"/><path class="cls-3" d="M130.27,347.25a1.09,1.09,0,0,1-1-.64c-1.2-2.68-3.68-5.16-7.17-7.17-11-6.37-28.94-6.41-39.9-.08-3.49,2-5.95,4.51-7.11,7.21a1.09,1.09,0,0,1-1.43.56,1.07,1.07,0,0,1-.56-1.42c1.35-3.13,4.12-6,8-8.22,11.57-6.68,30.44-6.65,42.08.07,3.88,2.24,6.67,5.06,8.06,8.16a1.09,1.09,0,0,1-.54,1.43A1,1,0,0,1,130.27,347.25Z"/><path class="cls-3" d="M102.37,331.11c-6.06,0-12.12-1.33-16.74-4s-7.23-6.31-7.27-10.2a1.1,1.1,0,0,1,1.07-1.1h0a1.09,1.09,0,0,1,1.08,1.08c0,3.1,2.23,6.06,6.18,8.34,8.61,5,22.57,5,31.13.06,4-2.28,6.11-5.26,6.08-8.38a1.07,1.07,0,0,1,1.07-1.09h0a1.07,1.07,0,0,1,1.08,1.07c0,3.94-2.5,7.59-7.16,10.28S108.37,331.11,102.37,331.11Z"/><path class="cls-3" d="M102.3,296.9a19.15,19.15,0,0,1-9.42-2.29c-2.73-1.57-4.23-3.73-4.23-6.07s1.48-4.45,4.17-6a16.34,16.34,0,0,1,4.42-1.7,1.08,1.08,0,0,1,1.3.81,1.07,1.07,0,0,1-.81,1.3,13.82,13.82,0,0,0-3.82,1.47c-2,1.15-3.09,2.61-3.09,4.13s1.12,3,3.14,4.18c4.59,2.65,12,2.67,16.58,0,2-1.15,3.09-2.62,3.09-4.13s-1.12-3-3.15-4.19A14,14,0,0,0,106.7,283a1.08,1.08,0,0,1,.5-2.11,16.44,16.44,0,0,1,4.37,1.69c2.72,1.57,4.23,3.73,4.23,6.07s-1.49,4.45-4.18,6A19,19,0,0,1,102.3,296.9Z"/><path class="cls-3" d="M102.3,349.07a19.11,19.11,0,0,1-9.42-2.28c-2.73-1.57-4.23-3.73-4.23-6.06s1.48-4.46,4.17-6a18.94,18.94,0,0,1,9.33-2.24,19.19,19.19,0,0,1,9.42,2.27c2.72,1.58,4.23,3.73,4.23,6.07s-1.48,4.45-4.18,6A19,19,0,0,1,102.3,349.07Zm-.15-14.43a16.73,16.73,0,0,0-8.24,2c-2,1.15-3.09,2.61-3.09,4.13s1.12,3,3.14,4.18a17,17,0,0,0,8.34,2,16.73,16.73,0,0,0,8.24-1.95c2-1.15,3.09-2.62,3.09-4.13s-1.12-3-3.15-4.19A16.91,16.91,0,0,0,102.15,334.64Z"/><path class="cls-3" d="M102.25,284.87a7.77,7.77,0,0,1-3.82-.93,3,3,0,0,1,0-5.64,8.5,8.5,0,0,1,7.6,0,3,3,0,0,1,0,5.64A7.66,7.66,0,0,1,102.25,284.87Zm-.06-5.32a5.54,5.54,0,0,0-2.69.63c-.5.29-.8.63-.8.93s.3.65.82.95a6.37,6.37,0,0,0,5.43,0c.5-.28.8-.63.8-.93s-.31-.66-.82-.95A5.63,5.63,0,0,0,102.19,279.55Z"/><path class="cls-3" d="M102.25,292.33a7.88,7.88,0,0,1-3.82-.92,3.37,3.37,0,0,1-1.9-2.8l2.17,0c0,.3.31.65.82.95a6.1,6.1,0,0,0,5.43,0c.5-.29.8-.64.8-.94l2.17,0a3.35,3.35,0,0,1-1.88,2.84A7.73,7.73,0,0,1,102.25,292.33Z"/><rect class="cls-3" x="105.75" y="281.12" width="2.17" height="7.47"/><path class="cls-3" d="M124.54,350.3h-2.17c0-9.08-12.74-14.08-12.87-14.13l.78-2C110.86,334.37,124.54,339.73,124.54,350.3Z"/><path class="cls-3" d="M82.08,350.3H79.91c0-10.57,13.68-15.93,14.26-16.15l.78,2C94.82,336.22,82.08,341.22,82.08,350.3Z"/><rect class="cls-3" x="96.53" y="281.12" width="2.17" height="7.47"/><path class="cls-3" d="M102.25,344.52a7.77,7.77,0,0,1-3.82-.94,3,3,0,0,1,0-5.63,8.5,8.5,0,0,1,7.6,0,3,3,0,0,1,0,5.64A7.66,7.66,0,0,1,102.25,344.52Zm-.06-5.33a5.54,5.54,0,0,0-2.69.63c-.5.29-.8.64-.8.93s.3.66.82,1a6.41,6.41,0,0,0,5.43,0c.5-.29.8-.64.8-.93s-.31-.66-.82-1A5.75,5.75,0,0,0,102.19,339.19Z"/><rect class="cls-6" x="105.75" y="362.27" width="2.17" height="4.55"/><rect class="cls-6" x="96.53" y="362.24" width="2.17" height="4.55"/><path class="cls-3" d="M102.25,405.53a7.77,7.77,0,0,1-3.82-.93,3.35,3.35,0,0,1-1.9-2.8l2.17,0c0,.3.31.66.82,1a6.1,6.1,0,0,0,5.43,0c.5-.29.8-.64.8-.93l2.17,0a3.35,3.35,0,0,1-1.88,2.84A7.73,7.73,0,0,1,102.25,405.53Z"/><rect class="cls-3" x="105.75" y="366.82" width="2.17" height="34.96"/><rect class="cls-3" x="96.53" y="366.79" width="2.17" height="34.99"/><path class="cls-3" d="M125,318a1.08,1.08,0,0,1-1.08-1.08c0-2.5-1-3.8-2.17-5.46a13.34,13.34,0,0,1-3.15-9c0-8.05-3.62-15.79-6.73-17.08a1.08,1.08,0,1,1,.82-2c4.3,1.77,8.07,10.69,8.07,19.08a11.26,11.26,0,0,0,2.73,7.71c1.28,1.74,2.6,3.53,2.6,6.74A1.08,1.08,0,0,1,125,318Z"/><path class="cls-3" d="M130.27,347.26a1.09,1.09,0,0,1-1-.72,99.48,99.48,0,0,1-5.33-29.64,1.09,1.09,0,0,1,2.17,0,97,97,0,0,0,5.2,28.9,1.09,1.09,0,0,1-.65,1.39A1,1,0,0,1,130.27,347.26Z"/><path class="cls-3" d="M79.44,318a1.08,1.08,0,0,1-1.08-1.08c0-3.21,1.32-5,2.59-6.74a11.21,11.21,0,0,0,2.73-7.71c0-8.39,3.77-17.31,8.07-19.08a1.08,1.08,0,1,1,.83,2c-3.11,1.29-6.73,9-6.73,17.08a13.34,13.34,0,0,1-3.15,9c-1.21,1.66-2.17,3-2.17,5.46A1.08,1.08,0,0,1,79.44,318Z"/><path class="cls-3" d="M74.18,347.26a.94.94,0,0,1-.37-.07,1.08,1.08,0,0,1-.65-1.39,97.05,97.05,0,0,0,5.2-28.9,1.09,1.09,0,0,1,2.17,0,99.48,99.48,0,0,1-5.33,29.64A1.09,1.09,0,0,1,74.18,347.26Z"/><path class="cls-3" d="M102.41,368.09c-7.65,0-15.32-1.69-21.16-5.06-7.71-4.45-10.83-11.09-8.14-17.32a1.08,1.08,0,0,1,1.42-.57,1.1,1.1,0,0,1,.57,1.43c-2.25,5.21.45,10.66,7.24,14.58,11,6.37,28.94,6.41,39.9.08,6.77-3.91,9.4-9.38,7-14.62a1.09,1.09,0,0,1,2-.89c2.82,6.27-.22,12.93-7.93,17.38C117.57,366.43,110,368.09,102.41,368.09Z"/><path class="cls-3" d="M106.83,138.32a1.07,1.07,0,0,1-.25,0,20.18,20.18,0,0,0-8.85,0,1.07,1.07,0,0,1-1.3-.81,1.09,1.09,0,0,1,.81-1.3,22.19,22.19,0,0,1,9.83,0,1.08,1.08,0,0,1-.24,2.14Z"/><path class="cls-3" d="M102.37,186.44c-6.06,0-12.12-1.33-16.74-4s-7.23-6.3-7.27-10.2a1.08,1.08,0,0,1,1.07-1.1h0a1.09,1.09,0,0,1,1.08,1.08c0,3.1,2.23,6.06,6.18,8.34,8.61,5,22.57,5,31.13.06,4-2.28,6.11-5.26,6.08-8.38a1.07,1.07,0,0,1,1.07-1.09h0a1.07,1.07,0,0,1,1.08,1.07c0,3.94-2.5,7.58-7.16,10.28S108.37,186.44,102.37,186.44Z"/><path class="cls-3" d="M125,173.31a1.07,1.07,0,0,1-1.08-1.07c0-3.1-2.23-6.06-6.18-8.34-8.61-5-22.57-5-31.13-.06-4,2.28-6.11,5.26-6.08,8.38a1.09,1.09,0,0,1-1.07,1.09h0a1.09,1.09,0,0,1-1.09-1.07c0-3.94,2.5-7.59,7.17-10.28,9.15-5.28,24.09-5.26,33.29.06,4.64,2.68,7.22,6.3,7.26,10.2a1.07,1.07,0,0,1-1.07,1.09Z"/><path class="cls-3" d="M102.3,152.23a19.15,19.15,0,0,1-9.42-2.29c-2.73-1.57-4.23-3.73-4.23-6.07s1.48-4.45,4.17-6a16.34,16.34,0,0,1,4.42-1.7,1.08,1.08,0,0,1,1.3.81,1.07,1.07,0,0,1-.8,1.3,13.77,13.77,0,0,0-3.83,1.47c-2,1.14-3.09,2.61-3.09,4.12s1.12,3,3.14,4.19c4.59,2.65,12,2.67,16.58,0,2-1.15,3.09-2.62,3.09-4.13s-1.12-3-3.15-4.19a14,14,0,0,0-3.9-1.49,1.09,1.09,0,0,1-.81-1.3,1.07,1.07,0,0,1,1.3-.81,16.46,16.46,0,0,1,4.5,1.72c2.72,1.57,4.23,3.73,4.23,6.07s-1.49,4.45-4.18,6A19,19,0,0,1,102.3,152.23Z"/><path class="cls-3" d="M130.27,203.66a2.16,2.16,0,0,1-2-1.28c-1.11-2.47-3.43-4.78-6.72-6.67-10.74-6.2-28.15-6.24-38.82-.08-3.29,1.9-5.59,4.21-6.66,6.7a2.17,2.17,0,0,1-4-1.72c1.44-3.35,4.37-6.37,8.47-8.73,11.86-6.85,31.23-6.82,43.16.07,4.08,2.36,7,5.35,8.51,8.66a2.17,2.17,0,0,1-2,3Z"/><path class="cls-3" d="M102.25,140.2a7.77,7.77,0,0,1-3.82-.93,3,3,0,0,1,0-5.64,8.5,8.5,0,0,1,7.6,0,3,3,0,0,1,0,5.64A7.66,7.66,0,0,1,102.25,140.2Zm-.06-5.32a5.54,5.54,0,0,0-2.69.63c-.5.28-.8.63-.8.93s.3.65.82.95a6.37,6.37,0,0,0,5.43,0c.5-.28.8-.63.8-.93s-.31-.66-.82-.95A5.63,5.63,0,0,0,102.19,134.88Z"/><path class="cls-3" d="M96.56,144.33a3.23,3.23,0,0,1,1.85-3.23,8.32,8.32,0,0,1,7.6,0,3.36,3.36,0,0,1,1.9,2.79l-2.16,0c0-.3-.31-.66-.82-.95a6.1,6.1,0,0,0-5.43,0c-.55.32-.85.69-.8,1Z"/><path class="cls-3" d="M102.25,147.66a7.77,7.77,0,0,1-3.82-.93,3.34,3.34,0,0,1-1.9-2.79l2.17,0c0,.3.31.65.82,1a6.1,6.1,0,0,0,5.43,0c.5-.29.8-.64.8-.94l2.17,0a3.35,3.35,0,0,1-1.88,2.84A7.73,7.73,0,0,1,102.25,147.66Z"/><rect class="cls-3" x="105.75" y="136.45" width="2.17" height="7.47"/><rect class="cls-3" x="96.53" y="136.45" width="2.17" height="7.47"/><path class="cls-3" d="M125,173.31a1.08,1.08,0,0,1-1.08-1.08c0-2.5-1-3.8-2.17-5.46a13.34,13.34,0,0,1-3.15-9c0-8.05-3.62-15.79-6.73-17.08a1.08,1.08,0,1,1,.82-2c4.3,1.77,8.07,10.69,8.07,19.08a11.26,11.26,0,0,0,2.73,7.71c1.28,1.74,2.6,3.53,2.6,6.74A1.08,1.08,0,0,1,125,173.31Z"/><path class="cls-3" d="M79.44,173.31a1.08,1.08,0,0,1-1.08-1.08c0-3.21,1.32-5,2.59-6.74a11.21,11.21,0,0,0,2.73-7.71c0-8.39,3.77-17.31,8.07-19.08a1.08,1.08,0,1,1,.83,2c-3.11,1.29-6.73,9-6.73,17.08a13.34,13.34,0,0,1-3.15,9c-1.21,1.66-2.17,3-2.17,5.46A1.08,1.08,0,0,1,79.44,173.31Z"/><path class="cls-3" d="M126.09,172.22s0,.47.08,1.26.16,1.94.31,3.32c.06.68.17,1.42.28,2.21s.22,1.61.35,2.46c.34,1.7.58,3.53,1,5.31.2.9.41,1.79.61,2.67s.44,1.74.68,2.56.46,1.62.68,2.38c.1.38.21.74.31,1.1s.24.68.36,1l1.54,4.28.05.14a2.17,2.17,0,1,1-4.08,1.47.78.78,0,0,1-.05-.14s-.52-1.85-1.29-4.62q-.15-.52-.3-1.08c-.08-.38-.16-.77-.25-1.17-.17-.8-.34-1.64-.53-2.52s-.39-1.77-.51-2.7-.28-1.86-.42-2.8c-.32-1.87-.44-3.77-.65-5.53-.08-.88-.12-1.74-.18-2.55S124,177.69,124,177c0-1.41-.08-2.6-.07-3.44s0-1.3,0-1.3v0a1.08,1.08,0,0,1,1.13-1A1.09,1.09,0,0,1,126.09,172.22Z"/><path class="cls-3" d="M80.53,172.24s0,.46,0,1.3,0,2-.07,3.44c0,.71-.08,1.48-.13,2.29s-.1,1.67-.18,2.55c-.21,1.76-.32,3.66-.64,5.53-.14.94-.29,1.88-.43,2.8s-.33,1.83-.51,2.7-.36,1.72-.53,2.52q-.12.6-.24,1.17t-.3,1.08c-.78,2.77-1.29,4.62-1.29,4.62a2.18,2.18,0,0,1-2.68,1.5,2.16,2.16,0,0,1-1.5-2.68,1,1,0,0,1,0-.14l.06-.15,1.53-4.28c.12-.32.24-.66.36-1s.21-.72.32-1.1L75,192c.23-.82.5-1.67.68-2.56s.4-1.77.61-2.67c.44-1.78.68-3.61,1-5.31.14-.85.24-1.68.35-2.46s.23-1.53.29-2.21c.15-1.38.26-2.53.31-3.32s.08-1.26.08-1.26a1.08,1.08,0,0,1,2.16,0Z"/><path class="cls-3" d="M102.41,224.49c-7.85,0-15.71-1.73-21.7-5.19-8.23-4.75-11.52-11.92-8.6-18.69a2.17,2.17,0,0,1,4,1.72c-2,4.66.53,9.6,6.79,13.21,10.74,6.2,28.15,6.23,38.82.08,6.24-3.6,8.7-8.55,6.59-13.24a2.17,2.17,0,0,1,4-1.77c3.07,6.81-.15,14-8.38,18.76C118,222.78,110.19,224.49,102.41,224.49Z"/><path class="cls-3" d="M102.19,401.87a8.81,8.81,0,0,1-4.35-1.06,4,4,0,0,1-2.08-2.64,3.08,3.08,0,0,1,.76-2.55l1.65,1.4a.92.92,0,0,0-.27.78,1.88,1.88,0,0,0,1,1.13,7.29,7.29,0,0,0,6.5,0,1.87,1.87,0,0,0,1-1.11,1,1,0,0,0-.28-.79l1.66-1.4a3.14,3.14,0,0,1,.76,2.56,4,4,0,0,1-2.06,2.62A8.86,8.86,0,0,1,102.19,401.87Z"/><path class="cls-3" d="M102.19,398a8.92,8.92,0,0,1-4.35-1.06,4,4,0,0,1-2.08-2.65,3.06,3.06,0,0,1,.76-2.55l1.65,1.41a.9.9,0,0,0-.27.78,1.91,1.91,0,0,0,1,1.13,7.29,7.29,0,0,0,6.5,0,1.86,1.86,0,0,0,1-1.1,1,1,0,0,0-.28-.79l1.66-1.4a3.14,3.14,0,0,1,.76,2.56,3.91,3.91,0,0,1-2.06,2.61A8.76,8.76,0,0,1,102.19,398Z"/><path class="cls-3" d="M102.19,394.06A8.81,8.81,0,0,1,97.84,393a4,4,0,0,1-2.08-2.64,3.08,3.08,0,0,1,.76-2.55l1.65,1.4a.92.92,0,0,0-.27.78,1.92,1.92,0,0,0,1,1.14,7.32,7.32,0,0,0,6.5,0,1.87,1.87,0,0,0,1-1.11,1,1,0,0,0-.28-.79l1.66-1.4a3.14,3.14,0,0,1,.76,2.56A3.91,3.91,0,0,1,106.5,393,8.86,8.86,0,0,1,102.19,394.06Z"/><path class="cls-3" d="M102.19,390.16a8.81,8.81,0,0,1-4.35-1.06,4,4,0,0,1-2.08-2.64,3.11,3.11,0,0,1,.76-2.56l1.65,1.41a.91.91,0,0,0-.27.78,1.91,1.91,0,0,0,1,1.13,7.32,7.32,0,0,0,6.5,0,1.87,1.87,0,0,0,1-1.11.94.94,0,0,0-.28-.79l1.66-1.4a3.14,3.14,0,0,1,.76,2.56,3.91,3.91,0,0,1-2.06,2.61A8.73,8.73,0,0,1,102.19,390.16Z"/><path class="cls-3" d="M102.19,386.26a8.92,8.92,0,0,1-4.35-1.06,4,4,0,0,1-2.08-2.65,3.08,3.08,0,0,1,.76-2.55l1.65,1.4a.92.92,0,0,0-.27.78,1.89,1.89,0,0,0,1,1.14,7.29,7.29,0,0,0,6.5,0,1.84,1.84,0,0,0,1-1.11,1,1,0,0,0-.28-.78L107.8,380a3.15,3.15,0,0,1,.76,2.56,3.91,3.91,0,0,1-2.06,2.62A8.76,8.76,0,0,1,102.19,386.26Z"/><path class="cls-3" d="M102.19,382.35a8.81,8.81,0,0,1-4.35-1.06,4,4,0,0,1-2.08-2.64,3.08,3.08,0,0,1,.76-2.55l1.65,1.4a.92.92,0,0,0-.27.78,1.88,1.88,0,0,0,1,1.13,7.29,7.29,0,0,0,6.5,0,1.87,1.87,0,0,0,1-1.11,1,1,0,0,0-.28-.79l1.66-1.4a3.14,3.14,0,0,1,.76,2.56,3.93,3.93,0,0,1-2.06,2.62A8.86,8.86,0,0,1,102.19,382.35Z"/><path class="cls-3" d="M102.19,378.45a8.92,8.92,0,0,1-4.35-1.06,4,4,0,0,1-2.08-2.64,3.11,3.11,0,0,1,.76-2.56l1.65,1.41a.9.9,0,0,0-.27.78,1.91,1.91,0,0,0,1,1.13,7.29,7.29,0,0,0,6.5,0,1.84,1.84,0,0,0,1-1.11,1,1,0,0,0-.28-.78l1.66-1.4a3.14,3.14,0,0,1,.76,2.56,3.91,3.91,0,0,1-2.06,2.61A8.76,8.76,0,0,1,102.19,378.45Z"/><path class="cls-3" d="M102.19,374.54a8.81,8.81,0,0,1-4.35-1.06,3.94,3.94,0,0,1-2.08-2.64,3.08,3.08,0,0,1,.76-2.55l1.65,1.4a.92.92,0,0,0-.27.78,1.92,1.92,0,0,0,1,1.14,7.32,7.32,0,0,0,6.5,0,1.87,1.87,0,0,0,1-1.11,1,1,0,0,0-.28-.79l1.66-1.4a3.14,3.14,0,0,1,.76,2.56,3.93,3.93,0,0,1-2.06,2.62A8.86,8.86,0,0,1,102.19,374.54Z"/><path class="cls-3" d="M102.19,370.64a8.81,8.81,0,0,1-4.35-1.06,3.93,3.93,0,0,1-2.09-2.7l2.14-.33a1.9,1.9,0,0,0,1,1.15,7.32,7.32,0,0,0,6.5,0,1.89,1.89,0,0,0,1-1.13l2.14.36a3.86,3.86,0,0,1-2.06,2.64A8.76,8.76,0,0,1,102.19,370.64Z"/><path class="cls-4" d="M102.22,434a1.09,1.09,0,0,1-1.08-1.09,1.07,1.07,0,0,1,.32-.77,1.13,1.13,0,0,1,1.53,0,1.06,1.06,0,0,1,.31.77,1,1,0,0,1-.31.77A1.07,1.07,0,0,1,102.22,434Z"/><path class="cls-4" d="M101.14,429.72a1.09,1.09,0,0,1,1.08-1.1h0a1.08,1.08,0,0,1,1.08,1.1h0a1.07,1.07,0,0,1-1.08,1.08h0A1.08,1.08,0,0,1,101.14,429.72Zm0-3.17a1.08,1.08,0,0,1,1.08-1.08h0a1.08,1.08,0,0,1,1.08,1.08h0a1.08,1.08,0,0,1-1.08,1.09h0A1.08,1.08,0,0,1,101.14,426.55Zm0-3.15a1.08,1.08,0,0,1,1.08-1.08h0a1.07,1.07,0,0,1,1.08,1.08h0a1.07,1.07,0,0,1-1.08,1.08h0A1.08,1.08,0,0,1,101.14,423.4Zm0-3.17a1.08,1.08,0,0,1,1.08-1.08h0a1.08,1.08,0,0,1,1.08,1.08h0a1.08,1.08,0,0,1-1.08,1.09h0A1.08,1.08,0,0,1,101.14,420.23Zm0-3.15a1.08,1.08,0,0,1,1.08-1.08h0a1.07,1.07,0,0,1,1.08,1.08h0a1.07,1.07,0,0,1-1.08,1.08h0A1.08,1.08,0,0,1,101.14,417.08Zm0-3.15a1.08,1.08,0,0,1,1.08-1.09h0a1.07,1.07,0,0,1,1.08,1.09h0a1.08,1.08,0,0,1-1.08,1.08h0A1.08,1.08,0,0,1,101.14,413.93Zm0-3.17a1.08,1.08,0,0,1,1.08-1.08h0a1.07,1.07,0,0,1,1.08,1.08h0a1.07,1.07,0,0,1-1.08,1.08h0A1.08,1.08,0,0,1,101.14,410.76Zm0-3.15a1.08,1.08,0,0,1,1.08-1.09h0a1.07,1.07,0,0,1,1.08,1.09h0a1.08,1.08,0,0,1-1.08,1.08h0A1.08,1.08,0,0,1,101.14,407.61Z"/><path class="cls-4" d="M102.22,405.54a1.06,1.06,0,0,1-.76-.33,1,1,0,0,1-.32-.76,1.1,1.1,0,0,1,.32-.78,1.12,1.12,0,0,1,1.53,0,1,1,0,0,1,.31.77,1,1,0,0,1-.31.76A1.1,1.1,0,0,1,102.22,405.54Z"/><path class="cls-4" d="M102.22,279.37a1.09,1.09,0,0,1-.76-.32,1.07,1.07,0,0,1-.32-.76,1,1,0,0,1,.32-.77,1.11,1.11,0,0,1,1.53,0,1,1,0,0,1,.31.77,1.06,1.06,0,0,1-.31.76A1.12,1.12,0,0,1,102.22,279.37Z"/><path class="cls-4" d="M101.14,275.05a1.08,1.08,0,0,1,1.08-1.09h0a1.08,1.08,0,0,1,1.08,1.09h0a1.08,1.08,0,0,1-1.08,1.08h0A1.08,1.08,0,0,1,101.14,275.05Zm0-3.23a1.08,1.08,0,0,1,1.08-1.09h0a1.07,1.07,0,0,1,1.08,1.09h0a1.07,1.07,0,0,1-1.08,1.07h0A1.07,1.07,0,0,1,101.14,271.82Zm0-3.24a1.08,1.08,0,0,1,1.08-1.09h0a1.08,1.08,0,0,1,1.08,1.09h0a1.08,1.08,0,0,1-1.08,1.08h0A1.08,1.08,0,0,1,101.14,268.58Zm0-3.25a1.08,1.08,0,0,1,1.08-1.08h0a1.08,1.08,0,0,1,1.08,1.08h0a1.07,1.07,0,0,1-1.08,1.09h0A1.08,1.08,0,0,1,101.14,265.33Zm0-3.23a1.08,1.08,0,0,1,1.08-1.08h0a1.08,1.08,0,0,1,1.08,1.08h0a1.08,1.08,0,0,1-1.08,1.09h0A1.08,1.08,0,0,1,101.14,262.1Zm0-3.24a1.08,1.08,0,0,1,1.08-1.08h0a1.08,1.08,0,0,1,1.08,1.08h0a1.08,1.08,0,0,1-1.08,1.09h0A1.08,1.08,0,0,1,101.14,258.86Zm0-3.23a1.08,1.08,0,0,1,1.08-1.09h0a1.08,1.08,0,0,1,1.08,1.09h0a1.08,1.08,0,0,1-1.08,1.09h0A1.08,1.08,0,0,1,101.14,255.63Zm0-3.24a1.08,1.08,0,0,1,1.08-1.08h0a1.08,1.08,0,0,1,1.08,1.08h0a1.08,1.08,0,0,1-1.08,1.09h0A1.08,1.08,0,0,1,101.14,252.39Zm0-3.23a1.07,1.07,0,0,1,1.08-1.08h0a1.06,1.06,0,0,1,1.08,1.08h0a1.08,1.08,0,0,1-1.08,1.09h0A1.08,1.08,0,0,1,101.14,249.16Zm0-3.24a1.08,1.08,0,0,1,1.08-1.08h0a1.07,1.07,0,0,1,1.08,1.08h0a1.07,1.07,0,0,1-1.08,1.08h0A1.08,1.08,0,0,1,101.14,245.92Zm0-3.24a1.08,1.08,0,0,1,1.08-1.08h0a1.07,1.07,0,0,1,1.08,1.08h0a1.07,1.07,0,0,1-1.08,1.08h0A1.08,1.08,0,0,1,101.14,242.68Zm0-3.23a1.08,1.08,0,0,1,1.08-1.08h0a1.07,1.07,0,0,1,1.08,1.08h0a1.07,1.07,0,0,1-1.08,1.08h0A1.08,1.08,0,0,1,101.14,239.45Zm0-3.24a1.08,1.08,0,0,1,1.08-1.09h0a1.08,1.08,0,0,1,1.08,1.09h0a1.08,1.08,0,0,1-1.08,1.08h0A1.08,1.08,0,0,1,101.14,236.21Zm0-3.24a1.08,1.08,0,0,1,1.08-1.08h0A1.07,1.07,0,0,1,103.3,233h0a1.08,1.08,0,0,1-1.08,1.09h0A1.08,1.08,0,0,1,101.14,233Zm0-3.23a1.08,1.08,0,0,1,1.08-1.09h0a1.08,1.08,0,0,1,1.08,1.09h0a1.08,1.08,0,0,1-1.08,1.08h0A1.08,1.08,0,0,1,101.14,229.74Zm0-3.23a1.09,1.09,0,0,1,1.08-1.1h0a1.08,1.08,0,0,1,1.08,1.1h0a1.07,1.07,0,0,1-1.08,1.07h0A1.07,1.07,0,0,1,101.14,226.51Zm0-3.24a1.08,1.08,0,0,1,1.08-1.09h0a1.08,1.08,0,0,1,1.08,1.09h0a1.08,1.08,0,0,1-1.08,1.08h0A1.08,1.08,0,0,1,101.14,223.27Zm0-3.25a1.08,1.08,0,0,1,1.08-1.08h0A1.08,1.08,0,0,1,103.3,220h0a1.08,1.08,0,0,1-1.08,1.09h0A1.08,1.08,0,0,1,101.14,220Zm0-3.23a1.08,1.08,0,0,1,1.08-1.08h0a1.07,1.07,0,0,1,1.08,1.08h0a1.08,1.08,0,0,1-1.08,1.09h0A1.08,1.08,0,0,1,101.14,216.79Zm0-3.24a1.08,1.08,0,0,1,1.08-1.08h0a1.08,1.08,0,0,1,1.08,1.08h0a1.07,1.07,0,0,1-1.08,1.09h0A1.08,1.08,0,0,1,101.14,213.55Zm0-3.23a1.08,1.08,0,0,1,1.08-1.08h0a1.07,1.07,0,0,1,1.08,1.08h0a1.07,1.07,0,0,1-1.08,1.08h0A1.08,1.08,0,0,1,101.14,210.32Zm0-3.24a1.08,1.08,0,0,1,1.08-1.08h0a1.08,1.08,0,0,1,1.08,1.08h0a1.08,1.08,0,0,1-1.08,1.09h0A1.08,1.08,0,0,1,101.14,207.08Zm0-3.24a1.08,1.08,0,0,1,1.08-1.08h0a1.07,1.07,0,0,1,1.08,1.08h0a1.08,1.08,0,0,1-1.08,1.1h0A1.09,1.09,0,0,1,101.14,203.84Zm0-3.23a1.08,1.08,0,0,1,1.08-1.08h0a1.07,1.07,0,0,1,1.08,1.08h0a1.07,1.07,0,0,1-1.08,1.08h0A1.08,1.08,0,0,1,101.14,200.61Zm0-3.24a1.08,1.08,0,0,1,1.08-1.08h0a1.07,1.07,0,0,1,1.08,1.08h0a1.07,1.07,0,0,1-1.08,1.08h0A1.08,1.08,0,0,1,101.14,197.37Zm0-3.23a1.08,1.08,0,0,1,1.08-1.09h0a1.07,1.07,0,0,1,1.08,1.09h0a1.07,1.07,0,0,1-1.08,1.08h0A1.08,1.08,0,0,1,101.14,194.14Zm0-3.24a1.08,1.08,0,0,1,1.08-1.09h0a1.08,1.08,0,0,1,1.08,1.09h0a1.08,1.08,0,0,1-1.08,1.08h0A1.08,1.08,0,0,1,101.14,190.9Zm0-3.23a1.08,1.08,0,0,1,1.08-1.09h0a1.07,1.07,0,0,1,1.08,1.09h0a1.07,1.07,0,0,1-1.08,1.07h0A1.07,1.07,0,0,1,101.14,187.67Zm0-3.24a1.08,1.08,0,0,1,1.08-1.09h0a1.08,1.08,0,0,1,1.08,1.09h0a1.08,1.08,0,0,1-1.08,1.08h0A1.08,1.08,0,0,1,101.14,184.43Zm0-3.24a1.08,1.08,0,0,1,1.08-1.09h0a1.08,1.08,0,0,1,1.08,1.09h0a1.07,1.07,0,0,1-1.08,1.08h0A1.08,1.08,0,0,1,101.14,181.19Zm0-3.23a1.08,1.08,0,0,1,1.08-1.09h0A1.08,1.08,0,0,1,103.3,178h0a1.08,1.08,0,0,1-1.08,1.08h0A1.08,1.08,0,0,1,101.14,178Zm0-3.25a1.08,1.08,0,0,1,1.08-1.08h0a1.08,1.08,0,0,1,1.08,1.08h0a1.07,1.07,0,0,1-1.08,1.09h0A1.08,1.08,0,0,1,101.14,174.71Zm0-3.23a1.08,1.08,0,0,1,1.08-1.08h0a1.07,1.07,0,0,1,1.08,1.08h0a1.08,1.08,0,0,1-1.08,1.09h0A1.08,1.08,0,0,1,101.14,171.48Zm0-3.24a1.08,1.08,0,0,1,1.08-1.08h0a1.08,1.08,0,0,1,1.08,1.08h0a1.08,1.08,0,0,1-1.08,1.09h0A1.08,1.08,0,0,1,101.14,168.24Zm0-3.23a1.08,1.08,0,0,1,1.08-1.08h0A1.07,1.07,0,0,1,103.3,165h0a1.08,1.08,0,0,1-1.08,1.09h0A1.08,1.08,0,0,1,101.14,165Zm0-3.24a1.08,1.08,0,0,1,1.08-1.08h0a1.07,1.07,0,0,1,1.08,1.08h0a1.08,1.08,0,0,1-1.08,1.09h0A1.08,1.08,0,0,1,101.14,161.77Zm0-3.24a1.08,1.08,0,0,1,1.08-1.08h0a1.07,1.07,0,0,1,1.08,1.08h0a1.06,1.06,0,0,1-1.08,1.08h0A1.07,1.07,0,0,1,101.14,158.53Zm0-3.23a1.08,1.08,0,0,1,1.08-1.08h0a1.07,1.07,0,0,1,1.08,1.08h0a1.07,1.07,0,0,1-1.08,1.08h0A1.08,1.08,0,0,1,101.14,155.3Zm0-3.24a1.08,1.08,0,0,1,1.08-1.08h0a1.07,1.07,0,0,1,1.08,1.08h0a1.07,1.07,0,0,1-1.08,1.08h0A1.08,1.08,0,0,1,101.14,152.06Zm0-3.24a1.08,1.08,0,0,1,1.08-1.08h0a1.07,1.07,0,0,1,1.08,1.08h0a1.08,1.08,0,0,1-1.08,1.09h0A1.08,1.08,0,0,1,101.14,148.82Zm0-3.23a1.08,1.08,0,0,1,1.08-1.09h0a1.08,1.08,0,0,1,1.08,1.09h0a1.08,1.08,0,0,1-1.08,1.08h0A1.08,1.08,0,0,1,101.14,145.59Zm0-3.23a1.09,1.09,0,0,1,1.08-1.1h0a1.08,1.08,0,0,1,1.08,1.1h0a1.07,1.07,0,0,1-1.08,1.07h0A1.07,1.07,0,0,1,101.14,142.36Z"/><path class="cls-4" d="M102.22,140.2a1.15,1.15,0,0,1-.76-.31,1.09,1.09,0,0,1-.32-.77,1,1,0,0,1,.32-.77,1.13,1.13,0,0,1,1.53,0,1,1,0,0,1,.31.77,1.08,1.08,0,0,1-.31.77A1.17,1.17,0,0,1,102.22,140.2Z"/></g></g></svg>