<?xml version="1.0" encoding="utf-8"?>
<!-- Generator: Adobe Illustrator 24.1.0, SVG Export Plug-In . SVG Version: 6.00 Build 0)  -->
<svg version="1.1" id="Layer_1" xmlns="http://www.w3.org/2000/svg" xmlns:xlink="http://www.w3.org/1999/xlink" x="0px" y="0px"
	 viewBox="0 0 429 425" style="enable-background:new 0 0 429 425;" xml:space="preserve">
<style type="text/css">
	.st0{fill:none;stroke:#231F20;stroke-width:2;stroke-miterlimit:10;}
	.st1{fill:#FFFFFF;}
	.st2{fill:#2CD1D1;}
	.st3{fill:#231F20;}
	.st4{fill:#7DFFFB;}
	.st5{fill:#00C3FF;stroke:#231F20;stroke-width:0.86;stroke-miterlimit:10;}
</style>
<g id="Layer_2_1_">
	<g id="Layer_1-2">
		<path class="st0" d="M230.5,375.1c30.1,9.9,77.7,48.9,120.1,48.3c0,0,39,7.3,49.9-28.3c7-11.6,7.4-25.9,1.2-37.9
			c-3.8-7.3-5.1-15.6-3.5-23.7c2.6-12.9,13.4-11.9,17.1-48.8c11-23.3,8.9-43.4,8.1-49c7.7-8.8,3.3-39.2,2.9-45.4h-0.1
			c-0.7-20-12.2-66-24.4-77.8C314.2,123.4,225,97.3,202.8,90.1c-1.6,7.9-3.7,15.6-6.2,23.3l-11.9,54l-0.1,0.1
			c-0.3,2-4,31.8-2.1,31.1c0.1,4.3-0.1,13-0.6,20.3c-4.3-9.4-7.2-22.9-7.1-42c0-14.2,3.1-13.6,11.4-59.2c1.6-8.4,15.8-43.1,9-72.4
			c-0.7-2.9-1.7-5.7-3.1-8.3c-1-0.3-2.1-0.3-3.1-0.2c-1.6,0.2-3.1-0.1-4.6-0.7c-15.7-7-21.9-4.6-32.9-10.7
			c-4.2,5.8-17,27.8-35.7,33.7c-25.8,8.2-46.5-5.5-54.5-26.2C42.8,22.5,47.6,1,30.2,1C23.8,1,15.5,4.8,6.2,11.8
			c-3,2.2-4.8,5.6-5.1,9.3C-0.7,38.1,20,54.4,20.8,60.8c0.5,5.1,0.4,10.2-0.2,15.2c11,19.4,22.5,46.6,18.4,68.7
			c-1.9,10.3,1.4,31.9,3.8,53.5C44,208.1,44,218,43,227.8c-2.1,19.5-3,58.4,19.7,70.1c0,0,47.2,25.9,82.2,38
			C167.9,343.8,191.4,362.2,230.5,375.1z"/>
		<path class="st1" d="M216.3,235.6c-7.2,3.7-20,4-29.5-8.2c1.5-8.9,1.5-22.2,1.4-28.5c5.1,0,7.4-0.5,10.2,1.1
			c0.8,8.7,8.9,11.5,17.4,10.8c0.3,0.3,0.6,0.5,1,0.8C216.2,219.5,216.1,227.5,216.3,235.6z"/>
		<path class="st1" d="M383.3,286c-5.4,4.9-13.8,4.6-16.6-9.6c3-13.2,4.4-29.5,5-37.4c4.6,0.5,9.3,0.5,13.9,0
			C385.8,251.1,387.7,275.2,383.3,286z"/>
		<path class="st1" d="M422,193.8c0.9,13.9,1.7,34.1-2.8,37.9c-2.5,0.4-5.4,0.2-6-0.2c0.7-6.1-0.3-22.7-1.2-35.1
			C415.7,191.2,419.5,191,422,193.8z"/>
		<path class="st1" d="M409.8,236.4c2.3,1.6,5.6,1.7,8.1,1.6c0.9,7.3,1.7,27.2-10.3,49.1c-1.1,0.2-2.2,0.1-3.2-0.4
			c5.6-14.6,4-45.9,4.6-49.8l0,0C409.2,236.7,409.5,236.5,409.8,236.4z"/>
		<path class="st1" d="M406,195.3c1,13,2,29.6,1.4,35.1c-2.2,2.3-5.3,3.4-11.1,2.3c1.4-9.7-2.9-29.5-3.1-35.3
			C397.4,193.7,401.9,193.2,406,195.3z"/>
		<path class="st1" d="M392.5,238c3.3,1,6.8,1.4,10.2,1c-1.8,15.4-2.8,42.7-7.3,51.5c-2.4,1.9-5.3,1.3-6.8-2.1
			c6.6-13.1,3.6-41.2,2.9-50.1L392.5,238z"/>
		<path class="st1" d="M365.3,198.5c6.3-14.3,14.5-15.5,21.9-6.9c-0.6,8.3,4.9,33.1,3.4,40.6c-7.6,1.4-17.9,2-25.3-1.1V198.5z"/>
		<path class="st1" d="M365.9,237.9c-0.9,13.2-3,29.7-5.7,40.7c-7.4,9-16.1,8.3-19.4-3c0-9.7,0.9-23.3,2.3-36.1
			c6.4-0.1,12.8-1.1,18.9-3.1C363.3,237.1,364.6,237.6,365.9,237.9z"/>
		<path class="st1" d="M334.3,198.7c8.6-4.9,17.5-2.6,25.1,3.8v28.4c-9,2.6-23.4,4.7-27.5-1.7L334.3,198.7z"/>
		<path class="st1" d="M337.3,238.9c-1.5,13.6-2.3,24.8-2.4,33.4c-4,5.3-7.5,5.9-7.5,5.9c-7.7-1-12.3-9.1-14.6-14.8
			c1.9-9.7,3.2-19.5,4-29.3c3.6,0,7.1-0.2,10.6-0.8C329.7,236.4,333.3,238,337.3,238.9z"/>
		<path class="st1" d="M307.3,198.1c8.1-7.2,15.7-7.4,21.4-2.6l-2.6,31.8c-7.4,1-18.7,1.6-20.7-2.9L307.3,198.1z"/>
		<path class="st1" d="M268.1,190.3c10.7-11.2,23.2-8,33.7,2.6l-2.1,28.7c-5.2-0.4-12.4-1.4-13.3-3.5l-1.1-2.5
			C262.1,224.2,266.1,210.4,268.1,190.3z"/>
		<path class="st1" d="M268,222.8c4.2,1.8,9.6,1.6,14.8,0.1c4,3.7,12.6,4.7,17.8,5c2,3.4,6,5,10.4,5.7c-0.8,10.3-2.3,20.6-4.4,30.7
			c-14.4,15.8-33.2,2.2-40.4-17.7C266.4,238.6,267,230.7,268,222.8z"/>
		<path class="st1" d="M224.4,180.3c15.2-9.8,29-7.1,38.8,4.8l-2.1,23.6c-4.7,2.9-10,5.1-14.6,3c-11.6-14-20.4-3.6-26-5L224.4,180.3
			z"/>
		<path class="st1" d="M189.7,175.2c11-6.1,21.8-6.7,29,1.4l-3.9,28c-9.4,0.6-10.6-2.9-10.5-7.6c-6.8-6.5-10.8-4.1-16.4-4.4
			L189.7,175.2z"/>
		<path class="st2" d="M232.8,316.3c-19.5,0-35.4-15.8-35.4-35.3c0-19.5,15.8-35.4,35.3-35.4c19.5,0,35.4,15.8,35.4,35.3
			c0,14.3-8.6,27.3-21.8,32.7C242,315.4,237.4,316.3,232.8,316.3z"/>
		<path class="st3" d="M232.8,246.3c19.1,0,34.7,15.5,34.7,34.6c0,19.1-15.5,34.7-34.6,34.7c-19.1,0-34.7-15.5-34.7-34.6
			c0-14,8.4-26.7,21.4-32.1C223.7,247.2,228.2,246.3,232.8,246.3 M232.8,244.9L232.8,244.9c-19.9,0-36,16.1-36,36.1
			c0,19.9,16.1,36,36.1,36s36-16.1,36-36.1c0-4.7-0.9-9.4-2.7-13.8C260.6,253.6,247.4,244.8,232.8,244.9L232.8,244.9z"/>
		<path class="st4" d="M257.3,256.5c-13.5-13.5-35.5-13.5-49,0s-13.5,35.5,0,49L257.3,256.5z"/>
		<path class="st5" d="M255.6,286.7l-17.5-0.2l-0.2,17.5l-11-0.1l0.2-17.5l-17.4-0.2l0.1-11l17.4,0.2l0.2-17.4l11,0.2l-0.2,17.4
			l17.5,0.2L255.6,286.7z"/>
	</g>
</g>
</svg>
