<svg xmlns="http://www.w3.org/2000/svg" viewBox="0 0 69.86 84.51"><defs><style>.cls-1{fill:#007e9b;}</style></defs><title>Asset 3infographic-0</title><g id="Layer_2" data-name="Layer 2"><g id="Layer_1-2" data-name="Layer 1"><path class="cls-1" d="M34.93,84.51c13,0,34.93-5.68,34.93-43.75C69.86,27.71,66,10,55,2.93,49.28-.75,42.53-1,34.93,2.3c-7.59-3.27-14.35-3-20.09.63C3.89,10,0,27.71,0,40.76,0,78.83,21.89,84.51,34.93,84.51ZM16.88,6.1a14.38,14.38,0,0,1,8-2.32,22.54,22.54,0,0,1,9.31,2.28,1.85,1.85,0,0,0,1.56,0C42.39,3,48.2,3,53,6.1,62.05,11.92,66.1,27.7,66.1,40.76c0,33.06-16.95,40-31.17,40s-31.17-6.93-31.17-40C3.76,27.7,7.82,11.92,16.88,6.1Z"/><path class="cls-1" d="M34.93,73.16c10.18,0,18.33-3.9,23.57-11.29.1-.13.18-.28.27-.42a1.55,1.55,0,0,0,.72-1.12,37.89,37.89,0,0,0,5.26-19.57c0-8.62-2.93-20.7-11.17-26.39-5.16-3.56-11.43-4-18.65-1.41-7.21-2.62-13.48-2.15-18.65,1.41C8,20.06,5.11,32.14,5.11,40.76a38,38,0,0,0,5.26,19.57,1.58,1.58,0,0,0,.72,1.12c.09.14.18.29.27.42C16.6,69.26,24.75,73.16,34.93,73.16ZM49.72,15.07a8.18,8.18,0,0,0-2.26,1.36A7.91,7.91,0,0,0,46.11,14,14.84,14.84,0,0,1,49.72,15.07ZM23.75,14a8,8,0,0,0-1.35,2.42,8.53,8.53,0,0,0-2.25-1.36A14.91,14.91,0,0,1,23.75,14Zm-8,4.07a3.47,3.47,0,0,1,2.73-.9c2,.28,3.6,2.49,3.62,2.51a1.24,1.24,0,0,0,1,.54,1.36,1.36,0,0,0,.29,0,1.27,1.27,0,0,0,.95-1.06c.66-5.07,4.13-5,4.5-5H29A4.52,4.52,0,0,1,33.56,18a1.23,1.23,0,0,0,1.25,1A.35.35,0,0,0,35,19,.27.27,0,0,0,35,19a1.24,1.24,0,0,0,1.26-1,4.51,4.51,0,0,1,4.57-3.81H41c.39,0,3.86-.1,4.51,5a1.25,1.25,0,0,0,.95,1.05,1,1,0,0,0,.3,0,1.24,1.24,0,0,0,1-.54s1.59-2.23,3.62-2.51a3.47,3.47,0,0,1,2.72.89c4.47,4.24,6.8,10.84,7.67,17H59.89a1,1,0,0,1-.8-.41l-3.58-6.42a.41.41,0,0,0,0-.09,15.28,15.28,0,0,0-12.73-6.84H35.31a1.23,1.23,0,0,0-.38.08,1.17,1.17,0,0,0-.38-.08H27.14a15.31,15.31,0,0,0-12.79,6.93l-3.56,6.39A1,1,0,0,1,10,35H8.05C8.93,28.91,11.26,22.31,15.71,18.08ZM10.94,56.26a36.41,36.41,0,0,1-3.32-15.5c0-1,0-2.12.14-3.23H10a3.51,3.51,0,0,0,2.95-1.65l3.56-6.39a12.78,12.78,0,0,1,10.65-5.72h7.41a1.17,1.17,0,0,0,.38-.08,1.23,1.23,0,0,0,.38.08h7.42a12.78,12.78,0,0,1,10.62,5.68l3.58,6.43L57,36a3.51,3.51,0,0,0,2.91,1.56H62.1c.1,1.11.14,2.2.14,3.23a36.27,36.27,0,0,1-3.32,15.5,15.23,15.23,0,0,0-4.53-7c0-.05,0-.11,0-.16,0-6.25-2.06-11.49-5.81-14.75a11.58,11.58,0,0,0-9.12-3,4.6,4.6,0,0,0-3.61,2.35A4.41,4.41,0,0,0,36.2,38l.07.11.85,1.29a2.42,2.42,0,0,1,.24,2.11,2,2,0,0,1-1.26,1.23,2.83,2.83,0,0,1-1.05.11h-.24a2.78,2.78,0,0,1-1-.11,1.9,1.9,0,0,1-1.26-1.23,2.35,2.35,0,0,1,.24-2.11l.85-1.29.06-.11A4.38,4.38,0,0,0,34,33.74a4.58,4.58,0,0,0-3.61-2.35,11.56,11.56,0,0,0-9.11,3c-3.75,3.26-5.82,8.5-5.82,14.75a.88.88,0,0,0,0,.16A15.25,15.25,0,0,0,10.94,56.26ZM29.56,42.59a5,5,0,0,0,3.31,3.16A5.68,5.68,0,0,0,34.8,46a.55.55,0,0,0,.13,0H35a6.1,6.1,0,0,0,2-.24,5,5,0,0,0,3.3-3.16,5.49,5.49,0,0,0-.57-4.9l-.81-1.24a1.63,1.63,0,0,1-.26-1.31,1.76,1.76,0,0,1,1.25-.65,8.49,8.49,0,0,1,6.62,2.24C49.18,39,50.8,42.65,51.18,47a15,15,0,0,0-6.9-1.73,16.3,16.3,0,0,0-9.35,2.89,16.29,16.29,0,0,0-9.34-2.89A15,15,0,0,0,18.69,47c.38-4.39,2-8,4.64-10.31A8.46,8.46,0,0,1,30,34.49a1.71,1.71,0,0,1,1.25.65,1.59,1.59,0,0,1-.26,1.31l-.81,1.24A5.52,5.52,0,0,0,29.56,42.59ZM13.49,60.12c0-6.68,6.38-11.68,12.1-11.68a13,13,0,0,1,8.34,2.94,1.58,1.58,0,0,0,2,0,13,13,0,0,1,8.34-2.94c5.71,0,12.1,5,12.1,11.68a1.5,1.5,0,0,0,0,.37c-4.29,5.95-11.19,10.16-21.5,10.16s-17.2-4.21-21.49-10.16A1.5,1.5,0,0,0,13.49,60.12Z"/></g></g></svg>