<?xml version="1.0" encoding="utf-8"?>
<!-- Generator: Adobe Illustrator 24.1.0, SVG Export Plug-In . SVG Version: 6.00 Build 0)  -->
<svg version="1.1" id="Layer_1" xmlns="http://www.w3.org/2000/svg" xmlns:xlink="http://www.w3.org/1999/xlink" x="0px" y="0px"
	 viewBox="0 0 462.3 398.5" style="enable-background:new 0 0 462.3 398.5;" xml:space="preserve">
<style type="text/css">
	.st0{fill:#00C3FF;stroke:#231F20;stroke-miterlimit:10;}
	.st1{fill:#2CD1D1;}
	.st2{fill:#7DFFFB;}
	.st3{fill:#231F20;}
	.st4{fill:#FFFFFF;}
</style>
<g id="Layer_2_1_">
	<g id="Layer_1-2">
		<polygon class="st0" points="290.4,187.5 175.2,196.5 174.2,172.3 290.4,162.3 		"/>
		<path class="st1" d="M290.2,185.2l-0.2,2.6l-0.7,12.2l-0.4,6.9v0.7l-0.1,1.7l-0.4,6.3l-0.5,7.8l-0.1,0.8l-0.5,7.5l-0.5,8.2v0.9
			l-0.4,6.6l-0.6,9.4v0.6l-0.3,5.3l-0.3,4.9l-0.3,5.7v0.8l-0.3,5l-0.6,10.7l-0.1,0.8l-0.3,5l-0.6,10.8v0.7l-0.3,4.8L282,323v0.6
			l-0.3,4.7l-0.7,11.1v0.7l-0.3,5.5l-0.6,10.1l-0.1,0.8l-0.3,5.4l-0.6,10.4v0.8l-0.1,1.1c-0.2,2.9-2.6,5.6-6.5,7.3l-6.6,3l-14.2,6.3
			l-12,5.3c-1.9,0.8-3.9,1.4-5.9,1.6c-2.8,0.4-5.7,0.4-8.6-0.1c-2.1-0.4-4.2-1-6.1-2l-1.3-0.6l-14-7.2l-9.2-4.8l-2.9-1.5
			c-3.4-1.7-5.4-4.2-5.5-6.9l-0.1-2.4l-0.4-7l-0.6-9.5l-0.4-6.4l-0.6-10.2l-0.4-6.4l-0.6-10.1l-0.4-6.6l-0.6-9.9l-0.4-6.7l-0.6-9.9
			l-0.4-6.7l-0.6-9.8l-0.5-7.7l-0.3-5.2l-0.2-3.5l-0.5-8.4l-0.5-8l-0.5-8.9l-0.5-7.5l-0.6-9.7l-0.3-4.9l-0.1-1.8l-1.2-19.7l-0.2,7.4
			L290.2,185.2z"/>
		<path class="st2" d="M183.2,225.7L169,214.1c-1-0.8-1.2-2.3-0.3-3.3c0.4-0.5,1-0.8,1.7-0.9L285,192l10.9,10.2
			c0.8,1,0.7,2.5-0.3,3.3c-0.4,0.3-0.8,0.5-1.3,0.5L183.2,225.7z"/>
		<path class="st2" d="M184.1,250.8l-14-11.6c-1-0.8-1.1-2.3-0.3-3.3c0.4-0.5,1-0.8,1.6-0.8l112.7-18l10.7,10.2
			c0.8,1,0.7,2.5-0.3,3.3c-0.4,0.3-0.8,0.5-1.3,0.5L184.1,250.8z"/>
		<path class="st2" d="M185,275.8l-13.7-11.6c-1-0.8-1.1-2.3-0.3-3.3c0.4-0.5,0.9-0.8,1.5-0.8l110.6-17.9l10.5,10.2
			c0.8,1,0.7,2.5-0.3,3.3c-0.3,0.3-0.8,0.5-1.2,0.5L185,275.8z"/>
		<path class="st2" d="M185.6,300.9l-13.5-11.6c-1-0.9-1.1-2.3-0.2-3.3c0.4-0.4,0.9-0.7,1.5-0.8l109-18l10.4,10.2
			c0.8,1,0.7,2.5-0.4,3.3c-0.3,0.3-0.7,0.4-1.2,0.5L185.6,300.9z"/>
		<path class="st2" d="M186.4,326l-13.3-11.6c-1-0.9-1.1-2.4-0.2-3.3c0.4-0.4,0.9-0.7,1.5-0.8l107.2-18l10.2,10.2
			c0.8,1,0.6,2.5-0.4,3.3c-0.3,0.3-0.7,0.4-1.1,0.5L186.4,326z"/>
		<path class="st2" d="M188.4,351l-12.7-11.6c-1-0.9-1-2.4-0.2-3.4c0.4-0.4,0.8-0.6,1.3-0.7l102.7-18l9.8,10.2
			c0.8,1,0.6,2.5-0.4,3.4c-0.3,0.2-0.7,0.4-1.1,0.5L188.4,351z"/>
		<path class="st2" d="M194.2,375.3l-17.7-10.8c-1-0.9-1-2.4-0.1-3.4c0.3-0.4,0.8-0.6,1.3-0.7l101.1-18l9.6,10.2
			c0.8,1.1,0.6,2.6-0.4,3.4c-0.3,0.2-0.6,0.4-1,0.5L194.2,375.3z"/>
		<path class="st3" d="M293.9,204.1c-7,0.9-14,1.9-21,3c-7.5,1.1-14.9,2.3-22.3,3.5l-22.9,3.7c-7.5,1.2-15,2.4-22.4,3.5
			c-7.1,1.1-14.1,2.1-21.2,3.1l-2.4,0.3c-0.6,0-1,0.4-1,1s0.4,1,1,1c7-0.9,14-1.9,21.1-3c7.4-1.1,14.9-2.3,22.3-3.5l22.9-3.7
			c7.5-1.2,15-2.4,22.5-3.5c7.1-1.1,14.1-2.1,21.2-3.1l2.4-0.3c0.6,0,1-0.4,1-1S294.4,204.1,293.9,204.1L293.9,204.1z"/>
		<path class="st3" d="M292.6,229.2c-6.9,0.9-13.8,1.9-20.7,3c-7.3,1.1-14.6,2.3-21.9,3.5l-22.4,3.7c-7.3,1.2-14.7,2.4-22.1,3.6
			c-6.9,1.1-13.8,2.1-20.8,3.1l-2.4,0.3c-0.6,0-1,0.4-1,1c0,0.5,0.5,1.1,1,1c6.9-0.9,13.8-1.9,20.7-3c7.3-1.1,14.6-2.3,21.9-3.5
			l22.4-3.7c7.3-1.2,14.7-2.4,22-3.6c6.9-1.1,13.8-2.1,20.8-3.1l2.5-0.3c0.6,0,1-0.4,1-1C293.6,229.7,293.1,229.1,292.6,229.2
			L292.6,229.2z"/>
		<path class="st3" d="M292,254.3c-6.8,0.9-13.6,1.9-20.3,3c-7.3,1.1-14.5,2.3-21.7,3.5l-22.3,3.7c-7.3,1.2-14.6,2.4-21.9,3.5
			c-6.8,1.1-13.6,2.1-20.5,3l-2.4,0.3c-0.5,0.1-0.8,0.7-0.7,1.2c0,0,0,0,0,0c0.1,0.5,0.7,0.8,1.2,0.7c0,0,0,0,0,0
			c6.8-0.9,13.6-1.9,20.3-3c7.2-1.1,14.4-2.3,21.6-3.5l22.3-3.7c7.3-1.2,14.6-2.4,21.9-3.5c6.8-1.1,13.6-2.1,20.5-3l2.5-0.3
			c0.5-0.1,0.8-0.7,0.7-1.2c0,0,0,0,0,0C293.1,254.5,292.5,254.2,292,254.3C292,254.3,292,254.3,292,254.3L292,254.3z"/>
		<path class="st3" d="M289.5,304.6c-13.5,1.9-26.9,4.1-40.3,6.5c-14,2.4-27.9,4.9-41.9,7.2c-7.4,1.2-14.8,2.4-22.2,3.4
			c-0.5,0.1-0.8,0.7-0.7,1.2c0,0,0,0,0,0c0.1,0.5,0.7,0.8,1.2,0.7c0,0,0,0,0,0c13.5-1.9,26.9-4.1,40.3-6.5c14-2.4,27.9-4.9,41.9-7.2
			c7.4-1.2,14.8-2.4,22.2-3.4c0.5-0.1,0.8-0.7,0.7-1.2c0,0,0,0,0,0C290.6,304.7,290.1,304.4,289.5,304.6z"/>
		<path class="st3" d="M287.3,329.6c-13.1,1.9-26.2,4.1-39.2,6.4c-13.6,2.4-27.2,4.8-40.8,7c-7.1,1.2-14.3,2.3-21.5,3.3
			c-0.5,0.1-0.8,0.7-0.7,1.2c0,0,0,0,0,0c0.1,0.5,0.7,0.8,1.2,0.7c0,0,0,0,0,0c13.1-1.9,26.2-4.1,39.2-6.3c13.6-2.4,27.2-4.8,40.8-7
			c7.2-1.2,14.3-2.3,21.5-3.3c0.5-0.1,0.8-0.7,0.7-1.2c0,0,0,0,0,0C288.3,329.7,287.8,329.4,287.3,329.6
			C287.3,329.6,287.3,329.6,287.3,329.6L287.3,329.6z"/>
		<path class="st2" d="M223.1,384.2l-24.1-5.8c-0.7-0.6-0.8-1.7-0.2-2.4c0.3-0.3,0.6-0.5,1-0.6l61-15l15,11.1
			c0.6,0.8,0.4,1.8-0.3,2.4c-0.2,0.2-0.4,0.3-0.7,0.3L223.1,384.2z"/>
		<path class="st3" d="M283.8,355.1c-10.7,1.9-21.4,4.1-32.1,6.4c-10.2,2.2-20.3,4.4-30.5,6.5c-6.2,1.3-12.4,2.4-18.6,3.5
			c-0.5,0.1-0.8,0.7-0.7,1.2c0.1,0.5,0.7,0.8,1.2,0.7c10.7-1.9,21.4-4.1,32.1-6.4c10.2-2.2,20.3-4.4,30.5-6.5
			c6.2-1.3,12.4-2.4,18.6-3.6c0.5-0.1,0.8-0.7,0.7-1.2c0,0,0,0,0,0C284.9,355.3,284.3,355,283.8,355.1
			C283.8,355.1,283.8,355.1,283.8,355.1L283.8,355.1z"/>
		<path class="st1" d="M233.4,390.5L233.4,390.5c-0.2-5.1-0.5-10.1-1-15.1c0-0.1,0-0.2,0-0.3c-0.2-2.1-0.4-4.3-0.8-6.4
			c0-0.1,0-0.3,0-0.4c0-0.3-0.1-0.6-0.1-0.9c0-0.1,0-0.3-0.1-0.4c-0.7-5.3-1.6-10.5-2.7-15.7c0-0.2-0.1-0.4-0.1-0.5
			c-0.5-2.2-0.9-4.3-1.5-6.4c-0.1-0.2-0.1-0.4-0.2-0.6c-0.2-0.7-0.4-1.4-0.5-2.1c-0.1-0.2-0.1-0.5-0.2-0.7c-1.2-4.5-2.5-9-3.9-13.5
			c-0.1-0.3-0.2-0.5-0.3-0.8c-0.7-2-1.4-4.1-2.2-6.1c-0.1-0.3-0.2-0.6-0.3-0.9c-0.2-0.5-0.4-1.1-0.6-1.6c-0.1-0.3-0.2-0.6-0.4-0.9
			c-1.6-4.4-3.4-8.9-5.4-13.3c-0.2-0.4-0.3-0.7-0.5-1.1c-0.9-1.9-1.7-3.8-2.7-5.7c-0.2-0.4-0.4-0.8-0.6-1.1l0,0
			c-0.3-0.7-0.9-1.2-1.6-1.5c-0.5-0.3-1.1-0.4-1.7-0.5c0.1,0.2,0.2,0.5,0.3,0.7h-0.1l0,0l-9.9,1.3l-13.1,1.4l-0.1,1.8l0.4,9.7
			l-9.4,1.6c-1.3,0.2-2.2,1.4-2,2.6c0.1,0.6,0.4,1.1,0.8,1.5l11.2,9.8l0,0l0.4,9.7l-7.9,1.4c-1.3,0.2-2.2,1.5-1.9,2.8
			c0.1,0.5,0.4,1,0.8,1.3l9.7,8.8l0,0l0.4,10.6l-8.1,1.4c-1.3,0.3-2.1,1.5-1.9,2.8c0.1,0.5,0.4,0.9,0.7,1.3l17.7,10.8h0.1l9.2,7.2
			l-9.3,2.3c-0.9,0.2-1.6,1-1.4,2c0.1,0.4,0.3,0.8,0.6,1l24.1,5.8l0,0l1.3,1c2.8,2.1,6.1,3.4,9.6,3.6c0.7,0,1.4,0,2.2,0
			c1-0.1,2-0.2,3-0.4C233.5,395.2,233.4,392.9,233.4,390.5z M206.5,294.4C206.7,295,206.5,294.5,206.5,294.4L206.5,294.4z
			 M206.4,294.4c0,0.1,0.1,0.2,0.1,0.3l-9.7,1L206.4,294.4z"/>
		<path class="st2" d="M235,392.2c-0.2-5.1-3.1-21.7-3.4-23.9c0-0.4-0.1-0.9-0.2-1.3c-0.7-5.5-1.7-10.9-2.8-16.3
			c-0.5-2.4-1-4.7-1.6-7c-0.2-1-0.4-1.9-0.7-2.8c-1.2-4.8-2.7-9.6-4.2-14.4c-0.8-2.4-1.6-4.7-2.5-7c-0.3-0.9-0.6-1.7-1-2.5
			c-1.8-4.8-3.7-9.6-5.9-14.4c-1-2.3-2.1-4.6-3.2-6.9c0,0,0,0,0,0c-0.7-1.2-1.9-1.9-3.3-2c5.6,13.1,10.2,26.7,13.6,40.5
			c3.1,13.2,4.9,52.9,5,57.8c0.1,1.8,0.1,3.6,0.1,5.5c2.8,0.8,5.7,0.8,8.6,0.2C234.4,396,235,394.1,235,392.2z"/>
		<path class="st3" d="M290.4,279.6c-13.8,1.9-27.5,4.1-41.2,6.4c-14.3,2.4-28.6,4.8-42.9,7.1c-7.5,1.2-15.1,2.3-22.6,3.4
			c-0.5,0.1-0.8,0.7-0.7,1.2c0,0,0,0,0,0c0.1,0.5,0.7,0.8,1.2,0.7c0,0,0,0,0,0c13.8-1.9,27.5-4.1,41.2-6.4
			c14.3-2.4,28.6-4.8,42.9-7.1c7.5-1.2,15.1-2.3,22.6-3.4c0.5-0.1,0.8-0.7,0.7-1.2C291.5,279.8,291,279.5,290.4,279.6L290.4,279.6z"
			/>
		<path class="st3" d="M290.8,195.8c0.2-3.6,0.4-7.2,0.6-10.8l-1,1h0.2c0.6,0,1-0.4,1-1v-45.8l-0.7,1c1.6-0.6,3.1-1.3,4.6-2.1
			l4.6-2.2c0.9-0.4,0.4-1.9-0.5-1.9h-30.6l1,1v-24.2l-1,1h8.9c0.6,0,1-0.4,1-1L276,82.2l-4.4-45.3l-1-10.5c0-0.6-0.4-1-1-1h-74.2
			c-0.6,0-1,0.4-1,1l-2.8,28.6l-4.4,45.3l-1,10.5c0,0.6,0.4,1,1,1h8.9l-1-1v24.2l1-1h-30.7c-0.9,0-1.4,1.4-0.5,1.9l4.6,2.2
			c1.5,0.8,3,1.6,4.6,2.1l-0.7-1V185c0,0.6,0.4,1,1,1h0.2l-1-1c0.5,7.9,1,15.7,1.4,23.6l0.7-1c-2.1,0.3-5.2,0.2-7,1.5
			c-1.3,0.9-1.7,2.6-1.1,4c0.5,0.9,1.2,1.6,2.1,2.2l3.6,3c0.3,0.3,2.1,2.2,2.6,2.1c-0.2,0-0.1-1-0.2-0.4c0,0.3,0,0.6,0.1,0.9
			c0,0.8,0.1,1.5,0.1,2.2s0.1,1.7,0.2,2.5c0.2,2.6,0.3,5.3,0.5,7.9l0.7-1l-3.5,0.6c-1.2,0.1-2.4,0.3-3.5,0.8c-1.4,0.8-2.1,2.4-1.6,4
			c0.4,0.9,1.1,1.7,1.9,2.2l3.6,3c0.9,1,2,1.8,3.1,2.6c0.1,0,0.2,0.2,0.3,0.2c-0.3,0-0.1-1.1-0.2-0.2c0,0.7,0,1.4,0.1,2.1
			c0.1,0.9,0.1,1.8,0.2,2.7c0.2,2.7,0.3,5.4,0.5,8l0.7-1c-2.2,0.4-5.1,0.4-7.1,1.3c-1.5,0.7-2.3,2.3-1.9,3.9c0.3,0.9,1,1.7,1.8,2.3
			l6.8,5.7c0.2,0.2,0.5,0.5,0.8,0.6c-0.3-0.1-0.2-1-0.2-0.1c0,0.4,0,0.8,0.1,1.2l0.1,2.5c0.2,2.8,0.3,5.6,0.5,8.4l0.7-1
			c-2.3,0.4-4.7,0.6-7,1.1c-3.3,0.8-3.4,4.2-1.2,6.2s4.6,4,7,6c0.4,0.4,0.8,0.7,1.2,1c0.1,0,0.2,0.2,0.3,0.2s-0.1-0.7-0.2-0.4
			c-0.3,0.7,0.1,2.3,0.2,3.2c0.2,2.8,0.4,5.6,0.5,8.5l0.7-1c-2.4,0.4-4.9,0.7-7.3,1.2c-1.8,0.2-3,1.8-3,3.5c0.1,1.6,1.2,2.4,2.2,3.3
			l6.1,5.3c0.1,0.1,2.3,2.1,2.3,2c-0.1,0.1-0.2-1.2-0.2,0c0,0.7,0.1,1.4,0.1,2c0.2,2.9,0.4,5.8,0.5,8.7l0.7-1
			c-2.2,0.4-4.5,0.6-6.6,1.2c-1.8,0.4-3,2.2-2.6,4.1c0.3,1,0.9,1.8,1.7,2.4l6.6,6c0.3,0.3,0.6,0.6,1,0.9c0.1,0,0.1,0.2,0.2,0.2
			c-0.4-0.2-0.2-0.9-0.2,0s0.1,2,0.2,3l0.5,8.1l0.7-1c-2.2,0.4-4.4,0.8-6.7,1.2c-2.5,0.5-4.4,3-2.7,5.4c0.6,0.8,0.4,0.5,1.3,1.1
			s2,1.2,3,1.8l5.5,3.3l-0.5-0.9c0.2,3.6,0,7.1,2.8,9.9c2.3,2.3,5.7,3.6,8.6,5.1l0.2-1.8c-2,0.5-4.8,0.9-4.4,3.6
			c0.2,1.6,1.3,1.9,2.6,2.2l13,3.1c1.3,0.3,2.7,0.6,4.1,1c0.3,0.1-0.2-0.1,0,0c0.3,0.1,0.6,0.3,0.9,0.5l3,1.6c1.8,1,3.7,1.9,5.6,2.6
			c3.5,1.2,7.3,1.6,10.9,1.2c5-0.5,9.2-2.6,13.6-4.5l7.7-3.4l11.9-5.2c1.1-0.5,2.3-0.8,3.5-1c1-0.1,1.9-0.7,2.5-1.5
			c0.3-0.4,0-0.3-0.1-0.1c0.2-0.1,0.5-0.3,0.8-0.3c0.6-0.2,1.1-0.5,1.7-0.8c3.1-1.6,5.8-4.2,6.1-7.8c0.1-1.5,0.2-3,0.3-4.4
			c0.3-4,0.5-8,0.7-11.9l-0.7,1c2.4-0.5,4.8-0.9,7.1-1.5c1.9-0.4,3-2.3,2.6-4.1c-0.2-0.7-0.5-1.3-1-1.8c-2-2.2-4-4.3-6-6.4
			c-0.3-0.4-0.7-0.8-1.1-1.2c-0.7-0.6,0.1,0.1,0,0.2c0.2-0.1,0.1-1.8,0.1-2.1c0-0.6,0.1-1.2,0.1-1.8c0.1-2.5,0.3-5.1,0.5-7.6l-0.7,1
			c2.2-0.4,4.6-0.7,6.7-1.4c3-0.9,3-4.1,1.1-6l-6-6.2c-0.2-0.2-0.4-0.4-0.6-0.6c0.2-0.1,0.2,1.2,0.3-0.1l0.3-4.5l0.5-7l-0.7,1
			c2.4-0.5,4.9-0.8,7.3-1.4c1.9-0.3,3.1-2.1,2.8-3.9c-0.1-0.8-0.5-1.4-1.1-2c-2-2.1-4.2-4.2-6.3-6.3c-0.4-0.4-0.8-0.8-1.2-1.2
			c0,0-0.2-0.3-0.3-0.3s0,0.8,0.2,0.4c0.2-0.7,0.2-1.5,0.1-2.3c0-0.5,0-0.9,0.1-1.4c0.2-2.6,0.3-5.2,0.5-7.8l-0.7,1
			c2.3-0.4,4.6-0.7,6.9-1.3c3.1-0.8,3.5-4,1.4-6.1l-6.3-6.2c-0.2-0.3-0.5-0.5-0.7-0.7c0.4,0.2,0.1,1,0.3,0.2
			c0.1-0.4,0.1-0.9,0.1-1.3c0.1-1.1,0.1-2.2,0.2-3.3c0.2-2.5,0.3-5,0.5-7.5l-0.7,1c2.2-0.4,4.7-0.5,6.8-1.3c1.5-0.6,2.5-2.1,2.2-3.7
			c-0.3-1-0.9-1.9-1.7-2.5l-3.3-3l-1.6-1.5c-0.3-0.3-0.8-1-1.2-1.1s-0.1-0.5,0,0.2c0.1,0.9,0.1,0,0.2-0.1c0.1-0.7,0.1-1.5,0.1-2.2
			c0.1-1,0.1-1.9,0.2-2.9c0.1-2.6,0.3-5.2,0.5-7.7l-0.7,1l3.5-0.6c1.2-0.1,2.4-0.4,3.5-0.8c1.4-0.8,2.1-2.5,1.6-4
			c-0.4-0.9-1-1.6-1.8-2.2l-3.4-3.2c-0.3-0.3-1.8-2.1-2.2-2.1c0.4,0,0,1,0.3,0.3c0-0.2,0-0.5,0-0.7l0.1-2.4c0-0.8,0.1-1.6,0.1-2.3
			c0.2-2.7,0.4-5.4,0.5-8.1l-0.7,1c2.7-0.5,9.8-0.8,8.1-5.4c-0.5-1.4-2.2-2.5-3.3-3.5l-3.7-3.5c-0.9-0.9-2.4,0.5-1.4,1.4
			c2.1,1.8,4.1,3.7,6,5.6c1.5,1.7-0.6,2.4-2,2.6l-4.2,0.8c-0.4,0.1-0.7,0.5-0.7,1c-0.1,2.8-0.3,5.5-0.5,8.3
			c-0.1,1.1-0.1,2.2-0.2,3.4s-0.4,2.2,0.2,3c1.7,2.4,4.6,3.8,6.4,6.1c1.5,1.9-1.1,2.4-2.5,2.6l-4.3,0.8c-0.4,0.1-0.7,0.5-0.7,1
			c-0.3,4.1-0.5,8.2-0.8,12.3c-0.2,0.7,0,1.3,0.4,1.9c0.8,0.8,1.6,1.6,2.5,2.4l3.1,3c0.7,0.7,1.8,1.4,1.5,2.4s-2.8,1.3-3.8,1.5
			l-3.7,0.7c-0.4,0.1-0.7,0.5-0.7,1l-0.3,5.7c-0.1,1.4-0.2,2.7-0.3,4.1c-0.1,0.9-0.2,1.8-0.2,2.7c0.1,0.7,0.5,1,1,1.5l3,2.9
			c1,1,6.1,4.7,3.2,6c-1.2,0.4-2.4,0.6-3.6,0.7l-3.6,0.7c-0.4,0.1-0.7,0.5-0.7,1c-0.1,2.3-0.3,4.6-0.4,6.9c0,0.7-0.1,1.4-0.1,2.1
			c-0.1,1-0.5,2.5,0.1,3.4c0.5,0.6,1,1.1,1.5,1.5l3.2,3.2c1.1,1.1,5.8,4.5,2.3,5.6c-2.4,0.6-4.9,1.1-7.4,1.4c-0.4,0.1-0.7,0.5-0.7,1
			c-0.2,2.5-0.3,4.9-0.5,7.4c-0.2,1.6-0.3,3.2-0.3,4.8c0.1,0.9,0.7,1.3,1.3,1.9l3.7,3.9c0.9,0.8,1.8,1.6,2.5,2.6
			c1.2,2.2-2.1,2.4-3.4,2.6l-4.2,0.8c-0.4,0.1-0.7,0.5-0.7,1c-0.1,2.2-0.3,4.5-0.4,6.7l-0.1,2.6c-0.1,1-0.4,2.3,0.1,3.1
			c1.1,1.8,3.1,3.3,4.5,4.8c1,1.1,5.5,4.5,2.3,5.6c-2.4,0.6-4.8,1.1-7.2,1.5c-0.4,0.1-0.7,0.5-0.7,1c-0.2,3-0.4,6.1-0.5,9.1
			c-0.2,2.9,0.2,7.5-1.5,10c-1.1,1.5-2.6,2.6-4.3,3.4c-0.9,0.3-1.7,0.7-2.5,1.2c-0.4,0.3-0.3,0.8-1,1.1c-0.4,0.1-0.8,0.2-1.3,0.2
			c-0.8,0.1-1.5,0.3-2.2,0.6c-3,1.2-6,2.6-8.9,4c-5.7,2.5-11.4,5.1-17.2,7.6c-6.2,2.7-13.2,2.7-19.4,0c-2.6-1.2-5-3-7.7-3.9
			c-3.7-1.2-7.7-1.8-11.5-2.7l-5.9-1.4c-0.1,0-1-0.1-1.1-0.3c-0.6-0.9,2.9-1.5,3.2-1.6c0.5-0.1,0.8-0.7,0.7-1.2
			c-0.1-0.3-0.2-0.5-0.5-0.6c-2.2-1-4.3-2.2-6.4-3.4c-2.1-1.2-3.5-3.3-3.7-5.6c-0.1-1.3-0.1-2.5-0.2-3.8c-0.2-1.9-3.3-3-4.8-3.9
			l-3.9-2.4c-0.3-0.2-0.6-0.3-0.9-0.5c-0.2-0.2,0.2,0.3,0,0c-0.5-0.6-0.5-1.4,0-1.9c0.8-0.9,3-0.8,4.1-1l4-0.7
			c0.4-0.1,0.7-0.5,0.7-1c-0.1-2-0.2-4-0.4-5.9c-0.1-1.2-0.1-2.4-0.2-3.6c0.1-0.9,0-1.8-0.3-2.7c-0.4-0.5-0.9-1-1.4-1.3l-3-3.1
			l-3-2.8c-0.3-0.3-0.6-0.5-0.9-0.9c-0.7-0.8-0.9-1.8,0.2-2.6c0.8-0.6,2.7-0.5,3.7-0.7l3.3-0.6c0.4-0.1,0.8-0.5,0.7-1
			c-0.1-2.1-0.3-4.2-0.4-6.4L184,323c0-0.6-0.1-1.1-0.5-1.6c-1.6-2-4.1-3.5-6-5.2l-2.3-2c-1.1-1-2.7-2.7-0.4-3.5
			c1.4-0.4,2.8-0.6,4.3-0.7l3.2-0.5c0.4-0.1,0.7-0.5,0.7-1c-0.1-2.2-0.2-4.3-0.4-6.5l-0.2-3c-0.1-1,0.1-2.3-0.4-3.1
			c-0.5-0.5-1.1-1-1.7-1.4l-3.5-3c-1-0.8-6-4.1-3.6-5.5c1-0.6,2.9-0.6,3.9-0.7l3.7-0.6c0.4-0.1,0.7-0.5,0.7-1
			c-0.1-2.1-0.2-4.2-0.4-6.3c0-2.1-0.1-4.2-0.4-6.3c-0.2-0.8-0.5-1-1.1-1.5l-3.1-2.6l-3.3-2.8c-0.7-0.5-1.8-1.2-1.7-2.2
			c0.2-1.5,2.7-1.4,3.8-1.6l3.9-0.6c0.4-0.1,0.7-0.5,0.7-1c-0.2-4.1-0.5-8.2-0.8-12.3c0.1-0.7-0.2-1.4-0.7-1.9
			c-0.9-0.8-1.9-1.6-2.8-2.4l-3.5-2.8c-0.6-0.5-1.6-1.1-1.8-1.8c-0.7-2.3,5.9-2.5,7.3-2.7c0.4-0.1,0.7-0.5,0.7-1
			c-0.2-4-0.5-8-0.7-12c-0.1-0.8,0.1-1.9-0.4-2.6c-0.7-0.7-1.5-1.3-2.3-1.8l-3.4-2.8c-0.7-0.5-1.3-1-1.9-1.6
			c-1.5-1.9,1.5-2.3,2.8-2.5l3.8-0.6c0.4-0.1,0.7-0.5,0.7-1c-0.4-7.9-0.9-15.7-1.4-23.6c0-0.6-0.4-1-1-1h-0.2l1,1v-45.8
			c0-0.5-0.3-0.9-0.7-1c-1.5-0.6-3-1.3-4.4-2.1L166,134l-0.5,1.9h30.6c0.6,0,1-0.4,1-1v-24.1c0-0.6-0.4-1-1-1h-8.9l1,1l2.8-28.6
			l4.4-45.3l1-10.5l-1,1h74.2l-1-1l2.8,28.6l4.4,45.3l1,10.5l1-1h-8.9c-0.6,0-1,0.4-1,1v24.2c0,0.6,0.4,1,1,1h30.6L299,134l-4.3,2.1
			c-1.4,0.8-2.9,1.5-4.4,2.1c-0.4,0.1-0.7,0.5-0.7,1V185l1-1h-0.2c-0.6,0-1,0.4-1,1c-0.2,3.6-0.4,7.2-0.6,10.8
			C288.7,197,290.7,197,290.8,195.8z"/>
		<path class="st4" d="M84.1,131.6c15.3,0,19.8,25.2,23.3,45.4c2.8,16.1,4.9,27.8,11.2,27.8c5.8,0,11.6-5.2,17.4-15.4
			c6.2-10.8,12.2-27.3,17.8-48.9c8.9-33.7,14.3-70.9,14.3-86.1c0-4.5-0.4-9-1.3-13.5c-1.7-9.1-5.6-17.7-11.3-25
			c-5-6.2-11.7-11-19.2-13.7c-4.5-1.6-9.3-2.4-14.1-2.3c-0.4,0-0.9,0-1.4,0.1c-6.8,0.3-13.6,2.4-19.6,4.2S89.4,8,84.1,8
			S73,6.2,66.9,4.3C60.1,2.2,53,0,45.9,0c-13,0-25.2,5.9-33.3,16C4.5,26,0,39.7,0,54.5c0,15.1,5.5,52.3,14.3,86.1
			c5.7,21.6,11.7,38.1,17.8,48.9c5.8,10.2,11.7,15.4,17.4,15.4c6.2,0,8.3-11.6,11.2-27.8C64.3,156.8,68.8,131.6,84.1,131.6z
			 M55.1,195.6c-1.6,5.1-3.4,7.5-5.5,7.5c-15,0-27.5-39.5-33.7-63C7.4,107.6,1.6,69.6,1.6,54.5c0-30.6,18.6-52.8,44.3-52.8
			c6.9,0,13.8,2.2,20.5,4.2c2.8,0.8,5.1,1.6,7.4,2.2l8.6,2.3l-8.5,2.5C66.3,14.9,61.4,16,58.7,16c-0.4,0-0.8,0.4-0.8,0.8
			c0,0.4,0.4,0.8,0.8,0.8l0,0c5.5,0,16.7-3.5,29.5-7.5s27.2-8.5,34.1-8.5c25.6,0,44.3,22.2,44.3,52.8c0,15.1-5.7,53.1-14.3,85.7
			c-6.2,23.6-18.8,63-33.7,63c-2.1,0-3.9-2.4-5.5-7.5c-1.6-4.9-2.8-11.7-4-18.9c-3.7-20.8-8.3-46.7-25-46.7s-21.3,25.9-25,46.7
			C57.9,184,56.7,190.8,55.1,195.6L55.1,195.6z"/>
		<path class="st4" d="M378.2,131.6c15.3,0,19.8,25.2,23.4,45.4c2.8,16.1,4.9,27.8,11.1,27.8c5.8,0,11.6-5.2,17.4-15.4
			c6.2-10.8,12.2-27.3,17.8-48.9c8.8-33.7,14.3-70.9,14.3-86.1c0-4.5-0.4-9-1.3-13.5c-1.7-9.1-5.6-17.7-11.3-25
			c-5-6.2-11.7-11-19.2-13.7c-4.5-1.6-9.2-2.3-14-2.3c-0.4,0-0.9,0-1.4,0.1c-6.8,0.3-13.6,2.4-19.6,4.2S383.5,8,378.2,8
			S367.1,6.2,361,4.3C354.2,2.2,347.1,0,340,0c-13,0-25.2,5.9-33.3,16c-8.1,10-12.6,23.7-12.6,38.5c0,15.1,5.5,52.4,14.3,86.1
			c5.7,21.6,11.7,38.1,17.8,48.9c5.8,10.2,11.7,15.4,17.5,15.4c6.2,0,8.3-11.6,11.1-27.8C358.4,156.8,362.9,131.6,378.2,131.6z
			 M349.2,195.6c-1.6,5.1-3.4,7.5-5.5,7.5c-15,0-27.5-39.5-33.7-63c-8.5-32.5-14.3-70.6-14.3-85.7c0-30.6,18.6-52.8,44.3-52.8
			c6.9,0,13.8,2.2,20.5,4.2c2.8,0.8,5.1,1.6,7.4,2.2l8.6,2.3l-8.5,2.4c-7.6,2.2-12.4,3.2-15.2,3.2c-0.4,0-0.8,0.4-0.8,0.8
			c0,0.4,0.4,0.8,0.8,0.8c5.5,0,16.6-3.5,29.5-7.5s27.2-8.5,34.1-8.5c25.6,0,44.3,22.2,44.3,52.8c0,15.1-5.7,53.1-14.3,85.7
			c-6.2,23.6-18.8,63-33.7,63c-2.1,0-3.9-2.4-5.5-7.5c-1.5-4.9-2.8-11.7-4-18.9c-3.7-20.8-8.3-46.7-25-46.7s-21.3,25.9-25,46.7
			C352,184,350.8,190.8,349.2,195.6L349.2,195.6z"/>
	</g>
</g>
</svg>
