<?xml version="1.0" encoding="utf-8"?>
<!-- Generator: Adobe Illustrator 24.1.0, SVG Export Plug-In . SVG Version: 6.00 Build 0)  -->
<svg version="1.1" id="Layer_1" xmlns="http://www.w3.org/2000/svg" xmlns:xlink="http://www.w3.org/1999/xlink" x="0px" y="0px"
	 viewBox="0 0 248.7 251.4" style="enable-background:new 0 0 248.7 251.4;" xml:space="preserve">
<style type="text/css">
	.st0{fill:none;stroke:#231F20;stroke-width:2;stroke-miterlimit:10;}
	.st1{fill:url(#SVGID_1_);}
	.st2{fill:#FFFFFF;}
</style>
<g id="Layer_2_1_">
	<g id="Layer_1-2">
		<circle class="st0" cx="120.1" cy="131.3" r="119.1"/>
		
			<linearGradient id="SVGID_1_" gradientUnits="userSpaceOnUse" x1="259.9221" y1="83.4549" x2="103.2721" y2="240.1049" gradientTransform="matrix(1 0 0 -1 0 252)">
			<stop  offset="0" style="stop-color:#00FFFF"/>
			<stop  offset="1" style="stop-color:#00C3FF"/>
		</linearGradient>
		<path class="st1" d="M219.2,205.3c-5.3,0-9.7-4.4-9.7-9.7c0-1.9,0.6-3.7,1.6-5.3c33.5-50.8,19.5-119.2-31.3-152.7
			c-18-11.9-39.1-18.2-60.7-18.2c-5.3,0.2-9.8-4-10-9.4c-0.2-5.3,4-9.8,9.4-10c0.2,0,0.4,0,0.6,0c71.5,0,129.6,58,129.6,129.5
			c0,25.4-7.4,50.2-21.4,71.4C225.5,203.6,222.4,205.3,219.2,205.3z"/>
		<path class="st2" d="M138.4,130.8h-34.6v-6.8l16-18c1.9-2.2,3.7-4.6,5.1-7.1c0.9-1.6,1.4-3.5,1.5-5.4c0.1-1.8-0.5-3.6-1.6-5.1
			c-1.2-1.4-3-2.1-4.8-2c-2-0.1-4,0.8-5.2,2.4c-1.3,1.8-1.9,4-1.8,6.2h-10l-0.1-0.2c-0.2-4.3,1.4-8.6,4.5-11.6
			c3.1-3.2,7.3-4.8,12.6-4.8c5.3,0,9.4,1.3,12.3,4c2.9,2.7,4.4,6.3,4.4,10.9c0,3-0.8,5.9-2.5,8.5c-2.6,3.7-5.4,7.3-8.5,10.6
			l-8.5,10.2l0.1,0.2h21.1L138.4,130.8z"/>
		<path class="st2" d="M84.3,158.9l0.2,1.6c0.4-0.6,0.9-1,1.5-1.3c0.7-0.3,1.4-0.5,2.2-0.5c0.7,0,1.5,0.2,2.1,0.6
			c0.6,0.4,1.1,1,1.3,1.7c0.4-0.7,0.9-1.2,1.5-1.7c0.7-0.4,1.4-0.6,2.2-0.6c1.1-0.1,2.3,0.4,3,1.3c0.8,1.1,1.2,2.5,1.1,3.9v7.3h-2.3
			v-7.4c0.1-0.9-0.1-1.8-0.6-2.6c-0.5-0.5-1.2-0.8-1.9-0.8c-0.7,0-1.4,0.3-1.8,0.8c-0.5,0.6-0.8,1.3-0.8,2v7.9h-2.2v-7.4
			c0.1-0.9-0.2-1.8-0.6-2.5c-0.5-0.5-1.1-0.8-1.8-0.8c-0.6,0-1.2,0.1-1.7,0.4c-0.4,0.3-0.8,0.7-1,1.2v9.1h-2.2v-12.2H84.3z"/>
		<path class="st2" d="M105,155.8h-2.2v-2.3h2.2V155.8z M105,171.2h-2.2v-12.3h2.2V171.2z"/>
		<path class="st2" d="M110.4,158.9l0.2,1.8c0.4-0.6,0.9-1.1,1.5-1.5c0.6-0.4,1.4-0.6,2.1-0.5c1.1-0.1,2.3,0.4,3.1,1.2
			c0.8,1,1.2,2.3,1.1,3.6v7.7h-2.2v-7.7c0.1-0.8-0.1-1.6-0.6-2.3c-0.5-0.5-1.3-0.8-2-0.7c-0.6,0-1.2,0.1-1.8,0.4
			c-0.5,0.3-0.9,0.7-1.1,1.2v9.1h-2.2v-12.3H110.4z"/>
		<path class="st2" d="M129.4,169.4c-0.4,0.6-0.9,1.2-1.5,1.5c-0.6,0.4-1.4,0.5-2.1,0.5c-1.2,0.1-2.3-0.4-3.1-1.3
			c-0.8-1.2-1.2-2.6-1.1-4v-7.2h2.2v7.2c-0.1,0.9,0.1,1.9,0.6,2.7c0.4,0.5,1.1,0.8,1.8,0.7c0.7,0,1.4-0.1,2-0.5
			c0.5-0.3,0.9-0.8,1.2-1.4v-8.8h2.2v12.3h-2L129.4,169.4z"/>
		<path class="st2" d="M137.9,156v3h2.3v1.7h-2.3v7.3c0,0.4,0.1,0.9,0.4,1.2c0.3,0.3,0.6,0.4,1,0.4c0.1,0,0.3,0,0.4-0.1
			c0.1,0,0.3-0.1,0.4-0.1l0.3,1.5c-0.2,0.2-0.5,0.3-0.7,0.3c-0.3,0.1-0.7,0.1-1,0.1c-0.8,0-1.6-0.3-2.2-0.8
			c-0.6-0.7-0.9-1.6-0.8-2.6v-7.4h-1.9v-1.7h1.9v-3L137.9,156z"/>
		<path class="st2" d="M147.7,171.4c-1.6,0.1-3.1-0.5-4.1-1.7c-1-1.2-1.5-2.8-1.5-4.4v-0.5c-0.1-1.6,0.5-3.2,1.5-4.4
			c0.9-1.1,2.3-1.7,3.7-1.7c1.4-0.1,2.8,0.5,3.7,1.5c0.9,1.2,1.3,2.6,1.2,4.1v1.2h-7.8v0.1c-0.1,1.1,0.2,2.1,0.8,3
			c0.6,0.8,1.5,1.2,2.5,1.1c0.7,0,1.4-0.1,2-0.3c0.5-0.2,1-0.5,1.5-0.9l0.9,1.4c-0.5,0.5-1.1,0.8-1.7,1.1
			C149.5,171.3,148.6,171.5,147.7,171.4z M147.3,160.4c-0.7,0-1.5,0.3-1.9,0.9c-0.5,0.7-0.9,1.5-0.9,2.3v0.1h5.5v-0.2
			c0-0.8-0.2-1.6-0.7-2.2C148.8,160.7,148.1,160.4,147.3,160.4L147.3,160.4z"/>
		<path class="st2" d="M161.9,167.9c0-0.5-0.2-0.9-0.6-1.2c-0.6-0.4-1.4-0.7-2.1-0.8c-1.2-0.2-2.3-0.6-3.3-1.3
			c-0.7-0.5-1.2-1.4-1.2-2.2c0-1,0.5-1.9,1.3-2.6c2-1.4,4.7-1.4,6.7,0.1c0.8,0.6,1.3,1.6,1.2,2.6v0.1h-2.1c0-0.6-0.3-1.1-0.7-1.4
			c-0.5-0.4-1.1-0.7-1.8-0.6c-0.6-0.1-1.3,0.1-1.8,0.5c-0.4,0.3-0.6,0.8-0.6,1.3c0,0.4,0.2,0.9,0.5,1.1c0.6,0.4,1.3,0.6,2.1,0.7
			c1.2,0.2,2.4,0.7,3.4,1.4c0.7,0.5,1.2,1.4,1.2,2.3c0,1-0.5,2-1.3,2.7c-1,0.7-2.2,1.1-3.4,1c-1.3,0.1-2.7-0.3-3.7-1.2
			c-0.8-0.7-1.3-1.7-1.3-2.8v-0.1h2.1c0,0.7,0.3,1.3,0.9,1.7c0.6,0.4,1.3,0.6,1.9,0.6c0.7,0,1.3-0.1,1.9-0.5
			C161.6,168.9,161.9,168.4,161.9,167.9z"/>
	</g>
</g>
</svg>
