<svg xmlns="http://www.w3.org/2000/svg" viewBox="0 0 85.68 96.44"><defs><style>.cls-1{fill:#00c3ff;}</style></defs><title>Asset 1infographic-0</title><g id="Layer_2" data-name="Layer 2"><g id="Layer_1-2" data-name="Layer 1"><path class="cls-1" d="M11,31.91C4.1,33.54,0,40.43,0,50.35,0,66.84,8,90.88,18,96a4.12,4.12,0,0,0,1.89.46,3.93,3.93,0,0,0,2-.56,3.68,3.68,0,0,0,1.76-3.16V79.18a3.69,3.69,0,1,1,7.38,0V92.72a3.67,3.67,0,0,0,1.75,3.16,3.94,3.94,0,0,0,2,.56A4,4,0,0,0,36.69,96c10-5.1,18-29.14,18-45.63,0-9.8-4-16.51-10.9-18.42s-10.86-.1-16.1,2.46l-1.76.85C22.4,33,18,30.24,11,31.91Zm13.15,6.35c2.48,1.61,5,3.25,8.34,3.1a1.75,1.75,0,1,0-.18-3.49,6.2,6.2,0,0,1-2.7-.53c4.81-2.34,7.6-3.59,13.24-2,7.52,2.08,8.33,11.22,8.33,15.05,0,16.66-8.25,38.51-16.06,42.52a.5.5,0,0,1-.49,0c-.05,0-.08-.06-.08-.17V79.18a7.19,7.19,0,0,0-14.38,0V92.72a.17.17,0,0,1-.08.17.52.52,0,0,1-.5,0C11.76,88.86,3.5,67,3.5,50.35c0-3.93.81-13.26,8.27-15C17.49,34,20.86,36.15,24.12,38.26Z"/><path class="cls-1" d="M34.58,0a14.54,14.54,0,1,0,8.85,26.05l12,12-.2.11a1.32,1.32,0,0,0-.66,1.57l1.18,3.72a1.24,1.24,0,0,0,.32.54l20,20a5.42,5.42,0,0,0,3.42,1.6h.34A4.32,4.32,0,0,0,83,64.38L84.42,63a4.9,4.9,0,0,0-.34-6.89l-20-20a1.39,1.39,0,0,0-.53-.33l-3.73-1.17a1.31,1.31,0,0,0-1.57.66l-.11.19-12-12A14.51,14.51,0,0,0,34.58,0ZM82.22,58a2.29,2.29,0,0,1,.34,3.17l-1.41,1.4a1.77,1.77,0,0,1-1.42.49A2.69,2.69,0,0,1,78,62.18l-.07-.06a11,11,0,0,0,4.24-4.23ZM63.65,39.38,80.84,56.57A8.77,8.77,0,0,1,76.6,60.8L59.42,43.61a11.11,11.11,0,0,0,4.23-4.23Zm-4.84-.6A10.12,10.12,0,0,0,60,37.39l2.32.73a8.91,8.91,0,0,1-4.16,4.15L57.42,40A10,10,0,0,0,58.81,38.78Zm-35.15-20a11.63,11.63,0,0,1-.81-4.27A11.75,11.75,0,0,1,34.58,2.81a11.62,11.62,0,0,1,4.26.82Zm.82,1.67,16-16a11.85,11.85,0,0,1,4,3.86L28.34,24.46A11.85,11.85,0,0,1,24.48,20.48Zm10.1,5.79A11.67,11.67,0,0,1,30,25.32L45.35,9.92A11.73,11.73,0,0,1,34.58,26.27Z"/></g></g></svg>