<?xml version="1.0" encoding="utf-8"?>
<!-- Generator: Adobe Illustrator 24.1.2, SVG Export Plug-In . SVG Version: 6.00 Build 0)  -->
<svg version="1.1" id="Layer_1" xmlns="http://www.w3.org/2000/svg" xmlns:xlink="http://www.w3.org/1999/xlink" x="0px" y="0px"
	 viewBox="0 0 1328.8 3036.7" style="enable-background:new 0 0 1328.8 3036.7;" xml:space="preserve">
<style type="text/css">
	.st0{fill:url(#SVGID_1_);}
	.st1{fill:#FF0000;}
	.st2{fill:#231F20;}
	.st3{fill:#FFFFFF;}
	.st4{opacity:0.7;}
	.st5{opacity:0.7;fill:#231F20;enable-background:new    ;}
	.st6{fill:#00C3FF;stroke:#FFFFFF;stroke-width:3.06;stroke-miterlimit:10;}
	.st7{fill:#00C3FF;stroke:#FFFFFF;stroke-width:5.19;stroke-miterlimit:10;}
	.st8{fill:#00C3FF;stroke:#FFFFFF;stroke-width:3.67;stroke-miterlimit:10;}
	.st9{fill:#00C3FF;stroke:#FFFFFF;stroke-width:2.17;stroke-miterlimit:10;}
	.st10{fill:#55BCBC;}
	.st11{fill:#00C3FF;stroke:#231F20;stroke-width:2;stroke-miterlimit:10;}
	.st12{fill:#2CD1D1;}
	.st13{fill:#7DFFFB;}
	.st14{fill:#00C3FF;stroke:#231F20;stroke-miterlimit:10;}
	.st15{fill:none;stroke:#231F20;stroke-width:2;stroke-miterlimit:10;}
	.st16{fill:#00C3FF;stroke:#231F20;stroke-width:0.86;stroke-miterlimit:10;}
	.st17{fill:#00C3FF;}
	.st18{fill:#FFFFFF;stroke:#FFFFFF;stroke-miterlimit:10;}
	.st19{fill:#00C3FF;stroke:#231F20;stroke-width:2.17;stroke-miterlimit:10;}
	.st20{fill:#2CD1D1;stroke:#231F20;stroke-width:2.17;stroke-miterlimit:10;}
	.st21{fill:#7DFFFB;stroke:#231F20;stroke-width:2;stroke-miterlimit:10;}
	.st22{fill:none;}
</style>
<g id="Layer_2_1_">
	<g id="Layer_1-2">
		
			<linearGradient id="SVGID_1_" gradientUnits="userSpaceOnUse" x1="656.99" y1="4556.4375" x2="666.21" y2="4556.4375" gradientTransform="matrix(1 0 0 -1 0 4992)">
			<stop  offset="0" style="stop-color:#E5E2DF"/>
			<stop  offset="0" style="stop-color:#DED9D6"/>
			<stop  offset="6.000000e-02" style="stop-color:#CFCAC9"/>
			<stop  offset="0.18" style="stop-color:#A8A4A7"/>
			<stop  offset="0.26" style="stop-color:#8B878D"/>
			<stop  offset="0.52" style="stop-color:#F3F4F4"/>
			<stop  offset="0.58" style="stop-color:#E5E5E6"/>
			<stop  offset="0.7" style="stop-color:#C0BEC0"/>
			<stop  offset="0.86" style="stop-color:#858085"/>
			<stop  offset="0.88" style="stop-color:#807B80"/>
			<stop  offset="1" style="stop-color:#D1D3D4"/>
			<stop  offset="1" style="stop-color:#A7A9AC"/>
		</linearGradient>
		<path class="st0" d="M664.8,433.7c1.8,1,1.8,2.7,0,3.8c-2.1,1-4.5,1-6.5,0c-1.8-1-1.8-2.7,0-3.8
			C660.4,432.6,662.8,432.6,664.8,433.7z"/>
		<path class="st1" d="M640.4,466.3l0.1,1.9c-0.1-0.4-0.1-0.9-0.1-1.3V466.3z"/>
		<path class="st2" d="M655.1,366.9c-0.1-0.9,0.2-1.8,0.8-2.5l1.7,1.4c-0.2,0.2-0.3,0.5-0.3,0.8L655.1,366.9z"/>
		<path class="st2" d="M667.9,366.9l-2.1-0.3c0-0.3-0.1-0.6-0.3-0.8l1.7-1.4C667.8,365.1,668.1,366,667.9,366.9z"/>
		<path class="st2" d="M661.6,366.7c-1.5,0-3-0.3-4.3-1c-1.1-0.5-1.8-1.5-2.1-2.6c-0.1-0.9,0.1-1.9,0.8-2.5l1.7,1.4
			c-0.2,0.2-0.3,0.5-0.3,0.8c0.2,0.5,0.5,0.9,1,1.1c2,1,4.4,1,6.5,0c0.5-0.2,0.8-0.6,1-1.1c0-0.3-0.1-0.6-0.3-0.8l1.7-1.4
			c0.6,0.7,0.9,1.6,0.8,2.6c-0.2,1.1-1,2.1-2,2.6C664.6,366.4,663.1,366.8,661.6,366.7z"/>
		<path class="st2" d="M661.6,362.8c-1.5,0-3-0.3-4.3-1.1c-1.1-0.5-1.8-1.5-2.1-2.6c-0.1-0.9,0.1-1.9,0.8-2.5l1.7,1.4
			c-0.2,0.2-0.3,0.5-0.3,0.8c0.2,0.5,0.5,0.9,1,1.1c2,1,4.4,1,6.5,0c0.5-0.2,0.8-0.6,1-1.1c0-0.3-0.1-0.6-0.3-0.8l1.7-1.4
			c0.6,0.7,0.9,1.6,0.8,2.6c-0.3,1.1-1,2.1-2,2.6C664.6,362.5,663.1,362.8,661.6,362.8z"/>
		<path class="st2" d="M661.6,358.9c-1.5,0-3-0.3-4.3-1.1c-1.1-0.5-1.8-1.5-2.1-2.6c-0.1-0.9,0.1-1.9,0.8-2.5l1.7,1.4
			c-0.2,0.2-0.3,0.5-0.3,0.8c0.2,0.5,0.5,0.9,1,1.1c2,1,4.4,1,6.5,0c0.5-0.2,0.8-0.6,1-1.1c0-0.3-0.1-0.6-0.3-0.8l1.7-1.4
			c0.6,0.7,0.9,1.6,0.8,2.6c-0.2,1.1-1,2.1-2,2.6C664.6,358.6,663.1,359,661.6,358.9z"/>
		<path class="st2" d="M661.6,355c-1.5,0-3-0.3-4.3-1.1c-1.1-0.5-1.8-1.5-2.1-2.6c-0.1-0.9,0.1-1.9,0.8-2.5l1.7,1.4
			c-0.2,0.2-0.3,0.5-0.3,0.8c0.2,0.5,0.5,0.9,1,1.1c2,1,4.4,1,6.5,0c0.5-0.2,0.8-0.6,1-1.1c0-0.3-0.1-0.6-0.3-0.8l1.7-1.4
			c0.6,0.7,0.9,1.6,0.8,2.6c-0.3,1.1-1,2.1-2,2.6C664.6,354.7,663.1,355,661.6,355z"/>
		<path class="st3" d="M668.1,92.7l-5.2,1.3l-2.6,0.9c-0.9,0.3-2,0.6-3,1.1l-3.4,1.4l-3.8,1.8c-2.6,1.3-5.4,2.8-8.4,4.4L637,106
			c-1.6,0.8-3.3,1.5-5,2.3l-2.6,1c-0.9,0.3-1.8,0.7-2.7,1l-2.8,0.8l-1.4,0.4l-1.4,0.3c-1.9,0.5-3.9,0.8-5.8,1.1c-2,0.3-4,0.5-6,0.5
			c-4,0.1-7.9,0-11.8-0.4l-5.7-0.8l-1.4-0.2l-1.4-0.3l-2.7-0.6l-2.7-0.6l-1.3-0.3c-0.5-0.1-0.9-0.2-1.3-0.4s-0.9-0.3-1.3-0.4
			s-0.9-0.3-1.3-0.5c-0.8-0.3-1.6-0.7-2.4-1.2c-2.9-1.6-5.5-3.7-7.6-6.3c-1.7-2.2-3.2-4.6-4.4-7.1c-0.9-2-1.6-4-2.2-6.1L561,86
			c-0.1-0.7-0.3-1.2-0.4-1.7c-0.2-0.9-0.3-1.4-0.3-1.4c-0.2-1.2,0.5-2.3,1.7-2.6c1.1-0.2,2.2,0.5,2.5,1.6c0,0.1,0,0.2,0,0.3v0.1
			c0,0,0,0.5,0.1,1.3c0,0.4,0.1,1,0.1,1.6s0.2,1.4,0.3,2.2c0.3,1.9,0.8,3.9,1.5,5.7c0.9,2.4,2.1,4.7,3.6,6.7
			c0.2,0.3,0.4,0.6,0.6,0.8l0.7,0.8c0.5,0.6,1,1.1,1.5,1.6s1.2,1,1.8,1.5c1.3,0.9,2.7,1.7,4.2,2.3c0.4,0.2,0.8,0.3,1.1,0.4
			c0.4,0.2,0.8,0.3,1.2,0.4s0.9,0.3,1.2,0.3l1.3,0.3l2.7,0.6l2.7,0.6l1.4,0.3l1.4,0.2l5.6,0.8c3.8,0.4,7.7,0.5,11.5,0.3
			s7.6-0.8,11.3-1.7l1.4-0.3l1.3-0.4l2.6-0.9c0.9-0.3,1.7-0.6,2.6-1l2.5-1c1.6-0.8,3.2-1.6,4.8-2.4l4.5-2.5l8.3-4.7l3.8-2l3.5-1.7
			c1.1-0.6,2.2-0.9,3.2-1.3l2.8-1.1l5.1-1.6c1.1-0.4,2.4,0.1,2.8,1.3s-0.1,2.4-1.3,2.8C668.3,92.7,668.2,92.7,668.1,92.7L668.1,92.7
			z"/>
		<path class="st3" d="M667.5,92.8c-1.2,0-2.2-1-2.2-2.2c0-1,0.7-1.9,1.7-2.1c9.4-2.2,19.5-1.7,29.4-1.2c21.6,1.2,42.1,2.3,57.1-23
			c0.2-0.3,0.2-0.6,0.2-0.9C753,61,747,57.7,743,55.5c-4.8-2.7-7.4-4.1-8.2-6.1c-9-22-20.4-35.5-35-41.5c-15.5-6.3-35.1-4.2-60,6.5
			c-6.8,2.9-14.3,2-22.2,1.1c-13.9-1.7-28.3-3.4-40.3,17.2l-0.1,0.2l-0.8,1.1c-6,8.3-12.9,39.2-11.7,48.3c0.1,1.2-0.8,2.2-2,2.4
			c-1.1,0.1-2.1-0.7-2.3-1.8c-1.3-10.2,5.8-42.1,12.5-51.4l0.8-1c13.4-23,29.9-21,44.5-19.2c7.3,0.9,14.2,1.7,20-0.8
			C664.2-0.7,685-2.9,701.6,4c15.7,6.4,27.9,20.8,37.3,43.9c0.5,0.8,3.8,2.6,6.3,4c5.7,3.1,11.6,6.4,12.7,10.6
			c0.4,1.4,0.2,3-0.6,4.3c-16.4,27.5-39.1,26.3-61.1,25.1c-10-0.5-19.4-1-28.1,1.1C667.8,92.8,667.7,92.8,667.5,92.8z"/>
		<path class="st3" d="M600.3,10.2l1-0.1l1.1-0.1c0.4-0.1,1-0.1,1.7-0.1c0.7-0.1,1.3-0.1,2-0.1s1.5,0,2.4,0.1c0.9,0,1.8,0.1,2.7,0.3
			c1,0.1,1.9,0.3,3,0.5c2.2,0.5,4.3,1.2,6.4,2c2.3,0.9,4.5,2,6.6,3.3c2.2,1.3,4.4,2.9,6.4,4.5c2.1,1.7,4,3.5,5.9,5.5
			c1.8,2,3.5,4,5.1,6.2c0.8,1,1.5,2.1,2.3,3.2s1.4,2.2,2,3.2c1.3,2.1,2.4,4.3,3.4,6.3s1.9,4,2.6,5.9s1.4,3.5,1.9,5.1s0.9,2.9,1.3,4
			c0.7,2.2,1,3.5,1,3.5s-0.4-1.3-1.2-3.4c-0.4-1.1-0.9-2.4-1.5-3.9s-1.3-3.2-2.2-5s-1.8-3.7-2.9-5.7s-2.3-4-3.7-6.1
			c-0.7-1-1.4-2-2.1-3.1s-1.5-2-2.4-3c-1.6-2-3.4-3.9-5.3-5.7c-1.8-1.8-3.8-3.5-5.9-5c-2-1.5-4.1-2.8-6.3-4c-2-1.1-4.1-2-6.3-2.8
			c-1.9-0.7-3.9-1.2-5.9-1.5c-0.9-0.1-1.8-0.3-2.7-0.3s-1.7-0.1-2.4-0.1s-1.4,0-2.1,0c-0.6,0-1.2,0.1-1.8,0.1
			c-0.5,0.1-1,0.1-1.4,0.2l-1.1,0.2l-0.9,0.2c-1.2,0.2-2.3-0.6-2.5-1.8S599.1,10.4,600.3,10.2L600.3,10.2z"/>
		<path class="st3" d="M745.5,56.7l-3.1-0.5c-1-0.2-2.1-0.3-3.5-0.5s-2.9-0.3-4.5-0.4s-3.5-0.2-5.4-0.2c-1,0-1.9,0-2.9,0.1
			s-2,0.1-3.1,0.2s-2.1,0.2-3.2,0.4l-3.2,0.5c-2.1,0.5-4.3,0.9-6.5,1.6s-4.3,1.4-6.4,2.1c-1,0.4-2.1,0.8-3.1,1.2s-2,0.8-3,1.2
			c-1.9,0.9-3.8,1.7-5.5,2.6s-3.4,1.7-4.9,2.5l-4.1,2.3l-3.1,1.8l-2.7,1.6l2.6-1.8l3-2l3.9-2.6c1.4-1,3-1.8,4.7-2.8s3.5-2,5.4-3
			c0.9-0.5,1.9-1,2.9-1.5s2-1,3-1.4c2.1-0.8,4.2-1.8,6.4-2.5s4.4-1.4,6.6-2l3.3-0.8c1.1-0.2,2.2-0.4,3.3-0.6s2.1-0.3,3.2-0.4
			s2.1-0.2,3.1-0.3c2-0.2,3.9-0.2,5.6-0.2s3.3,0.1,4.7,0.2s2.7,0.2,3.7,0.3l3.1,0.3c1.2,0.1,2.1,1.1,2,2.3s-1.1,2.1-2.3,2h-0.1
			L745.5,56.7z"/>
		<path class="st3" d="M576.9,176c-1,0-1.9-0.7-2.1-1.8c-1.6-8.4-3.7-16.3-5.8-24.6c-3.6-13.8-7.3-28-8.8-45c-0.8-9-1-18-0.4-27
			c0.1-1.2,1.2-2.1,2.4-2c1.1,0.1,2,1,2,2.2c-0.1,1.4,0,2.8,0.1,4.1c1.8,13.7,8.1,22.2,18.1,24.7c30.9,7.9,45,0.2,59.9-8
			c7.3-4,14.8-8.1,24.4-10.5c9.3-2.2,19.5-1.7,29.3-1.2c21.7,1.2,42.1,2.3,57.1-23c0.2-0.3,0.2-0.6,0.2-0.9
			c-0.1-1.1,0.5-2.1,1.6-2.4h0.2c1.2-0.3,2.3,0.4,2.7,1.5c0,0.1,0,0.2,0.1,0.3c4.1,28.4,1.5,43.9-1.7,58.5c-0.5,2.4-1.1,4.8-1.7,7.2
			c-2.6,11.1-5.6,23.7-6.8,41.8c-0.1,1.2-1.1,2.1-2.3,2s-2.1-1.1-2-2.3l0,0c1.3-18.4,4.3-31.2,6.9-42.4c0.6-2.4,1.1-4.8,1.6-7.1
			c2.9-13,5.2-26.7,2.5-49.9c-16.1,23.5-37.7,22.3-58.6,21.2c-10-0.5-19.4-1-28.1,1.1c-9,2.2-16.3,6.2-23.3,10
			c-15,8.2-30.5,16.8-63,8.4c-7.6-1.9-14-7.1-17.3-14.2c0.1,2.6,0.3,5.1,0.5,7.6c1.5,16.7,5.1,30.7,8.7,44.3
			c2.1,8,4.3,16.3,5.9,24.9c0.2,1.2-0.5,2.3-1.7,2.5C577.1,176,577,176,576.9,176z"/>
		<path class="st3" d="M661,239.4c-45.7,0-79.4-25.6-85.9-65.3c-0.2-1.2,0.6-2.3,1.8-2.5s2.3,0.6,2.5,1.8l0,0
			c6.1,37.4,38.2,61.6,81.6,61.6c47.9,0,82.7-31.6,82.7-75.1c0-1.2,1-2.2,2.2-2.2s2.2,1,2.2,2.2C748.1,206,711.5,239.4,661,239.4z"
			/>
		<path class="st3" d="M627.6,224.9l-1.7-0.9c-1.6-0.9-3.2-1.9-4.6-3c-2.3-1.8-4.3-3.9-6-6.3c-2.2-3.3-3.3-7.1-3.1-11.1
			c0.4-4.7,2.3-9.1,5.5-12.6c1.7-1.9,3.5-3.5,5.5-5c0.5-0.4,1-0.7,1.6-1.1l1.7-1.1l3.3-1.8c4.8-2.3,10-4.1,15.2-5.1
			c10.8-2.3,22-2.2,32.8,0.1c5.3,1.1,10.3,2.8,15.2,5.2c4.6,2.2,8.7,5.2,12.2,8.9c3.2,3.4,5.2,7.8,5.7,12.5c0.3,3.9-0.8,7.8-3,11.1
			c-1.6,2.4-3.6,4.6-5.9,6.4c-1.5,1.1-3,2.1-4.6,3l-1.7,0.9l1.6-1.1c1.5-1.1,2.9-2.2,4.2-3.5c2-1.9,3.7-4.1,5-6.6
			c1.7-3,2.3-6.6,1.9-10c-0.7-4-2.7-7.7-5.6-10.5c-3.3-3.2-7.2-5.9-11.5-7.7c-4.6-2-9.4-3.5-14.4-4.5c-5.1-1-10.3-1.5-15.5-1.5
			s-10.3,0.5-15.4,1.5c-4.9,0.9-9.7,2.4-14.3,4.4l-3.3,1.7l-1.5,0.9c-0.5,0.3-1,0.6-1.5,0.9c-1.9,1.2-3.6,2.7-5.2,4.3
			c-2.9,2.8-4.8,6.6-5.5,10.6c-0.4,3.5,0.4,7,2.1,10c1.4,2.4,3.1,4.6,5.1,6.5c1.3,1.2,2.7,2.4,4.2,3.5L627.6,224.9z"/>
		<g class="st4">
			<path class="st2" d="M661.6,500.3c-1.3,0-2.6-0.3-3.8-0.9c-1.6-0.6-2.4-2.3-1.8-3.8c0.3-0.8,1-1.5,1.8-1.8c2.4-1.2,5.2-1.2,7.6,0
				c1.1,0.5,1.8,1.6,1.9,2.8c-0.1,1.2-0.8,2.3-1.9,2.8C664.3,500,663,500.3,661.6,500.3z M661.6,495c-0.9,0-1.9,0.2-2.7,0.6
				c-0.5,0.3-0.8,0.6-0.8,0.9s0.3,0.7,0.8,1c1.7,0.8,3.7,0.8,5.4,0c0.5-0.3,0.8-0.6,0.8-0.9s-0.3-0.7-0.8-1
				C663.5,495.2,662.5,495,661.6,495L661.6,495z"/>
			<rect x="665.1" y="435.5" class="st2" width="2.2" height="61"/>
			<rect x="655.9" y="435.5" class="st2" width="2.2" height="61"/>
		</g>
		<path class="st2" d="M661.7,458.4c-5.4,0.1-10.8-1.2-15.6-3.7c-4.3-2.5-6.8-5.9-6.8-9.6c0-0.6,0.5-1.1,1.1-1.1l0,0
			c0.6,0,1.1,0.5,1.1,1.1c0,2.9,2.1,5.6,5.7,7.7c8,4.6,21,4.6,28.9,0.1c3.7-2.1,5.7-4.9,5.6-7.8c0-0.6,0.5-1.1,1.1-1.1l0,0l0,0
			c0.6,0,1.1,0.5,1.1,1.1l0,0c0,3.7-2.3,7.1-6.7,9.6C672.4,457.2,667.1,458.5,661.7,458.4z"/>
		<path class="st2" d="M661.7,480.1c-5.4,0.1-10.8-1.2-15.6-3.7c-4.3-2.5-6.8-5.9-6.8-9.6c0-0.6,0.5-1.1,1.1-1.1l0,0l0,0
			c0.6,0,1.1,0.5,1.1,1.1c0,2.9,2.1,5.6,5.7,7.7c8,4.6,21,4.6,28.9,0.1c3.7-2.1,5.7-4.9,5.6-7.8c0-0.6,0.5-1.1,1.1-1.1l0,0
			c0.6,0,1.1,0.5,1.1,1.1c0,3.7-2.3,7.1-6.7,9.7C672.4,479,667.1,480.2,661.7,480.1z"/>
		<path class="st2" d="M661.7,488c-5.7,0.1-11.4-1.3-16.5-4c-3.8-2.2-6.2-5-6.9-8.1c-0.6-2.5-0.1-5.1,1.4-7.2l1.8,1.2
			c-1.1,1.6-1.5,3.6-1.1,5.5c0.6,2.5,2.6,4.9,5.9,6.7c8.5,4.9,22.2,4.9,30.6,0.1c3.2-1.9,5.3-4.2,5.8-6.8c0.4-2-0.1-4.1-1.3-5.7
			l1.8-1.2c1.6,2.1,2.2,4.8,1.7,7.4c-0.7,3.2-3.1,6-6.9,8.2C673,486.8,667.4,488.1,661.7,488z"/>
		<path class="st2" d="M661.7,493.3c-5.6,0.1-11.2-1.2-16.2-3.9c-3.7-2.1-6.1-4.9-6.8-8c-0.6-2.5-0.1-5,1.4-7.1l1.8,1.2
			c-1.1,1.6-1.5,3.5-1.1,5.4c0.6,2.5,2.6,4.8,5.8,6.6c8.3,4.8,21.8,4.8,30,0.1c3.2-1.8,5.2-4.1,5.7-6.6c0.4-2-0.1-4-1.3-5.6l1.8-1.3
			c1.6,2.1,2.2,4.7,1.7,7.3c-0.7,3.1-3,5.9-6.8,8C672.8,492,667.3,493.4,661.7,493.3z"/>
		<path class="st2" d="M661.7,498.5c-5.5,0.1-11-1.2-15.9-3.8c-3.7-2.1-6-4.8-6.7-7.9c-0.5-2.4,0-5,1.4-7l1.8,1.2
			c-1.1,1.5-1.5,3.5-1.1,5.3c0.6,2.4,2.5,4.7,5.7,6.5c8.2,4.7,21.4,4.7,29.5,0c3.1-1.8,5.1-4,5.6-6.5c0.4-1.9-0.1-3.9-1.3-5.5
			l1.8-1.3c1.6,2,2.2,4.7,1.7,7.2c-0.7,3.1-3,5.8-6.6,7.9C672.6,497.3,667.2,498.6,661.7,498.5z"/>
		<path class="st2" d="M661.7,503.8c-5.4,0.1-10.8-1.2-15.6-3.7c-3.6-2.1-5.9-4.8-6.6-7.8c-0.5-2.4,0-4.9,1.4-6.9l1.8,1.2
			c-1.1,1.5-1.5,3.4-1.1,5.2c0.5,2.4,2.5,4.6,5.5,6.4c8,4.6,20.9,4.6,28.8,0c3.1-1.8,5-4,5.5-6.4c0.4-1.9-0.1-3.8-1.3-5.4l1.8-1.3
			c1.6,2,2.2,4.6,1.7,7.1c-0.6,3-2.9,5.7-6.5,7.8C672.4,502.6,667.1,503.9,661.7,503.8z"/>
		<path class="st2" d="M661.7,509c-5.3,0.1-10.6-1.2-15.3-3.7c-3.5-2-5.8-4.7-6.5-7.6c-0.5-2.4,0-4.8,1.4-6.8l1.8,1.2
			c-1.1,1.5-1.5,3.3-1.1,5.1c0.5,2.3,2.4,4.5,5.4,6.2c7.8,4.5,20.5,4.5,28.2,0.1c3-1.7,4.9-3.9,5.4-6.2c0.4-1.9-0.1-3.8-1.3-5.3
			l1.8-1.3c1.5,2,2.2,4.5,1.7,7c-0.6,3-2.8,5.6-6.4,7.7C672.2,507.9,667,509.1,661.7,509z"/>
		<path class="st2" d="M661.7,514.3c-5.2,0.1-10.4-1.1-15-3.6c-3.5-2-5.7-4.6-6.3-7.5c-0.5-2.3,0-4.8,1.4-6.7l1.8,1.2
			c-1.1,1.4-1.5,3.3-1.1,5c0.5,2.3,2.4,4.4,5.3,6.1c7.7,4.4,20,4.4,27.7,0.1c2.9-1.7,4.8-3.8,5.2-6.1c0.3-1.8-0.1-3.7-1.3-5.1
			l1.7-1.3c1.5,1.9,2.1,4.4,1.7,6.9c-0.6,2.9-2.8,5.5-6.3,7.5C672,513.2,666.9,514.4,661.7,514.3z"/>
		<path class="st2" d="M661.7,519.5c-5.1,0.1-10.2-1.1-14.7-3.5c-3.4-2-5.6-4.5-6.2-7.4c-0.5-2.3,0-4.7,1.5-6.6l1.8,1.3
			c-1.1,1.4-1.5,3.2-1.1,4.9c0.5,2.2,2.3,4.3,5.2,6c7.5,4.3,19.6,4.3,27,0.1c2.9-1.7,4.7-3.7,5.1-6c0.3-1.8-0.1-3.6-1.3-5l1.7-1.3
			c1.5,1.9,2.1,4.4,1.7,6.8c-0.6,2.9-2.7,5.4-6.2,7.4C671.7,518.4,666.8,519.6,661.7,519.5z"/>
		<path class="st2" d="M661.7,524.8c-5,0.1-10-1.1-14.4-3.5c-3.4-1.9-5.5-4.5-6.1-7.3c-0.5-2.3,0.1-4.7,1.5-6.5l1.8,1.3
			c-1,1.4-1.4,3.1-1.1,4.8c0.5,2.2,2.2,4.2,5.1,5.9c7.3,4.2,19.2,4.2,26.5,0c2.8-1.6,4.5-3.7,5-5.8c0.3-1.7-0.1-3.5-1.2-4.9l1.7-1.3
			c1.5,1.9,2.1,4.3,1.7,6.7c-0.6,2.8-2.7,5.3-6,7.3C671.6,523.7,666.7,524.9,661.7,524.8z"/>
		<path class="st2" d="M661.7,530c-4.9,0.1-9.8-1.1-14.1-3.4c-3.3-1.9-5.4-4.4-6-7.2c-0.5-2.3,0.1-4.6,1.5-6.4l1.8,1.3
			c-1,1.3-1.4,3-1.1,4.7c0.5,2.1,2.2,4.1,5,5.7c7.2,4.1,18.8,4.2,25.9,0c2.7-1.6,4.5-3.6,4.9-5.7c0.3-1.7-0.1-3.5-1.2-4.8l1.7-1.3
			c1.5,1.8,2.1,4.2,1.7,6.5c-0.6,2.8-2.6,5.3-5.9,7.2C671.4,529,666.6,530.1,661.7,530z"/>
		<path class="st2" d="M661.7,535.3c-4.8,0.1-9.6-1-13.8-3.3c-3.2-1.9-5.3-4.3-5.9-7c-0.4-2.2,0.1-4.5,1.5-6.3l1.7,1.3
			c-1,1.3-1.4,3-1.1,4.6c0.4,2.1,2.1,4,4.8,5.6c7,4,18.3,4.1,25.3,0c2.7-1.5,4.3-3.5,4.8-5.6c0.3-1.7-0.2-3.4-1.2-4.7l1.7-1.3
			c1.5,1.8,2.1,4.2,1.7,6.5c-0.5,2.7-2.6,5.2-5.8,7C671.2,534.2,666.5,535.4,661.7,535.3z"/>
		<path class="st2" d="M661.7,540.5c-4.7,0.1-9.3-1-13.5-3.2c-3.2-1.8-5.2-4.3-5.8-6.9c-0.4-2.2,0.1-4.5,1.5-6.2l1.7,1.3
			c-1,1.3-1.4,2.9-1.1,4.5c0.4,2,2.1,4,4.7,5.5c6.8,3.9,17.9,4,24.7,0c2.6-1.5,4.2-3.4,4.7-5.4c0.3-1.6-0.2-3.3-1.2-4.6l1.7-1.3
			c1.5,1.8,2.1,4.1,1.7,6.3c-0.5,2.7-2.5,5.1-5.7,6.9C670.9,539.5,666.4,540.6,661.7,540.5z"/>
		<path class="st2" d="M661.7,545.8c-4.6,0.1-9.1-1-13.2-3.2c-3.1-1.8-5.1-4.2-5.6-6.8c-0.4-2.2,0.1-4.4,1.5-6.1l1.7,1.3
			c-1,1.2-1.4,2.8-1.1,4.4c0.4,2,2,3.9,4.6,5.3c6.7,3.8,17.5,3.9,24.1,0c2.5-1.5,4.1-3.3,4.5-5.3c0.3-1.6-0.2-3.2-1.2-4.4l1.7-1.3
			c1.4,1.7,2.1,4,1.7,6.2c-0.5,2.6-2.5,5-5.6,6.8C670.8,544.8,666.3,545.9,661.7,545.8z"/>
		<path class="st2" d="M661.7,551c-4.5,0.1-8.9-0.9-12.9-3c-3.1-1.8-5-4.1-5.5-6.7c-0.4-2.1,0.2-4.3,1.5-6l1.7,1.3
			c-1,1.2-1.4,2.8-1.1,4.3c0.4,1.9,2,3.8,4.5,5.2c6.5,3.8,17,3.8,23.5,0c2.5-1.4,4-3.2,4.4-5.2c0.3-1.6-0.2-3.2-1.2-4.4l1.7-1.3
			c1.4,1.7,2,3.9,1.6,6.1c-0.5,2.6-2.4,4.9-5.5,6.7C670.5,550.1,666.1,551.1,661.7,551z"/>
		<path class="st2" d="M661.7,556.3c-4.4,0.1-8.7-0.9-12.6-3c-3-1.7-4.9-4-5.4-6.6c-0.4-2.1,0.2-4.3,1.5-5.9l1.7,1.3
			c-1,1.2-1.4,2.7-1.1,4.2c0.4,1.9,1.9,3.7,4.4,5.1c6.3,3.7,16.6,3.7,22.9,0c2.4-1.4,3.9-3.2,4.3-5c0.2-1.5-0.2-3.1-1.2-4.3l1.7-1.4
			c1.4,1.7,2,3.9,1.7,6c-0.5,2.5-2.4,4.8-5.3,6.5C670.3,555.3,666,556.4,661.7,556.3z"/>
		<path class="st2" d="M661.7,561.5c-4.3,0.1-8.5-0.9-12.3-2.9c-3-1.7-4.8-4-5.3-6.4c-0.4-2.1,0.2-4.2,1.6-5.8l1.7,1.3
			c-1,1.1-1.4,2.6-1.1,4.1c0.4,1.8,1.8,3.6,4.2,5c6.2,3.6,16.2,3.6,22.3,0c2.4-1.4,3.8-3.1,4.2-4.9c0.2-1.5-0.2-3-1.2-4.2l1.7-1.4
			c1.4,1.6,2,3.8,1.6,5.9c-0.5,2.5-2.3,4.7-5.2,6.4C670.1,560.6,665.9,561.6,661.7,561.5z"/>
		<path class="st2" d="M661.7,566.8c-4.2,0.1-8.3-0.9-12-2.9c-2.9-1.7-4.7-3.9-5.2-6.3c-0.4-2.1,0.2-4.2,1.6-5.8l1.7,1.3
			c-1,1.1-1.4,2.6-1.1,4c0.3,1.8,1.8,3.5,4.1,4.8c6,3.5,15.7,3.5,21.7,0c2.3-1.3,3.7-3,4.1-4.8c0.2-1.4-0.2-2.9-1.2-4l1.7-1.4
			c1.4,1.6,2,3.7,1.6,5.8c-0.5,2.4-2.2,4.6-5.1,6.3C669.9,565.9,665.8,566.9,661.7,566.8z"/>
		<path class="st2" d="M661.7,572c-4.1,0.1-8.1-0.9-11.7-2.8c-2.8-1.6-4.6-3.8-5-6.2c-0.4-2,0.2-4.1,1.6-5.7l1.7,1.4
			c-0.9,1.1-1.4,2.5-1.1,3.9c0.3,1.7,1.7,3.4,4,4.7c5.8,3.4,15.3,3.4,21.1,0c2.2-1.3,3.6-2.9,3.9-4.7c0.2-1.4-0.2-2.9-1.2-3.9
			l1.7-1.4c1.4,1.6,2,3.6,1.6,5.7c-0.4,2.4-2.2,4.5-5,6.1C669.7,571.1,665.7,572.1,661.7,572z"/>
		<path class="st2" d="M661.7,577.3c-4,0.1-7.9-0.9-11.4-2.7c-2.8-1.6-4.5-3.8-4.9-6.1c-0.3-2,0.3-4,1.6-5.6l1.7,1.4
			c-0.9,1-1.3,2.4-1.1,3.8c0.3,1.7,1.7,3.3,3.9,4.6c5.7,3.3,14.8,3.3,20.5,0c2.2-1.2,3.5-2.8,3.8-4.5c0.2-1.4-0.2-2.8-1.2-3.8
			l1.7-1.4c1.4,1.5,2,3.6,1.6,5.6c-0.4,2.3-2.1,4.4-4.9,6C669.5,576.4,665.6,577.3,661.7,577.3z"/>
		<path class="st2" d="M661.7,582.5c-3.9,0.1-7.7-0.8-11.1-2.7c-2.7-1.6-4.4-3.7-4.8-6c-0.3-2,0.3-4,1.6-5.5l1.7,1.4
			c-0.9,1-1.3,2.4-1.1,3.7c0.3,1.6,1.6,3.2,3.8,4.5c5.5,3.2,14.4,3.2,19.9,0c2.1-1.2,3.4-2.8,3.7-4.4c0.2-1.4-0.2-2.7-1.2-3.7
			l1.7-1.4c1.4,1.5,2,3.5,1.6,5.5c-0.4,2.3-2.1,4.3-4.8,5.9C669.3,581.7,665.5,582.6,661.7,582.5z"/>
		<path class="st2" d="M661.7,587.8c-3.8,0.1-7.5-0.8-10.8-2.6c-2.7-1.5-4.3-3.6-4.7-5.8c-0.3-1.9,0.3-3.9,1.6-5.4l1.7,1.4
			c-0.9,1-1.3,2.3-1.1,3.6c0.3,1.6,1.6,3.1,3.7,4.3c5.3,3.1,14,3.1,19.3,0c2-1.2,3.3-2.7,3.6-4.3c0.2-1.3-0.2-2.6-1.2-3.6l1.7-1.4
			c1.3,1.5,1.9,3.4,1.6,5.4c-0.4,2.2-2,4.3-4.6,5.8C669.1,587,665.4,587.8,661.7,587.8z"/>
		<path class="st2" d="M661.7,587.8c-3.8,0.1-7.5-0.8-10.8-2.6c-2.7-1.5-4.3-3.6-4.7-5.8c-0.3-1.9,0.3-3.9,1.6-5.4l1.7,1.4
			c-0.9,1-1.3,2.3-1.1,3.6c0.3,1.6,1.6,3.1,3.7,4.3c5.3,3.1,14,3.1,19.3,0c2-1.2,3.3-2.7,3.6-4.3c0.2-1.3-0.2-2.6-1.2-3.6l1.7-1.4
			c1.3,1.5,1.9,3.4,1.6,5.4c-0.4,2.2-2,4.3-4.6,5.8C669.1,587,665.4,587.8,661.7,587.8z"/>
		<path class="st2" d="M661.7,587.8c-3.8,0.1-7.5-0.8-10.8-2.6c-2.7-1.5-4.3-3.6-4.7-5.8c-0.3-1.9,0.3-3.9,1.6-5.4l1.7,1.4
			c-0.9,1-1.3,2.3-1.1,3.6c0.3,1.6,1.6,3.1,3.7,4.3c5.3,3.1,14,3.1,19.3,0c2-1.2,3.3-2.7,3.6-4.3c0.2-1.3-0.2-2.6-1.2-3.6l1.7-1.4
			c1.3,1.5,1.9,3.4,1.6,5.4c-0.4,2.2-2,4.3-4.6,5.8C669.1,587,665.4,587.8,661.7,587.8z"/>
		<path class="st2" d="M661.7,587.8c-3.8,0.1-7.5-0.8-10.8-2.6c-2.7-1.5-4.3-3.6-4.7-5.8c-0.3-1.9,0.3-3.9,1.6-5.4l1.7,1.4
			c-0.9,1-1.3,2.3-1.1,3.6c0.3,1.6,1.6,3.1,3.7,4.3c5.3,3.1,14,3.1,19.3,0c2-1.2,3.3-2.7,3.6-4.3c0.2-1.3-0.2-2.6-1.2-3.6l1.7-1.4
			c1.3,1.5,1.9,3.4,1.6,5.4c-0.4,2.2-2,4.3-4.6,5.8C669.1,587,665.4,587.8,661.7,587.8z"/>
		<path class="st2" d="M661.7,587.8c-3.8,0.1-7.5-0.8-10.8-2.6c-2.7-1.5-4.3-3.6-4.7-5.8c-0.3-1.9,0.3-3.9,1.6-5.4l1.7,1.4
			c-0.9,1-1.3,2.3-1.1,3.6c0.3,1.6,1.6,3.1,3.7,4.3c5.3,3.1,14,3.1,19.3,0c2-1.2,3.3-2.7,3.6-4.3c0.2-1.3-0.2-2.6-1.2-3.6l1.7-1.4
			c1.3,1.5,1.9,3.4,1.6,5.4c-0.4,2.2-2,4.3-4.6,5.8C669.1,587,665.4,587.8,661.7,587.8z"/>
		<path class="st2" d="M661.7,587.8c-3.8,0.1-7.5-0.8-10.8-2.6c-2.7-1.5-4.3-3.6-4.7-5.8c-0.3-1.9,0.3-3.9,1.6-5.4l1.7,1.4
			c-0.9,1-1.3,2.3-1.1,3.6c0.3,1.6,1.6,3.1,3.7,4.3c5.3,3.1,14,3.1,19.3,0c2-1.2,3.3-2.7,3.6-4.3c0.2-1.3-0.2-2.6-1.2-3.6l1.7-1.4
			c1.3,1.5,1.9,3.4,1.6,5.4c-0.4,2.2-2,4.3-4.6,5.8C669.1,587,665.4,587.8,661.7,587.8z"/>
		<path class="st2" d="M661.7,587.8c-3.8,0.1-7.5-0.8-10.8-2.6c-2.7-1.5-4.3-3.6-4.7-5.8c-0.3-1.9,0.3-3.9,1.6-5.4l1.7,1.4
			c-0.9,1-1.3,2.3-1.1,3.6c0.3,1.6,1.6,3.1,3.7,4.3c5.3,3.1,14,3.1,19.3,0c2-1.2,3.3-2.7,3.6-4.3c0.2-1.3-0.2-2.6-1.2-3.6l1.7-1.4
			c1.3,1.5,1.9,3.4,1.6,5.4c-0.4,2.2-2,4.3-4.6,5.8C669.1,587,665.4,587.8,661.7,587.8z"/>
		<path class="st2" d="M661.7,587.8c-3.8,0.1-7.5-0.8-10.8-2.6c-2.7-1.5-4.3-3.6-4.7-5.8c-0.3-1.9,0.3-3.9,1.6-5.4l1.7,1.4
			c-0.9,1-1.3,2.3-1.1,3.6c0.3,1.6,1.6,3.1,3.7,4.3c5.3,3.1,14,3.1,19.3,0c2-1.2,3.3-2.7,3.6-4.3c0.2-1.3-0.2-2.6-1.2-3.6l1.7-1.4
			c1.3,1.5,1.9,3.4,1.6,5.4c-0.4,2.2-2,4.3-4.6,5.8C669.1,587,665.4,587.8,661.7,587.8z"/>
		<path class="st2" d="M661.7,587.8c-3.8,0.1-7.5-0.8-10.8-2.6c-2.7-1.5-4.3-3.6-4.7-5.8c-0.3-1.9,0.3-3.9,1.6-5.4l1.7,1.4
			c-0.9,1-1.3,2.3-1.1,3.6c0.3,1.6,1.6,3.1,3.7,4.3c5.3,3.1,14,3.1,19.3,0c2-1.2,3.3-2.7,3.6-4.3c0.2-1.3-0.2-2.6-1.2-3.6l1.7-1.4
			c1.3,1.5,1.9,3.4,1.6,5.4c-0.4,2.2-2,4.3-4.6,5.8C669.1,587,665.4,587.8,661.7,587.8z"/>
		<path class="st2" d="M661.7,587.8c-3.8,0.1-7.5-0.8-10.8-2.6c-2.7-1.5-4.3-3.6-4.7-5.8c-0.3-1.9,0.3-3.9,1.6-5.4l1.7,1.4
			c-0.9,1-1.3,2.3-1.1,3.6c0.3,1.6,1.6,3.1,3.7,4.3c5.3,3.1,14,3.1,19.3,0c2-1.2,3.3-2.7,3.6-4.3c0.2-1.3-0.2-2.6-1.2-3.6l1.7-1.4
			c1.3,1.5,1.9,3.4,1.6,5.4c-0.4,2.2-2,4.3-4.6,5.8C669.1,587,665.4,587.8,661.7,587.8z"/>
		<path class="st2" d="M661.7,587.8c-3.8,0.1-7.5-0.8-10.8-2.6c-2.7-1.5-4.3-3.6-4.7-5.8c-0.3-1.9,0.3-3.9,1.6-5.4l1.7,1.4
			c-0.9,1-1.3,2.3-1.1,3.6c0.3,1.6,1.6,3.1,3.7,4.3c5.3,3.1,14,3.1,19.3,0c2-1.2,3.3-2.7,3.6-4.3c0.2-1.3-0.2-2.6-1.2-3.6l1.7-1.4
			c1.3,1.5,1.9,3.4,1.6,5.4c-0.4,2.2-2,4.3-4.6,5.8C669.1,587,665.4,587.8,661.7,587.8z"/>
		<path class="st2" d="M661.7,587.8c-3.8,0.1-7.5-0.8-10.8-2.6c-2.7-1.5-4.3-3.6-4.7-5.8c-0.3-1.9,0.3-3.9,1.6-5.4l1.7,1.4
			c-0.9,1-1.3,2.3-1.1,3.6c0.3,1.6,1.6,3.1,3.7,4.3c5.3,3.1,14,3.1,19.3,0c2-1.2,3.3-2.7,3.6-4.3c0.2-1.3-0.2-2.6-1.2-3.6l1.7-1.4
			c1.3,1.5,1.9,3.4,1.6,5.4c-0.4,2.2-2,4.3-4.6,5.8C669.1,587,665.4,587.8,661.7,587.8z"/>
		<path class="st2" d="M661.7,587.8c-3.8,0.1-7.5-0.8-10.8-2.6c-2.7-1.5-4.3-3.6-4.7-5.8c-0.3-1.9,0.3-3.9,1.6-5.4l1.7,1.4
			c-0.9,1-1.3,2.3-1.1,3.6c0.3,1.6,1.6,3.1,3.7,4.3c5.3,3.1,14,3.1,19.3,0c2-1.2,3.3-2.7,3.6-4.3c0.2-1.3-0.2-2.6-1.2-3.6l1.7-1.4
			c1.3,1.5,1.9,3.4,1.6,5.4c-0.4,2.2-2,4.3-4.6,5.8C669.1,587,665.4,587.8,661.7,587.8z"/>
		<path class="st2" d="M661.7,587.8c-3.8,0.1-7.5-0.8-10.8-2.6c-2.7-1.5-4.3-3.6-4.7-5.8c-0.3-1.9,0.3-3.9,1.6-5.4l1.7,1.4
			c-0.9,1-1.3,2.3-1.1,3.6c0.3,1.6,1.6,3.1,3.7,4.3c5.3,3.1,14,3.1,19.3,0c2-1.2,3.3-2.7,3.6-4.3c0.2-1.3-0.2-2.6-1.2-3.6l1.7-1.4
			c1.3,1.5,1.9,3.4,1.6,5.4c-0.4,2.2-2,4.3-4.6,5.8C669.1,587,665.4,587.8,661.7,587.8z"/>
		<path class="st2" d="M661.7,587.8c-3.8,0.1-7.5-0.8-10.8-2.6c-2.7-1.5-4.3-3.6-4.7-5.8c-0.3-1.9,0.3-3.9,1.6-5.4l1.7,1.4
			c-0.9,1-1.3,2.3-1.1,3.6c0.3,1.6,1.6,3.1,3.7,4.3c5.3,3.1,14,3.1,19.3,0c2-1.2,3.3-2.7,3.6-4.3c0.2-1.3-0.2-2.6-1.2-3.6l1.7-1.4
			c1.3,1.5,1.9,3.4,1.6,5.4c-0.4,2.2-2,4.3-4.6,5.8C669.1,587,665.4,587.8,661.7,587.8z"/>
		<path class="st2" d="M661.7,587.8c-3.8,0.1-7.5-0.8-10.8-2.6c-2.7-1.5-4.3-3.6-4.7-5.8c-0.3-1.9,0.3-3.9,1.6-5.4l1.7,1.4
			c-0.9,1-1.3,2.3-1.1,3.6c0.3,1.6,1.6,3.1,3.7,4.3c5.3,3.1,14,3.1,19.3,0c2-1.2,3.3-2.7,3.6-4.3c0.2-1.3-0.2-2.6-1.2-3.6l1.7-1.4
			c1.3,1.5,1.9,3.4,1.6,5.4c-0.4,2.2-2,4.3-4.6,5.8C669.1,587,665.4,587.8,661.7,587.8z"/>
		<path class="st2" d="M661.7,587.8c-3.8,0.1-7.5-0.8-10.8-2.6c-2.7-1.5-4.3-3.6-4.7-5.8c-0.3-1.9,0.3-3.9,1.6-5.4l1.7,1.4
			c-0.9,1-1.3,2.3-1.1,3.6c0.3,1.6,1.6,3.1,3.7,4.3c5.3,3.1,14,3.1,19.3,0c2-1.2,3.3-2.7,3.6-4.3c0.2-1.3-0.2-2.6-1.2-3.6l1.7-1.4
			c1.3,1.5,1.9,3.4,1.6,5.4c-0.4,2.2-2,4.3-4.6,5.8C669.1,587,665.4,587.8,661.7,587.8z"/>
		<path class="st2" d="M661.7,587.8c-3.8,0.1-7.5-0.8-10.8-2.6c-2.7-1.5-4.3-3.6-4.7-5.8c-0.3-1.9,0.3-3.9,1.6-5.4l1.7,1.4
			c-0.9,1-1.3,2.3-1.1,3.6c0.3,1.6,1.6,3.1,3.7,4.3c5.3,3.1,14,3.1,19.3,0c2-1.2,3.3-2.7,3.6-4.3c0.2-1.3-0.2-2.6-1.2-3.6l1.7-1.4
			c1.3,1.5,1.9,3.4,1.6,5.4c-0.4,2.2-2,4.3-4.6,5.8C669.1,587,665.4,587.8,661.7,587.8z"/>
		<path class="st2" d="M661.7,587.8c-3.8,0.1-7.5-0.8-10.8-2.6c-2.7-1.5-4.3-3.6-4.7-5.8c-0.3-1.9,0.3-3.9,1.6-5.4l1.7,1.4
			c-0.9,1-1.3,2.3-1.1,3.6c0.3,1.6,1.6,3.1,3.7,4.3c5.3,3.1,14,3.1,19.3,0c2-1.2,3.3-2.7,3.6-4.3c0.2-1.3-0.2-2.6-1.2-3.6l1.7-1.4
			c1.3,1.5,1.9,3.4,1.6,5.4c-0.4,2.2-2,4.3-4.6,5.8C669.1,587,665.4,587.8,661.7,587.8z"/>
		<path class="st2" d="M661.7,587.8c-3.8,0.1-7.5-0.8-10.8-2.6c-2.7-1.5-4.3-3.6-4.7-5.8c-0.3-1.9,0.3-3.9,1.6-5.4l1.7,1.4
			c-0.9,1-1.3,2.3-1.1,3.6c0.3,1.6,1.6,3.1,3.7,4.3c5.3,3.1,14,3.1,19.3,0c2-1.2,3.3-2.7,3.6-4.3c0.2-1.3-0.2-2.6-1.2-3.6l1.7-1.4
			c1.3,1.5,1.9,3.4,1.6,5.4c-0.4,2.2-2,4.3-4.6,5.8C669.1,587,665.4,587.8,661.7,587.8z"/>
		<path class="st2" d="M661.6,439.3c-1.3,0-2.6-0.3-3.8-0.9c-1.1-0.5-1.8-1.6-1.9-2.8c0.1-1.2,0.8-2.3,1.9-2.8
			c2.4-1.2,5.2-1.2,7.6,0c1.1,0.5,1.8,1.6,1.9,2.8c-0.1,1.2-0.8,2.3-1.9,2.8C664.3,439,662.9,439.3,661.6,439.3z M661.6,434
			c-0.9,0-1.9,0.2-2.7,0.6c-0.5,0.3-0.8,0.6-0.8,0.9s0.3,0.6,0.8,1c1.7,0.8,3.7,0.8,5.4,0c0.5-0.3,0.8-0.6,0.8-0.9s-0.3-0.7-0.8-1
			C663.5,434.2,662.5,434,661.6,434L661.6,434z"/>
		<path class="st2" d="M661.7,443.8c-3.3,0.1-6.5-0.7-9.4-2.3c-2.7-1.6-4.2-3.7-4.2-6.1s1.5-4.5,4.2-6c5.9-3,12.9-3,18.8,0
			c2.7,1.6,4.2,3.7,4.2,6.1s-1.5,4.5-4.2,6C668.1,443.1,664.9,443.9,661.7,443.8z M661.5,429.4c-2.9-0.1-5.7,0.6-8.2,2
			c-2,1.1-3.1,2.6-3.1,4.1s1.1,3,3.2,4.2c2.6,1.4,5.4,2.1,8.3,2c2.9,0.1,5.7-0.6,8.2-2c2-1.1,3.1-2.6,3.1-4.1s-1.1-3-3.1-4.2
			C667.3,430,664.4,429.3,661.5,429.4L661.5,429.4z"/>
		<path class="st2" d="M683.9,445.1h-2.2c0-9.1-12.8-14.1-12.9-14.1l0.8-2C670.2,429.1,683.9,434.5,683.9,445.1z"/>
		<path class="st2" d="M641.5,445.1h-2.2c0-10.6,13.7-15.9,14.3-16.1l0.8,2C654.2,431,641.5,436,641.5,445.1z"/>
		<path class="st2" d="M649.3,583.9c-0.6,0-1-0.4-1.1-1l-8.9-116.6V445c0-0.6,0.5-1.1,1.1-1.1s1.1,0.5,1.1,1.1v21.2l8.9,116.5
			C650.4,583.3,650,583.9,649.3,583.9L649.3,583.9z"/>
		<path class="st2" d="M673.9,583.9L673.9,583.9c-0.7,0-1.1-0.6-1.1-1.2l8.9-116.6V445c-0.1-0.6,0.4-1.1,1-1.2s1.1,0.4,1.2,1
			c0,0.1,0,0.1,0,0.2v21.2L675,582.9C675,583.5,674.5,583.9,673.9,583.9z"/>
		<path class="st2" d="M661.6,596.2c-7.4,0-13.4-6-13.4-13.4c-0.1-0.6,0.4-1.1,1-1.2c0.6-0.1,1.1,0.4,1.2,1c0,0.1,0,0.1,0,0.2
			c0.2,6.2,5.4,11.1,11.6,10.9c5.9-0.2,10.7-5,10.9-10.9c-0.1-0.6,0.4-1.1,1-1.2c0.6-0.1,1.1,0.4,1.2,1c0,0.1,0,0.1,0,0.2
			C675,590.2,669,596.2,661.6,596.2z"/>
		<path class="st2" d="M682.8,467.9c-0.6,0-1.1-0.5-1.1-1.1l0,0v-21.7c0-0.6,0.5-1.1,1.1-1.1s1.1,0.5,1.1,1.1l0,0v21.7
			C683.9,467.4,683.4,467.9,682.8,467.9L682.8,467.9z"/>
		<path class="st2" d="M640.4,467.9c-0.6,0-1.1-0.5-1.1-1.1l0,0v-21.7c0-0.6,0.5-1.1,1.1-1.1s1.1,0.5,1.1,1.1l0,0v21.7
			C641.5,467.4,641,467.9,640.4,467.9L640.4,467.9z"/>
		<rect x="665.1" y="340.8" class="st2" width="2.2" height="21.5"/>
		<rect x="655.9" y="340.8" class="st2" width="2.2" height="21.5"/>
		<path class="st2" d="M682.8,351.4c-0.6,0-1.1-0.5-1.1-1.1c0-2.9-2.1-5.6-5.7-7.7c-8-4.6-21-4.7-28.9-0.1c-3.7,2.1-5.7,4.9-5.6,7.7
			c0,0.6-0.5,1.1-1.1,1.1l0,0l0,0c-0.6,0-1.1-0.5-1.1-1.1c0-3.7,2.3-7.1,6.7-9.6c8.5-4.9,22.5-4.9,31.1,0.1c4.3,2.5,6.8,5.9,6.8,9.6
			C683.9,350.9,683.5,351.4,682.8,351.4C682.9,351.4,682.9,351.4,682.8,351.4L682.8,351.4z"/>
		<path class="st2" d="M661.7,363.6c-5.4,0.1-10.8-1.2-15.6-3.8c-4.3-2.5-6.8-5.9-6.8-9.6c0-0.6,0.5-1.1,1.1-1.1l0,0
			c0.6,0,1.1,0.5,1.1,1.1c0,2.9,2.1,5.6,5.7,7.7c8,4.6,21,4.6,28.9,0c3.7-2.1,5.7-4.9,5.6-7.7c0-0.6,0.5-1.1,1.1-1.1l0,0l0,0
			c0.6,0,1.1,0.5,1.1,1.1c0,3.7-2.3,7.1-6.7,9.6C672.4,362.5,667.1,363.7,661.7,363.6z"/>
		<path class="st2" d="M689.7,347.2c-0.4,0-0.8-0.2-1-0.6c-1.2-2.7-3.7-5.2-7.2-7.2c-11-6.4-28.9-6.4-39.9-0.1
			c-3.5,2-5.9,4.5-7.1,7.2c-0.2,0.6-0.9,0.8-1.4,0.6s-0.8-0.9-0.6-1.4l0,0c1.3-3.1,4.1-6,8-8.2c11.6-6.7,30.4-6.6,42.1,0.1
			c3.9,2.2,6.7,5.1,8.1,8.2c0.2,0.5,0,1.2-0.5,1.4l0,0C689.9,347.2,689.8,347.2,689.7,347.2z"/>
		<path class="st2" d="M661.7,331.1c-6,0-12.1-1.3-16.7-4s-7.2-6.3-7.3-10.2c0-0.6,0.5-1.1,1.1-1.1l0,0l0,0c0.6,0,1.1,0.5,1.1,1.1
			c0,3.1,2.2,6.1,6.2,8.3c8.6,5,22.6,5,31.1,0.1c4-2.3,6.1-5.3,6.1-8.4c0-0.6,0.5-1.1,1.1-1.1l0,0l0,0c0.6,0,1.1,0.5,1.1,1.1
			c0,3.9-2.5,7.6-7.2,10.3S667.8,331.1,661.7,331.1z"/>
		<path class="st2" d="M661.7,296.9c-3.3,0.1-6.5-0.7-9.4-2.3c-2.7-1.6-4.2-3.7-4.2-6.1s1.5-4.5,4.2-6c1.4-0.8,2.9-1.4,4.4-1.7
			c0.6-0.1,1.2,0.2,1.3,0.8s-0.2,1.2-0.8,1.3c-1.3,0.3-2.6,0.8-3.8,1.5c-2,1.1-3.1,2.6-3.1,4.1s1.1,3,3.2,4.2c4.6,2.6,12,2.7,16.6,0
			c2-1.1,3.1-2.6,3.1-4.1s-1.1-3-3.1-4.2c-1.2-0.7-2.5-1.2-3.8-1.5c-0.6-0.1-1-0.6-0.9-1.2s0.6-1,1.2-0.9c0.1,0,0.1,0,0.2,0
			c1.5,0.3,3,0.9,4.4,1.7c2.7,1.6,4.2,3.7,4.2,6.1s-1.5,4.5-4.2,6C668.1,296.2,664.9,296.9,661.7,296.9z"/>
		<path class="st2" d="M661.7,349.1c-3.3,0.1-6.5-0.7-9.4-2.3c-2.7-1.6-4.2-3.7-4.2-6.1s1.5-4.5,4.2-6c2.9-1.5,6.1-2.3,9.3-2.2
			c3.3-0.1,6.5,0.7,9.4,2.3c2.7,1.6,4.2,3.7,4.2,6.1s-1.5,4.5-4.2,6C668.1,348.4,664.9,349.1,661.7,349.1z M661.5,334.6
			c-2.9-0.1-5.7,0.6-8.2,2c-2,1.1-3.1,2.6-3.1,4.1s1.1,3,3.2,4.2c2.6,1.4,5.4,2.1,8.3,2c2.9,0.1,5.7-0.6,8.2-2
			c2-1.1,3.1-2.6,3.1-4.1s-1.1-3-3.1-4.2C667.3,335.3,664.4,334.6,661.5,334.6z"/>
		<path class="st2" d="M661.6,284.9c-1.3,0-2.6-0.3-3.8-0.9c-1.1-0.5-1.8-1.6-1.9-2.8c0.1-1.2,0.8-2.3,1.9-2.8
			c2.4-1.2,5.2-1.2,7.6,0c1.1,0.5,1.8,1.6,1.9,2.8c-0.1,1.2-0.8,2.3-1.9,2.8C664.3,284.6,662.9,284.9,661.6,284.9z M661.6,279.5
			c-0.9,0-1.9,0.2-2.7,0.6c-0.5,0.3-0.8,0.6-0.8,0.9s0.3,0.6,0.8,1c1.7,0.8,3.7,0.8,5.4,0c0.5-0.3,0.8-0.6,0.8-0.9s-0.3-0.7-0.8-1
			C663.5,279.7,662.5,279.5,661.6,279.5z"/>
		<path class="st2" d="M661.6,292.3c-1.3,0-2.6-0.3-3.8-0.9c-1.1-0.5-1.8-1.6-1.9-2.8h2.2c0,0.3,0.3,0.6,0.8,1
			c1.7,0.9,3.7,0.9,5.4,0c0.5-0.3,0.8-0.6,0.8-0.9h2.2c-0.1,1.2-0.8,2.3-1.9,2.8C664.2,292.1,662.9,292.4,661.6,292.3z"/>
		<rect x="665.1" y="281.1" class="st2" width="2.2" height="7.5"/>
		<path class="st2" d="M683.9,350.3h-2.2c0-9.1-12.8-14.1-12.9-14.1l0.8-2C670.2,334.4,683.9,339.7,683.9,350.3z"/>
		<path class="st2" d="M641.5,350.3h-2.2c0-10.6,13.7-15.9,14.3-16.1l0.8,2C654.2,336.2,641.5,341.2,641.5,350.3z"/>
		<rect x="655.9" y="281.1" class="st2" width="2.2" height="7.5"/>
		<path class="st2" d="M661.6,344.5c-1.3,0-2.6-0.3-3.8-0.9c-1.1-0.5-1.8-1.6-1.9-2.8c0.1-1.2,0.8-2.3,1.9-2.8
			c2.4-1.2,5.2-1.2,7.6,0c1.6,0.6,2.4,2.3,1.8,3.8c-0.3,0.8-1,1.5-1.8,1.8C664.2,344.2,662.9,344.5,661.6,344.5z M661.6,339.2
			c-0.9,0-1.9,0.2-2.7,0.6c-0.5,0.3-0.8,0.6-0.8,0.9s0.3,0.7,0.8,1c1.7,0.8,3.7,0.8,5.4,0c0.5-0.3,0.8-0.6,0.8-0.9s-0.3-0.7-0.8-1
			C663.5,339.4,662.5,339.2,661.6,339.2z"/>
		<rect x="665.1" y="362.3" class="st5" width="2.2" height="4.5"/>
		<rect x="655.9" y="362.2" class="st5" width="2.2" height="4.5"/>
		<path class="st2" d="M661.6,405.5c-1.3,0-2.6-0.3-3.8-0.9c-1.1-0.5-1.8-1.6-1.9-2.8h2.2c0,0.3,0.3,0.7,0.8,1
			c1.7,0.9,3.7,0.9,5.4,0c0.5-0.3,0.8-0.6,0.8-0.9h2.2c-0.1,1.2-0.8,2.3-1.9,2.8C664.2,405.3,662.9,405.6,661.6,405.5z"/>
		<rect x="665.1" y="366.8" class="st2" width="2.2" height="35"/>
		<rect x="655.9" y="366.8" class="st2" width="2.2" height="35"/>
		<path class="st2" d="M684.4,318c-0.6,0-1.1-0.5-1.1-1.1l0,0c0-2.5-1-3.8-2.2-5.5c-2.1-2.5-3.2-5.7-3.2-9c0-8-3.6-15.8-6.7-17.1
			c-0.6-0.2-0.8-0.9-0.6-1.4c0.2-0.6,0.9-0.8,1.4-0.6c4.3,1.8,8.1,10.7,8.1,19.1c-0.1,2.8,0.9,5.6,2.7,7.7c1.3,1.7,2.6,3.5,2.6,6.7
			C685.5,317.5,685,318,684.4,318L684.4,318z"/>
		<path class="st2" d="M689.7,347.3c-0.5,0-0.8-0.3-1-0.7c-3.3-9.6-5.1-19.5-5.3-29.6c0.1-0.6,0.6-1,1.2-1c0.5,0,0.9,0.5,1,1
			c0.3,9.8,2,19.6,5.2,28.9c0.2,0.6-0.1,1.2-0.6,1.4l0,0C689.9,347.2,689.8,347.3,689.7,347.3z"/>
		<path class="st2" d="M638.8,318c-0.6,0-1.1-0.5-1.1-1.1l0,0c0-3.2,1.3-5,2.6-6.7c1.8-2.1,2.8-4.9,2.7-7.7c0-8.4,3.8-17.3,8.1-19.1
			c0.6-0.2,1.2,0,1.4,0.6s0,1.2-0.6,1.4c-3.1,1.3-6.7,9-6.7,17.1c0.1,3.3-1,6.5-3.2,9c-1.2,1.7-2.2,3-2.2,5.5
			C639.9,317.5,639.4,318,638.8,318z"/>
		<path class="st2" d="M633.5,347.3c-0.1,0-0.3,0-0.4-0.1c-0.6-0.2-0.9-0.8-0.7-1.4c3.2-9.3,5-19.1,5.2-28.9c0-0.6,0.5-1.1,1.1-1.1
			s1.1,0.5,1.1,1.1l0,0c-0.3,10.1-2.1,20.1-5.3,29.6C634.4,347,634,347.3,633.5,347.3z"/>
		<path class="st2" d="M661.8,368.1c-7.7,0-15.3-1.7-21.2-5.1c-7.7-4.5-10.8-11.1-8.2-17.3c0.2-0.5,0.9-0.8,1.4-0.6
			c0.5,0.2,0.8,0.9,0.6,1.4c-2.2,5.2,0.5,10.7,7.2,14.6c11,6.4,28.9,6.4,39.9,0.1c6.8-3.9,9.4-9.4,7-14.6c-0.2-0.6,0-1.2,0.6-1.4
			s1.2,0,1.4,0.6l0,0c2.8,6.3-0.2,12.9-7.9,17.4C676.9,366.4,669.4,368.1,661.8,368.1z"/>
		<path class="st2" d="M666.2,138.3c-0.1,0-0.2,0-0.2,0c-2.9-0.7-5.9-0.7-8.8,0c-0.6,0.1-1.2-0.2-1.3-0.8l0,0
			c-0.1-0.6,0.2-1.2,0.8-1.3c3.2-0.7,6.6-0.7,9.8,0c0.6,0.1,1,0.7,0.9,1.3C667.2,138,666.7,138.4,666.2,138.3L666.2,138.3z"/>
		<path class="st2" d="M661.7,186.4c-6,0-12.1-1.3-16.7-4s-7.2-6.3-7.3-10.2c0-0.6,0.5-1.1,1.1-1.1l0,0l0,0c0.6,0,1.1,0.5,1.1,1.1
			c0,3.1,2.2,6.1,6.2,8.3c8.6,5,22.6,5,31.1,0.1c4-2.3,6.1-5.3,6.1-8.4c0-0.6,0.5-1.1,1.1-1.1l0,0l0,0c0.6,0,1.1,0.5,1.1,1.1
			c0,3.9-2.5,7.6-7.2,10.3S667.8,186.4,661.7,186.4z"/>
		<path class="st2" d="M684.4,173.3c-0.6,0-1.1-0.5-1.1-1.1l0,0c0-3.1-2.2-6.1-6.2-8.3c-8.6-5-22.6-5-31.1-0.1
			c-4,2.3-6.1,5.3-6.1,8.4c0,0.6-0.5,1.1-1.1,1.1l0,0c-0.6,0-1.1-0.5-1.1-1.1c0-3.9,2.5-7.6,7.2-10.3c9.2-5.3,24.1-5.3,33.3,0.1
			c4.6,2.7,7.2,6.3,7.3,10.2C685.5,172.8,685,173.3,684.4,173.3L684.4,173.3L684.4,173.3z"/>
		<path class="st2" d="M661.7,152.2c-3.3,0.1-6.5-0.7-9.4-2.3c-2.7-1.6-4.2-3.7-4.2-6.1s1.5-4.4,4.2-6c1.4-0.8,2.9-1.4,4.4-1.7
			c0.6-0.1,1.2,0.2,1.3,0.8s-0.2,1.2-0.8,1.3l0,0c-1.3,0.3-2.6,0.8-3.8,1.5c-2,1.1-3.1,2.6-3.1,4.1s1.1,3,3.2,4.2
			c4.6,2.6,12,2.7,16.6,0c2-1.1,3.1-2.6,3.1-4.1s-1.1-3-3.1-4.2c-1.2-0.7-2.5-1.2-3.9-1.5c-0.6-0.1-0.9-0.7-0.8-1.3
			c0.1-0.6,0.7-0.9,1.3-0.8l0,0c1.6,0.4,3.1,0.9,4.5,1.7c2.7,1.6,4.2,3.7,4.2,6.1s-1.5,4.4-4.2,6
			C668.1,151.5,664.9,152.3,661.7,152.2z"/>
		<path class="st2" d="M689.7,203.7c-0.9,0-1.6-0.5-2-1.3c-1.1-2.5-3.4-4.8-6.7-6.7c-10.7-6.2-28.2-6.2-38.8-0.1
			c-3.3,1.9-5.6,4.2-6.7,6.7c-0.5,1.1-1.8,1.6-2.9,1.1c-1.1-0.5-1.6-1.8-1.1-2.9l0,0c1.4-3.4,4.4-6.4,8.5-8.7
			c11.9-6.9,31.2-6.8,43.2,0.1c4.1,2.4,7,5.4,8.5,8.7c0.5,1.1-0.1,2.4-1.1,2.8C690.2,203.6,689.9,203.6,689.7,203.7L689.7,203.7z"/>
		<path class="st2" d="M661.6,140.2c-1.3,0-2.6-0.3-3.8-0.9c-1.1-0.5-1.8-1.6-1.9-2.8c0.1-1.2,0.8-2.3,1.9-2.8
			c2.4-1.2,5.2-1.2,7.6,0c1.1,0.5,1.8,1.6,1.9,2.8c-0.1,1.2-0.8,2.3-1.9,2.8C664.3,139.9,662.9,140.2,661.6,140.2z M661.6,134.9
			c-0.9,0-1.9,0.2-2.7,0.6c-0.5,0.3-0.8,0.6-0.8,0.9s0.3,0.6,0.8,0.9c1.7,0.8,3.7,0.8,5.4,0c0.5-0.3,0.8-0.6,0.8-0.9
			s-0.3-0.7-0.8-0.9C663.5,135.1,662.5,134.9,661.6,134.9L661.6,134.9z"/>
		<path class="st2" d="M655.9,144.3c-0.1-1.4,0.6-2.7,1.8-3.2c2.4-1.2,5.2-1.2,7.6,0c1.1,0.5,1.8,1.6,1.9,2.8H665
			c0-0.3-0.3-0.7-0.8-0.9c-1.7-0.9-3.7-0.9-5.4,0c-0.5,0.3-0.8,0.7-0.8,1L655.9,144.3z"/>
		<path class="st2" d="M661.6,147.7c-1.3,0-2.6-0.3-3.8-0.9c-1.1-0.5-1.8-1.6-1.9-2.8h2.2c0,0.3,0.3,0.6,0.8,1
			c1.7,0.9,3.7,0.9,5.4,0c0.5-0.3,0.8-0.6,0.8-0.9h2.2c-0.1,1.2-0.8,2.3-1.9,2.8C664.2,147.4,662.9,147.7,661.6,147.7z"/>
		<rect x="665.1" y="136.4" class="st2" width="2.2" height="7.5"/>
		<rect x="655.9" y="136.4" class="st2" width="2.2" height="7.5"/>
		<path class="st2" d="M684.4,173.3c-0.6,0-1.1-0.5-1.1-1.1l0,0c0-2.5-1-3.8-2.2-5.5c-2.1-2.5-3.2-5.7-3.2-9
			c0-8.1-3.6-15.8-6.7-17.1c-0.6-0.2-0.8-0.9-0.6-1.4c0.2-0.6,0.9-0.8,1.4-0.6c4.3,1.8,8.1,10.7,8.1,19.1c-0.1,2.8,0.9,5.6,2.7,7.7
			c1.3,1.7,2.6,3.5,2.6,6.7C685.5,172.8,685,173.3,684.4,173.3L684.4,173.3z"/>
		<path class="st2" d="M638.8,173.3c-0.6,0-1.1-0.5-1.1-1.1l0,0c0-3.2,1.3-5,2.6-6.7c1.8-2.1,2.8-4.9,2.7-7.7
			c0-8.4,3.8-17.3,8.1-19.1c0.6-0.2,1.2,0,1.4,0.6s0,1.2-0.6,1.4l0,0c-3.1,1.3-6.7,9-6.7,17.1c0.1,3.3-1,6.5-3.2,9
			c-1.2,1.7-2.2,3-2.2,5.5C639.9,172.8,639.4,173.3,638.8,173.3z"/>
		<path class="st2" d="M685.5,172.2c0,0,0,0.5,0.1,1.3s0.2,1.9,0.3,3.3c0.1,0.7,0.2,1.4,0.3,2.2s0.2,1.6,0.3,2.5
			c0.3,1.7,0.6,3.5,1,5.3c0.2,0.9,0.4,1.8,0.6,2.7s0.5,1.7,0.7,2.6s0.5,1.6,0.7,2.4c0.1,0.4,0.2,0.7,0.3,1.1s0.2,0.7,0.4,1l1.5,4.3
			v0.1c0.4,1.1-0.2,2.4-1.3,2.8c-1.1,0.4-2.4-0.2-2.8-1.3v-0.1l-1.3-4.6c-0.1-0.3-0.2-0.7-0.3-1.1c-0.1-0.4-0.2-0.8-0.2-1.2
			c-0.2-0.8-0.3-1.6-0.5-2.5s-0.4-1.8-0.5-2.7s-0.3-1.9-0.4-2.8c-0.3-1.9-0.4-3.8-0.6-5.5c-0.1-0.9-0.1-1.7-0.2-2.6
			s-0.1-1.6-0.1-2.3c-0.1-1.4-0.1-2.6-0.1-3.4s0-1.3,0-1.3l0,0c0-0.6,0.5-1.1,1.1-1.1C684.9,171.2,685.4,171.6,685.5,172.2
			L685.5,172.2z"/>
		<path class="st2" d="M639.9,172.2c0,0,0,0.5,0,1.3s0,2-0.1,3.4c0,0.7-0.1,1.5-0.1,2.3s-0.1,1.7-0.2,2.6c-0.2,1.8-0.3,3.7-0.6,5.5
			c-0.2,0.9-0.3,1.9-0.4,2.8s-0.3,1.8-0.5,2.7s-0.4,1.7-0.5,2.5c-0.1,0.4-0.2,0.8-0.2,1.2s-0.2,0.7-0.3,1.1
			c-0.8,2.8-1.3,4.6-1.3,4.6c-0.3,1.2-1.5,1.8-2.7,1.5s-1.8-1.5-1.5-2.7v-0.1v-0.1c0,0,0.6-1.7,1.5-4.3c0.1-0.3,0.2-0.7,0.4-1
			s0.2-0.7,0.3-1.1c0.2-0.8,0.4-1.6,0.7-2.4s0.5-1.7,0.7-2.6l0.6-2.7c0.4-1.8,0.7-3.6,1-5.3c0.1-0.9,0.2-1.7,0.3-2.5
			s0.2-1.5,0.3-2.2c0.2-1.4,0.3-2.5,0.3-3.3s0.1-1.3,0.1-1.3c0-0.6,0.5-1.1,1.1-1.1C639.3,171.1,639.8,171.6,639.9,172.2
			L639.9,172.2z"/>
		<path class="st2" d="M661.8,224.5c-7.8,0-15.7-1.7-21.7-5.2c-8.2-4.8-11.5-11.9-8.6-18.7c0.5-1.1,1.8-1.6,2.9-1.1
			c1.1,0.5,1.6,1.8,1.1,2.9l0,0c-2,4.7,0.5,9.6,6.8,13.2c10.7,6.2,28.2,6.2,38.8,0.1c6.2-3.6,8.7-8.6,6.6-13.2
			c-0.5-1.1,0-2.4,1.1-2.9s2.4,0,2.9,1.1c3.1,6.8-0.1,14-8.4,18.8C677.3,222.8,669.6,224.5,661.8,224.5z"/>
		<path class="st2" d="M661.6,401.9c-1.5,0-3-0.3-4.3-1.1c-1.1-0.5-1.8-1.5-2.1-2.6c-0.1-0.9,0.1-1.9,0.8-2.5l1.7,1.4
			c-0.2,0.2-0.3,0.5-0.3,0.8c0.2,0.5,0.5,0.9,1,1.1c2,1,4.4,1,6.5,0c0.5-0.2,0.8-0.6,1-1.1c0-0.3-0.1-0.6-0.3-0.8l1.7-1.4
			c0.6,0.7,0.9,1.6,0.8,2.6c-0.3,1.1-1,2.1-2,2.6C664.6,401.5,663.1,401.9,661.6,401.9z"/>
		<path class="st2" d="M661.6,398c-1.5,0-3-0.3-4.3-1.1c-1.1-0.5-1.8-1.5-2.1-2.6c-0.1-0.9,0.1-1.9,0.8-2.5l1.7,1.4
			c-0.2,0.2-0.3,0.5-0.3,0.8c0.2,0.5,0.5,0.9,1,1.1c2,1,4.4,1,6.5,0c0.5-0.2,0.8-0.6,1-1.1c0-0.3-0.1-0.6-0.3-0.8l1.7-1.4
			c0.6,0.7,0.9,1.6,0.8,2.6c-0.3,1.1-1,2.1-2,2.6C664.6,397.7,663.1,398,661.6,398z"/>
		<path class="st2" d="M661.6,394.1c-1.5,0-3-0.3-4.3-1.1c-1.1-0.5-1.8-1.5-2.1-2.6c-0.1-0.9,0.1-1.9,0.8-2.5l1.7,1.4
			c-0.2,0.2-0.3,0.5-0.3,0.8c0.2,0.5,0.5,0.9,1,1.1c2,1,4.4,1,6.5,0c0.5-0.2,0.8-0.6,1-1.1c0-0.3-0.1-0.6-0.3-0.8l1.7-1.4
			c0.6,0.7,0.9,1.6,0.8,2.6c-0.2,1.1-1,2.1-2,2.6C664.6,393.7,663.1,394.1,661.6,394.1z"/>
		<path class="st2" d="M661.6,390.2c-1.5,0-3-0.3-4.3-1.1c-1.1-0.5-1.8-1.5-2.1-2.6c-0.1-0.9,0.1-1.9,0.8-2.6l1.7,1.4
			c-0.2,0.2-0.3,0.5-0.3,0.8c0.2,0.5,0.5,0.9,1,1.1c2,1,4.4,1,6.5,0c0.5-0.2,0.8-0.6,1-1.1c0-0.3-0.1-0.6-0.3-0.8l1.7-1.4
			c0.6,0.7,0.9,1.6,0.8,2.6c-0.3,1.1-1,2.1-2,2.6C664.6,389.8,663.1,390.2,661.6,390.2z"/>
		<path class="st2" d="M661.6,386.3c-1.5,0-3-0.3-4.3-1.1c-1.1-0.5-1.8-1.5-2.1-2.6c-0.1-0.9,0.1-1.9,0.8-2.5l1.7,1.4
			c-0.2,0.2-0.3,0.5-0.3,0.8c0.2,0.5,0.5,0.9,1,1.1c2,1,4.4,1,6.5,0c0.5-0.2,0.8-0.6,1-1.1c0-0.3-0.1-0.6-0.3-0.8l1.7-1.4
			c0.6,0.7,0.9,1.6,0.8,2.6c-0.2,1.1-1,2.1-2,2.6C664.6,385.9,663.1,386.3,661.6,386.3z"/>
		<path class="st2" d="M661.6,382.4c-1.5,0-3-0.3-4.3-1.1c-1.1-0.5-1.8-1.5-2.1-2.6c-0.1-0.9,0.1-1.9,0.8-2.5l1.7,1.4
			c-0.2,0.2-0.3,0.5-0.3,0.8c0.2,0.5,0.5,0.9,1,1.1c2,1,4.4,1,6.5,0c0.5-0.2,0.8-0.6,1-1.1c0-0.3-0.1-0.6-0.3-0.8l1.7-1.4
			c0.6,0.7,0.9,1.6,0.8,2.6c-0.3,1.1-1,2.1-2,2.6C664.6,382,663.1,382.4,661.6,382.4z"/>
		<path class="st2" d="M661.6,378.5c-1.5,0-3-0.3-4.3-1.1c-1.1-0.5-1.8-1.5-2.1-2.6c-0.1-0.9,0.1-1.9,0.8-2.6l1.7,1.4
			c-0.2,0.2-0.3,0.5-0.3,0.8c0.2,0.5,0.5,0.9,1,1.1c2,1,4.4,1,6.5,0c0.5-0.2,0.8-0.6,1-1.1c0-0.3-0.1-0.6-0.3-0.8l1.7-1.4
			c0.6,0.7,0.9,1.6,0.8,2.6c-0.3,1.1-1,2.1-2,2.6C664.6,378.1,663.1,378.5,661.6,378.5z"/>
		<path class="st2" d="M661.6,374.5c-1.5,0-3-0.3-4.3-1.1c-1.1-0.5-1.8-1.5-2.1-2.6c-0.1-0.9,0.1-1.9,0.8-2.5l1.7,1.4
			c-0.2,0.2-0.3,0.5-0.3,0.8c0.2,0.5,0.5,0.9,1,1.1c2,1,4.4,1,6.5,0c0.5-0.2,0.8-0.6,1-1.1c0-0.3-0.1-0.6-0.3-0.8l1.7-1.4
			c0.6,0.7,0.9,1.6,0.8,2.6c-0.2,1.1-1,2.1-2,2.6C664.6,374.2,663.1,374.6,661.6,374.5z"/>
		<path class="st2" d="M661.6,370.6c-1.5,0-3-0.3-4.3-1.1c-1.1-0.5-1.8-1.5-2.1-2.7l2.1-0.3c0.2,0.5,0.5,0.9,1,1.1c2,1,4.4,1,6.5,0
			c0.5-0.2,0.8-0.6,1-1.1l2.1,0.4c-0.3,1.1-1,2.1-2.1,2.6C664.5,370.3,663.1,370.7,661.6,370.6z"/>
		<path class="st3" d="M661.6,434c-0.3,0-0.6-0.1-0.8-0.3c-0.2-0.2-0.3-0.5-0.3-0.8s0.1-0.6,0.3-0.8c0.4-0.4,1.1-0.4,1.5,0
			c0.2,0.2,0.3,0.5,0.3,0.8C662.7,433.5,662.2,434,661.6,434L661.6,434z"/>
		<path class="st3" d="M660.5,429.7c0-0.6,0.5-1.1,1.1-1.1l0,0l0,0c0.6,0,1.1,0.5,1.1,1.1l0,0l0,0c0,0.6-0.5,1.1-1.1,1.1l0,0l0,0
			C661,430.8,660.5,430.3,660.5,429.7L660.5,429.7z M660.5,426.5c0-0.6,0.5-1.1,1.1-1.1l0,0c0.6,0,1.1,0.5,1.1,1.1l0,0l0,0
			c0,0.6-0.5,1.1-1.1,1.1l0,0l0,0C661,427.6,660.5,427.2,660.5,426.5L660.5,426.5z M660.5,423.4c0-0.6,0.5-1.1,1.1-1.1l0,0l0,0
			c0.6,0,1.1,0.5,1.1,1.1l0,0l0,0c0,0.6-0.5,1.1-1.1,1.1l0,0l0,0C661,424.5,660.5,424,660.5,423.4L660.5,423.4z M660.5,420.2
			c0-0.6,0.5-1.1,1.1-1.1l0,0c0.6,0,1.1,0.5,1.1,1.1l0,0l0,0c0,0.6-0.5,1.1-1.1,1.1l0,0l0,0C661,421.3,660.5,420.8,660.5,420.2
			L660.5,420.2z M660.5,417.1c0-0.6,0.5-1.1,1.1-1.1l0,0l0,0c0.6,0,1.1,0.5,1.1,1.1l0,0l0,0c0,0.6-0.5,1.1-1.1,1.1l0,0l0,0
			C661,418.2,660.5,417.7,660.5,417.1L660.5,417.1z M660.5,413.9c0-0.6,0.5-1.1,1.1-1.1l0,0l0,0c0.6,0,1.1,0.5,1.1,1.1l0,0l0,0
			c0,0.6-0.5,1.1-1.1,1.1l0,0C661,415,660.5,414.5,660.5,413.9z M660.5,410.8c0-0.6,0.5-1.1,1.1-1.1l0,0l0,0c0.6,0,1.1,0.5,1.1,1.1
			l0,0l0,0c0,0.6-0.5,1.1-1.1,1.1l0,0l0,0C661,411.8,660.5,411.4,660.5,410.8L660.5,410.8L660.5,410.8z M660.5,407.6
			c0-0.6,0.5-1.1,1.1-1.1l0,0l0,0c0.6,0,1.1,0.5,1.1,1.1l0,0l0,0c0,0.6-0.5,1.1-1.1,1.1l0,0l0,0C661,408.7,660.5,408.2,660.5,407.6z
			"/>
		<path class="st3" d="M661.6,405.5c-0.3,0-0.6-0.1-0.8-0.3c-0.2-0.2-0.3-0.5-0.3-0.8c0-0.6,0.5-1.1,1.1-1.1c0.3,0,0.6,0.1,0.8,0.3
			c0.2,0.2,0.3,0.5,0.3,0.8s-0.1,0.6-0.3,0.8C662.2,405.4,661.9,405.5,661.6,405.5z"/>
		<path class="st3" d="M661.6,279.4c-0.3,0-0.6-0.1-0.8-0.3c-0.2-0.2-0.3-0.5-0.3-0.8s0.1-0.6,0.3-0.8c0.4-0.4,1.1-0.4,1.5,0
			c0.2,0.2,0.3,0.5,0.3,0.8s-0.1,0.6-0.3,0.8C662.2,279.3,661.9,279.4,661.6,279.4z"/>
		<path class="st3" d="M660.5,275c0-0.6,0.5-1.1,1.1-1l0,0c0.6,0,1.1,0.5,1.1,1.1l0,0l0,0c0,0.6-0.5,1.1-1.1,1.1l0,0l0,0
			C661,276.2,660.5,275.7,660.5,275C660.5,275.1,660.5,275.1,660.5,275z M660.5,271.8c0-0.6,0.5-1.1,1.1-1.1l0,0l0,0
			c0.6,0,1.1,0.5,1.1,1.1l0,0l0,0c0,0.6-0.5,1.1-1.1,1.1l0,0l0,0C661,272.9,660.5,272.4,660.5,271.8L660.5,271.8L660.5,271.8z
			 M660.5,268.6c0-0.6,0.5-1.1,1.1-1.1l0,0l0,0c0.6,0,1.1,0.5,1.1,1.1l0,0l0,0c0,0.6-0.5,1.1-1.1,1.1l0,0l0,0
			C661,269.7,660.5,269.2,660.5,268.6z M660.5,265.3c0-0.6,0.5-1.1,1.1-1.1l0,0c0.6,0,1.1,0.5,1.1,1.1l0,0l0,0
			c0,0.6-0.5,1.1-1.1,1.1l0,0l0,0C661,266.4,660.5,265.9,660.5,265.3L660.5,265.3z M660.5,262.1c0-0.6,0.5-1.1,1.1-1.1l0,0l0,0
			c0.6,0,1.1,0.5,1.1,1.1l0,0l0,0c0,0.6-0.5,1.1-1.1,1.1l0,0l0,0C661,263.2,660.5,262.7,660.5,262.1L660.5,262.1z M660.5,258.9
			c0-0.6,0.5-1.1,1.1-1.1l0,0c0.6,0,1.1,0.5,1.1,1.1l0,0l0,0c0,0.6-0.4,1.1-1,1.1c0,0,0,0-0.1,0l0,0
			C661,260,660.5,259.5,660.5,258.9L660.5,258.9z M660.5,255.6c0-0.6,0.5-1.1,1.1-1.1l0,0l0,0c0.6,0,1.1,0.5,1.1,1.1l0,0l0,0
			c0,0.6-0.5,1.1-1.1,1.1l0,0l0,0C661,256.7,660.5,256.2,660.5,255.6L660.5,255.6L660.5,255.6z M660.5,252.4c0-0.6,0.5-1.1,1.1-1.1
			l0,0c0.6,0,1.1,0.5,1.1,1.1l0,0l0,0c0,0.6-0.5,1.1-1.1,1.1l0,0l0,0C661,253.5,660.5,253,660.5,252.4L660.5,252.4L660.5,252.4z
			 M660.5,249.2c0-0.6,0.5-1.1,1.1-1.1l0,0l0,0c0.6,0,1.1,0.5,1.1,1.1l0,0l0,0c0,0.6-0.5,1.1-1.1,1.1l0,0l0,0
			C661,250.2,660.5,249.8,660.5,249.2L660.5,249.2L660.5,249.2z M660.5,245.9c0-0.6,0.5-1.1,1.1-1.1l0,0l0,0c0.6,0,1.1,0.5,1.1,1.1
			l0,0l0,0c0,0.6-0.5,1.1-1.1,1.1l0,0l0,0C661,247,660.5,246.5,660.5,245.9L660.5,245.9L660.5,245.9z M660.5,242.7
			c0-0.6,0.5-1.1,1.1-1.1l0,0l0,0c0.6,0,1.1,0.5,1.1,1.1l0,0l0,0c0,0.6-0.5,1.1-1.1,1.1l0,0l0,0C661,243.8,660.5,243.3,660.5,242.7
			L660.5,242.7L660.5,242.7z M660.5,239.4c0-0.6,0.5-1.1,1.1-1.1l0,0l0,0c0.6,0,1.1,0.5,1.1,1.1l0,0l0,0c0,0.6-0.5,1.1-1.1,1.1l0,0
			l0,0C661,240.5,660.5,240.1,660.5,239.4C660.5,239.5,660.5,239.5,660.5,239.4L660.5,239.4z M660.5,236.2c0-0.6,0.5-1.1,1.1-1.1
			l0,0l0,0c0.6,0,1.1,0.5,1.1,1.1l0,0l0,0c0,0.6-0.5,1.1-1.1,1.1l0,0l0,0C661,237.3,660.5,236.8,660.5,236.2L660.5,236.2z
			 M660.5,233c0-0.6,0.5-1.1,1.1-1.1l0,0l0,0c0.6,0,1.1,0.5,1.1,1.1l0,0l0,0c0,0.6-0.5,1.1-1.1,1.1l0,0l0,0
			C661,234.1,660.5,233.6,660.5,233L660.5,233z M660.5,229.7c0-0.6,0.5-1.1,1.1-1.1l0,0l0,0c0.6,0,1.1,0.5,1.1,1.1l0,0l0,0
			c0,0.6-0.5,1.1-1.1,1.1l0,0l0,0C661,230.8,660.5,230.3,660.5,229.7L660.5,229.7z M660.5,226.5c0-0.6,0.5-1.1,1.1-1.1l0,0l0,0
			c0.6,0,1.1,0.5,1.1,1.1l0,0l0,0c0,0.6-0.5,1.1-1.1,1.1l0,0l0,0C661,227.6,660.5,227.1,660.5,226.5L660.5,226.5L660.5,226.5z
			 M660.5,223.3c0-0.6,0.5-1.1,1.1-1.1l0,0l0,0c0.6,0,1.1,0.5,1.1,1.1l0,0l0,0c0,0.6-0.5,1.1-1.1,1.1l0,0l0,0
			C661,224.4,660.5,223.9,660.5,223.3L660.5,223.3z M660.5,220c0-0.6,0.5-1.1,1.1-1.1l0,0c0.6,0,1.1,0.5,1.1,1.1l0,0l0,0
			c0,0.6-0.5,1.1-1.1,1.1l0,0l0,0C661,221.1,660.5,220.6,660.5,220L660.5,220L660.5,220z M660.5,216.8c0-0.6,0.5-1.1,1.1-1.1l0,0
			l0,0c0.6,0,1.1,0.5,1.1,1.1l0,0l0,0c0,0.6-0.5,1.1-1.1,1.1l0,0l0,0C661,217.9,660.5,217.4,660.5,216.8L660.5,216.8L660.5,216.8z
			 M660.5,213.5c0-0.6,0.5-1.1,1.1-1.1l0,0c0.6,0,1.1,0.5,1.1,1.1l0,0l0,0c0,0.6-0.5,1.1-1.1,1.1l0,0l0,0
			C661,214.6,660.5,214.2,660.5,213.5L660.5,213.5z M660.5,210.3c0-0.6,0.5-1.1,1.1-1.1l0,0l0,0c0.6,0,1.1,0.5,1.1,1.1l0,0l0,0
			c0,0.6-0.5,1.1-1.1,1.1l0,0l0,0C661,211.4,660.5,210.9,660.5,210.3L660.5,210.3L660.5,210.3z M660.5,207.1c0-0.6,0.5-1.1,1.1-1.1
			l0,0c0.6,0,1.1,0.5,1.1,1.1l0,0l0,0c0,0.6-0.5,1.1-1.1,1.1l0,0l0,0C661,208.2,660.5,207.7,660.5,207.1L660.5,207.1z M660.5,203.8
			c0-0.6,0.5-1.1,1.1-1.1l0,0l0,0c0.6,0,1.1,0.5,1.1,1.1l0,0l0,0c0,0.6-0.5,1.1-1.1,1.1l0,0l0,0C661,204.9,660.5,204.5,660.5,203.8
			L660.5,203.8L660.5,203.8z M660.5,200.6c0-0.6,0.5-1.1,1.1-1.1l0,0l0,0c0.6,0,1.1,0.5,1.1,1.1l0,0l0,0c0,0.6-0.5,1.1-1.1,1.1l0,0
			l0,0C661,201.7,660.5,201.2,660.5,200.6L660.5,200.6L660.5,200.6z M660.5,197.4c0-0.6,0.5-1.1,1.1-1.1l0,0l0,0
			c0.6,0,1.1,0.5,1.1,1.1l0,0l0,0c0,0.6-0.5,1.1-1.1,1.1l0,0l0,0C661,198.5,660.5,198,660.5,197.4L660.5,197.4L660.5,197.4z
			 M660.5,194.1c0-0.6,0.5-1.1,1.1-1.1l0,0l0,0c0.6,0,1.1,0.5,1.1,1.1l0,0l0,0c0,0.6-0.5,1.1-1.1,1.1l0,0l0,0
			C661,195.2,660.5,194.7,660.5,194.1L660.5,194.1L660.5,194.1z M660.5,190.9c0-0.6,0.5-1.1,1.1-1.1l0,0l0,0c0.6,0,1.1,0.5,1.1,1.1
			l0,0l0,0c0,0.6-0.5,1.1-1.1,1.1l0,0l0,0C661,192,660.5,191.5,660.5,190.9L660.5,190.9L660.5,190.9z M660.5,187.7
			c0-0.6,0.5-1.1,1.1-1.1l0,0l0,0c0.6,0,1.1,0.5,1.1,1.1l0,0l0,0c0,0.6-0.5,1.1-1.1,1.1l0,0l0,0C661,188.7,660.5,188.3,660.5,187.7
			L660.5,187.7L660.5,187.7z M660.5,184.4c0-0.6,0.5-1.1,1.1-1.1l0,0l0,0c0.6,0,1.1,0.5,1.1,1.1l0,0l0,0c0,0.6-0.5,1.1-1.1,1.1l0,0
			l0,0C661,185.5,660.5,185,660.5,184.4L660.5,184.4z M660.5,181.2c0-0.6,0.5-1.1,1.1-1.1l0,0l0,0c0.6,0,1.1,0.5,1.1,1.1l0,0l0,0
			c0,0.6-0.5,1.1-1.1,1.1l0,0l0,0C661,182.3,660.5,181.8,660.5,181.2L660.5,181.2L660.5,181.2z M660.5,178c0-0.6,0.5-1.1,1.1-1.1
			l0,0l0,0c0.6,0,1.1,0.5,1.1,1.1l0,0l0,0c0,0.6-0.5,1-1.1,1l0,0C661,179,660.6,178.6,660.5,178L660.5,178z M660.5,174.7
			c0-0.6,0.5-1.1,1.1-1.1l0,0c0.6,0,1.1,0.5,1.1,1.1l0,0l0,0c0,0.6-0.5,1.1-1.1,1.1l0,0l0,0C661,175.8,660.5,175.3,660.5,174.7
			L660.5,174.7z M660.5,171.5c0-0.6,0.5-1.1,1.1-1.1l0,0l0,0c0.6,0,1.1,0.5,1.1,1.1l0,0l0,0c0,0.6-0.5,1.1-1.1,1.1l0,0l0,0
			C661,172.6,660.5,172.1,660.5,171.5L660.5,171.5z M660.5,168.2c0-0.6,0.5-1.1,1.1-1.1l0,0c0.6,0,1.1,0.5,1.1,1.1l0,0l0,0
			c0,0.6-0.5,1.1-1.1,1.1l0,0l0,0C661,169.3,660.5,168.8,660.5,168.2L660.5,168.2z M660.5,165c0-0.6,0.5-1.1,1.1-1.1l0,0l0,0
			c0.6,0,1.1,0.5,1.1,1.1l0,0l0,0c0,0.6-0.5,1.1-1.1,1.1l0,0l0,0C661,166.1,660.5,165.6,660.5,165L660.5,165L660.5,165z
			 M660.5,161.8c0-0.6,0.5-1.1,1.1-1.1l0,0l0,0c0.6,0,1.1,0.5,1.1,1.1l0,0l0,0c0,0.6-0.5,1.1-1.1,1.1l0,0l0,0
			C661,162.9,660.5,162.4,660.5,161.8L660.5,161.8z M660.5,158.5c0-0.6,0.5-1.1,1.1-1.1l0,0l0,0c0.6,0,1.1,0.5,1.1,1.1l0,0l0,0
			c0,0.6-0.5,1.1-1.1,1.1l0,0l0,0C661,159.6,660.5,159.1,660.5,158.5L660.5,158.5L660.5,158.5z M660.5,155.3c0-0.6,0.5-1.1,1.1-1.1
			l0,0l0,0c0.6,0,1.1,0.5,1.1,1.1l0,0l0,0c0,0.6-0.5,1.1-1.1,1.1l0,0l0,0C661,156.4,660.5,155.9,660.5,155.3L660.5,155.3
			L660.5,155.3z M660.5,152.1c0-0.6,0.5-1.1,1.1-1.1l0,0c0.6,0,1.1,0.5,1.1,1.1l0,0l0,0c0,0.6-0.5,1.1-1.1,1.1l0,0l0,0
			C661,153.2,660.5,152.7,660.5,152.1L660.5,152.1L660.5,152.1z M660.5,148.8c0-0.6,0.5-1.1,1.1-1.1l0,0l0,0c0.6,0,1.1,0.5,1.1,1.1
			l0,0l0,0c0,0.6-0.5,1.1-1.1,1.1l0,0l0,0C661,149.9,660.5,149.4,660.5,148.8L660.5,148.8z M660.5,145.6c0-0.6,0.5-1.1,1.1-1.1l0,0
			l0,0c0.6,0,1.1,0.5,1.1,1.1l0,0l0,0c0,0.6-0.5,1.1-1.1,1.1l0,0l0,0C661,146.7,660.5,146.2,660.5,145.6L660.5,145.6z M660.5,142.4
			c0-0.6,0.5-1.1,1.1-1.1l0,0l0,0c0.6,0,1.1,0.5,1.1,1.1l0,0l0,0c0,0.6-0.5,1.1-1.1,1.1l0,0l0,0C661,143.4,660.5,143,660.5,142.4
			L660.5,142.4L660.5,142.4z"/>
		<path class="st3" d="M661.6,140.2c-0.6,0-1.1-0.5-1.1-1.1c0-0.3,0.1-0.6,0.3-0.8c0.4-0.4,1.1-0.4,1.5,0c0.2,0.2,0.3,0.5,0.3,0.8
			s-0.1,0.6-0.3,0.8C662.2,140.1,661.9,140.2,661.6,140.2z"/>
		<circle class="st6" cx="663.5" cy="1773.3" r="21.9"/>
		<path class="st3" d="M663.5,2829.2c-0.5,0-1,0-1.5,0v207.5h3v-207.6C664.5,2829.1,664,2829.2,663.5,2829.2z"/>
		<path class="st3" d="M663.5,2247c-0.5,0-1,0-1.5,0v477.6h3V2247C664.5,2247,664,2247,663.5,2247z"/>
		<path class="st3" d="M663.5,1806.2c-0.5,0-1,0-1.5,0v367.6h3v-367.6C664.5,1806.2,664,1806.2,663.5,1806.2z"/>
		<path class="st3" d="M663.5,1331.8H662v408.5h3v-408.6L663.5,1331.8z"/>
		<circle class="st7" cx="663.5" cy="2776.8" r="37.2"/>
		<circle class="st8" cx="663.5" cy="1295.6" r="26.3"/>
		<circle class="st8" cx="663.5" cy="2210.4" r="26.3"/>
		<circle class="st9" cx="530.2" cy="128.3" r="13"/>
		<circle class="st9" cx="602.6" cy="322.4" r="13"/>
		<path class="st3" d="M508.2,2077.8c-6.5,2-12.5,3.9-18.1,3.9s-11.6-1.9-18.1-3.9c-7.2-2.2-14.6-4.5-22.2-4.5
			c-13.7,0-26.6,6.2-35.1,16.9c-8.6,10.5-13.3,24.9-13.3,40.5c0,38.2,10,53.9,20.8,65.1c7,7.2,28.4,14.9,67.8,14.9
			s60.8-7.7,67.8-14.9c10.8-11.2,20.8-26.9,20.8-65.1c0-15.6-4.7-30-13.3-40.5c-8.5-10.7-21.4-16.9-35.1-16.9c-0.5,0-1,0-1.5,0.1
			C521.7,2073.6,514.5,2075.8,508.2,2077.8l-0.3-0.9l0,0L508.2,2077.8z M530.4,2075.1c27,0,46.5,23.4,46.5,55.6
			c0,42.8-13.2,56.4-20.3,63.8c-8.3,8.6-35,14.3-66.5,14.3s-58.1-5.8-66.5-14.3c-7.1-7.4-20.3-21-20.3-63.8
			c0-32.2,19.6-55.6,46.5-55.6c7.3,0,14.6,2.3,21.6,4.4c2.9,0.9,5.4,1.6,7.8,2.3l8.8,2.3l-8.7,2.5c-8.1,2.3-13,3.4-16,3.4
			c-0.5,0-0.9,0.4-1,0.9s0.4,0.9,0.9,1l0,0c5.8,0,17.5-3.6,31.1-7.9S523.1,2075.1,530.4,2075.1z"/>
		<circle class="st9" cx="609.3" cy="514" r="13"/>
		<rect x="456.4" y="2197.3" class="st10" width="66.5" height="36.4"/>
		<polygon class="st11" points="542.7,2264.3 436.5,2274.3 436.5,2230.8 542.7,2230.8 		"/>
		<rect x="456.3" y="2221.1" class="st12" width="66.5" height="9.4"/>
		<polygon class="st13" points="531,2207.1 448.2,2207.1 455.7,2131.4 523.5,2131.4 		"/>
		<path class="st10" d="M542.5,2243.1H436.7c-0.2,0-0.4-8.1-0.5-8.1l-7.8-5h122.5l-7.8,5C542.9,2235.1,542.7,2243.1,542.5,2243.1z"
			/>
		<path class="st2" d="M543.1,2285.6c0.2-3.3,0.4-6.6,0.6-9.9l-1,1h0.2c0.6,0,1-0.4,1-1v-41.9l-0.7,1c1.5-0.5,2.9-1.2,4.2-2l4.2-2
			c0.9-0.4,0.4-1.9-0.5-1.9h-28l1,1v-22.1l-1,1h8.2c0.6,0,1-0.4,1-1l-2.5-26.1l-4-41.4l-0.9-9.6c0-0.6-0.4-1-1-1h-67.8
			c-0.6,0-1,0.4-1,1l-2.5,26.1l-4,41.4l-0.9,9.6c0,0.6,0.4,1,1,1h8.1l-1-1v22.1l1-1h-28c-0.9,0-1.4,1.4-0.5,1.9l4.2,2
			c1.3,0.8,2.7,1.5,4.2,2l-0.7-1v41.9c0,0.6,0.4,1,1,1h0.2l-1-1c0.5,7.2,0.9,14.4,1.3,21.5l0.7-1c-1.9,0.3-4.8,0.2-6.4,1.4
			c-1.2,0.9-1.6,2.4-1,3.7c0.5,0.8,1.1,1.5,1.9,2l3.3,2.7c0.7,0.7,1.5,1.4,2.4,1.9c-0.2,0.1-0.1-1-0.2-0.4c0,0.3,0,0.6,0,0.9
			c0,0.7,0.1,1.4,0.1,2.1s0.1,1.5,0.1,2.3c0.1,2.4,0.3,4.8,0.5,7.2l0.7-1l-3.2,0.5c-1.1,0.1-2.2,0.3-3.2,0.7c-1.4,0.7-2,2.3-1.5,3.8
			c0.4,0.8,1,1.5,1.8,2.1l3.3,2.7c0.9,0.9,1.8,1.7,2.8,2.4c0,0,0.2,0.2,0.3,0.2c-0.2,0.1-0.1-1.2-0.2-0.2c0,0.6,0,1.3,0.1,1.9
			l0.1,2.5c0.1,2.4,0.3,4.9,0.4,7.4l0.7-1c-2.1,0.3-4.6,0.3-6.5,1.2c-1.4,0.6-2.2,2.2-1.8,3.7c0.3,0.9,0.8,1.7,1.6,2.3l6.2,5.2
			l0.7,0.6c0,0-0.2-1.1-0.2-0.1c0,0.4,0,0.7,0.1,1.1c0,0.8,0.1,1.5,0.1,2.3c0.2,2.6,0.3,5.1,0.5,7.7l0.7-1c-2.1,0.4-4.3,0.6-6.4,1
			c-3,0.7-3.2,4-1.1,5.8s4.2,3.6,6.4,5.5c0.3,0.3,0.7,0.7,1.1,0.9c0,0,0.2,0.2,0.3,0.2s-0.1-0.7-0.2-0.4c-0.2,0.7,0.1,2.1,0.2,2.9
			c0.2,2.6,0.3,5.2,0.5,7.7l0.7-1c-2.2,0.4-4.5,0.7-6.6,1.1c-1.7,0.2-2.9,1.6-2.9,3.3c0.1,1.4,1.1,2.2,2.1,3.1
			c1.9,1.6,3.7,3.3,5.6,4.9c0.7,0.7,1.4,1.3,2.1,1.9c-0.2,0.1-0.2-1.2-0.2-0.1c0,0.6,0.1,1.2,0.1,1.8c0.2,2.7,0.3,5.3,0.5,7.9l0.7-1
			c-2,0.4-4.1,0.6-6,1.1c-1.7,0.4-2.8,2.1-2.4,3.8c0.3,0.9,0.8,1.7,1.6,2.2l6.1,5.5c0.3,0.3,0.6,0.6,0.9,0.8
			c0.1,0.1,0.1,0.1,0.2,0.2c-0.1,0.1-0.2-1.1-0.2,0c0,0.9,0.1,1.9,0.2,2.8c0.1,2.5,0.3,4.9,0.4,7.4l0.7-1c-2,0.4-4.1,0.7-6.1,1.1
			c-2.3,0.4-4.1,2.8-2.5,5.1c0.2,0.2,0.4,0.5,0.6,0.7c-0.4-0.4-0.1,0,0,0l0.5,0.3l2.8,1.7l5,3.1l-0.5-0.9c0.2,3.3,0,6.5,2.6,9.1
			c2.1,2.1,5.2,3.3,7.9,4.7l0.2-1.8c-1.9,0.5-4.5,0.8-4.1,3.4c0.2,1.5,1.2,1.8,2.5,2.1l11.9,2.8c1.2,0.3,2.5,0.5,3.7,0.9
			c0.3,0.1-0.2-0.1,0,0c0.3,0.1,0.6,0.3,0.8,0.4l2.8,1.4c1.7,0.9,3.4,1.7,5.2,2.4c3.2,1,6.6,1.4,10,1.1c4.5-0.4,8.4-2.3,12.5-4.1
			l7.1-3.1l10.9-4.8c1-0.4,2.1-0.7,3.2-0.9c0.9-0.1,1.8-0.6,2.3-1.4c0.2-0.4,0-0.2-0.1-0.1c0.2-0.1,0.5-0.2,0.7-0.3
			c0.5-0.2,1-0.5,1.5-0.7c2.9-1.5,5.3-3.9,5.7-7.2c0.1-1.3,0.2-2.7,0.2-4c0.2-3.6,0.5-7.2,0.7-10.9l-0.7,1c2.2-0.4,4.4-0.8,6.5-1.3
			c1.8-0.4,2.9-2.1,2.5-3.9c-0.1-0.6-0.5-1.2-0.9-1.6c-1.8-2-3.7-3.9-5.5-5.8c-0.3-0.4-0.6-0.7-1-1.1c-0.7-0.6,0.1,0.1,0,0.2
			c0.2-0.2,0.1-1.6,0.1-1.9c0-0.6,0.1-1.1,0.1-1.7c0.1-2.3,0.3-4.6,0.4-6.9l-0.7,1c2-0.4,4.2-0.6,6.2-1.2c2.8-0.9,2.8-3.9,1-5.7
			l-5.5-5.7c0,0-0.5-0.6-0.6-0.6c0.2-0.1,0.2,1.3,0.3-0.1l0.2-4.1c0.1-2.1,0.3-4.3,0.4-6.4l-0.7,1c2.2-0.4,4.5-0.7,6.7-1.3
			c1.7-0.3,2.9-2,2.6-3.7c-0.1-0.7-0.5-1.3-1-1.8c-1.9-2-3.8-3.8-5.8-5.8c-0.3-0.4-0.7-0.7-1.1-1.1c-0.1-0.1-0.2-0.3-0.3-0.3
			s0,0.8,0.2,0.4c0.4-0.8,0.1-2.4,0.2-3.3c0.2-2.4,0.3-4.8,0.4-7.2l-0.7,1c2.1-0.4,4.2-0.7,6.3-1.2c2.9-0.7,3.3-3.8,1.3-5.7
			l-5.8-5.7c0,0-0.7-0.7-0.7-0.6c0.2-0.1,0.1,1.1,0.3,0.2c0.1-0.4,0.1-0.8,0.1-1.2c0.1-1,0.1-2,0.2-3c0.1-2.3,0.3-4.6,0.4-6.9
			l-0.7,1c2.1-0.2,4.2-0.6,6.2-1.2c1.5-0.5,2.3-2,2.1-3.5c-0.3-0.9-0.8-1.7-1.6-2.3l-3-2.9c-0.6-0.6-1.7-2.1-2.5-2.4
			c-0.1,0-0.5-0.6,0,0.2c0.3,0.5,0.1,0.3,0.2-0.1c0.1-0.7,0.1-1.3,0.1-2c0.1-0.9,0.1-1.8,0.2-2.6c0.1-2.4,0.3-4.7,0.4-7.1l-0.7,1
			l3.2-0.6c1.1-0.1,2.2-0.3,3.2-0.8c1.4-0.7,2-2.3,1.5-3.8c-0.4-0.8-1-1.5-1.7-2c-0.4-0.4-4.9-4.9-5.1-4.8c0.2-0.1,0,1,0.3,0.4
			c0-0.2,0-0.5,0-0.7l0.1-2.2c0-0.7,0.1-1.4,0.1-2.1c0.1-2.5,0.3-4.9,0.4-7.4l-0.7,1c2.5-0.5,9-0.7,7.4-5c-0.5-1.3-2-2.3-3-3.2
			l-3.4-3.2c-0.9-0.9-2.4,0.5-1.4,1.4c1.9,1.6,3.8,3.3,5.5,5.2c1.3,1.5-0.6,2-1.8,2.2l-3.9,0.7c-0.4,0.1-0.8,0.5-0.7,1
			c-0.1,2.5-0.3,5-0.4,7.6c-0.1,1-0.1,2-0.2,3.1s-0.4,2,0.2,2.8c1.6,2.1,4.2,3.5,5.9,5.6c1.3,1.7-1,2-2.2,2.3l-4,0.7
			c-0.4,0.1-0.8,0.5-0.7,1c-0.2,3.8-0.5,7.5-0.7,11.3c-0.2,0.6,0,1.3,0.4,1.8c0.7,0.8,1.5,1.5,2.2,2.2l2.9,2.8
			c0.6,0.6,1.6,1.2,1.3,2.1s-2.5,1.1-3.5,1.3l-3.3,0.6c-0.4,0.1-0.8,0.5-0.7,1c-0.1,1.7-0.2,3.5-0.3,5.2c-0.1,1.2-0.2,2.5-0.2,3.7
			c-0.1,0.8-0.2,1.6-0.2,2.5c0.1,0.7,0.5,1,1,1.4l2.7,2.7l2.8,2.7c0.8,0.8,1.8,1.9,0.1,2.6c-1.1,0.3-2.1,0.5-3.2,0.6l-3.3,0.6
			c-0.4,0.1-0.8,0.5-0.7,1c-0.1,2.1-0.2,4.2-0.4,6.3c0,0.6-0.1,1.3-0.1,1.9c-0.1,1-0.4,2.3,0.1,3.2c1.1,1.6,3,3,4.3,4.3
			c1,1,5.2,4,2.2,5c-2.2,0.6-4.5,1-6.8,1.3c-0.4,0.1-0.7,0.5-0.7,1c-0.2,2.2-0.3,4.5-0.4,6.7c-0.2,1.4-0.3,2.9-0.3,4.3
			c0,0.8,0.6,1.2,1.2,1.8l3.4,3.6c0.8,0.7,1.6,1.5,2.3,2.4c1,1.9-1.9,2.1-3,2.3l-3.8,0.8c-0.4,0.1-0.8,0.5-0.7,1
			c-0.1,2-0.3,4.1-0.4,6.1c0,0.8-0.1,1.6-0.1,2.4s-0.4,2.1,0.2,2.9c1.3,1.6,2.6,3,4.1,4.4c0.9,0.9,4.9,4,2.1,5
			c-2.2,0.6-4.4,1-6.6,1.3c-0.4,0.1-0.8,0.5-0.7,1c-0.2,2.8-0.3,5.6-0.5,8.3s0.2,6.9-1.4,9.1c-1,1.3-2.4,2.4-3.9,3.1
			c-0.8,0.3-1.6,0.7-2.3,1.1c-0.4,0.3-0.3,0.7-0.8,1c-0.4,0.1-0.8,0.2-1.2,0.2c-0.7,0.1-1.4,0.3-2,0.5c-2.8,1.1-5.5,2.4-8.2,3.6
			c-5.2,2.3-10.5,4.7-15.7,7c-5.6,2.4-12,2.4-17.7,0c-2.4-1.1-4.6-2.8-7.1-3.6c-3.4-1.1-7-1.7-10.5-2.5l-5.4-1.3
			c-0.1,0-0.9-0.1-1-0.2c-0.4-0.7,2.7-1.3,2.9-1.3c0.5-0.2,0.8-0.7,0.7-1.2c-0.1-0.2-0.2-0.5-0.4-0.6c-2-1-4-1.9-5.9-3.1
			c-1.9-1-3.1-2.9-3.4-5.1c-0.1-1.1-0.1-2.3-0.2-3.5c-0.2-1.8-3-2.8-4.4-3.6l-3.5-2.2c-0.3-0.1-0.6-0.3-0.8-0.5
			c-0.2-0.2,0.2,0.3,0,0c-0.4-0.5-0.4-1.2,0-1.6c0.7-0.8,2.7-0.7,3.7-0.9l3.7-0.6c0.4-0.1,0.7-0.5,0.7-1c-0.1-1.8-0.2-3.6-0.3-5.4
			c-0.1-1.1-0.1-2.2-0.2-3.3c0.1-0.9,0-1.7-0.3-2.5c-0.4-0.5-0.8-0.9-1.3-1.2l-2.9-2.6c-0.9-0.8-5.8-4.2-3.5-5.5
			c0.9-0.5,2.4-0.4,3.4-0.6l3-0.5c0.4-0.1,0.8-0.5,0.7-1c-0.1-1.9-0.2-3.9-0.4-5.8l-0.2-3.9c0.1-0.6-0.1-1.1-0.5-1.5
			c-1.7-1.7-3.5-3.3-5.5-4.8l-2.1-1.8c-1-0.8-2.5-2.4-0.4-3.1c2.3-0.5,4.5-0.9,6.8-1.1c0.4-0.1,0.8-0.5,0.7-1l-0.4-5.9
			c-0.1-0.9-0.1-1.8-0.2-2.7s0.1-2.2-0.4-2.9c-0.5-0.5-1-0.9-1.5-1.3l-3.2-2.8l-2.8-2.4c-0.8-0.6-1.9-1.7-0.6-2.6
			c0.9-0.6,2.6-0.5,3.6-0.7l3.4-0.6c0.4-0.1,0.8-0.5,0.7-1c-0.1-1.9-0.2-3.9-0.4-5.8c0-1.9-0.1-3.8-0.4-5.8c-0.1-0.7-0.5-0.9-1-1.4
			l-2.9-2.4l-3-2.6c-0.6-0.5-1.6-1.1-1.5-1.9c0.2-1.3,2.4-1.2,3.4-1.4l3.6-0.6c0.4-0.1,0.7-0.5,0.7-1c-0.2-3.8-0.4-7.5-0.7-11.3
			c0.1-0.7-0.2-1.3-0.6-1.8c-0.8-0.8-1.7-1.4-2.6-2.1l-3.2-2.6c-0.5-0.4-1.5-1-1.6-1.6c-0.5-2,5.4-2.2,6.6-2.4
			c0.4-0.1,0.8-0.5,0.7-1c-0.2-3.6-0.5-7.3-0.7-11c0-0.8,0.1-1.8-0.4-2.5c-0.6-0.6-1.3-1.2-2.1-1.7l-3.1-2.6
			c-0.6-0.4-1.2-0.9-1.7-1.4c-1.3-1.7,1.4-2,2.5-2.1l3.5-0.6c0.4-0.1,0.7-0.5,0.7-1c-0.4-7.2-0.8-14.4-1.3-21.5c0-0.6-0.4-1-1-1H437
			l1,1v-41.9c0-0.5-0.3-0.9-0.7-1c-1.4-0.5-2.7-1.1-4-1.9l-3.9-1.9l-0.5,1.9h28c0.6,0,1-0.4,1-1v-22.1c0-0.6-0.4-1-1-1h-8.1l1,1
			l2.5-26.1l4-41.4l0.9-9.6l-1,1H524l-1-1l2.5,26.1l4,41.4l0.9,9.6l1-1H523c-0.6,0-1,0.4-1,1v21.9c0,0.6,0.4,1,1,1h28l-0.5-1.9
			l-3.9,1.9c-1.3,0.7-2.6,1.4-4,1.9c-0.4,0.1-0.7,0.5-0.7,1v41.9l1-1h-0.2c-0.6,0-1,0.4-1,1c-0.2,3.3-0.4,6.6-0.6,9.9
			C541,2286.9,543,2286.9,543.1,2285.6z"/>
		<polygon class="st14" points="430.1,1318.9 314.9,1327.9 313.9,1303.8 430.1,1293.8 		"/>
		<path class="st12" d="M430,1316.6l-0.2,2.6l-0.7,12.2l-0.4,6.9v0.7l-0.1,1.7l-0.4,6.3l-0.5,7.8l-0.1,0.8l-0.5,7.5l-0.5,8.2v0.9
			l-0.4,6.6l-0.6,9.4v0.6l-0.3,5.3l-0.3,4.9l-0.3,5.7v0.8l-0.3,5.1l-0.6,10.7l-0.1,0.8l-0.3,5l-0.6,10.8v0.7l-0.3,4.8l-0.7,11.1v0.7
			l-0.3,4.7l-0.7,11.1v0.7l-0.3,5.5l-0.6,10.2l-0.1,0.8l-0.3,5.4l-0.6,10.4v0.8l-0.1,1.1c-0.2,2.9-2.6,5.6-6.5,7.3l-6.6,3l-14.2,6.3
			l-12,5.3c-1.9,0.8-3.9,1.4-5.9,1.7c-2.8,0.4-5.7,0.4-8.6-0.1c-2.1-0.4-4.2-1-6.1-2l-1.3-0.7l-14-7.2l-9.2-4.8l-2.9-1.5
			c-3.4-1.7-5.4-4.2-5.5-6.9l-0.1-2.4l-0.4-7l-0.6-9.5l-0.4-6.4l-0.6-10.2l-0.4-6.4l-0.6-10.1l-0.4-6.6l-0.6-9.9l-0.4-6.7l-0.6-9.8
			l-0.4-6.8l-0.6-9.8l-0.5-7.7l-0.3-5.2l-0.2-3.5l-0.5-8.4l-0.5-8l-0.5-8.9l-0.5-7.5l-0.6-9.7l-0.3-4.9l-0.1-1.8l-1.2-19.7l-0.2,7.4
			L430,1316.6z"/>
		<path class="st13" d="M322.9,1357.1l-14.2-11.6c-1-0.8-1.1-2.3-0.3-3.3c0.4-0.5,1-0.8,1.7-0.9l114.7-17.9l10.9,10.2
			c0.8,1,0.7,2.5-0.3,3.3c-0.4,0.3-0.8,0.5-1.3,0.5L322.9,1357.1z"/>
		<path class="st13" d="M323.8,1382.2l-14-11.6c-1-0.8-1.1-2.3-0.3-3.3c0.4-0.5,1-0.8,1.6-0.8l112.7-18l10.7,10.2
			c0.8,1,0.7,2.5-0.3,3.3c-0.4,0.3-0.8,0.5-1.3,0.5L323.8,1382.2z"/>
		<path class="st13" d="M324.7,1407.2l-13.7-11.6c-1-0.8-1.1-2.3-0.3-3.3c0.4-0.5,0.9-0.8,1.5-0.8l110.6-18l10.5,10.2
			c0.8,1,0.7,2.5-0.3,3.3c-0.3,0.3-0.8,0.5-1.2,0.5L324.7,1407.2z"/>
		<path class="st13" d="M325.4,1432.3l-13.5-11.6c-1-0.9-1.1-2.3-0.2-3.3c0.4-0.4,0.9-0.7,1.5-0.8l109-18l10.4,10.2
			c0.8,1,0.7,2.5-0.3,3.3c-0.3,0.3-0.8,0.5-1.2,0.5L325.4,1432.3z"/>
		<path class="st13" d="M326.1,1457.4l-13.3-11.6c-1-0.9-1.1-2.4-0.2-3.3c0.4-0.4,0.9-0.7,1.5-0.8l107.2-18l10.2,10.2
			c0.8,1,0.7,2.5-0.4,3.3c-0.3,0.3-0.7,0.4-1.2,0.5L326.1,1457.4z"/>
		<path class="st13" d="M328.1,1482.4l-12.7-11.6c-1-0.9-1-2.4-0.2-3.4c0.4-0.4,0.8-0.6,1.3-0.7l102.7-18l9.8,10.2
			c0.8,1,0.6,2.5-0.4,3.4c-0.3,0.2-0.7,0.4-1.1,0.5L328.1,1482.4z"/>
		<path class="st13" d="M333.9,1506.7l-17.7-10.8c-1-0.9-1-2.4-0.1-3.4c0.3-0.4,0.8-0.6,1.3-0.7l101.1-18l9.6,10.2
			c0.8,1.1,0.6,2.6-0.4,3.4c-0.3,0.2-0.6,0.4-1,0.5L333.9,1506.7z"/>
		<path class="st2" d="M433.6,1335.5c-7,0.9-14,1.9-21,3c-7.4,1.1-14.9,2.3-22.3,3.5l-22.9,3.7c-7.5,1.2-15,2.4-22.5,3.5
			c-7.1,1.1-14.1,2.1-21.2,3.1l-2.4,0.3c-0.6,0-1,0.4-1,1c0,0.5,0.5,1.1,1,1c7-0.9,14-1.9,21-3c7.5-1.1,14.9-2.3,22.3-3.5l22.9-3.7
			c7.5-1.2,15-2.4,22.5-3.5c7.1-1.1,14.1-2.1,21.2-3.1l2.4-0.3c0.6,0,1-0.4,1-1C434.6,1336,434.1,1335.4,433.6,1335.5z"/>
		<path class="st2" d="M432.3,1360.6c-6.9,0.9-13.8,1.9-20.7,3c-7.3,1.1-14.6,2.3-21.9,3.5c-7.5,1.2-14.9,2.5-22.4,3.7
			s-14.7,2.4-22,3.6c-6.9,1.1-13.8,2.1-20.8,3.1l-2.5,0.3c-0.6,0-1,0.4-1,1c0,0.5,0.5,1.1,1,1c6.9-0.9,13.8-1.9,20.7-3
			c7.3-1.1,14.6-2.3,21.9-3.5c7.5-1.2,14.9-2.5,22.4-3.7s14.7-2.4,22-3.6c6.9-1.1,13.8-2.1,20.8-3.1l2.5-0.3c0.6,0,1-0.4,1-1
			C433.3,1361.1,432.8,1360.5,432.3,1360.6z"/>
		<path class="st2" d="M431.6,1385.8c-6.8,0.9-13.6,1.9-20.3,3c-7.2,1.1-14.4,2.3-21.6,3.5l-22.3,3.7c-7.3,1.2-14.6,2.4-21.9,3.5
			c-6.8,1.1-13.6,2.1-20.5,3l-2.5,0.3c-0.5,0.1-0.8,0.7-0.7,1.2l0,0c0.1,0.5,0.7,0.8,1.2,0.7l0,0c6.8-0.9,13.6-1.9,20.3-3
			c7.2-1.1,14.4-2.3,21.6-3.5l22.3-3.7c7.3-1.2,14.6-2.4,21.9-3.5c6.8-1.1,13.6-2.1,20.5-3l2.5-0.3c0.5-0.1,0.8-0.7,0.7-1.2l0,0
			C432.7,1385.9,432.2,1385.6,431.6,1385.8C431.7,1385.7,431.7,1385.7,431.6,1385.8L431.6,1385.8z"/>
		<path class="st2" d="M429.2,1436c-13.5,1.9-26.9,4.2-40.3,6.5c-14,2.4-27.9,4.9-41.9,7.2c-7.4,1.2-14.8,2.4-22.2,3.4
			c-0.5,0.1-0.8,0.7-0.7,1.2l0,0c0.1,0.5,0.7,0.8,1.2,0.7l0,0c13.5-1.9,26.9-4.2,40.3-6.5c14-2.4,27.9-4.9,41.9-7.2
			c7.4-1.2,14.8-2.4,22.2-3.4c0.5-0.1,0.8-0.7,0.7-1.2l0,0C430.3,1436.2,429.8,1435.9,429.2,1436L429.2,1436z"/>
		<path class="st2" d="M427,1461c-13.1,1.9-26.2,4.1-39.2,6.3c-13.6,2.4-27.2,4.8-40.8,7c-7.2,1.2-14.3,2.3-21.5,3.3
			c-0.5,0.1-0.8,0.7-0.7,1.2l0,0c0.1,0.5,0.7,0.8,1.2,0.7l0,0c13.1-1.9,26.2-4.1,39.2-6.3c13.6-2.3,27.2-4.8,40.8-7
			c7.2-1.2,14.3-2.3,21.5-3.3c0.5-0.1,0.8-0.7,0.7-1.2l0,0C428.1,1461.2,427.5,1460.8,427,1461L427,1461L427,1461z"/>
		<path class="st13" d="M362.8,1515.6l-24.1-5.8c-0.7-0.6-0.8-1.7-0.2-2.4c0.3-0.3,0.6-0.5,1-0.6l61-15l15,11.1
			c0.6,0.7,0.4,1.8-0.3,2.4c-0.2,0.2-0.4,0.3-0.7,0.3L362.8,1515.6z"/>
		<path class="st2" d="M423.5,1486.5c-10.7,1.9-21.4,4.1-32.1,6.4c-10.2,2.2-20.3,4.4-30.5,6.5c-6.2,1.3-12.4,2.4-18.6,3.6
			c-0.5,0.2-0.8,0.7-0.7,1.2c0.1,0.5,0.7,0.8,1.2,0.7l0,0c10.7-1.9,21.4-4.1,32.1-6.4c10.2-2.2,20.3-4.4,30.5-6.5
			c6.2-1.2,12.4-2.4,18.6-3.6c0.5-0.1,0.8-0.7,0.7-1.2C424.6,1486.7,424,1486.4,423.5,1486.5L423.5,1486.5L423.5,1486.5z"/>
		<path class="st12" d="M373.1,1521.9L373.1,1521.9c-0.2-5.1-0.5-10.1-1-15.1c0-0.1,0-0.2,0-0.3c-0.2-2.1-0.4-4.3-0.8-6.4
			c0-0.1,0-0.3,0-0.4c0-0.3-0.1-0.6-0.1-0.9c0-0.1,0-0.3-0.1-0.4c-0.7-5.3-1.6-10.5-2.7-15.7c0-0.2-0.1-0.4-0.1-0.6
			c-0.5-2.2-0.9-4.3-1.5-6.4c-0.1-0.2-0.1-0.4-0.2-0.7c-0.2-0.7-0.4-1.4-0.5-2.1c-0.1-0.2-0.1-0.5-0.2-0.7c-1.2-4.5-2.5-9-3.9-13.5
			c-0.1-0.3-0.2-0.6-0.3-0.8c-0.7-2.1-1.4-4.1-2.2-6.1c-0.1-0.3-0.2-0.6-0.3-0.9c-0.2-0.5-0.4-1.1-0.6-1.6c-0.1-0.3-0.2-0.6-0.4-0.9
			c-1.6-4.4-3.4-8.9-5.4-13.3c-0.2-0.4-0.3-0.7-0.5-1.1c-0.9-1.9-1.7-3.8-2.7-5.7c-0.2-0.4-0.4-0.8-0.5-1.2l0,0
			c-0.3-0.7-0.9-1.2-1.6-1.5c-0.5-0.3-1.1-0.4-1.7-0.5c0.1,0.2,0.2,0.5,0.3,0.7H346l0,0l-9.9,1.3l-13.1,1.4l-0.1,1.8l0.4,9.7
			l-9.4,1.6c-1.3,0.2-2.2,1.4-2,2.7c0.1,0.6,0.4,1.1,0.8,1.5l11.2,9.8l0,0l0.4,9.7l-7.9,1.4c-1.3,0.2-2.2,1.5-1.9,2.8
			c0.1,0.5,0.4,1,0.8,1.4l9.7,8.8l0,0l0.5,10.6l-8.1,1.4c-1.3,0.3-2.1,1.5-1.9,2.8c0.1,0.5,0.4,0.9,0.7,1.3l17.7,10.8h0.1l9.2,7.2
			l-9.3,2.3c-0.9,0.2-1.6,1.1-1.4,2c0.1,0.4,0.3,0.7,0.6,1l24.1,5.8l0,0l1.3,1c2.8,2.1,6.1,3.4,9.6,3.6c1.7,0.1,3.5,0,5.1-0.4
			C373.2,1526.6,373.1,1524.3,373.1,1521.9z M346.2,1425.8C346.4,1426.4,346.2,1425.9,346.2,1425.8L346.2,1425.8z M346.1,1425.8
			c0,0.1,0.1,0.2,0.1,0.3l-9.7,1L346.1,1425.8z"/>
		<path class="st13" d="M374.7,1523.6c-0.2-5.1-3.1-21.7-3.4-23.9c0-0.4-0.1-0.9-0.2-1.3c-0.7-5.4-1.7-10.9-2.8-16.3
			c-0.5-2.4-1-4.7-1.6-7.1c-0.2-0.9-0.4-1.9-0.7-2.8c-1.2-4.8-2.7-9.6-4.2-14.4c-0.8-2.4-1.6-4.7-2.5-7c-0.3-0.9-0.6-1.7-1-2.5
			c-1.8-4.8-3.7-9.6-5.9-14.4c-1-2.3-2.1-4.6-3.2-6.9c0,0,0,0,0-0.1c-0.7-1.2-1.9-1.9-3.3-2c5.6,13.1,10.2,26.7,13.6,40.5
			c3.1,13.2,4.9,52.9,5,57.8c0.1,1.8,0.1,3.7,0.1,5.4c2.8,0.7,5.7,0.8,8.6,0.2C374.1,1527.4,374.6,1525.6,374.7,1523.6z"/>
		<path class="st2" d="M430.1,1411c-13.8,1.9-27.5,4.1-41.2,6.4c-14.3,2.4-28.6,4.8-42.9,7.1c-7.5,1.2-15,2.3-22.6,3.4
			c-0.5,0.1-0.8,0.7-0.7,1.2l0,0c0.1,0.5,0.7,0.8,1.2,0.7l0,0c13.8-1.9,27.5-4.1,41.2-6.4c14.3-2.4,28.5-4.8,42.9-7.1
			c7.5-1.2,15.1-2.3,22.6-3.4c0.5-0.1,0.8-0.7,0.7-1.2l0,0C431.2,1411.2,430.7,1410.9,430.1,1411L430.1,1411L430.1,1411z"/>
		<path class="st2" d="M430.5,1327.2c0.2-3.6,0.4-7.2,0.6-10.8l-1,1h0.2c0.6,0,1-0.4,1-1v-45.8l-0.7,1c1.6-0.6,3.1-1.3,4.6-2.1
			l4.6-2.2c0.5-0.3,0.6-0.9,0.3-1.4c-0.2-0.3-0.5-0.5-0.8-0.5h-30.6l1,1v-24.2l-1,1h8.9c0.6,0,1-0.4,1-1l-2.8-28.6l-4.4-45.3
			l-1-10.5c0-0.6-0.4-1-1-1h-74.2c-0.6,0-1,0.4-1,1l-2.8,28.6l-4.4,45.3l-1,10.5c0,0.6,0.4,1,1,1h8.9l-1-1v24.2l1-1h-30.7
			c-0.6,0-1,0.5-1,1c0,0.3,0.2,0.7,0.5,0.8l4.6,2.2c1.5,0.8,3,1.6,4.6,2.1l-0.7-1v45.8c0,0.6,0.4,1,1,1h0.2l-1-1
			c0.5,7.9,1,15.7,1.4,23.6l0.7-1c-2.1,0.3-5.2,0.2-7,1.5c-1.3,0.9-1.7,2.6-1.1,4c0.5,0.9,1.2,1.6,2.1,2.2l3.6,3
			c0.3,0.3,2.1,2.2,2.6,2.1c-0.2,0-0.1-1-0.2-0.4c0,0.3,0,0.7,0.1,1c0,0.7,0.1,1.5,0.1,2.2s0.1,1.7,0.2,2.5c0.2,2.7,0.3,5.3,0.5,7.9
			l0.7-1l-3.5,0.6c-1.2,0.1-2.4,0.3-3.5,0.8c-1.4,0.8-2.1,2.4-1.6,4c0.4,0.9,1.1,1.7,1.9,2.2l3.6,3c0.9,1,2,1.8,3.1,2.6
			c0.1,0,0.2,0.2,0.3,0.2c-0.3,0-0.1-1.1-0.2-0.2c0,0.7,0,1.4,0.1,2.1c0,0.9,0.1,1.8,0.2,2.7c0.2,2.7,0.3,5.4,0.5,8.1l0.7-1
			c-2.2,0.4-5.1,0.3-7.1,1.3c-1.5,0.7-2.3,2.3-1.9,3.9c0.3,0.9,1,1.7,1.8,2.3l6.8,5.7c0.2,0.2,0.5,0.5,0.8,0.6
			c-0.3-0.2-0.2-1-0.2-0.1c0,0.4,0.1,0.8,0.1,1.2l0.1,2.5c0.2,2.8,0.3,5.6,0.5,8.4l0.7-1c-2.3,0.4-4.7,0.6-7,1.2
			c-3.3,0.8-3.5,4.3-1.2,6.2s4.6,4,7,6c0.4,0.4,0.8,0.7,1.2,1c0,0,0.2,0.2,0.3,0.2s0-0.7-0.2-0.4c-0.3,0.7,0.1,2.3,0.2,3.2
			c0.2,2.8,0.4,5.7,0.5,8.5l0.7-1c-2.4,0.4-4.9,0.7-7.3,1.2c-1.8,0.2-3.1,1.8-3,3.5c0.1,1.6,1.2,2.4,2.2,3.3l6.1,5.3
			c0.1,0.1,2.3,2.1,2.3,2c-0.1,0.1-0.2-1.2-0.2,0c0,0.7,0.1,1.3,0.1,2c0.2,2.9,0.4,5.8,0.5,8.7l0.7-1c-2.2,0.4-4.5,0.6-6.6,1.2
			c-1.8,0.4-3,2.2-2.6,4.1c0.3,1,0.9,1.8,1.7,2.4l6.6,6c0.3,0.3,0.6,0.6,1,0.9c0.1,0,0.1,0.2,0.2,0.2c-0.4-0.2-0.2-0.9-0.2,0
			s0.1,2,0.2,3l0.5,8.1l0.7-1c-2.2,0.4-4.4,0.8-6.7,1.2c-2.5,0.5-4.4,3-2.7,5.4c0.5,0.8,0.4,0.5,1.3,1.1s2,1.2,3,1.8l5.5,3.3
			l-0.5-0.9c0.2,3.6,0,7.1,2.8,9.9c2.3,2.3,5.7,3.6,8.6,5.1l0.2-1.8c-2,0.5-4.8,0.9-4.4,3.6c0.2,1.7,1.3,1.9,2.6,2.2l13,3.1
			c1.3,0.3,2.7,0.6,4.1,1c0.3,0.1-0.2-0.1,0,0s0.6,0.3,0.9,0.5l3,1.6c1.8,1,3.7,1.9,5.6,2.6c3.5,1.2,7.3,1.6,11,1.2
			c5-0.4,9.2-2.6,13.6-4.5l7.7-3.4l11.9-5.2c1.1-0.5,2.3-0.8,3.5-1c1-0.1,1.9-0.7,2.5-1.5c0.3-0.4,0-0.2-0.1-0.1
			c0.2-0.1,0.5-0.3,0.8-0.3c0.6-0.3,1.1-0.5,1.7-0.8c3.1-1.6,5.8-4.2,6.1-7.8c0.1-1.5,0.2-2.9,0.3-4.4c0.3-4,0.5-7.9,0.7-11.9
			l-0.7,1c2.4-0.5,4.8-0.8,7.1-1.4c2.8-0.7,3.5-3.8,1.6-5.9s-4-4.2-6-6.4c-0.3-0.4-0.7-0.8-1.1-1.2c-0.7-0.6,0.1,0.1,0,0.2
			c0.2-0.2,0.1-1.8,0.1-2.1c0-0.6,0.1-1.2,0.1-1.8c0.1-2.5,0.3-5.1,0.5-7.6l-0.7,1c2.3-0.3,4.5-0.8,6.7-1.3c3-0.9,3-4.1,1.1-6.1
			l-6-6.2c-0.2-0.2-0.4-0.5-0.6-0.7c0.2-0.1,0.2,1.3,0.3-0.1l0.3-4.5c0.1-2.3,0.3-4.7,0.4-7l-0.7,1c2.4-0.5,4.9-0.8,7.3-1.4
			c1.9-0.3,3.1-2.1,2.8-3.9c-0.1-0.8-0.5-1.5-1.1-2c-2-2.1-4.2-4.2-6.3-6.3c-0.4-0.4-0.8-0.8-1.2-1.2c0,0-0.2-0.3-0.3-0.3
			s0,0.8,0.2,0.4c0.2-0.7,0.2-1.5,0.1-2.3c0-0.5,0-0.9,0.1-1.4c0.2-2.6,0.3-5.2,0.5-7.8l-0.7,1c2.3-0.4,4.6-0.7,6.9-1.3
			c3.1-0.8,3.5-4,1.4-6.1l-6.3-6.2c-0.2-0.2-0.5-0.6-0.7-0.7c0.4,0.2,0.1,0.9,0.3,0.2c0.1-0.4,0.1-0.8,0.1-1.3
			c0.1-1.1,0.1-2.2,0.2-3.3c0.2-2.5,0.3-5,0.5-7.5l-0.7,1c2.2-0.4,4.7-0.5,6.8-1.3c1.5-0.6,2.5-2.1,2.2-3.7c-0.3-1-0.9-1.9-1.7-2.5
			l-3.3-3.2l-1.6-1.5c-0.3-0.3-0.8-1-1.2-1.1s-0.1-0.5,0,0.2c0.1,0.9,0.1,0,0.2-0.1c0.1-0.7,0.1-1.5,0.1-2.2c0.1-1,0.1-1.9,0.1-2.9
			c0.1-2.6,0.3-5.2,0.5-7.7l-0.7,1l3.5-0.6c1.2-0.1,2.4-0.4,3.5-0.8c1.4-0.8,2.1-2.5,1.6-4c-0.4-0.9-1-1.6-1.8-2.2l-3.4-3.2
			c-0.3-0.3-1.8-2.1-2.2-2.1c0.4,0,0,1,0.3,0.3c0-0.2,0-0.5,0-0.7l0.1-2.4c0-0.8,0.1-1.6,0.1-2.3c0.2-2.7,0.4-5.4,0.5-8.1l-0.7,1
			c2.7-0.5,9.8-0.7,8.1-5.4c-0.5-1.4-2.2-2.5-3.3-3.5l-3.7-3.4c-0.9-0.9-2.4,0.5-1.4,1.4c2.1,1.8,4.1,3.6,6,5.6
			c1.5,1.7-0.6,2.4-2,2.6l-4.2,0.8c-0.4,0.1-0.7,0.5-0.7,1c-0.1,2.8-0.3,5.5-0.5,8.3c-0.1,1.1-0.1,2.2-0.2,3.4s-0.4,2.2,0.2,3
			c1.7,2.4,4.6,3.8,6.4,6.1c1.5,1.9-1.1,2.4-2.5,2.6l-4.3,0.8c-0.4,0.1-0.7,0.5-0.7,1c-0.3,4.1-0.5,8.2-0.8,12.3
			c-0.2,0.7,0,1.3,0.4,1.9c0.8,0.8,1.6,1.6,2.5,2.4l3.1,3.1c0.7,0.7,1.8,1.4,1.5,2.4c-0.4,1.2-2.8,1.3-3.9,1.5l-3.7,0.7
			c-0.4,0.1-0.7,0.5-0.7,1c-0.1,1.9-0.2,3.8-0.3,5.7c-0.1,1.4-0.2,2.7-0.3,4.1c-0.1,0.9-0.2,1.8-0.2,2.7c0.1,0.7,0.5,1,1,1.5l3,2.9
			c1,1,6.1,4.7,3.2,6c-1.2,0.4-2.4,0.6-3.6,0.7l-3.6,0.7c-0.4,0.1-0.7,0.5-0.7,1c-0.1,2.3-0.3,4.6-0.4,6.9c0,0.7-0.1,1.4-0.1,2.1
			c-0.1,1-0.5,2.5,0.1,3.4c0.5,0.6,1,1.1,1.5,1.5l3.2,3.2c1.1,1.1,5.8,4.5,2.3,5.6c-2.4,0.6-4.9,1.1-7.4,1.4c-0.4,0.1-0.7,0.5-0.7,1
			c-0.2,2.4-0.3,4.9-0.5,7.3c-0.2,1.6-0.3,3.2-0.3,4.8c0.1,0.9,0.7,1.3,1.3,1.9l3.7,3.9c0.9,0.8,1.8,1.6,2.5,2.6
			c1.2,2.2-2.1,2.4-3.4,2.6l-4.2,0.8c-0.4,0.1-0.7,0.5-0.7,1c-0.1,2.2-0.3,4.4-0.4,6.7l-0.1,2.6c-0.1,1-0.4,2.3,0.1,3.1
			c1.1,1.8,3.1,3.3,4.5,4.8c1,1.1,5.5,4.5,2.3,5.7c-2.4,0.6-4.8,1.1-7.2,1.5c-0.4,0.1-0.7,0.5-0.7,1c-0.2,3-0.4,6.1-0.5,9.1
			s0.2,7.6-1.5,10c-1.1,1.5-2.6,2.6-4.3,3.4c-0.9,0.3-1.7,0.7-2.5,1.2c-0.4,0.3-0.3,0.8-1,1.1c-0.4,0.1-0.8,0.2-1.3,0.2
			c-0.8,0.1-1.5,0.3-2.2,0.6c-3,1.2-6,2.6-8.9,4c-5.7,2.5-11.5,5.1-17.2,7.6c-6.2,2.7-13.2,2.7-19.4,0c-2.6-1.2-5-3-7.7-3.9
			c-3.7-1.2-7.7-1.8-11.5-2.7l-5.9-1.4c-0.1,0-1-0.1-1.1-0.2c-0.6-0.9,2.9-1.6,3.2-1.6c0.5-0.1,0.8-0.7,0.7-1.2
			c-0.1-0.3-0.2-0.5-0.5-0.6c-2.1-1.1-4.4-2.1-6.4-3.4c-2.1-1.2-3.5-3.3-3.7-5.6c-0.1-1.3-0.1-2.5-0.2-3.8c-0.2-1.9-3.3-3-4.8-3.9
			l-3.9-2.4c-0.3-0.2-0.6-0.3-0.9-0.6c-0.2-0.2,0.2,0.3,0,0c-0.5-0.6-0.5-1.4,0-1.9c0.8-0.8,3-0.8,4.1-1l4-0.7
			c0.4-0.1,0.7-0.5,0.7-1c-0.1-2-0.2-4-0.4-5.9c-0.1-1.2-0.1-2.4-0.2-3.6c0.1-0.9,0-1.8-0.3-2.7c-0.4-0.5-0.9-1-1.4-1.3l-3.2-2.9
			l-3-2.8c-0.3-0.3-0.6-0.6-0.9-0.8c-0.7-0.8-0.9-1.8,0.2-2.6c0.8-0.6,2.7-0.5,3.7-0.7l3.3-0.6c0.4-0.1,0.8-0.5,0.7-1
			c-0.1-2.1-0.3-4.3-0.4-6.4l-0.2-4.2c0-0.6-0.1-1.2-0.5-1.6c-1.6-1.9-4-3.5-6-5.2l-2.3-2c-1.1-1-2.7-2.7-0.4-3.5
			c1.4-0.4,2.8-0.6,4.3-0.7l3.2-0.6c0.4-0.1,0.8-0.5,0.7-1c-0.1-2.2-0.3-4.3-0.4-6.5l-0.2-3c-0.1-0.9,0.1-2.3-0.5-3.1
			c-0.5-0.5-1.1-1-1.7-1.4l-3.5-3c-1-0.8-6-4.1-3.6-5.6c1-0.6,2.9-0.6,3.9-0.7l3.7-0.6c0.4-0.1,0.7-0.5,0.7-1
			c-0.1-2.1-0.2-4.2-0.4-6.3c0-2.1-0.1-4.2-0.4-6.3c-0.2-0.8-0.5-1-1.1-1.4l-3.1-2.6l-3.3-2.8c-0.7-0.6-1.8-1.2-1.7-2.2
			c0.2-1.5,2.7-1.4,3.8-1.6l3.9-0.6c0.4-0.1,0.8-0.5,0.7-1c-0.2-4.1-0.5-8.2-0.8-12.3c0.1-0.7-0.2-1.4-0.7-1.9
			c-0.9-0.8-1.9-1.6-2.8-2.3l-3.5-2.9c-0.6-0.5-1.6-1.1-1.8-1.8c-0.7-2.3,5.9-2.5,7.3-2.7c0.4-0.1,0.7-0.5,0.7-1
			c-0.2-4-0.5-8-0.7-12c0-0.8,0.1-2-0.4-2.6c-0.7-0.7-1.5-1.3-2.3-1.9l-3.5-2.8c-0.7-0.5-1.3-1-1.9-1.6c-1.5-1.9,1.5-2.3,2.8-2.5
			l3.8-0.6c0.4-0.1,0.7-0.5,0.7-1c-0.4-7.9-0.9-15.7-1.4-23.6c0-0.6-0.4-1-1-1H314l1,1v-45.8c0-0.5-0.3-0.9-0.7-1
			c-1.5-0.6-3-1.3-4.4-2.1l-4.3-2.1l-0.5,1.9h30.6c0.6,0,1-0.4,1-1V1243c0-0.6-0.4-1-1-1h-8.9l1,1l2.8-28.6l4.4-45.3l1-10.5l-1,1
			h74.2l-1-1l2.8,28.6l4.4,45.3l1,10.5l1-1h-8.9c-0.6,0-1,0.4-1,1v24.2c0,0.6,0.4,1,1,1h30.6l-0.5-1.9l-4.3,2.1
			c-1.4,0.8-2.9,1.5-4.4,2.1c-0.4,0.1-0.7,0.5-0.7,1v45.8l1-1H430c-0.6,0-1,0.4-1,1c-0.2,3.6-0.4,7.2-0.6,10.8
			C428.4,1328.4,430.4,1328.4,430.5,1327.2z"/>
		<path class="st15" d="M952.2,1026.6c30.1,9.9,77.7,48.9,120.1,48.3c0,0,38.9,7.3,49.9-28.3c7-11.6,7.4-25.9,1.2-37.9
			c-3.8-7.3-5.1-15.6-3.5-23.7c2.6-12.9,13.4-11.9,17.1-48.8c11-23.3,8.9-43.4,8.1-49c7.7-8.8,3.3-39.2,2.9-45.4h-0.1
			c-0.7-20-12.2-66-24.4-77.8c-87.7,10.9-176.9-15.3-199.1-22.4c-1.7,7.9-3.7,15.6-6.2,23.3l-11.9,54l-0.1,0.1
			c-0.3,2-4,31.8-2.1,31.2c0.1,4.3-0.1,12.9-0.6,20.3c-4.3-9.4-7.2-22.9-7.1-42c0-14.2,3.1-13.7,11.5-59.2c1.5-8.5,15.8-43.2,9-72.5
			c-0.7-2.9-1.7-5.7-3.2-8.3c-1-0.2-2.1-0.3-3.1-0.2c-1.6,0.2-3.1-0.1-4.6-0.7c-15.7-7-21.9-4.7-32.9-10.7
			c-4.2,5.8-17,27.8-35.7,33.8c-25.8,8.2-46.5-5.6-54.5-26.2c-18.3-10.5-13.6-31.9-31-31.9c-6.4,0-14.7,3.8-23.9,10.8
			c-3,2.2-4.8,5.6-5.1,9.3c-1.8,16.9,18.9,33.2,19.7,39.7c0.5,5.1,0.5,10.2-0.2,15.2c11,19.4,22.5,46.6,18.4,68.7
			c-1.9,10.3,1.4,31.9,3.8,53.5c1.1,9.8,1.2,19.6,0.2,29.4c-2,19.5-3,58.4,19.7,70.1c0,0,47.2,25.9,82.2,38
			C889.5,995.3,913,1013.7,952.2,1026.6z"/>
		<path class="st3" d="M938,887c-7.2,3.7-20,4-29.5-8.2c1.5-8.9,1.5-22.2,1.4-28.5c5.1,0,7.4-0.5,10.2,1.1
			c0.8,8.7,8.9,11.5,17.4,10.8c0.3,0.3,0.6,0.5,1,0.7C937.9,870.9,937.8,878.9,938,887z"/>
		<path class="st3" d="M1104.9,937.5c-5.4,4.9-13.8,4.6-16.6-9.6c3-13.2,4.4-29.5,5-37.4c4.6,0.5,9.3,0.5,13.9,0
			C1107.4,902.5,1109.4,926.7,1104.9,937.5z"/>
		<path class="st3" d="M1143.6,845.3c0.9,13.9,1.7,34.1-2.8,37.9c-2.5,0.4-5.4,0.2-6-0.2c0.7-6.1-0.3-22.7-1.2-35
			C1137.4,842.7,1141.1,842.5,1143.6,845.3z"/>
		<path class="st3" d="M1131.4,887.8c2.3,1.6,5.6,1.7,8.1,1.6c0.9,7.3,1.7,27.2-10.3,49.1c-1.1,0.3-2.2,0.1-3.2-0.4
			c5.6-14.6,4-45.9,4.6-49.8l0,0C1130.9,888.2,1131.2,888,1131.4,887.8z"/>
		<path class="st3" d="M1127.6,846.8c1,13,2,29.6,1.4,35.1c-2.2,2.3-5.3,3.4-11.1,2.3c1.4-9.7-2.9-29.5-3.1-35.3
			C1119,845.1,1123.5,844.6,1127.6,846.8z"/>
		<path class="st3" d="M1114.2,889.5c3.3,1,6.8,1.4,10.2,1c-1.8,15.5-2.8,42.7-7.2,51.5c-2.4,2-5.3,1.3-6.8-2.1
			c6.6-13.1,3.6-41.2,2.9-50.2L1114.2,889.5z"/>
		<path class="st3" d="M1086.9,850c6.3-14.3,14.6-15.5,21.9-6.9c-0.6,8.3,4.9,33.1,3.4,40.6c-7.6,1.3-17.9,2-25.3-1.1V850z"/>
		<path class="st3" d="M1087.5,889.4c-0.9,13.2-3,29.7-5.7,40.7c-7.4,9-16.1,8.3-19.4-3c0-9.7,0.9-23.3,2.3-36
			c6.5-0.1,12.9-1.1,19-3.1C1084.9,888.6,1086.2,889,1087.5,889.4z"/>
		<path class="st3" d="M1056,850.2c8.6-4.9,17.5-2.6,25.1,3.8v28.4c-9,2.5-23.4,4.7-27.5-1.7L1056,850.2z"/>
		<path class="st3" d="M1058.9,890.3c-1.5,13.7-2.3,24.8-2.3,33.4c-4,5.3-7.5,5.9-7.5,5.9c-7.7-1-12.3-9-14.6-14.7
			c1.9-9.7,3.2-19.5,4-29.3c3.6,0,7.1-0.2,10.6-0.8C1051.4,887.8,1054.9,889.5,1058.9,890.3z"/>
		<path class="st3" d="M1029,849.6c8.1-7.2,15.7-7.3,21.4-2.6l-2.6,31.8c-7.4,1-18.7,1.6-20.7-2.9L1029,849.6z"/>
		<path class="st3" d="M989.8,841.8c10.7-11.2,23.2-8,33.7,2.6l-2.1,28.7c-5.2-0.4-12.4-1.4-13.3-3.5l-1.1-2.5
			C983.7,875.7,987.7,861.8,989.8,841.8z"/>
		<path class="st3" d="M989.6,874.2c4.2,1.8,9.6,1.6,14.8,0.1c4,3.7,12.6,4.7,17.8,5c2,3.4,6,5,10.4,5.7
			c-0.8,10.3-2.3,20.6-4.4,30.7c-14.4,15.8-33.2,2.2-40.4-17.7C988.1,890.1,988.6,882.1,989.6,874.2z"/>
		<path class="st3" d="M946,831.8c15.2-9.8,29-7.1,38.8,4.8l-2.2,23.6c-4.7,2.9-10,5.1-14.6,3c-11.5-14-20.4-3.6-26-5L946,831.8z"/>
		<path class="st3" d="M911.3,826.7c11-6.1,21.8-6.7,29,1.4l-3.9,28c-9.4,0.6-10.6-2.9-10.5-7.6c-6.8-6.5-10.8-4-16.4-4.4
			L911.3,826.7z"/>
		<path class="st12" d="M954.4,967.8c-19.5,0-35.4-15.8-35.4-35.3s15.8-35.4,35.3-35.4s35.4,15.8,35.4,35.3
			c0,14.3-8.6,27.3-21.8,32.7C963.6,966.8,959,967.8,954.4,967.8z"/>
		<path class="st2" d="M954.4,897.8c19.1,0,34.7,15.5,34.7,34.6s-15.5,34.7-34.6,34.7s-34.7-15.5-34.7-34.6c0-14,8.4-26.7,21.4-32
			C945.4,898.7,949.8,897.8,954.4,897.8 M954.4,896.4L954.4,896.4c-19.9,0-36,16.1-36,36.1s16.1,36,36.1,36c19.9,0,36-16.1,36-36.1
			c0-4.7-0.9-9.4-2.7-13.8C982.2,905.1,969,896.3,954.4,896.4z"/>
		<path class="st13" d="M978.9,907.9c-13.5-13.5-35.5-13.5-49,0s-13.5,35.5,0,49l0,0L978.9,907.9z"/>
		<path class="st16" d="M977.3,938.2l-17.5-0.2l-0.2,17.5l-11-0.2l0.2-17.5l-17.4-0.2l0.2-11l17.4,0.2l0.2-17.4l11,0.2L960,927
			l17.5,0.2L977.3,938.2z"/>
		<path class="st2" d="M876.2,1686.3c0-6.4-4.8-11.7-10.8-11.7h-14.2v-14.5c0-0.5-0.4-0.9-0.9-0.9l0,0h-11.1c-0.5,0-0.9,0.4-0.9,0.9
			l0,0v14.5h-57v-14.5c0-0.5-0.4-0.9-0.9-0.9h-11.2c-0.5,0-0.9,0.4-0.9,0.9l0,0v14.5h-14.2c-5.9,0-10.8,5.2-10.8,11.7v85.4
			c0,6.4,4.8,11.7,10.8,11.7h111.3c5.9,0,10.8-5.2,10.8-11.7L876.2,1686.3L876.2,1686.3z M840.1,1661.1h9.3v28.9h-9.3V1661.1z
			 M770.1,1661.1h9.3v28.9h-9.3V1661.1z M874.3,1771.7c0,5.4-4,9.9-8.9,9.9H754.2c-4.9,0-8.9-4.4-8.9-9.9V1702h129.1L874.3,1771.7z
			 M874.3,1700.2H745.2v-13.8c0-5.4,4-9.9,8.9-9.9h14.2v14.5c0,0.5,0.4,0.9,0.9,0.9l0,0h11.1c0.5,0,0.9-0.4,0.9-0.9v-14.5h57v14.5
			c0,0.5,0.4,0.9,0.9,0.9l0,0h11.1c0.5,0,0.9-0.4,0.9-0.9l0,0v-14.5h14.2c4.9,0,8.9,4.4,8.9,9.9L874.3,1700.2z"/>
		<path class="st17" d="M833.6,1725.4c-0.2,0-0.5,0.1-0.6,0.3l-30.5,31l-15.7-15.4c-0.2-0.2-0.4-0.3-0.6-0.3l0,0
			c-0.2,0-0.5,0.1-0.6,0.3c-0.2,0.2-0.3,0.4-0.3,0.6s0.1,0.5,0.3,0.7l16.3,16.1c0.4,0.3,0.9,0.3,1.3,0l31.2-31.7
			c0.2-0.2,0.3-0.4,0.3-0.6s-0.1-0.5-0.3-0.7C834,1725.5,833.8,1725.5,833.6,1725.4L833.6,1725.4z"/>
		<path class="st2" d="M1027.8,1686.3c0-6.4-4.8-11.7-10.8-11.7h-14.2v-14.5c0-0.5-0.4-0.9-0.9-0.9l0,0h-11.1
			c-0.5,0-0.9,0.4-0.9,0.9l0,0v14.5h-57v-14.5c0-0.5-0.4-0.9-0.9-0.9l0,0h-11.2c-0.5,0-0.9,0.4-0.9,0.9l0,0v14.5h-14.2
			c-5.9,0-10.8,5.2-10.8,11.7v85.4c0,6.4,4.8,11.7,10.8,11.7H1017c5.9,0,10.8-5.2,10.8-11.7V1686.3L1027.8,1686.3z M991.8,1661.1
			h9.3v28.9h-9.3V1661.1z M921.8,1661.1h9.3v28.9h-9.3V1661.1z M1026,1771.7c0,5.4-4,9.9-8.9,9.9H905.8c-4.9,0-8.9-4.4-8.9-9.9V1702
			H1026V1771.7z M1026,1700.2H896.9v-13.8c0-5.4,4-9.9,8.9-9.9H920v14.5c0,0.5,0.4,0.9,0.9,0.9l0,0H932c0.5,0,0.9-0.4,0.9-0.9l0,0
			v-14.5h57v14.5c0,0.5,0.4,0.9,0.9,0.9l0,0h11.2c0.5,0,0.9-0.4,0.9-0.9l0,0v-14.5h14.2c4.9,0,8.9,4.4,8.9,9.9L1026,1700.2
			L1026,1700.2z"/>
		<path class="st17" d="M985.2,1725.4c-0.2,0-0.5,0.1-0.6,0.3l-30.5,31l-15.7-15.4c-0.2-0.2-0.4-0.3-0.6-0.3l0,0
			c-0.2,0-0.5,0.1-0.6,0.3c-0.2,0.2-0.3,0.4-0.3,0.6s0.1,0.5,0.3,0.7l16.3,16.1c0.4,0.3,0.9,0.3,1.3,0L986,1727
			c0.2-0.2,0.3-0.4,0.3-0.6s-0.1-0.5-0.3-0.7C985.7,1725.5,985.4,1725.5,985.2,1725.4L985.2,1725.4z"/>
		<path class="st2" d="M876.2,1832.4c0-6.4-4.8-11.7-10.8-11.7h-14.2v-14.5c0-0.5-0.4-0.9-0.9-0.9l0,0h-11.1c-0.5,0-0.9,0.4-0.9,0.9
			l0,0v14.5h-57v-14.5c0-0.5-0.4-0.9-0.9-0.9h-11.2c-0.5,0-0.9,0.4-0.9,0.9l0,0v14.5h-14.2c-5.9,0-10.8,5.2-10.8,11.7v85.4
			c0,6.4,4.8,11.7,10.8,11.7h111.3c5.9,0,10.8-5.2,10.8-11.7L876.2,1832.4L876.2,1832.4z M840.1,1807.1h9.3v28.9h-9.3V1807.1z
			 M770.1,1807.1h9.3v28.9h-9.3V1807.1z M874.3,1917.8c0,5.4-4,9.9-8.9,9.9H754.2c-4.9,0-8.9-4.4-8.9-9.9v-69.7h129.1L874.3,1917.8z
			 M874.3,1846.2H745.2v-13.8c0-5.4,4-9.9,8.9-9.9h14.2v14.5c0,0.5,0.4,0.9,0.9,0.9l0,0h11.1c0.5,0,0.9-0.4,0.9-0.9v-14.5h57v14.5
			c0,0.5,0.4,0.9,0.9,0.9l0,0h11.1c0.5,0,0.9-0.4,0.9-0.9l0,0v-14.5h14.2c4.9,0,8.9,4.4,8.9,9.9L874.3,1846.2z"/>
		<path class="st17" d="M833.6,1871.5c-0.2,0-0.5,0.1-0.6,0.3l-30.5,31l-15.7-15.4c-0.2-0.2-0.4-0.3-0.6-0.3l0,0
			c-0.2,0-0.5,0.1-0.6,0.3c-0.4,0.4-0.4,0.9,0,1.3l16.3,16.1c0.4,0.3,0.9,0.3,1.3,0l31.2-31.7c0.4-0.4,0.4-0.9,0-1.3
			C834.1,1871.5,833.8,1871.5,833.6,1871.5L833.6,1871.5z"/>
		<path class="st2" d="M1027.8,1832.4c0-6.4-4.8-11.7-10.8-11.7h-14.2v-14.5c0-0.5-0.4-0.9-0.9-0.9l0,0h-11.1
			c-0.5,0-0.9,0.4-0.9,0.9l0,0v14.5h-57v-14.5c0-0.5-0.4-0.9-0.9-0.9l0,0h-11.2c-0.5,0-0.9,0.4-0.9,0.9l0,0v14.5h-14.2
			c-5.9,0-10.8,5.2-10.8,11.7v85.4c0,6.4,4.8,11.7,10.8,11.7H1017c5.9,0,10.8-5.2,10.8-11.7V1832.4L1027.8,1832.4z M991.8,1807.1
			h9.3v28.9h-9.3V1807.1z M921.8,1807.1h9.3v28.9h-9.3V1807.1z M1026,1917.8c0,5.4-4,9.9-8.9,9.9H905.8c-4.9,0-8.9-4.4-8.9-9.9
			v-69.7H1026V1917.8z M1026,1846.2H896.9v-13.8c0-5.4,4-9.9,8.9-9.9H920v14.5c0,0.5,0.4,0.9,0.9,0.9l0,0H932c0.5,0,0.9-0.4,0.9-0.9
			l0,0v-14.5h57v14.5c0,0.5,0.4,0.9,0.9,0.9l0,0h11.2c0.5,0,0.9-0.4,0.9-0.9l0,0v-14.5h14.2c4.9,0,8.9,4.4,8.9,9.9L1026,1846.2
			L1026,1846.2z"/>
		<path class="st18" d="M752.5,2826.1c0-31.2,19.1-56.5,47.5-56.5c14.2,0,28.3,8.4,40.2,8.4s26-8.4,40.2-8.4
			c28.4,0,47.5,25.3,47.5,56.5c0,40.9-11.9,55.4-20.6,64.4c-18.8,19.5-115.4,19.5-134.3,0C764.4,2881.5,752.5,2867,752.5,2826.1z"/>
		<path class="st2" d="M840.2,2776.6c-5.5,0-11.5-1.9-17.9-3.9c-7.2-2.2-14.7-4.6-22.3-4.6c-13.8,0-26.9,6.2-35.5,17.1
			c-8.7,10.6-13.4,25.1-13.4,40.9c0,38.4,10.1,54.2,21,65.4c7,7.3,28.6,15,68.2,15s61.1-7.8,68.2-15c10.9-11.3,21-27,21-65.4
			c0-15.7-4.8-30.2-13.4-40.9c-8.6-10.8-21.7-17.1-35.5-17.1c-0.5,0-1,0-1.5,0.1c-7.2,0.3-14.5,2.5-20.8,4.5l-0.2-0.5l0.1,0.5
			C851.8,2774.7,845.7,2776.6,840.2,2776.6z M880.5,2771c26.7,0,46,23.1,46,55c0,42.6-13.1,56.1-20.2,63.4
			c-8.2,8.5-34.7,14.2-66.1,14.2s-57.9-5.7-66.1-14.2c-7-7.3-20.2-20.9-20.2-63.4c0-31.9,19.4-55,46-55c7.2,0,14.4,2.2,21.5,4.4
			c2.9,0.9,5.4,1.6,7.8,2.3l7,1.9l-7,2c-8.1,2.3-13,3.4-15.9,3.4c-0.8-0.1-1.5,0.5-1.6,1.3s0.5,1.5,1.3,1.6c0.1,0,0.2,0,0.2,0
			c5.9,0,17.6-3.7,31.2-7.9C858.1,2775.7,873.3,2771,880.5,2771L880.5,2771z"/>
		<path class="st2" d="M1178.5,1832.4c0-6.4-4.8-11.7-10.8-11.7h-14.2v-14.5c0-0.5-0.4-0.9-0.9-0.9l0,0h-11.1
			c-0.5,0-0.9,0.4-0.9,0.9l0,0v14.5h-57v-14.5c0-0.5-0.4-0.9-0.9-0.9l0,0h-11.1c-0.5,0-0.9,0.4-0.9,0.9l0,0v14.5h-14.2
			c-5.9,0-10.8,5.2-10.8,11.7v85.4c0,6.4,4.8,11.7,10.8,11.7h111.3c5.9,0,10.8-5.2,10.8-11.7L1178.5,1832.4z M1142.4,1807.1h9.3
			v28.9h-9.3V1807.1z M1072.4,1807.1h9.3v28.9h-9.3V1807.1z M1176.6,1917.8c0,5.4-4,9.9-8.9,9.9h-111.2c-4.9,0-8.9-4.4-8.9-9.9
			v-69.7h129.1L1176.6,1917.8z M1176.6,1846.2h-129.1v-13.8c0-5.4,4-9.9,8.9-9.9h14.2v14.5c0,0.5,0.4,0.9,0.9,0.9l0,0h11.1
			c0.5,0,0.9-0.4,0.9-0.9l0,0v-14.5h57v14.5c0,0.5,0.4,0.9,0.9,0.9l0,0h11.1c0.5,0,0.9-0.4,0.9-0.9l0,0v-14.5h14.2
			c4.9,0,8.9,4.4,8.9,9.9L1176.6,1846.2z"/>
		<path class="st2" d="M1178.5,1686.3c0-6.4-4.8-11.7-10.8-11.7h-14.2v-14.5c0-0.5-0.4-0.9-0.9-0.9l0,0h-11.1
			c-0.5,0-0.9,0.4-0.9,0.9l0,0v14.5h-57v-14.5c0-0.5-0.4-0.9-0.9-0.9l0,0h-11.1c-0.5,0-0.9,0.4-0.9,0.9l0,0v14.5h-14.2
			c-5.9,0-10.8,5.2-10.8,11.7v85.4c0,6.4,4.8,11.7,10.8,11.7h111.3c5.9,0,10.8-5.2,10.8-11.7L1178.5,1686.3z M1142.4,1661.1h9.3
			v28.9h-9.3V1661.1z M1072.4,1661.1h9.3v28.9h-9.3V1661.1z M1176.6,1771.7c0,5.4-4,9.9-8.9,9.9h-111.2c-4.9,0-8.9-4.4-8.9-9.9V1702
			h129.1L1176.6,1771.7z M1176.6,1700.2h-129.1v-13.8c0-5.4,4-9.9,8.9-9.9h14.2v14.5c0,0.5,0.4,0.9,0.9,0.9l0,0h11.1
			c0.5,0,0.9-0.4,0.9-0.9l0,0v-14.5h57v14.5c0,0.5,0.4,0.9,0.9,0.9l0,0h11.1c0.5,0,0.9-0.4,0.9-0.9l0,0v-14.5h14.2
			c4.9,0,8.9,4.4,8.9,9.9L1176.6,1700.2z"/>
		<path class="st17" d="M1135.8,1725.4c-0.2,0-0.5,0.1-0.6,0.3l-30.5,31l-15.7-15.4c-0.2-0.2-0.4-0.3-0.6-0.3l0,0
			c-0.2,0-0.5,0.1-0.6,0.3c-0.2,0.2-0.3,0.4-0.3,0.6s0.1,0.5,0.3,0.7l16.3,16.1c0.4,0.3,0.9,0.3,1.3,0l31.1-31.7
			c0.2-0.2,0.3-0.4,0.3-0.6s-0.1-0.5-0.3-0.7C1136.3,1725.5,1136.1,1725.5,1135.8,1725.4L1135.8,1725.4z"/>
		<path class="st2" d="M1328.8,1686.3c0-6.4-4.8-11.7-10.8-11.7h-14.2v-14.5c0-0.5-0.4-0.9-0.9-0.9l0,0h-11.1
			c-0.5,0-0.9,0.4-0.9,0.9l0,0v14.5h-57v-14.5c0-0.5-0.4-0.9-0.9-0.9l0,0h-11.1c-0.5,0-0.9,0.4-0.9,0.9l0,0v14.5h-14.2
			c-5.9,0-10.8,5.2-10.8,11.7v85.4c0,6.4,4.8,11.7,10.8,11.7H1318c5.9,0,10.8-5.2,10.8-11.7V1686.3z M1292.7,1661.1h9.3v28.9h-9.3
			V1661.1z M1222.7,1661.1h9.3v28.9h-9.3V1661.1z M1327,1771.7c0,5.4-4,9.9-8.9,9.9h-111.3c-4.9,0-8.9-4.4-8.9-9.9V1702H1327V1771.7
			z M1327,1700.2h-129.2v-13.8c0-5.4,4-9.9,8.9-9.9h14.2v14.5c0,0.5,0.4,0.9,0.9,0.9l0,0h11.2c0.5,0,0.9-0.4,0.9-0.9l0,0v-14.5h57
			v14.5c0,0.5,0.4,0.9,0.9,0.9l0,0h11.2c0.5,0,0.9-0.4,0.9-0.9l0,0v-14.5h14.1c4.9,0,8.9,4.4,8.9,9.9L1327,1700.2z"/>
		<path class="st17" d="M1286.2,1725.4c-0.2,0-0.5,0.1-0.6,0.3l-30.5,31l-15.7-15.4c-0.2-0.2-0.4-0.3-0.6-0.3l0,0
			c-0.2,0-0.5,0.1-0.6,0.3c-0.2,0.2-0.3,0.4-0.3,0.6s0.1,0.5,0.3,0.7l16.3,16.1c0.4,0.3,0.9,0.3,1.3,0l31.2-31.7
			c0.2-0.2,0.3-0.4,0.3-0.6s-0.1-0.5-0.3-0.7C1286.6,1725.5,1286.4,1725.4,1286.2,1725.4L1286.2,1725.4z"/>
		<path class="st3" d="M223.8,1263.1c15.3,0,19.8,25.2,23.4,45.4c2.9,16.1,4.9,27.8,11.2,27.8c5.8,0,11.6-5.2,17.5-15.4
			c6.2-10.8,12.2-27.3,17.8-48.9c8.9-33.7,14.3-70.9,14.3-86.1c0-4.5-0.4-9.1-1.3-13.5c-1.7-9.1-5.6-17.7-11.3-24.9
			c-5-6.3-11.7-11-19.2-13.7c-4.5-1.6-9.3-2.4-14-2.3c-0.4,0-0.9,0-1.4,0c-6.8,0.3-13.6,2.4-19.6,4.2s-11.9,3.7-17.2,3.7
			s-11.1-1.8-17.2-3.7c-6.8-2.1-13.9-4.3-21-4.3c-13-0.1-25.2,5.8-33.3,16c-8.1,10-12.6,23.7-12.6,38.4c0,15.1,5.5,52.3,14.3,86.1
			c5.7,21.6,11.7,38.1,17.8,48.9c5.8,10.2,11.7,15.4,17.4,15.4c6.2,0,8.3-11.7,11.1-27.8C204,1288.2,208.5,1263.1,223.8,1263.1z
			 M194.8,1327.1c-1.6,5.1-3.4,7.5-5.5,7.5c-15,0-27.5-39.5-33.7-63c-8.5-32.6-14.3-70.6-14.3-85.7c0-30.6,18.6-52.8,44.3-52.8
			c6.9,0,13.8,2.1,20.5,4.2c2.8,0.9,5.1,1.6,7.4,2.2l8.6,2.3l-8.5,2.4c-7.6,2.2-12.4,3.2-15.2,3.2c-0.4,0-0.8,0.4-0.8,0.8l0,0
			c0,0.4,0.4,0.8,0.8,0.8c5.5,0,16.6-3.5,29.5-7.5s27.2-8.5,34.1-8.5c25.6,0,44.3,22.2,44.3,52.8c0,15.1-5.7,53.1-14.3,85.7
			c-6.2,23.6-18.8,63-33.7,63c-2.1,0-3.9-2.4-5.5-7.5c-1.6-4.9-2.8-11.7-4-18.9c-3.7-20.8-8.3-46.8-25-46.8s-21.3,25.9-25,46.7
			C197.6,1315.4,196.4,1322.2,194.8,1327.1L194.8,1327.1z"/>
		<polyline class="st15" points="953.3,3000.1 883.8,2988.8 879,2939.9 804.8,2939.9 799.9,2989.6 735.8,2999.3 		"/>
		<path class="st19" d="M968.3,2721.2c-3.5-1.4-7.5,0.4-8.9,3.9c-1,2.5-0.4,5.4,1.5,7.4l-51.6,31.1l21.5,8.3l31.8-38.2
			c0.2,0.2,0.5,0.3,0.8,0.5c3.6,1.4,7.5-0.4,8.9-3.9C973.7,2726.6,971.9,2722.6,968.3,2721.2L968.3,2721.2z"/>
		<path class="st19" d="M892.9,2757.2l-17.5-57.7c3.8-0.3,6.6-3.6,6.3-7.3c-0.3-3.8-3.6-6.6-7.3-6.3s-6.6,3.6-6.3,7.3
			c0.2,2.7,1.9,5,4.4,5.9c0.3,0.1,0.6,0.1,0.9,0.1l-2,49.7L892.9,2757.2z"/>
		<polygon class="st20" points="899,2765.9 867.6,2753.8 861.7,2762.7 895.2,2775.6 928.8,2788.5 930.3,2778 		"/>
		<path class="st21" d="M901.1,2760.4l32.5-18.2l-8.5-41.4c3.7,0.8,7.4-1.5,8.3-5.2c0.8-3.7-1.5-7.4-5.2-8.3
			c-3.7-0.8-7.4,1.5-8.3,5.2c-0.7,2.9,0.7,5.9,3.2,7.5l-34,25.1L901.1,2760.4z"/>
		<path class="st12" d="M961.7,1870.8c-1.3,0-2.6,0.2-3.8,0.6c-1,0.3-2,0.8-2.8,1.4c-0.7,0.5-1.4,1.1-1.9,1.7c-0.4,0.5-0.7,1-1,1.5
			c-0.5-0.1-1-0.3-1.4-0.6c-0.4-0.3-0.6-0.8-0.6-1.3c0-0.4,0.1-0.8,0.2-1.2c0.2-0.4,0.4-0.8,0.7-1.1c0.3-0.4,0.6-0.7,1-1
			c0.6-0.5,1.3-1,2-1.3c1-0.5,2.1-0.9,3.2-1.2c1.5-0.4,3-0.5,4.5-0.5c2,0,4.1,0.2,6,0.9c1.5,0.5,2.8,1.2,4,2.3c1,0.9,1.7,2,2.1,3.2
			c0.4,1.1,0.6,2.3,0.6,3.6c0,1.2-0.2,2.4-0.6,3.6c-0.4,1-0.9,1.9-1.6,2.8c-0.7,0.8-1.5,1.6-2.4,2.2c-0.9,0.7-1.9,1.3-3,1.9
			c-0.8,0.5-1.5,1-2.3,1.6c-0.5,0.4-0.9,0.9-1.3,1.4c-0.3,0.5-0.5,1-0.6,1.6c-0.1,0.7-0.1,1.3-0.1,2h-3.5c0-1,0.1-1.9,0.2-2.8
			c0.1-0.8,0.4-1.5,0.7-2.2c0.4-0.7,0.8-1.2,1.4-1.7c0.7-0.6,1.5-1.1,2.3-1.6c1.1-0.6,2.2-1.3,3.3-2.1c0.8-0.6,1.5-1.2,2.1-2
			c0.5-0.6,0.9-1.3,1.1-2c0.2-0.8,0.4-1.6,0.3-2.4c0-0.9-0.2-1.9-0.5-2.8c-0.4-0.9-0.9-1.6-1.6-2.2c-0.8-0.7-1.8-1.2-2.8-1.5
			C964.5,1871,963.1,1870.8,961.7,1870.8z M963.9,1902.8c0,1.6-1.3,3-3,3c-0.8,0-1.6-0.3-2.1-0.9c-0.6-0.5-0.9-1.3-0.9-2.1
			c0.1-1.6,1.4-3,3.1-3c0.8,0,1.6,0.3,2.1,0.9S963.9,1902,963.9,1902.8L963.9,1902.8z"/>
		<path class="st12" d="M1116,1870.8c-1.3,0-2.6,0.2-3.8,0.6c-1,0.3-2,0.8-2.8,1.4c-0.7,0.5-1.4,1.1-1.9,1.7c-0.4,0.5-0.7,1-1,1.5
			c-0.5-0.1-1-0.3-1.4-0.6c-0.4-0.3-0.6-0.8-0.6-1.3c0-0.4,0.1-0.8,0.2-1.2c0.2-0.4,0.4-0.8,0.7-1.1c0.3-0.4,0.6-0.7,1-1
			c0.6-0.5,1.3-1,2-1.3c1-0.5,2.1-0.9,3.2-1.2c1.5-0.4,3-0.5,4.4-0.5c2,0,4.1,0.2,6,0.9c1.5,0.5,2.8,1.2,4,2.3c1,0.9,1.7,2,2.1,3.2
			c0.4,1.1,0.6,2.3,0.6,3.6c0,1.2-0.2,2.4-0.6,3.6c-0.4,1-0.9,1.9-1.6,2.8c-0.7,0.8-1.5,1.6-2.4,2.2c-0.9,0.7-1.9,1.3-3,1.9
			c-0.8,0.5-1.5,1-2.3,1.6c-0.5,0.4-0.9,0.9-1.3,1.4c-0.3,0.5-0.5,1-0.6,1.6c-0.1,0.7-0.1,1.3-0.1,2h-3.5c0-1,0.1-1.9,0.2-2.8
			c0.1-0.8,0.4-1.5,0.7-2.2c0.4-0.7,0.8-1.2,1.4-1.7c0.7-0.6,1.5-1.1,2.3-1.6c1.1-0.6,2.2-1.3,3.3-2.1c0.8-0.6,1.5-1.2,2.1-2
			c0.5-0.6,0.9-1.3,1.1-2c0.2-0.8,0.4-1.6,0.3-2.4c0-0.9-0.2-1.9-0.5-2.8c-0.4-0.9-0.9-1.6-1.6-2.2c-0.8-0.7-1.8-1.2-2.8-1.5
			C1118.7,1871,1117.4,1870.8,1116,1870.8z M1118.2,1902.8c0,1.7-1.3,3-3,3c-0.8,0-1.6-0.3-2.1-0.9c-0.6-0.5-0.9-1.3-0.9-2.1
			c0.1-1.6,1.4-3,3.1-3c0.8,0,1.6,0.3,2.1,0.9C1117.8,1901.3,1118.1,1902,1118.2,1902.8L1118.2,1902.8z"/>
		<circle class="st6" cx="663.5" cy="837.4" r="21.9"/>
		<path class="st3" d="M663.5,806.6c0.5,0,1,0,1.5,0V632.4h-3v174.2C662.5,806.6,663,806.6,663.5,806.6z"/>
		<path class="st3" d="M663.5,868.2c-0.5,0-1,0-1.5,0v390.5c0.5,0,1,0,1.5,0s1,0,1.5,0V868.2C664.5,868.2,664,868.2,663.5,868.2z"/>
		<path class="st3" d="M517.9,1263.1c15.3,0,19.8,25.2,23.3,45.4c2.8,16.1,4.9,27.8,11.2,27.8c5.8,0,11.6-5.2,17.4-15.4
			c6.2-10.8,12.2-27.3,17.8-48.9c8.8-33.7,14.3-70.9,14.3-86.1c0-4.5-0.4-9.1-1.3-13.5c-1.7-9.1-5.6-17.7-11.3-24.9
			c-5-6.3-11.7-11-19.2-13.7c-4.5-1.6-9.2-2.4-14-2.3c-0.4,0-0.9,0-1.4,0c-6.8,0.3-13.6,2.4-19.6,4.2s-11.9,3.7-17.2,3.7
			s-11.1-1.8-17.2-3.7c-6.8-2.1-13.9-4.3-21-4.3c-13,0-25.2,5.8-33.3,16c-8.1,10-12.6,23.7-12.6,38.4c0,15.1,5.5,52.3,14.3,86.1
			c5.7,21.6,11.7,38.1,17.8,48.9c5.8,10.2,11.7,15.4,17.5,15.4c6.2,0,8.3-11.7,11.1-27.8C498.1,1288.2,502.6,1263.1,517.9,1263.1z
			 M488.9,1327.1c-1.6,5.1-3.4,7.5-5.5,7.5c-15,0-27.5-39.5-33.7-63c-8.5-32.6-14.3-70.6-14.3-85.7c0-30.6,18.6-52.8,44.3-52.8
			c6.9,0,13.8,2.1,20.5,4.2c2.8,0.9,5.1,1.6,7.4,2.2l8.6,2.3l-8.5,2.4c-7.6,2.2-12.4,3.2-15.2,3.2c-0.4,0-0.8,0.4-0.8,0.8l0,0
			c0,0.4,0.4,0.8,0.8,0.8c5.5,0,16.6-3.5,29.5-7.5c12.9-4,27.2-8.5,34.1-8.5c25.6,0,44.3,22.2,44.3,52.8c0,15.1-5.7,53.1-14.3,85.7
			c-6.2,23.6-18.8,63-33.7,63c-2.1,0-3.9-2.4-5.5-7.5c-1.5-4.9-2.8-11.7-4-18.9c-3.7-20.8-8.2-46.8-25-46.8s-21.3,25.9-25,46.7
			C491.7,1315.4,490.5,1322.2,488.9,1327.1L488.9,1327.1z"/>
		<rect y="1586.6" class="st22" width="0" height="159.9"/>
	</g>
</g>
</svg>
