<svg xmlns="http://www.w3.org/2000/svg" viewBox="0 0 435.05 416.22"><defs><style>.cls-1{fill:#231f20;}.cls-2{fill:lime;}.cls-3{fill:#2cd1d1;}</style></defs><title>Asset 1infographic-0</title><g id="Layer_2" data-name="Layer 2"><g id="Layer_1-2" data-name="Layer 1"><path class="cls-1" d="M132.77,27.08c0-6.45-4.83-11.7-10.76-11.7H107.85V.91a.91.91,0,0,0-.91-.91H95.8a.91.91,0,0,0-.91.91V15.38h-57V.91A.91.91,0,0,0,37,0H25.83a.92.92,0,0,0-.92.91V15.38H10.76C4.83,15.38,0,20.63,0,27.08v85.38c0,6.45,4.83,11.7,10.76,11.7H122c5.93,0,10.76-5.25,10.76-11.7ZM96.71,1.82H106V30.76H96.71Zm-70,0h9.31V30.76H26.74ZM131,112.46c0,5.45-4,9.88-8.94,9.88H10.76c-4.93,0-8.94-4.43-8.94-9.88V42.75H131Zm0-71.53H1.82V27.08c0-5.44,4-9.88,8.94-9.88H24.91V31.67a.91.91,0,0,0,.92.91H37a.91.91,0,0,0,.91-.91V17.2h57V31.67a.91.91,0,0,0,.91.91h11.14a.9.9,0,0,0,.91-.91V17.2H122c4.93,0,8.94,4.44,8.94,9.88Z"/><path class="cls-2" d="M90.15,66.18a.88.88,0,0,0-.65.27L59,97.48,43.26,82a.9.9,0,0,0-.64-.26h0A.91.91,0,0,0,42,83.33L58.33,99.42a.93.93,0,0,0,1.29,0L90.8,67.73a.9.9,0,0,0,.26-.65.91.91,0,0,0-.27-.64.9.9,0,0,0-.64-.26Z"/><path class="cls-1" d="M284.41,27.08c0-6.45-4.83-11.7-10.76-11.7H259.49V.91a.91.91,0,0,0-.91-.91H247.44a.91.91,0,0,0-.91.91V15.38h-57V.91A.92.92,0,0,0,188.6,0H177.46a.91.91,0,0,0-.91.91V15.38H162.4c-5.94,0-10.76,5.25-10.76,11.7v85.38c0,6.45,4.82,11.7,10.76,11.7H273.65c5.93,0,10.76-5.25,10.76-11.7ZM248.35,1.82h9.32V30.76h-9.32Zm-70,0h9.31V30.76h-9.31ZM282.59,112.46c0,5.45-4,9.88-8.94,9.88H162.4c-4.93,0-8.94-4.43-8.94-9.88V42.75H282.59Zm0-71.53H153.46V27.08c0-5.44,4-9.88,8.94-9.88h14.15V31.67a.91.91,0,0,0,.91.91H188.6a.91.91,0,0,0,.92-.91V17.2h57V31.67a.91.91,0,0,0,.91.91h11.14a.91.91,0,0,0,.91-.91V17.2h14.16c4.93,0,8.94,4.44,8.94,9.88Z"/><path class="cls-2" d="M241.78,66.18a.87.87,0,0,0-.64.27l-30.54,31L194.9,82a.92.92,0,0,0-.64-.26h0a.91.91,0,0,0-.64.27.92.92,0,0,0,0,1.29L210,99.42a.93.93,0,0,0,1.29,0l31.18-31.68a.94.94,0,0,0,.26-.65.91.91,0,0,0-.27-.64.9.9,0,0,0-.64-.26Z"/><path class="cls-1" d="M132.77,173.12c0-6.46-4.83-11.71-10.76-11.71H107.85V146.94a.91.91,0,0,0-.91-.91H95.8a.91.91,0,0,0-.91.91v14.47h-57V146.94A.91.91,0,0,0,37,146H25.83a.92.92,0,0,0-.92.91v14.47H10.76C4.83,161.41,0,166.66,0,173.12v85.37c0,6.45,4.83,11.7,10.76,11.7H122c5.93,0,10.76-5.25,10.76-11.7ZM96.71,147.85H106v28.94H96.71Zm-70,0h9.31v28.94H26.74ZM131,258.49c0,5.45-4,9.88-8.94,9.88H10.76c-4.93,0-8.94-4.43-8.94-9.88V188.78H131ZM131,187H1.82V173.12c0-5.45,4-9.89,8.94-9.89H24.91V177.7a.92.92,0,0,0,.92.92H37a.92.92,0,0,0,.91-.92V163.23h57V177.7a.92.92,0,0,0,.91.92h11.14a.91.91,0,0,0,.91-.92V163.23H122c4.93,0,8.94,4.44,8.94,9.89Z"/><path class="cls-2" d="M90.15,212.21a.88.88,0,0,0-.65.27L59,243.51l-15.7-15.45a.9.9,0,0,0-.64-.26h0a.91.91,0,0,0-.64.27.92.92,0,0,0-.26.65.91.91,0,0,0,.27.64l16.35,16.09a.93.93,0,0,0,1.29,0L90.8,213.76a.9.9,0,0,0,.26-.65.91.91,0,0,0-.27-.64.9.9,0,0,0-.64-.26Z"/><path class="cls-1" d="M435.05,27.08c0-6.45-4.83-11.7-10.76-11.7H410.13V.91a.91.91,0,0,0-.91-.91H398.08a.91.91,0,0,0-.91.91V15.38h-57V.91a.91.91,0,0,0-.91-.91H328.1a.91.91,0,0,0-.91.91V15.38H313c-5.93,0-10.76,5.25-10.76,11.7v85.38c0,6.45,4.83,11.7,10.76,11.7H424.29c5.93,0,10.76-5.25,10.76-11.7ZM399,1.82h9.32V30.76H399Zm-70,0h9.31V30.76H329ZM433.23,112.46c0,5.45-4,9.88-8.94,9.88H313c-4.93,0-8.94-4.43-8.94-9.88V42.75H433.23Zm0-71.53H304.1V27.08c0-5.44,4-9.88,8.94-9.88h14.15V31.67a.91.91,0,0,0,.91.91h11.15a.91.91,0,0,0,.91-.91V17.2h57V31.67a.91.91,0,0,0,.91.91h11.14a.91.91,0,0,0,.91-.91V17.2h14.16c4.93,0,8.94,4.44,8.94,9.88Z"/><path class="cls-2" d="M392.43,66.18a.88.88,0,0,0-.65.27l-30.54,31L345.54,82a.9.9,0,0,0-.64-.26h0a.91.91,0,0,0-.64.27.87.87,0,0,0-.26.65.91.91,0,0,0,.27.64l16.35,16.09a.93.93,0,0,0,1.29,0l31.18-31.68a.94.94,0,0,0,.26-.65.91.91,0,0,0-.27-.64.9.9,0,0,0-.64-.26Z"/><path class="cls-1" d="M284.41,173.12c0-6.46-4.83-11.71-10.76-11.71H259.49V146.94a.91.91,0,0,0-.91-.91H247.44a.91.91,0,0,0-.91.91v14.47h-57V146.94a.92.92,0,0,0-.92-.91H177.46a.91.91,0,0,0-.91.91v14.47H162.4c-5.94,0-10.76,5.25-10.76,11.71v85.37c0,6.45,4.82,11.7,10.76,11.7H273.65c5.93,0,10.76-5.25,10.76-11.7Zm-36.06-25.27h9.32v28.94h-9.32Zm-70,0h9.31v28.94h-9.31ZM282.59,258.49c0,5.45-4,9.88-8.94,9.88H162.4c-4.93,0-8.94-4.43-8.94-9.88V188.78H282.59Zm0-71.53H153.46V173.12c0-5.45,4-9.89,8.94-9.89h14.15V177.7a.92.92,0,0,0,.91.92H188.6a.92.92,0,0,0,.92-.92V163.23h57V177.7a.92.92,0,0,0,.91.92h11.14a.92.92,0,0,0,.91-.92V163.23h14.16c4.93,0,8.94,4.44,8.94,9.89Z"/><path class="cls-2" d="M241.78,212.21a.87.87,0,0,0-.64.27l-30.54,31-15.7-15.45a.92.92,0,0,0-.64-.26h0a.91.91,0,0,0-.64.27.88.88,0,0,0-.26.65.87.87,0,0,0,.27.64L210,245.45a.93.93,0,0,0,1.29,0l31.18-31.68a.94.94,0,0,0,.26-.65.91.91,0,0,0-.27-.64.9.9,0,0,0-.64-.26Z"/><path class="cls-1" d="M433.28,173.12c0-6.46-4.82-11.71-10.75-11.71H408.37V146.94a.91.91,0,0,0-.91-.91H396.32a.92.92,0,0,0-.92.91v14.47h-57V146.94a.91.91,0,0,0-.91-.91H326.34a.91.91,0,0,0-.91.91v14.47H311.27c-5.93,0-10.76,5.25-10.76,11.71v85.37c0,6.45,4.83,11.7,10.76,11.7H422.53c5.93,0,10.75-5.25,10.75-11.7Zm-36-25.27h9.31v28.94h-9.31Zm-70,0h9.32v28.94h-9.32ZM431.46,258.49c0,5.45-4,9.88-8.93,9.88H311.27c-4.93,0-8.93-4.43-8.93-9.88V188.78H431.46Zm0-71.53H302.34V173.12c0-5.45,4-9.89,8.93-9.89h14.16V177.7a.92.92,0,0,0,.91.92h11.14a.92.92,0,0,0,.91-.92V163.23h57V177.7a.92.92,0,0,0,.92.92h11.14a.92.92,0,0,0,.91-.92V163.23h14.16c4.92,0,8.93,4.44,8.93,9.89Z"/><path class="cls-3" d="M367.19,211.57a11.75,11.75,0,0,0-3.82.58,11.93,11.93,0,0,0-2.84,1.4,9,9,0,0,0-1.92,1.71,6.49,6.49,0,0,0-1,1.53,2.48,2.48,0,0,1-1.42-.63,1.65,1.65,0,0,1-.58-1.27,2.89,2.89,0,0,1,.23-1.18,5.16,5.16,0,0,1,.71-1.14,12.22,12.22,0,0,1,1-1,9.91,9.91,0,0,1,2-1.32,16.76,16.76,0,0,1,3.16-1.16,17.55,17.55,0,0,1,4.45-.5,18.24,18.24,0,0,1,6,.87,11.28,11.28,0,0,1,3.95,2.27,7.91,7.91,0,0,1,2.13,3.16,10.47,10.47,0,0,1,.63,3.55,10,10,0,0,1-.58,3.59,9.63,9.63,0,0,1-1.6,2.76,12.66,12.66,0,0,1-2.4,2.21c-.92.65-1.9,1.29-2.95,1.93a22.87,22.87,0,0,0-2.27,1.58,5.89,5.89,0,0,0-1.29,1.39,3.74,3.74,0,0,0-.55,1.56,15.83,15.83,0,0,0-.11,1.95h-3.52a16.94,16.94,0,0,1,.21-2.85,7,7,0,0,1,.71-2.16,5.69,5.69,0,0,1,1.42-1.71,18.35,18.35,0,0,1,2.34-1.61,33.32,33.32,0,0,0,3.27-2.08,11.28,11.28,0,0,0,2.11-2,6.89,6.89,0,0,0,1.13-2.06,7.77,7.77,0,0,0,.34-2.42,7.12,7.12,0,0,0-.53-2.77,5.83,5.83,0,0,0-1.63-2.24,7.86,7.86,0,0,0-2.79-1.47A13.74,13.74,0,0,0,367.19,211.57Zm2.16,31.92a3,3,0,0,1-3,2.95,3,3,0,0,1-2.13-.87,2.76,2.76,0,0,1-.92-2.08,3.15,3.15,0,0,1,3-3.05,2.77,2.77,0,0,1,2.08.92A3,3,0,0,1,369.35,243.49Z"/><path class="cls-1" d="M132.77,319.15c0-6.46-4.83-11.71-10.76-11.71H107.85V293a.91.91,0,0,0-.91-.91H95.8a.91.91,0,0,0-.91.91v14.47h-57V293a.91.91,0,0,0-.91-.91H25.82a.91.91,0,0,0-.91.91v14.47H10.76C4.83,307.44,0,312.69,0,319.15v85.37c0,6.45,4.83,11.7,10.76,11.7H122c5.93,0,10.76-5.25,10.76-11.7ZM96.71,293.88H106v28.94H96.71Zm-70,0h9.31v28.94H26.74ZM131,404.52c0,5.45-4,9.88-8.94,9.88H10.76c-4.93,0-8.94-4.43-8.94-9.88V334.81H131ZM131,333H1.82V319.15c0-5.45,4-9.88,8.94-9.88H24.91v14.46a.92.92,0,0,0,.91.92H37a.92.92,0,0,0,.91-.92V309.27h57v14.46a.92.92,0,0,0,.91.92h11.14a.92.92,0,0,0,.91-.92V309.27H122c4.93,0,8.94,4.43,8.94,9.88Z"/><path class="cls-3" d="M70.29,357.6a11.48,11.48,0,0,0-6.66,2,9.11,9.11,0,0,0-1.93,1.71,6.83,6.83,0,0,0-1,1.53,2.54,2.54,0,0,1-1.42-.63,1.65,1.65,0,0,1-.58-1.27,2.93,2.93,0,0,1,.24-1.18,4.81,4.81,0,0,1,.71-1.14,10.73,10.73,0,0,1,1-1,9.64,9.64,0,0,1,2-1.32,16.5,16.5,0,0,1,3.16-1.16,17.5,17.5,0,0,1,4.45-.5,18.13,18.13,0,0,1,6,.87,11.28,11.28,0,0,1,4,2.27A7.91,7.91,0,0,1,82.4,361a10.75,10.75,0,0,1,.06,7.14,9.66,9.66,0,0,1-1.61,2.76,12.08,12.08,0,0,1-2.4,2.21c-.91.65-1.89,1.29-3,1.93a22.57,22.57,0,0,0-2.26,1.58A5.89,5.89,0,0,0,72,378a3.79,3.79,0,0,0-.55,1.56,14.08,14.08,0,0,0-.11,2H67.76a16.94,16.94,0,0,1,.21-2.85,7.31,7.31,0,0,1,.71-2.16,5.84,5.84,0,0,1,1.42-1.71,19.64,19.64,0,0,1,2.35-1.61,31.55,31.55,0,0,0,3.27-2.08,11.2,11.2,0,0,0,2.1-2A6.37,6.37,0,0,0,79,367a7.76,7.76,0,0,0,.35-2.42,7.34,7.34,0,0,0-.53-2.77,5.73,5.73,0,0,0-1.63-2.23,7.72,7.72,0,0,0-2.79-1.48A13.79,13.79,0,0,0,70.29,357.6Zm2.16,31.93a3,3,0,0,1-3,2.94,3,3,0,0,1-2.13-.86,2.76,2.76,0,0,1-.93-2.08,3.16,3.16,0,0,1,3.06-3.06,2.77,2.77,0,0,1,2.08.92A3,3,0,0,1,72.45,389.53Z"/></g></g></svg>