<?xml version="1.0" encoding="utf-8"?>
<!-- Generator: Adobe Illustrator 24.1.0, SVG Export Plug-In . SVG Version: 6.00 Build 0)  -->
<svg version="1.1" id="Layer_1" xmlns="http://www.w3.org/2000/svg" xmlns:xlink="http://www.w3.org/1999/xlink" x="0px" y="0px"
	 viewBox="0 0 72.8 77.5" style="enable-background:new 0 0 72.8 77.5;" xml:space="preserve">
<style type="text/css">
	.st0{fill:#767676;}
</style>
<path class="st0" d="M25.2,54.6c3,10.3,7.9,19.7,13.5,22.5c0.5,0.3,1.1,0.4,1.7,0.4c0.6,0,1.3-0.2,1.8-0.5c1-0.6,1.6-1.7,1.6-2.9
	V61.7c0-1.9,1.5-3.4,3.4-3.4c1.9,0,3.4,1.5,3.4,3.4v12.4c0,1.2,0.6,2.3,1.6,2.9c0.6,0.3,1.2,0.5,1.8,0.5c0.6,0,1.2-0.1,1.7-0.4
	c5.6-2.9,10.5-12.2,13.5-22.5c0.2-0.6,0.4-1.3,0.5-1.9c1.6-6,2.5-12.1,2.5-17.4c0-9-3.6-15.1-10-16.9c-6.5-1.8-9.9-0.1-14.8,2.3
	c-0.5,0.3-1.1,0.5-1.6,0.8c-3.2-2.1-7.2-4.6-13.7-3.1c-6.3,1.5-10,7.8-10,16.9c0,5.3,0.9,11.5,2.5,17.4
	C24.9,53.3,25.1,53.9,25.2,54.6z M33,21.4c5.3-1.2,8.4,0.8,11.4,2.7c2.3,1.5,4.6,3,7.6,2.8c0.9,0,1.5-0.8,1.5-1.6
	c0-0.9-0.8-1.5-1.6-1.5c-0.9,0-1.7-0.2-2.6-0.5c4.5-2.2,7-3.4,12.3-1.9c6.9,1.9,7.7,10.3,7.7,13.9c0,5.5-1,11.6-2.6,17.4
	c-0.2,0.6-0.4,1.3-0.6,1.9c-2.9,9.4-7.3,17.5-11.6,19.8c-0.2,0.1-0.4,0.1-0.5,0c-0.1,0-0.1-0.1-0.1-0.2V61.7c0-3.6-2.9-6.6-6.6-6.6
	c-3.6,0-6.6,2.9-6.6,6.6v12.4c0,0.1,0,0.2-0.1,0.2c-0.1,0.1-0.3,0.1-0.5,0c-4.3-2.2-8.8-10.3-11.6-19.8c-0.2-0.6-0.4-1.3-0.6-1.9
	c-1.6-5.8-2.6-11.9-2.6-17.4C25.4,31.6,26.1,23,33,21.4z"/>
<path class="st0" d="M47.9,36.7c5.9-0.2,8.7-4.7,9-8.9c0.3,4.2,3.1,8.6,9,8.9c-5.9,0.2-8.7,4.7-9,8.9C56.6,41.4,53.8,36.9,47.9,36.7
	z"/>
<path class="st0" d="M3.5,8.9c5.9-0.2,8.7-4.7,9-8.9c0.3,4.2,3.1,8.6,9,8.9c-5.9,0.2-8.7,4.7-9,8.9C12.2,13.6,9.4,9.1,3.5,8.9z"/>
</svg>
