<?xml version="1.0" encoding="utf-8"?>
<!-- Generator: Adobe Illustrator 24.1.0, SVG Export Plug-In . SVG Version: 6.00 Build 0)  -->
<svg version="1.1" id="Layer_1" xmlns="http://www.w3.org/2000/svg" xmlns:xlink="http://www.w3.org/1999/xlink" x="0px" y="0px"
	 viewBox="0 0 365.9 236" style="enable-background:new 0 0 365.9 236;" xml:space="preserve">
<style type="text/css">
	.st0{fill:none;stroke:#FFFFFF;stroke-width:2;stroke-linecap:round;stroke-linejoin:round;}
	.st1{fill:#00FFFF;stroke:#231F20;stroke-width:2;stroke-linecap:round;stroke-linejoin:round;}
	.st2{fill:#00C3FF;}
	.st3{fill:#0084A3;}
	.st4{fill:none;stroke:#231F20;stroke-width:2;stroke-linecap:round;stroke-linejoin:round;}
	.st5{fill:#FFFFFF;}
	.st6{fill:#00C3FF;stroke:#231F20;stroke-width:2;stroke-linecap:round;stroke-linejoin:round;}
</style>
<g id="Layer_2_1_">
	<g id="Layer_1-2">
		<path class="st0" d="M160.4,1h-34C80.6,1,43.4,35.2,43.4,81v128.9c0,0,0.7,15.5-10.8,15.5s-10.8-16.9-10.8-16.9v-95.9
			c0,0,1.6-15.5-10-15.5S1,113.2,1,113.2v42.9"/>
		
			<rect x="57.4" y="22.9" transform="matrix(0.7071 -0.7071 0.7071 0.7071 -9.5354 59.0713)" class="st1" width="18.2" height="36.4"/>
		<ellipse class="st0" cx="160.4" cy="81.5" rx="80.6" ry="80.5"/>
		<ellipse class="st0" cx="160.4" cy="81.5" rx="70.7" ry="70.7"/>
		<ellipse class="st0" cx="160.4" cy="81.5" rx="59.8" ry="59.8"/>
		<path class="st1" d="M210.1,228.2h-99.5c-26.8,0-48.4-21.7-48.4-48.4V80.3c0-26.8,21.7-48.4,48.4-48.4h99.5
			c26.8,0,48.4,21.7,48.4,48.4v99.5C258.6,206.6,236.9,228.2,210.1,228.2z"/>
		
			<ellipse transform="matrix(0.4224 -0.9064 0.9064 0.4224 -24.9201 220.4329)" class="st2" cx="160.5" cy="129.8" rx="74.5" ry="74.5"/>
		<path class="st3" d="M85.8,132c1.3,41.1,35.7,73.4,76.8,72.2c0,0,0,0,0,0l-4.7-149C116.8,56.5,84.5,90.9,85.8,132z"/>
		
			<ellipse transform="matrix(0.4224 -0.9064 0.9064 0.4224 -24.9201 220.4329)" class="st4" cx="160.5" cy="129.8" rx="74.5" ry="74.5"/>
		<path class="st5" d="M139.6,122.2c-4.5-9.9-6.6-24.1,3-31.2c7.9-5.9,12.4,2.2,16.9,2.2s8.6-8.1,16.5-2.2c9.6,7.2,7.5,21.3,3,31.2
			c-2.6,5.7,5.9,11.1,2.8,27.4c-1.1,5.8-5.4,19.1-8.9,19.1c-4.9,0-1-11.7-3.5-20.3c-1.2-4-3.3-7.6-6.2-10.5c-2.2-2.2-5.7-2.2-7.9,0
			c-3,2.9-5.1,6.5-6.3,10.5c-2.5,8.6,1.4,20.3-3.5,20.3c-3.5,0-7.8-13.3-8.9-19.1C133.8,133.4,142.2,127.9,139.6,122.2z"/>
		<path class="st4" d="M310.4,135l-39.2,84.4c-2.5,5.3-0.4,11.6,4.8,14.3c5.6,2.9,12.4,0.7,15.3-4.8c0-0.1,0.1-0.2,0.1-0.3
			l38.7-83.3L310.4,135z"/>
		<path class="st6" d="M363.5,73.5c3.4-7.4,0.4-16.2-6.9-20L305.2,26l-4.8,10.3c-1.3,2.9-0.1,6.2,2.6,7.7l34.7,18.6
			c2.8,1.4,4,4.8,2.6,7.7l-13.2,28.5c-1.5,3.1-5.3,4.4-8.4,2.9c-0.1,0-0.2-0.1-0.3-0.1l-34.1-18.3c-2.4-1.3-5.5-0.5-6.8,2
			c-0.1,0.1-0.1,0.2-0.1,0.3l-3,6.5c-1.1,2.3-0.1,5,2.1,6.2l36.7,19.7c2.2,1.2,3.2,3.9,2.1,6.2l-5.1,11l19.7,10.3L363.5,73.5z"/>
		<line class="st0" x1="306.7" y1="46.3" x2="288.8" y2="84.6"/>
		<line class="st4" x1="310.2" y1="38.7" x2="311.4" y2="39.2"/>
		<line class="st4" x1="284.8" y1="93.4" x2="285.9" y2="93.9"/>
	</g>
</g>
</svg>
