<?xml version="1.0" encoding="utf-8"?>
<!-- Generator: Adobe Illustrator 24.1.0, SVG Export Plug-In . SVG Version: 6.00 Build 0)  -->
<svg version="1.1" id="Layer_1" xmlns="http://www.w3.org/2000/svg" xmlns:xlink="http://www.w3.org/1999/xlink" x="0px" y="0px"
	 viewBox="0 0 177.3 397.8" style="enable-background:new 0 0 177.3 397.8;" xml:space="preserve">
<style type="text/css">
	.st0{fill:#FFFFFF;}
	.st1{fill:#55BCBC;}
	.st2{fill:#00C3FF;stroke:#231F20;stroke-width:2;stroke-miterlimit:10;}
	.st3{fill:#2CD1D1;}
	.st4{fill:#7DFFFB;}
	.st5{fill:#231F20;}
</style>
<g id="Layer_2_1_">
	<g id="Layer_1-2">
		<path class="st0" d="M106.7,4.5c-6.4,2-12.5,3.9-18.1,3.9S77,6.5,70.6,4.5C63.4,2.3,56,0,48.4,0C34.7,0,21.8,6.2,13.3,16.9
			C4.7,27.4,0,41.8,0,57.4c0,38.2,10,53.9,20.8,65.1c7,7.2,28.4,14.9,67.8,14.9s60.9-7.7,67.8-14.9c10.8-11.2,20.8-26.8,20.8-65.1
			c0-15.6-4.7-30-13.3-40.5C155.5,6.2,142.5,0,128.9,0c-0.5,0-1,0-1.5,0.1C120.2,0.3,113,2.6,106.7,4.5l-0.3-1l0,0L106.7,4.5z
			 M128.9,1.9c27,0,46.5,23.4,46.5,55.5c0,42.8-13.2,56.4-20.3,63.8c-8.3,8.6-35,14.3-66.5,14.3s-58.2-5.8-66.4-14.3
			c-7.1-7.3-20.3-21-20.3-63.8c0-32.2,19.6-55.6,46.5-55.6C55.7,1.9,63,4.1,70,6.3c2.9,0.9,5.4,1.7,7.8,2.3l8.8,2.3l-8.7,2.5
			c-8.1,2.3-13,3.4-16,3.4c-0.5-0.1-1,0.3-1,0.8c-0.1,0.5,0.3,1,0.8,1c0.1,0,0.1,0,0.2,0c5.8,0,17.5-3.6,31.1-7.9
			S121.6,1.9,128.9,1.9z"/>
		<rect x="55" y="124.1" class="st1" width="66.5" height="36.4"/>
		<polygon class="st2" points="141.2,191.1 35,201.1 35,157.5 141.2,157.5 		"/>
		<rect x="54.8" y="147.9" class="st3" width="66.5" height="9.4"/>
		<polygon class="st4" points="129.5,133.9 46.7,133.9 54.2,58.1 122,58.1 		"/>
		<path class="st1" d="M141,169.9H35.2c-0.2,0-0.4-8-0.5-8.1l-7.8-5h122.5l-7.8,5C141.4,161.9,141.2,169.9,141,169.9z"/>
		<path class="st5" d="M141.6,212.4c0.2-3.3,0.4-6.6,0.6-9.9l-1,1h0.2c0.6,0,1-0.4,1-1v-41.9l-0.7,1c1.5-0.5,2.9-1.2,4.2-1.9l4.2-2
			c0.9-0.4,0.4-1.9-0.5-1.9h-28l1,1v-22.2l-1,1h8.2c0.6,0,1-0.4,1-1l-2.6-26.1l-4-41.4l-0.9-9.6c0-0.6-0.4-1-1-1H54.4
			c-0.6,0-1,0.4-1,1l-2.5,26.1l-4,41.4l-0.9,9.6c0,0.6,0.4,1,1,1H55l-1-1v22.1l1-1H27c-1,0-1.4,1.4-0.5,1.9l4.2,2
			c1.3,0.8,2.7,1.4,4.2,1.9l-0.7-1v41.9c0,0.6,0.4,1,1,1h0.2l-1-1c0.5,7.2,0.9,14.4,1.3,21.5l0.7-1c-1.9,0.3-4.8,0.2-6.4,1.4
			c-1.2,0.9-1.6,2.4-1,3.7c0.5,0.8,1.1,1.5,1.9,2l3.3,2.9c0.2,0.2,2.2,2,2.3,1.9c-0.2,0.1-0.1-1-0.2-0.4c0,0.3,0,0.6,0,0.9l0.1,2.1
			l0.2,2.3c0.2,2.4,0.3,4.8,0.5,7.2l0.7-1l-3.2,0.5c-1.1,0.1-2.2,0.3-3.2,0.7c-1.4,0.7-2,2.3-1.5,3.8c0.4,0.8,1,1.5,1.8,2l3.3,2.7
			c0.9,0.9,1.8,1.7,2.8,2.4c0,0,0.2,0.2,0.3,0.2c-0.2,0.1-0.2-1.2-0.2-0.2c0,0.6,0,1.3,0.1,1.9l0.2,2.5l0.5,7.4l0.7-1
			c-2.1,0.3-4.6,0.3-6.5,1.2c-1.4,0.6-2.2,2.2-1.8,3.7c0.3,0.9,0.9,1.6,1.7,2.1l6.2,5.2c0,0,0.7,0.6,0.7,0.6s-0.2-1.1-0.2-0.1
			c0,0.4,0,0.7,0.1,1.1c0,0.8,0.1,1.5,0.1,2.3c0.2,2.6,0.3,5.1,0.5,7.7l0.7-1c-2.1,0.4-4.3,0.6-6.4,1c-3.1,0.7-3.2,4-1.1,5.8
			s4.2,3.6,6.4,5.5c0.3,0.3,0.7,0.7,1.1,0.9c0,0,0.2,0.2,0.2,0.2s-0.1-0.7-0.2-0.4c-0.3,0.7,0.1,2.1,0.2,2.9
			c0.2,2.6,0.3,5.2,0.5,7.7l0.7-1c-2.2,0.4-4.5,0.7-6.7,1.1c-1.7,0.2-2.9,1.6-2.8,3.3c0.1,1.5,1.1,2.2,2.1,3.1l5.6,4.9
			c0.7,0.7,1.4,1.3,2.1,1.9c-0.2,0.1-0.2-1.2-0.2-0.1c0,0.6,0.1,1.2,0.1,1.9c0.2,2.7,0.3,5.3,0.5,7.9l0.7-1c-2,0.4-4.1,0.5-6,1.1
			c-1.7,0.4-2.8,2.1-2.4,3.8c0.3,0.9,0.8,1.7,1.6,2.2l6.1,5.7c0.3,0.3,0.6,0.6,0.9,0.8l0.2,0.2c-0.1,0.1-0.2-1.1-0.2,0
			s0.1,1.9,0.2,2.8c0.1,2.5,0.3,4.9,0.4,7.4l0.7-1c-2,0.4-4,0.7-6.1,1.1c-2.3,0.4-4.1,2.8-2.5,5c0.2,0.2,0.4,0.5,0.6,0.7
			c-0.4-0.4-0.1,0,0,0l0.5,0.3c0.9,0.6,1.8,1.1,2.8,1.7l5,3l-0.5-0.9c0.2,3.3,0,6.5,2.6,9.1c2.1,2.1,5.2,3.3,7.9,4.7l0.2-1.8
			c-1.9,0.5-4.5,0.8-4.1,3.4c0.2,1.5,1.2,1.8,2.5,2.1l11.9,2.8c1.2,0.3,2.5,0.5,3.7,0.9c0.3,0.1-0.3-0.1,0,0s0.6,0.3,0.8,0.4
			l2.8,1.4c1.7,0.9,3.4,1.8,5.2,2.4c3.2,1,6.6,1.4,10,1.1c4.5-0.4,8.4-2.4,12.5-4.2l7.1-3.1l10.8-4.8c1-0.4,2.1-0.7,3.2-0.9
			c0.9-0.1,1.8-0.6,2.3-1.4c0.2-0.4,0-0.2-0.2-0.1c0.2-0.1,0.5-0.2,0.7-0.3c0.5-0.2,1-0.5,1.6-0.7c2.9-1.5,5.3-3.9,5.6-7.2
			c0.1-1.3,0.2-2.7,0.2-4c0.2-3.6,0.5-7.2,0.7-10.9l-0.7,1c2.2-0.4,4.4-0.8,6.5-1.3c1.7-0.4,2.8-2.1,2.5-3.9
			c-0.1-0.6-0.5-1.2-0.9-1.6c-1.8-2-3.7-3.9-5.5-5.8c-0.3-0.4-0.6-0.7-1-1.1c-0.7-0.6,0.1,0.1,0,0.2c0.2-0.2,0.1-1.6,0.1-1.9
			c0-0.6,0.1-1.1,0.1-1.7c0.1-2.3,0.3-4.6,0.4-6.9l-0.7,1c2-0.4,4.2-0.6,6.1-1.2c2.8-0.9,2.8-3.9,1-5.7l-5.4-5.8
			c-0.2-0.2-0.4-0.4-0.6-0.6c0.2-0.1,0.2,1.3,0.3-0.1l0.2-4.1c0.1-2.1,0.3-4.3,0.4-6.4l-0.7,1c2.2-0.4,4.5-0.7,6.7-1.3
			c1.7-0.3,2.9-2,2.6-3.7c-0.1-0.7-0.5-1.3-1-1.8c-1.9-2-3.8-3.8-5.8-5.8c-0.3-0.4-0.7-0.7-1.1-1.1c-0.1,0-0.2-0.3-0.3-0.3
			s0,0.8,0.2,0.4c0.4-0.8,0.1-2.4,0.2-3.3c0.2-2.4,0.3-4.8,0.4-7.2l-0.7,1c2.1-0.4,4.2-0.7,6.3-1.2c2.9-0.7,3.3-3.8,1.3-5.7
			l-5.8-5.7c0,0-0.6-0.6-0.7-0.6c0.1-0.1,0.1,1.1,0.3,0.2c0.1-0.4,0.1-0.8,0.1-1.2c0.1-1,0.1-2,0.2-3c0.1-2.3,0.3-4.6,0.4-6.8
			l-0.7,1c2.1-0.2,4.2-0.6,6.2-1.2c1.5-0.5,2.3-2,2.1-3.5c-0.2-0.9-0.8-1.7-1.6-2.3l-3-2.9c-0.6-0.6-1.7-2.1-2.5-2.4
			c-0.1,0-0.5-0.6,0,0.2c0.3,0.5,0.1,0.3,0.2-0.1c0.1-0.7,0.1-1.3,0.1-2c0.1-0.9,0.1-1.8,0.1-2.6c0.1-2.4,0.3-4.7,0.4-7.1l-0.7,1
			l3.2-0.6c1.1-0.1,2.2-0.3,3.2-0.8c1.4-0.7,2.1-2.5,1.5-4c-0.4-0.8-1-1.5-1.7-2c-0.4-0.4-4.9-5-5.1-4.8c0.2-0.1,0,1,0.3,0.4
			c0-0.2,0-0.5,0-0.7l0.1-2.2c0.1-0.7,0.1-1.4,0.1-2.1c0.1-2.4,0.3-4.9,0.4-7.4l-0.7,1c2.5-0.4,9.1-0.7,7.4-5c-0.5-1.3-2-2.3-3-3.2
			l-3.4-3.2c-0.9-0.9-2.4,0.5-1.4,1.4c1.9,1.6,3.8,3.3,5.5,5.1c1.3,1.5-0.6,2-1.8,2.2l-3.9,0.7c-0.4,0.1-0.7,0.5-0.7,1
			c-0.1,2.5-0.3,5-0.4,7.6l-0.2,3.1c-0.1,1-0.4,2,0.2,2.8c1.6,2.1,4.2,3.5,5.9,5.6c1.3,1.7-1,2.1-2.2,2.3l-4,0.7
			c-0.4,0.1-0.7,0.5-0.7,1c-0.2,3.8-0.4,7.5-0.7,11.3c-0.2,0.6,0,1.3,0.4,1.8c0.7,0.8,1.5,1.5,2.2,2.2l2.9,2.8
			c0.6,0.6,1.6,1.2,1.3,2.1s-2.5,1.1-3.5,1.3l-3.3,0.6c-0.4,0.1-0.8,0.5-0.7,1c-0.1,1.7-0.2,3.5-0.3,5.2c-0.1,1.2-0.2,2.5-0.2,3.7
			c-0.1,0.8-0.2,1.6-0.1,2.5c0.1,0.7,0.5,1,1,1.4l2.7,2.7l2.9,2.6c0.8,0.8,1.8,1.9,0.1,2.6c-1.1,0.3-2.1,0.5-3.2,0.6l-3.3,0.6
			c-0.4,0.1-0.8,0.5-0.7,1c-0.1,2.1-0.2,4.2-0.4,6.3c0,0.6-0.1,1.3-0.1,1.9c-0.1,1-0.4,2.3,0.1,3.2c1.1,1.6,3,3,4.3,4.3
			c1,1,5.2,4,2.1,5c-2.2,0.6-4.5,1-6.8,1.3c-0.4,0.1-0.8,0.5-0.7,1L133,321c-0.2,1.4-0.3,2.9-0.3,4.3c0.1,0.8,0.6,1.2,1.2,1.8
			l3.4,3.6c0.8,0.7,1.6,1.5,2.3,2.4c1,1.9-1.9,2-3,2.3l-3.8,0.8c-0.4,0.1-0.7,0.5-0.7,1c-0.1,2-0.3,4-0.4,6.1c0,0.8-0.1,1.6-0.1,2.4
			c-0.1,0.9-0.4,2.1,0.2,2.9c1.3,1.6,2.6,3,4.1,4.4c0.9,0.9,4.9,4,2.1,5c-2.2,0.6-4.4,1-6.6,1.3c-0.4,0.1-0.7,0.5-0.7,1
			c-0.2,2.8-0.3,5.5-0.5,8.3s0.2,6.9-1.4,9.1c-1,1.3-2.4,2.4-3.9,3c-0.8,0.3-1.5,0.7-2.3,1.1c-0.4,0.3-0.3,0.7-0.8,1
			c-0.4,0.1-0.8,0.2-1.2,0.2c-0.7,0.1-1.4,0.3-2,0.5c-2.8,1.1-5.4,2.4-8.2,3.6c-5.2,2.3-10.4,4.7-15.7,7c-5.6,2.4-12,2.4-17.7,0
			c-2.4-1.1-4.6-2.8-7.1-3.6c-3.4-1.1-7-1.7-10.5-2.5l-5.4-1.3c-0.1,0-0.9-0.1-1-0.2c-0.4-0.7,2.7-1.2,2.9-1.3
			c0.5-0.2,0.8-0.7,0.7-1.2c-0.1-0.2-0.2-0.5-0.4-0.6c-2-1-4-1.9-5.9-3.1c-1.9-1-3.1-2.9-3.4-5.1c-0.1-1.2-0.1-2.3-0.2-3.5
			c-0.2-1.8-3-2.8-4.4-3.6l-3.5-2.2c-0.3-0.1-0.6-0.3-0.8-0.5c-0.2-0.1,0.2,0.3,0,0c-0.4-0.5-0.4-1.2,0-1.6c0.7-0.8,2.7-0.7,3.7-0.9
			l3.7-0.6c0.4-0.1,0.7-0.5,0.7-1l-0.3-5.4c-0.1-1.1-0.1-2.2-0.2-3.3c0.1-0.9,0-1.7-0.3-2.5c-0.4-0.5-0.8-0.9-1.3-1.2l-3-2.7
			c-0.9-0.8-5.8-4.2-3.5-5.5c0.8-0.5,2.4-0.5,3.4-0.6l3-0.5c0.4-0.1,0.8-0.5,0.7-1c-0.1-1.9-0.3-3.9-0.4-5.8l-0.2-3.9
			c0-0.6-0.1-1.1-0.5-1.5c-1.7-1.7-3.5-3.3-5.5-4.8l-2.1-1.8c-1-0.8-2.5-2.4-0.4-3.1c2.3-0.5,4.5-0.9,6.8-1.1c0.4-0.1,0.8-0.5,0.7-1
			l-0.4-5.9c-0.1-0.9-0.1-1.8-0.2-2.7s0.1-2.2-0.4-2.9c-0.5-0.5-1-0.9-1.5-1.3l-3.2-2.8l-2.8-2.4c-0.8-0.6-1.9-1.7-0.6-2.6
			c0.9-0.5,2.6-0.5,3.6-0.7l3.4-0.5c0.4-0.1,0.7-0.5,0.7-1c-0.1-1.9-0.2-3.9-0.3-5.8c0-1.9-0.1-3.8-0.3-5.8c-0.1-0.7-0.5-0.9-1-1.4
			l-2.8-2.4l-3-2.5c-0.6-0.5-1.6-1.1-1.5-2c0.2-1.3,2.4-1.2,3.4-1.4l3.6-0.6c0.4-0.1,0.8-0.5,0.7-1c-0.2-3.8-0.5-7.5-0.7-11.3
			c0.1-0.7-0.2-1.3-0.6-1.8c-0.8-0.8-1.7-1.4-2.6-2.1l-3.2-2.6c-0.5-0.4-1.5-1-1.6-1.6c-0.5-2,5.4-2.2,6.6-2.4
			c0.4-0.1,0.8-0.5,0.7-1c-0.2-3.7-0.5-7.3-0.7-11c0-0.8,0.1-1.8-0.4-2.5c-0.6-0.6-1.3-1.2-2.1-1.7l-3.2-2.6
			c-0.6-0.4-1.2-0.8-1.7-1.3c-1.3-1.7,1.4-2,2.5-2.1l3.5-0.5c0.4-0.1,0.8-0.5,0.7-1c-0.4-7.2-0.8-14.4-1.3-21.5c0-0.6-0.4-1-1-1
			h-0.2l1,1v-41.8c0-0.5-0.3-0.9-0.7-1c-1.4-0.5-2.7-1.1-4-1.9l-3.9-1.9l-0.5,1.9H55c0.6,0,1-0.4,1-1v-22c0-0.6-0.4-1-1-1h-8.2l1,1
			l2.5-26.1l4-41.4l0.9-9.6l-1,1h67.8l-1-1l2.6,26.1l4,41.4l0.9,9.6l1-1h-8.2c-0.6,0-1,0.4-1,1v22.1c0,0.6,0.4,1,1,1h28l-0.5-1.9
			l-3.9,1.9c-1.3,0.7-2.6,1.4-4,1.9c-0.4,0.1-0.7,0.5-0.7,1v41.9l1-1h-0.2c-0.6,0-1,0.4-1,1c-0.2,3.3-0.4,6.6-0.6,9.9
			C139.5,213.7,141.5,213.7,141.6,212.4z"/>
	</g>
</g>
</svg>
