<?xml version="1.0" encoding="utf-8"?>
<!-- Generator: Adobe Illustrator 24.1.0, SVG Export Plug-In . SVG Version: 6.00 Build 0)  -->
<svg version="1.1" id="Layer_1" xmlns="http://www.w3.org/2000/svg" xmlns:xlink="http://www.w3.org/1999/xlink" x="0px" y="0px"
	 viewBox="0 0 214.3 312.5" style="enable-background:new 0 0 214.3 312.5;" xml:space="preserve">
<style type="text/css">
	.st0{fill:#008CAD;}
	.st1{fill:#231F20;}
	.st2{fill:#00C3FF;}
	.st3{fill:#FFFFFF;}
	.st4{fill:#BBBDBF;}
</style>
<g id="Layer_2_1_">
	<g id="Layer_1-2">
		<path class="st0" d="M167.5,131.4c-15.8-28.7-16.8-84.3-60.4-84.3s-44.6,55.6-60.4,84.3c-2,3.8-5.2,6.7-9.1,8.4
			c6,0.4,11.9-1,17.2-3.8c6.2-3.4,11.9-7.8,19.1-9.2c8-1.6,16.5-0.7,24.7-0.2c2.8,0.2,5.7,0.6,8.5,0.6s5.7-0.4,8.5-0.6
			c8.1-0.5,16.6-1.4,24.6,0.2c7.3,1.4,12.9,5.8,19.1,9.2c5.3,2.8,11.2,4.1,17.2,3.8C172.7,138.2,169.5,135.2,167.5,131.4z"/>
		<path class="st1" d="M39.2,141.1h-1.6c-0.5,0-1-0.4-1.1-0.9c-0.1-0.5,0.2-1.1,0.7-1.3c3.7-1.6,6.7-4.4,8.6-7.9
			c4.3-7.9,7.5-17.8,10.9-28.3C61,89.1,65.5,75.1,73,64.3C81.5,52,92.7,46,107.1,46s25.7,6,34.2,18.3c7.4,10.7,12,24.7,16.3,38.3
			c3.4,10.5,6.6,20.4,10.9,28.3c1.9,3.5,4.9,6.3,8.6,7.9c0.6,0.3,0.9,1,0.6,1.5c-0.2,0.4-0.6,0.7-1,0.7h-1.6
			c-5.7,0.1-11.2-1.3-16.2-4c-1.7-0.9-3.3-1.9-4.9-2.8c-4.5-2.7-8.7-5.2-13.9-6.2c-3.4-0.6-6.8-0.9-10.2-0.9
			c-3.8,0-7.7,0.3-11.4,0.5l-2.7,0.2c-0.9,0.1-1.9,0.2-2.8,0.2c-1.9,0.2-3.9,0.4-5.8,0.4s-3.9-0.2-5.8-0.4c-0.9-0.1-1.9-0.2-2.8-0.2
			l-2.7-0.2c-3.8-0.3-7.6-0.5-11.4-0.5c-3.4,0-6.9,0.3-10.2,0.9c-5.2,1-9.4,3.5-13.9,6.2c-1.6,1-3.2,1.9-4.9,2.8
			C50.4,139.8,44.8,141.1,39.2,141.1z M129.9,124.8c3.6,0,7.2,0.3,10.7,0.9c5.6,1.1,10.2,3.9,14.7,6.5c1.6,0.9,3.2,1.9,4.8,2.8
			c3.8,2,7.9,3.3,12.2,3.6c-2.3-1.8-4.3-4-5.7-6.6c-4.4-8.1-7.7-18.1-11.1-28.7c-8.7-27-17.7-55-48.3-55s-39.6,28-48.3,55
			c-3.4,10.6-6.6,20.6-11.1,28.7c-1.4,2.6-3.3,4.8-5.7,6.6c4.3-0.3,8.4-1.5,12.1-3.6c1.6-0.9,3.2-1.8,4.8-2.8
			c4.5-2.7,9.1-5.5,14.6-6.6c3.5-0.7,7.1-1,10.7-0.9c3.9,0,7.8,0.3,11.6,0.5l2.7,0.2c1,0.1,2,0.2,2.9,0.2c1.8,0.2,3.8,0.3,5.6,0.3
			s3.7-0.2,5.6-0.3c1-0.1,1.9-0.2,2.9-0.2l2.7-0.2C122.1,125.1,126,124.8,129.9,124.8z"/>
		<path class="st2" d="M107.1,47.2c43.6,0,44.6,55.6,60.4,84.3c7,12.7,22.7,11.8,32.2,6.8c12.2-6.4,20-22.7,5.3-54.8
			c-26.8-58.5-52.8-82.2-97.9-82.2S36,24.9,9.2,83.4c-14.7,32.2-7,48.4,5.3,54.8c9.5,5,25.3,6,32.2-6.8
			C62.5,102.8,63.6,47.2,107.1,47.2z"/>
		<path class="st1" d="M185.8,142.8c-8.6,0-15.4-3.8-19.3-10.8c-4.4-8.1-7.7-18.1-11.1-28.7c-8.7-27-17.7-55-48.3-55
			s-39.6,28-48.3,55c-3.4,10.6-6.6,20.6-11.1,28.7c-3.8,7-10.7,10.8-19.3,10.8l0,0c-5.1,0-10-1.3-14.5-3.6
			C6.8,135.4,2.2,129,0.6,120.6c-1.8-10.1,0.7-22.8,7.6-37.8C35.8,22.5,62.7,0,107.1,0s71.3,22.5,99,82.9c6.9,15,9.4,27.7,7.6,37.8
			c-1.5,8.4-6.1,14.8-13.4,18.6C195.8,141.6,190.8,142.8,185.8,142.8z M107.1,46c14.5,0,25.7,6,34.2,18.3
			c7.4,10.7,12,24.7,16.3,38.3c3.4,10.5,6.6,20.4,10.9,28.3c3.4,6.2,9.5,9.6,17.2,9.6c4.7,0,9.3-1.2,13.4-3.3
			c6.5-3.4,11-9.7,12.1-16.9c1.8-9.6-0.7-21.8-7.4-36.4c-27.2-59.4-53.4-81.5-96.8-81.5S37.5,24.4,10.3,83.9
			c-6.7,14.5-9.1,26.8-7.4,36.4c1.1,7.3,5.6,13.6,12.1,16.9c4.2,2.1,8.8,3.3,13.4,3.3c7.7,0,13.8-3.4,17.2-9.6
			c4.3-7.9,7.5-17.8,10.9-28.3C61,89.1,65.5,75.1,73,64.3C81.5,52,92.7,46,107.1,46z"/>
		<path class="st3" d="M121.8,10.8c-7.6-1-14.2,1.3-14.7,5c0,0.3,0,0.5,0,0.8c0,0.1,2.1,20.5,11.2,20.5s16.1-16.8,16.1-16.9
			c0.1-0.3,0.2-0.5,0.2-0.8C135.2,15.7,129.4,11.8,121.8,10.8z"/>
		<path class="st1" d="M118.4,38.3c-9.9,0-12.2-19.3-12.4-21.5c0-0.4,0-0.7,0-1.1c0.5-3.8,5.4-6.3,12.3-6.3c1.2,0,2.5,0.1,3.7,0.2
			c8.4,1.1,14.5,5.4,13.9,9.9c-0.1,0.4-0.1,0.7-0.3,1.1C135.6,20.8,128.4,38.3,118.4,38.3z M118.3,11.8c-5.4,0-9.6,1.8-10,4.2
			c0,0.2,0,0.4,0,0.5c0,0.2,2.1,19.4,10.1,19.4c8.2,0,14.9-16,15-16.2c0.1-0.2,0.1-0.3,0.1-0.5c0.3-2.7-4.4-6.3-11.9-7.3
			C120.5,11.9,119.4,11.8,118.3,11.8z"/>
		<path class="st4" d="M112.8,17.5l0.2-0.1c0.1-0.1,0.3-0.2,0.5-0.4s0.4-0.3,0.8-0.5s0.6-0.3,1-0.5l0.6-0.2l0.7-0.2
			c0.5-0.1,1-0.2,1.5-0.3l0.8-0.1c0.3,0,0.6,0,0.8,0c0.3,0,0.6,0,0.8,0s0.6,0,0.8,0.1s0.6,0.1,0.8,0.1s0.6,0.1,0.8,0.2
			c0.5,0.1,1.1,0.3,1.6,0.5c0.5,0.2,0.9,0.4,1.4,0.7c0.2,0.1,0.4,0.2,0.6,0.4l0.5,0.4c0.3,0.2,0.6,0.5,0.9,0.8
			c0.2,0.2,0.4,0.5,0.6,0.7c0.3,0.4,0.5,0.6,0.5,0.6s-0.3-0.1-0.8-0.2l-0.8-0.3c-0.2-0.1-0.3-0.1-0.5-0.1l-0.5-0.2l-0.6-0.2
			c-0.2-0.1-0.4-0.1-0.6-0.1c-0.4-0.1-0.8-0.2-1.3-0.3s-0.9-0.2-1.4-0.3l-0.7-0.1c-0.2,0-0.5,0-0.7-0.1c-0.5-0.1-1-0.1-1.5-0.1
			s-1,0-1.4,0s-0.9,0-1.4,0H116h-0.6c-0.4,0-0.8,0-1.1,0l-0.8,0L112.8,17.5z"/>
		<path class="st3" d="M153,39.2c5.5-3.1,19.1-3,21.4,1.1s0.3,13.1-1.4,15.7c-4,6.2-17.4,14.2-25.1,5.3
			C143.9,52.6,147.4,42.3,153,39.2z"/>
		<path class="st1" d="M156.6,66.4c-3.7,0-7.2-1.6-9.6-4.4c-0.1-0.1-0.1-0.2-0.2-0.3c-4.3-9.1-0.6-20.2,5.5-23.6
			c2.6-1.5,6.9-2.3,11.4-2.3c2.2,0,9.6,0.3,11.6,3.8c2.5,4.5,0.5,13.9-1.4,16.9C170.9,61.3,163.4,66.4,156.6,66.4z M148.9,60.6
			c1.9,2.2,4.7,3.5,7.6,3.4c6.4,0,13-5,15.4-8.7c1.6-2.4,3.2-11,1.3-14.4c-0.9-1.5-4.8-2.6-9.5-2.6c-4.1,0-8,0.8-10.3,2
			C148.5,43.1,145.4,52.7,148.9,60.6z"/>
		<path class="st3" d="M150.4,21.9c-6.2-4.6-13.2-5.6-15.5-2.4c-0.2,0.2-0.3,0.5-0.4,0.8c-0.1,0.1-6,19.1-0.5,24.2
			s22.8-7.8,22.9-7.8c0.2-0.2,0.4-0.4,0.6-0.6C159.8,32.7,156.7,26.4,150.4,21.9z"/>
		<path class="st1" d="M137.5,46.8L137.5,46.8c-1.6,0.1-3.1-0.5-4.3-1.5c-6.2-5.6,0.1-25.3,0.2-25.5c0.1-0.4,0.3-0.7,0.6-1
			c1.3-1.6,3.4-2.5,5.5-2.4c3.5,0,7.8,1.6,11.7,4.5c6.9,5,10,11.9,7.3,15.7c-0.2,0.3-0.5,0.6-0.8,0.8
			C157.5,37.6,145.2,46.8,137.5,46.8z M135.6,20.7c-1.2,3.7-5.1,19-0.8,22.9c0.8,0.6,1.7,0.9,2.7,0.9c6.6,0,18-8.3,18.6-8.7
			c0.1-0.1,0.3-0.3,0.4-0.4c1.7-2.4-0.6-7.9-6.7-12.4c-3.4-2.5-7.3-4-10.3-4c-1.3-0.1-2.6,0.4-3.6,1.4
			C135.8,20.3,135.7,20.5,135.6,20.7z"/>
		<path class="st4" d="M138.7,24.9c0.2-0.1,0.5-0.2,0.8-0.2c0.7-0.1,1.3-0.2,2-0.2c1,0,1.9,0.2,2.9,0.4c0.3,0.1,0.5,0.2,0.8,0.2
			c0.3,0.1,0.5,0.2,0.8,0.3c1.1,0.4,2,1.1,2.9,1.8c0.2,0.2,0.4,0.4,0.6,0.6c0.2,0.2,0.4,0.4,0.6,0.6c0.2,0.2,0.3,0.4,0.5,0.6
			c0.1,0.2,0.3,0.4,0.4,0.6c0.2,0.4,0.5,0.8,0.7,1.2c0.2,0.4,0.3,0.7,0.4,1.1c0.1,0.3,0.2,0.6,0.2,0.9c0.1,0.5,0.1,0.8,0.1,0.8
			s-0.2-0.2-0.5-0.5c-0.2-0.2-0.4-0.4-0.6-0.6s-0.5-0.5-0.8-0.8s-0.6-0.6-0.9-0.9l-0.5-0.4l-0.5-0.4c-0.4-0.3-0.7-0.6-1.1-0.9
			s-0.8-0.6-1.2-0.8s-0.8-0.5-1.3-0.7l-1.3-0.7c-0.9-0.4-1.7-0.8-2.4-1s-1.4-0.5-1.8-0.7L138.7,24.9z"/>
		<path class="st3" d="M181.3,57.8c6.3,4.1,15.4,17.1,12.3,25.6s-19.7,11.9-23.4,10.9s-10-8.8-12.2-17.2
			C155.3,66.6,175,53.7,181.3,57.8z"/>
		<path class="st1" d="M171.9,95.7c-0.7,0-1.3-0.1-2-0.2c-4.1-1.1-10.7-9.2-13-18c-0.9-3.4,0.2-7.2,3.1-11.1
			c4.5-5.8,12.7-10.5,18.2-10.5c1.3,0,2.6,0.3,3.8,1c6.5,4.2,16.2,17.6,12.8,27C191.6,92.1,177.1,95.7,171.9,95.7z M178.2,58.2
			c-4.8,0-12.3,4.4-16.3,9.6c-1.7,2.2-3.6,5.6-2.7,9c2.2,8.2,8.3,15.5,11.3,16.3c0.4,0.1,0.9,0.1,1.4,0.1c5.7,0,18.1-3.7,20.6-10.3
			c2.9-7.8-5.9-20.3-11.8-24.1C179.9,58.4,179.1,58.2,178.2,58.2z"/>
		<path class="st4" d="M170.9,71.4c-0.4-2.8,1.7-7.6,2.2-4.3s0.5,5.4,2.4,7.6s3.9,3.7,6.2,2.6s5.1-1.8,2.5,0.4s-4,1.3-5.1,4.1
			s-3.7,4.9-3.1,1.4s1.3-4.7-0.7-6.8s-3.2-2.9-5.4-1.4s-2.9,0-0.9-1.7S171.1,73.3,170.9,71.4z"/>
		<path class="st3" d="M203.6,105.3c-1.1-6.6-5.4-20.2-18.3-14.2c-3.8,1.7-7.9,2.9-12,3.6c-9.5,1.6-5.7,16.2-3.8,22.1
			c1.1,3.6,2.7,7.6,5.8,9.9c3.2,2.3,7.2,0.8,10.9,0.7C204.2,126.4,204.8,112.7,203.6,105.3z"/>
		<path class="st1" d="M179.7,129.2L179.7,129.2c-1.8,0.1-3.6-0.5-5.1-1.5c-3.4-2.5-5.1-6.7-6.3-10.5c-2.9-9.4-3.2-16.1-0.8-20
			c1.2-2,3.2-3.3,5.5-3.6c4-0.6,7.9-1.8,11.7-3.5c2-1,4.2-1.6,6.5-1.6c10.1,0,12.9,12.8,13.5,16.7s1.1,11.4-3.4,16.9
			c-3.2,4-8.3,6.2-15.2,6.5c-0.9,0.1-1.8,0.2-2.8,0.3C182.2,129,181,129.1,179.7,129.2z M191.2,90.8c-1.9,0.1-3.8,0.5-5.5,1.4
			c-3.9,1.8-8,3-12.3,3.7c-1.6,0.2-3,1.1-3.9,2.5c-1.4,2.3-2.4,7.2,1,18.1c1.1,3.4,2.5,7.2,5.4,9.3c1.1,0.8,2.4,1.1,3.7,1.1l0,0
			c1.1,0,2.3-0.1,3.4-0.3c1-0.1,2-0.3,3-0.3c6.1-0.3,10.7-2.2,13.4-5.6c3.8-4.8,3.4-11.5,2.9-15S199.4,90.8,191.2,90.8z"/>
		<path class="st4" d="M185.3,105.5c0.1-1.2,1.8-8.6,2.1-6.4s-0.5,4.5,1.5,3.4s4.1-2,1.8,1.2s-4.1,7.2,0,10s5.8,6.8,1.9,4.4
			s-3.1-5.4-4.8-2.3s-5.3,5.3-4.2,2.3s4.9-10,1.1-9.3s-7.7,1.2-5.1-0.4S185.2,106.5,185.3,105.5z"/>
		<path class="st3" d="M92.4,10.8c7.6-1,14.2,1.3,14.7,5c0,0.3,0,0.5,0,0.8c0,0.1-2.1,20.5-11.2,20.5s-16-16.8-16.1-16.9
			c-0.1-0.3-0.2-0.5-0.2-0.8C79.1,15.7,84.8,11.8,92.4,10.8z"/>
		<path class="st1" d="M95.8,38.3c-10,0-17.1-17.5-17.2-17.7c-0.1-0.3-0.2-0.7-0.3-1.1c-0.6-4.5,5.5-8.9,13.9-9.9
			c1.2-0.2,2.5-0.2,3.7-0.2c6.9,0,11.8,2.5,12.3,6.3c0,0.4,0,0.7,0,1.1C108.1,19,105.7,38.3,95.8,38.3z M96,11.8
			c-1.1,0-2.3,0.1-3.4,0.2c-7.4,1-12.2,4.6-11.9,7.3c0,0.2,0.1,0.4,0.1,0.5C80.9,20,87.6,36,95.8,36c7.9,0,10-19.2,10.1-19.4
			c0-0.2,0-0.4,0-0.5C105.6,13.6,101.3,11.8,96,11.8z"/>
		<path class="st4" d="M101.5,17.5h-0.8l-0.8,0c-0.3,0-0.7,0-1.1,0h-0.6h-0.6c-0.4,0-0.9,0-1.4,0s-1,0-1.4,0s-1,0-1.5,0.1
			c-0.2,0-0.5,0-0.7,0.1l-0.7,0.1c-0.5,0-1,0.2-1.4,0.3s-0.9,0.2-1.3,0.3c-0.2,0-0.4,0.1-0.6,0.1l-0.6,0.2l-0.6,0.2
			c-0.2,0-0.3,0.1-0.5,0.1L86,19.3c-0.5,0.1-0.7,0.2-0.7,0.2c0.1-0.2,0.3-0.4,0.5-0.6c0.2-0.2,0.3-0.4,0.6-0.7
			c0.3-0.3,0.6-0.5,0.9-0.8l0.5-0.4c0.2-0.1,0.4-0.3,0.6-0.4c0.4-0.3,0.9-0.5,1.4-0.7c0.5-0.2,1-0.4,1.6-0.5
			c0.3-0.1,0.6-0.1,0.8-0.2s0.6-0.1,0.8-0.1s0.6-0.1,0.8-0.1s0.6,0,0.8,0c0.3,0,0.6,0,0.8,0l0.8,0.1c0.5,0.1,1,0.2,1.5,0.3l0.7,0.2
			l0.6,0.2c0.4,0.2,0.7,0.4,1,0.5s0.6,0.3,0.8,0.5s0.3,0.3,0.5,0.4L101.5,17.5z"/>
		<path class="st3" d="M61.3,39.2c-5.5-3.1-19.1-3-21.4,1.1S39.6,53.3,41.3,56c4,6.2,17.4,14.2,25,5.3
			C70.4,52.6,66.8,42.3,61.3,39.2z"/>
		<path class="st1" d="M57.7,66.4L57.7,66.4c-6.8,0-14.4-5.1-17.4-9.8c-1.9-3-3.9-12.4-1.4-16.9c2-3.6,9.4-3.8,11.6-3.8
			c4.6,0,8.8,0.9,11.4,2.3c6.1,3.4,9.8,14.4,5.5,23.6c0,0.1-0.1,0.2-0.2,0.3C64.9,64.8,61.4,66.4,57.7,66.4z M50.5,38.2
			c-4.7,0-8.6,1.1-9.5,2.6c-1.9,3.4-0.3,12,1.3,14.4c2.3,3.7,9,8.7,15.4,8.7l0,0c2.9,0,5.7-1.2,7.6-3.4c3.6-7.8,0.4-17.5-4.6-20.3
			C58.5,39,54.6,38.2,50.5,38.2z"/>
		<path class="st3" d="M63.8,21.9c6.2-4.6,13.2-5.6,15.5-2.4c0.2,0.2,0.3,0.5,0.4,0.8c0,0.1,6,19.1,0.5,24.2s-22.8-7.8-22.9-7.8
			c-0.2-0.2-0.4-0.4-0.6-0.6C54.5,32.7,57.6,26.4,63.8,21.9z"/>
		<path class="st1" d="M76.8,46.8c-7.7,0-20-9.2-20.1-9.3c-0.3-0.2-0.6-0.5-0.8-0.8c-2.8-3.8,0.4-10.7,7.3-15.7
			c3.9-2.9,8.2-4.5,11.7-4.5c2.1-0.2,4.2,0.7,5.5,2.4c0.2,0.3,0.4,0.6,0.6,1c0.1,0.2,6.4,19.9,0.2,25.5
			C79.9,46.3,78.3,46.8,76.8,46.8z M58.2,35.6c0.6,0.4,12,8.7,18.6,8.7c1,0.1,2-0.2,2.7-0.9c4.3-3.9,0.4-19.2-0.8-22.9
			c-0.1-0.2-0.2-0.3-0.3-0.5c-0.9-1-2.2-1.5-3.6-1.4c-3,0-6.8,1.5-10.3,4c-6.2,4.5-8.5,10-6.7,12.4C57.9,35.4,58,35.5,58.2,35.6z"/>
		<path class="st4" d="M75.6,24.9l-0.7,0.3c-0.4,0.2-1.1,0.4-1.8,0.7s-1.6,0.6-2.4,1l-1.3,0.7c-0.4,0.2-0.8,0.5-1.3,0.7
			s-0.8,0.5-1.2,0.8s-0.8,0.6-1.1,0.9l-0.5,0.4l-0.5,0.4c-0.3,0.3-0.6,0.6-0.9,0.9s-0.5,0.5-0.8,0.8s-0.4,0.4-0.6,0.6
			c-0.3,0.3-0.5,0.5-0.5,0.5s0-0.3,0.1-0.8c0-0.2,0.1-0.5,0.2-0.9c0.1-0.4,0.3-0.7,0.4-1c0.2-0.4,0.4-0.8,0.7-1.2
			c0.1-0.2,0.3-0.4,0.4-0.6c0.1-0.2,0.3-0.4,0.5-0.6c0.2-0.2,0.4-0.4,0.6-0.6c0.2-0.2,0.4-0.4,0.6-0.6c0.9-0.8,1.8-1.4,2.9-1.8
			c0.3-0.1,0.5-0.2,0.8-0.3c0.3-0.1,0.5-0.2,0.8-0.2c0.9-0.3,1.9-0.4,2.9-0.4c0.7,0,1.3,0,2,0.2C75,24.8,75.3,24.8,75.6,24.9z"/>
		<path class="st3" d="M32.9,57.8c-6.3,4.1-15.4,17.1-12.3,25.6S40.4,95.3,44,94.3s10-8.8,12.2-17.2C59,66.6,39.2,53.7,32.9,57.8z"
			/>
		<path class="st1" d="M42.4,95.7L42.4,95.7c-5.2,0-19.7-3.5-22.9-11.9c-3.5-9.3,6.3-22.8,12.8-27c1.1-0.7,2.4-1,3.7-1
			c5.5,0,13.7,4.7,18.2,10.5c3,3.8,4,7.6,3.1,11.1c-2.3,8.8-8.9,16.9-13,18C43.7,95.6,43.1,95.7,42.4,95.7z M36,58.2
			c-0.9,0-1.7,0.2-2.4,0.6C27.7,62.6,18.9,75.2,21.8,83c2.5,6.7,14.9,10.3,20.6,10.3l0,0c0.5,0,0.9,0,1.3-0.1
			c3.1-0.8,9.2-8.1,11.3-16.3c0.9-3.4-1-6.8-2.7-9C48.3,62.6,40.8,58.2,36,58.2z"/>
		<path class="st4" d="M43.4,71.4c0.3-2.8-1.7-7.6-2.2-4.3s-0.5,5.4-2.5,7.6s-3.9,3.7-6.2,2.6s-5.1-1.8-2.5,0.4s4,1.3,5.1,4.1
			s3.7,4.9,3.1,1.4s-1.3-4.7,0.7-6.8s3.2-2.9,5.4-1.4s2.9,0,1-1.8S43.2,73.3,43.4,71.4z"/>
		<path class="st3" d="M10.7,105.3C11.8,98.7,16,85.1,29,91.1c3.8,1.7,7.9,2.9,12,3.6c9.5,1.6,5.7,16.2,3.8,22.1
			c-1.1,3.6-2.7,7.6-5.8,9.9s-7.2,0.8-10.9,0.7C10.1,126.4,9.5,112.7,10.7,105.3z"/>
		<path class="st1" d="M34.6,129.2c-1.3,0-2.5-0.1-3.8-0.3c-1-0.1-1.9-0.3-2.8-0.3c-6.9-0.4-12-2.5-15.2-6.5c-4.4-5.5-4-13-3.4-16.9
			S13,88.4,23,88.4c2.3,0.1,4.5,0.6,6.5,1.6c3.7,1.7,7.6,2.8,11.7,3.5c2.3,0.3,4.3,1.6,5.5,3.6c2.4,3.9,2.2,10.7-0.8,20
			c-1.2,3.8-2.8,8-6.3,10.5C38.2,128.7,36.4,129.2,34.6,129.2z M23,90.8c-8.1,0-10.6,11.2-11.2,14.7s-1,10.3,2.9,15
			c2.8,3.4,7.3,5.3,13.4,5.6c1,0,2,0.2,3,0.3c1.1,0.2,2.3,0.3,3.4,0.3c1.3,0.1,2.6-0.3,3.7-1.1c2.8-2.1,4.3-5.9,5.4-9.3
			c3.4-10.8,2.4-15.8,1-18.1c-0.8-1.4-2.3-2.3-3.9-2.5c-4.2-0.7-8.4-1.9-12.3-3.7C26.8,91.3,24.9,90.8,23,90.8z"/>
		<path class="st4" d="M29,105.5c-0.1-1.2-1.8-8.6-2.1-6.4s0.5,4.5-1.5,3.4s-4.1-2-1.8,1.2s4,7.2,0,10s-5.8,6.8-1.9,4.4
			s3.1-5.4,4.8-2.3s5.3,5.3,4.2,2.3s-4.9-10-1.1-9.3s7.7,1.2,5.1-0.4S29.1,106.5,29,105.5z"/>
		<path class="st2" d="M107.1,265.3c43.6,0,44.6-55.6,60.4-84.3c7-12.7,22.7-11.8,32.2-6.8c12.2,6.4,20,22.7,5.3,54.8
			c-26.8,58.5-52.8,82.2-97.9,82.2S36,287.6,9.2,229.1c-14.7-32.2-7-48.4,5.3-54.8c9.5-5,25.3-6,32.2,6.8
			C62.5,209.8,63.6,265.3,107.1,265.3z"/>
		<path class="st1" d="M107.1,312.5c-44.5,0-71.3-22.5-99-82.9c-6.9-15-9.4-27.7-7.6-37.8c1.6-8.4,6.2-14.9,13.4-18.6
			c4.5-2.3,9.5-3.6,14.5-3.6c8.6,0,15.5,3.8,19.3,10.8c4.5,8.1,7.7,18.1,11.1,28.7c8.7,27,17.7,55,48.2,55s39.5-27.9,48.3-55
			c3.4-10.6,6.6-20.6,11.1-28.7c3.8-7,10.7-10.8,19.3-10.8c5.1,0,10,1.3,14.5,3.6c7.2,3.8,11.8,10.2,13.4,18.6
			c1.8,10.1-0.7,22.8-7.6,37.8C178.4,290.1,151.6,312.5,107.1,312.5z M28.5,172.1c-4.7,0-9.3,1.2-13.4,3.3
			c-6.5,3.4-11,9.7-12.1,16.9c-1.8,9.6,0.7,21.8,7.4,36.3c27.2,59.4,53.4,81.5,96.8,81.5s69.6-22.1,96.8-81.5
			c6.6-14.5,9.1-26.8,7.4-36.4c-1.1-7.3-5.6-13.5-12.1-16.9c-4.2-2.1-8.8-3.3-13.4-3.3c-4.5,0-12.6,1.2-17.2,9.6
			c-4.3,7.9-7.5,17.8-10.9,28.3c-4.4,13.6-8.9,27.6-16.3,38.3c-8.6,12.3-19.7,18.3-34.2,18.3s-25.7-6-34.2-18.3
			c-7.4-10.7-12-24.8-16.3-38.3c-3.4-10.5-6.6-20.4-10.9-28.3S33.9,172.1,28.5,172.1z"/>
		<path class="st3" d="M146.5,271c-0.5-1-1.6-10.2,2.1-15.4s9.6-6.4,14.3-0.8s9.6,17.4,6.9,20.5S150.4,278.5,146.5,271z"/>
		<path class="st1" d="M161.6,278.5c-6.1,0-13.5-1.8-16.2-6.9c-0.6-1.2-1.8-11,2.2-16.7c2.3-3.2,5.2-5,8.4-5c2.8,0,5.5,1.4,7.8,4.1
			c4.4,5.1,10.4,18,6.9,22.1C168.8,278.3,163.2,278.5,161.6,278.5z M147.5,270.5c2.2,4.2,8.9,5.6,14.1,5.6c3.9,0,6.6-0.8,7.3-1.6
			c2-2.3-2-13.3-6.9-19c-1.8-2.1-3.9-3.3-6-3.3c-2.4,0-4.7,1.4-6.5,4C146.2,261,147.2,269.5,147.5,270.5L147.5,270.5z"/>
		<path class="st3" d="M145.2,292.6c-6.2,2.8-14.9,3.6-13.7-0.9c2.4-8.8,0.2-20,4.2-22.1c8.1-4.1,12,6.2,18.3,12
			C157.3,284.7,151.4,289.8,145.2,292.6z"/>
		<path class="st1" d="M135.6,296.1c-2.3,0-3.9-0.6-4.8-1.7c-0.6-0.9-0.8-2-0.5-3c0.8-3.6,1.2-7.3,1.3-11.1
			c0.3-5.7,0.5-10.3,3.5-11.8c1.3-0.7,2.7-1.1,4.1-1.1c4.5,0,7.6,3.9,10.8,8c1.4,1.9,3,3.6,4.6,5.3c1,0.9,1.5,2.3,1.3,3.6
			c-0.6,3.7-6,7.4-10.4,9.4C142.5,295.2,139.1,296,135.6,296.1z M139.2,269.9c-1.1,0-2.1,0.3-3.1,0.8c-1.7,0.9-1.9,5.2-2.2,9.8
			c-0.1,3.9-0.5,7.7-1.4,11.5c-0.2,0.6,0,0.9,0.1,0.9s0.7,0.7,2.9,0.7c3.1-0.1,6.2-0.9,9.1-2.2c4.8-2.2,8.6-5.4,9-7.5
			c0.1-0.6-0.1-1.1-0.6-1.5c-1.8-1.7-3.4-3.6-4.9-5.5C145.3,273.3,142.6,269.9,139.2,269.9z"/>
		<path class="st3" d="M119.7,299.7c-6.5,0.8-14.8-1.1-12.5-5c4.5-7.7,4-18.9,9.8-19.9s7.8,10.6,13.9,17
			C133.9,295.1,126.2,298.9,119.7,299.7z"/>
		<path class="st1" d="M116.6,301.1c-4.2,0-9.2-0.9-10.7-3.5c-0.6-1.1-0.6-2.4,0.1-3.5c1.6-3.1,2.8-6.3,3.6-9.7
			c1.4-5.2,2.8-10.1,7-10.7c0.3,0,0.5-0.1,0.8-0.1c3.8,0,6,4.1,8.5,8.8c1.6,2.9,3.3,6.2,5.6,8.7c1,0.9,1.3,2.3,0.8,3.5
			c-1.2,3.5-8.2,5.8-12.7,6.4C118.7,301,117.7,301.1,116.6,301.1z M117.6,276h-0.4c-2.7,0.4-3.8,4.4-5.1,9c-0.8,3.6-2.1,7-3.8,10.3
			c-0.4,0.6-0.2,0.9-0.1,1.1c0.7,1.1,3.9,2.3,8.6,2.3c1,0,1.9-0.1,2.9-0.2c5.4-0.6,10.1-3.1,10.7-4.8c0.1-0.3,0.1-0.6-0.3-1.1
			c-2.5-2.6-4.4-6.1-6-9.2C121.8,279.5,120,276,117.6,276z"/>
		<path class="st3" d="M176.7,259.8c6.1-4.4,15.4-18.1,13.3-27.1s-16.7-12.6-20.1-11.6s-9.8,9.3-12.5,18.2
			C154,250.5,170.6,264.1,176.7,259.8z"/>
		<path class="st1" d="M173.9,261.8L173.9,261.8c-4.4,0-10.4-3.8-14.2-9c-3.4-4.7-4.6-9.6-3.3-13.8c2.8-9.2,9.4-17.8,13.3-18.9
			c0.6-0.2,1.3-0.3,1.9-0.2c5.9,0,17.8,4.4,19.8,12.7c2.3,9.8-7.6,23.9-13.8,28.3C176.4,261.5,175.1,261.9,173.9,261.8z
			 M171.4,222.2c-0.4,0-0.8,0-1.2,0.1c-2.8,0.9-9,8.6-11.7,17.4c-1.4,4.7,1.2,9.4,3,11.7c3.4,4.6,8.7,8,12.3,8l0,0
			c0.8,0,1.5-0.2,2.2-0.6c5.7-4.1,14.8-17.5,12.9-25.8C187.2,226,176.5,222.2,171.4,222.2L171.4,222.2z"/>
		<path class="st4" d="M168.5,245.4c-0.6,2.9,0.9,8.1,1.6,4.6s0.9-5.8,2.9-8.1s3.8-3.9,5.9-2.8s4.4,1.9,2.3-0.4s-3.5-1.4-4.3-4.3
			s-2.9-5.2-2.7-1.5s0.8,5-1.3,7.2s-3.1,3.1-5,1.5s-2.6-0.1-1,1.9S168.9,243.4,168.5,245.4z"/>
		<path class="st3" d="M201.5,209.7c-1.5,7-6.6,21.4-17.8,15c-3.3-1.8-6.8-3.1-10.5-3.7c-8.4-1.7-3.7-17.1-1.5-23.4
			c1.3-3.8,3.1-8.1,6.1-10.5s6.5-0.9,9.9-0.7C203.9,187.4,203.3,201.9,201.5,209.7z"/>
		<path class="st1" d="M189,227.6c-2.1-0.1-4.1-0.7-5.9-1.7c-3.2-1.8-6.6-3-10.1-3.7c-1.9-0.3-3.5-1.5-4.5-3.2
			c-2.3-4-1.6-11.3,2.1-21.8c1.4-4,3.2-8.4,6.5-11c1.4-1.1,3.1-1.7,4.9-1.6c1.1,0,2.3,0.2,3.4,0.4c0.8,0.2,1.6,0.3,2.4,0.3
			c5.6,0.4,9.9,2.3,12.5,5.8c4.4,5.8,3.4,14.4,2.3,18.9C201.8,214.1,198.1,227.6,189,227.6z M182,186.9c-1.2-0.1-2.4,0.3-3.4,1.1
			c-2.8,2.2-4.5,6.3-5.7,9.9c-3.3,9.5-4.1,16.6-2.3,19.8c0.6,1.1,1.7,1.8,2.9,2.1c3.8,0.7,7.5,2,10.8,3.9c1.4,0.9,3,1.4,4.7,1.4
			c7.5,0,10.8-13.1,11.3-15.7c0.9-4.2,1.9-11.9-1.9-17c-2.2-2.9-5.8-4.6-10.8-4.9c-0.9-0.1-1.8-0.2-2.7-0.4
			C184,187.1,183,187,182,186.9z"/>
		<path class="st4" d="M185.1,209.6c0,1.3,0.9,9.1,1.3,6.8s-0.1-4.7,1.7-3.6s3.5,2.1,1.8-1.3s-3-7.6,0.9-10.6s5.9-7.2,2.1-4.6
			s-3.2,5.7-4.5,2.5s-4.3-5.6-3.6-2.4s3.5,10.5,0.2,9.9s-6.9-1.3-4.6,0.4S185,208.5,185.1,209.6z"/>
		<path class="st3" d="M67.1,271c0.5-1,1.6-10.2-2.1-15.4s-9.5-6.4-14.3-0.8s-9.5,17.4-6.9,20.5S63.2,278.5,67.1,271z"/>
		<path class="st1" d="M51.9,278.5L51.9,278.5c-1.7,0-7.2-0.2-9.1-2.4c-3.5-4,2.5-16.9,6.9-22c2.3-2.7,5-4.1,7.8-4.1
			c3.2,0,6.2,1.8,8.4,5c4,5.7,2.8,15.5,2.2,16.7C65.5,276.7,58,278.5,51.9,278.5z M57.5,252.3c-2.1,0-4.2,1.1-6,3.3
			c-4.9,5.7-8.9,16.7-6.9,19c0.7,0.8,3.4,1.6,7.3,1.6l0,0c5.1,0,11.9-1.5,14-5.6c0.3-0.9,1.4-9.4-2-14.2
			C62.2,253.7,59.9,252.3,57.5,252.3L57.5,252.3z"/>
		<path class="st3" d="M68.3,292.6c6.2,2.8,14.9,3.6,13.7-0.9c-2.3-8.8-0.2-20-4.2-22.1c-8.1-4.1-12,6.2-18.3,12
			C56.2,284.7,62.2,289.8,68.3,292.6z"/>
		<path class="st1" d="M77.9,296.1L77.9,296.1c-3.5-0.1-6.9-0.9-10.1-2.4c-4.4-2-9.8-5.6-10.4-9.4c-0.2-1.4,0.3-2.7,1.3-3.6
			c1.7-1.6,3.2-3.4,4.7-5.3c3.3-4.1,6.3-8,10.8-8c1.4,0,2.9,0.4,4.1,1.1c3,1.5,3.2,6,3.5,11.8c0.1,3.7,0.5,7.4,1.3,11.1
			c0.3,1,0.2,2.1-0.5,3C81.8,295.5,80.2,296.1,77.9,296.1z M74.3,269.9c-3.3,0-6.1,3.4-9,7c-1.5,2-3.1,3.8-4.9,5.5
			c-0.5,0.4-0.7,0.9-0.6,1.5c0.3,2.1,4.2,5.4,9,7.5c2.9,1.3,5.9,2.1,9.1,2.2l0,0c2.1,0,2.7-0.6,2.9-0.7s0.2-0.3,0.1-0.9
			c-0.9-3.8-1.3-7.7-1.4-11.6c-0.2-4.6-0.4-8.9-2.2-9.8C76.4,270.2,75.3,269.9,74.3,269.9z"/>
		<path class="st3" d="M93.8,299.7c6.5,0.8,14.8-1.1,12.5-5c-4.5-7.7-4-18.9-9.8-19.9s-7.8,10.6-13.8,17
			C79.6,295.1,87.3,298.9,93.8,299.7z"/>
		<path class="st1" d="M96.9,301.1L96.9,301.1c-1.1,0-2.1-0.1-3.2-0.2c-4.5-0.5-11.4-2.9-12.7-6.4c-0.4-1.2-0.1-2.6,0.8-3.5
			c2.2-2.6,4.1-5.5,5.6-8.7c2.5-4.7,4.6-8.8,8.5-8.8c0.3,0,0.6,0,0.8,0.1c4.2,0.7,5.6,5.5,7,10.7c0.8,3.4,2,6.6,3.6,9.7
			c0.7,1,0.7,2.4,0.1,3.5C106,300.2,101.1,301.1,96.9,301.1z M95.9,276c-2.4,0-4.2,3.5-6.4,7.5c-1.6,3.1-3.4,6.5-6,9.2
			c-0.5,0.5-0.4,0.8-0.3,1.1c0.6,1.7,5.3,4.1,10.7,4.8c1,0.1,1.9,0.2,2.9,0.2c4.7,0,7.9-1.2,8.6-2.3c0.1-0.1,0.2-0.4-0.1-1.1
			c-1.7-3.3-3-6.7-3.8-10.3c-1.3-4.6-2.4-8.6-5.1-9H95.9z"/>
		<path class="st3" d="M36.8,259.8c-6.1-4.4-15.4-18.1-13.3-27.1s16.7-12.6,20.1-11.6s9.8,9.3,12.5,18.2
			C59.5,250.5,42.8,264.1,36.8,259.8z"/>
		<path class="st1" d="M39.6,261.8c-1.3,0-2.5-0.3-3.6-1c-6.2-4.4-16.1-18.5-13.8-28.3c2-8.3,13.9-12.7,19.8-12.7
			c0.7,0,1.3,0,1.9,0.2c3.8,1.2,10.5,9.7,13.3,18.9c1.3,4.2,0.1,9.1-3.3,13.8C50,258,44,261.8,39.6,261.8z M42.1,222.2
			c-5.1,0-15.8,3.8-17.5,10.8c-2,8.3,7.2,21.7,12.9,25.8c0.6,0.4,1.4,0.6,2.2,0.6c3.6,0,8.9-3.5,12.3-8.1c1.7-2.3,4.4-7,3-11.7
			c-2.7-8.8-8.9-16.5-11.7-17.4C42.9,222.2,42.5,222.2,42.1,222.2L42.1,222.2z"/>
		<path class="st4" d="M45,245.4c0.6,2.9-0.9,8.1-1.6,4.6s-0.9-5.8-2.9-8.1s-3.8-3.9-5.9-2.8s-4.4,1.9-2.3-0.4s3.5-1.4,4.3-4.3
			s2.9-5.2,2.7-1.5s-0.8,5,1.3,7.2s3.1,3.1,5,1.5s2.6-0.1,1,1.9S44.6,243.4,45,245.4z"/>
		<path class="st3" d="M12,209.7c1.5,7,6.6,21.4,17.8,15c3.3-1.8,6.8-3.1,10.5-3.7c8.4-1.7,3.7-17.1,1.5-23.4
			c-1.3-3.8-3.1-8.1-6.1-10.5s-6.5-0.9-9.9-0.7C9.6,187.4,10.2,201.9,12,209.7z"/>
		<path class="st1" d="M24.5,227.6L24.5,227.6c-9.1,0-12.8-13.4-13.7-17.6c-1-4.6-2-13.1,2.3-18.9c2.7-3.5,6.9-5.5,12.5-5.8
			c0.8-0.1,1.6-0.2,2.4-0.3c1.1-0.2,2.3-0.3,3.4-0.4c1.8,0,3.5,0.5,4.9,1.6c3.3,2.6,5.1,7,6.5,11c3.6,10.5,4.3,17.8,2.1,21.8
			c-0.9,1.7-2.6,2.9-4.5,3.2c-3.6,0.7-7,1.9-10.1,3.6C28.6,226.9,26.6,227.5,24.5,227.6z M31.5,186.9c-1,0-2,0.1-3,0.3
			c-0.9,0.2-1.8,0.3-2.7,0.4c-4.9,0.3-8.5,1.9-10.8,4.9c-3.8,5.1-2.8,12.8-1.9,17c0.6,2.6,3.8,15.7,11.4,15.7l0,0
			c1.7-0.1,3.3-0.6,4.7-1.4c3.4-1.9,7-3.2,10.8-3.9c1.2-0.2,2.3-1,2.9-2.1c1.8-3.2,1-10.3-2.3-19.8c-1.3-3.7-3-7.7-5.7-9.9
			C33.9,187.3,32.7,186.9,31.5,186.9L31.5,186.9z"/>
		<path class="st4" d="M28.4,209.6c0,1.3-0.9,9.1-1.3,6.8s0.1-4.7-1.7-3.6s-3.5,2.2-1.8-1.3s3-7.6-0.9-10.6s-5.9-7.2-2.1-4.6
			s3.3,5.7,4.5,2.5s4.3-5.6,3.6-2.4s-3.5,10.5-0.2,9.9s6.8-1.3,4.6,0.4S28.5,208.5,28.4,209.6z"/>
	</g>
</g>
</svg>
