<?xml version="1.0" encoding="utf-8"?>
<!-- Generator: Adobe Illustrator 24.1.0, SVG Export Plug-In . SVG Version: 6.00 Build 0)  -->
<svg version="1.1" id="Layer_1" xmlns="http://www.w3.org/2000/svg" xmlns:xlink="http://www.w3.org/1999/xlink" x="0px" y="0px"
	 viewBox="0 0 299.2 263.8" style="enable-background:new 0 0 299.2 263.8;" xml:space="preserve">
<style type="text/css">
	.st0{fill:#00FFFF;}
	.st1{fill:#FFFFFF;}
	.st2{fill:#FFD296;}
	.st3{fill:none;stroke:#231F20;stroke-width:3;stroke-miterlimit:10;}
	.st4{fill:#008EAF;}
	.st5{fill:#00C3FF;}
</style>
<g id="Layer_2_1_">
	<g id="Layer_1-2">
		<path class="st0" d="M297.6,53l-0.3-4.5l-4.5,0.9c-2.4,0.5-4.8,0.7-7.2,0.7c-20.1,0-36.4-16.3-36.4-36.5c0-2.1,0.2-4.2,0.6-6.3
			l0.7-4l-4.1-0.6c-4.9-0.7-9.8-1.1-14.7-1.1c-19.4,0-35.9,5.1-47.7,14.9c-12,9.9-18.3,23.9-18.3,40.4v88.5c0,9.6,7.8,4.5,17.5,4.5
			c9.6,0,17.5-7.8,17.5-17.5v-8.1c0-8.2,6.7-14.9,14.9-14.9c8.2,0,14.9,6.7,14.9,14.9v24.3c0,9.7,7.8,17.5,17.5,17.5
			c9.7,0,17.5-7.8,17.5-17.5v-32.5c0-8.2,6.6-14.9,14.8-14.9c4,0,7.9,1.6,10.7,4.5l6.9,7V56.7C297.7,55.3,297.7,54.1,297.6,53z"/>
		<path class="st1" d="M280.2,98.6c-9.7,0-17.5,7.8-17.5,17.5v32.4c0,8.2-6.7,14.9-14.9,14.9c-8.2,0-14.9-6.7-14.9-14.9v-24.3
			c0-9.7-7.8-17.5-17.5-17.5s-17.5,7.8-17.5,17.5l0,0v8.1c0,8.2-6.7,14.9-14.9,14.9c-4,0-7.9-1.6-10.6-4.5c-0.8-0.8-1.8-1.2-2.9-1.2
			c-0.5,0-1,0.1-1.5,0.3c-1.5,0.6-2.5,2.1-2.5,3.7v43.5c0,2.2,1.8,4,4,4h124c2.2,0,4-1.8,4-4v-72.8
			C297.6,106.5,289.9,98.7,280.2,98.6z"/>
		<path class="st2" d="M231.7,255.6c-10,0-18.2-8.1-18.2-18.2v-42.2h36.4v42.2C249.8,247.5,241.7,255.6,231.7,255.6z"/>
		<path class="st2" d="M247.9,197.3v40.2c0,8.9-7.2,16.2-16.2,16.2c-8.9,0-16.2-7.2-16.2-16.2c0,0,0,0,0,0v-40.2H247.9 M251.9,192.3
			h-40.4v45.2c0,11.1,9,20.2,20.2,20.2c11.1,0,20.2-9,20.2-20.2V192.3z"/>
		<path class="st3" d="M297.7,112.6V56.7c0-1.4,0-2.7-0.1-3.8l-0.3-4.5l-4.5,0.9c-2.4,0.5-4.8,0.7-7.2,0.7
			c-20.1,0-36.4-16.3-36.4-36.5c0-2.1,0.2-4.2,0.6-6.3l0.7-4l-4.1-0.6c-4.9-0.7-9.8-1.1-14.7-1.1c-19.4,0-35.9,5.1-47.7,14.9
			c-12,9.9-18.3,23.9-18.3,40.4v88.3c0,0.1,0,0.2,0,0.4v43.5c0,2.2,1.8,4,4,4h41.8v44.5c0,11.1,9,20.2,20.2,20.2
			c11.1,0,20.2-9,20.2-20.2v-44.6h41.8c2.2,0,4-1.8,4-4V112.6z"/>
		<path class="st4" d="M130.4,54c-4-30.2-31.8-51.4-62-47.4C43.8,9.9,24.4,29.2,21,53.8l-1.3,9.1l7.5-5.2C41,48,58.4,45.4,74.4,50.5
			l1.2,0.4l1.2-0.4c5.3-1.7,10.8-2.5,16.3-2.5c11.1,0,21.9,3.4,31,9.8l7.5,5.3L130.4,54z"/>
		<path class="st2" d="M75.7,260.3c-4.5-0.2-8.5-2.9-10.4-7l-0.3-0.7c-8.3-18.4-36.7-81.1-52-117.6l-1.2-2.8h65.9v34.1
			c0,7.8,6.3,14.2,14.2,14.2s14.2-6.3,14.2-14.2v-34.1h33.3L86.1,253.3C84.1,257.4,80.2,260,75.7,260.3z"/>
		<path class="st2" d="M136.3,134.2L84.2,252.5c-1.6,3.3-4.9,5.5-8.5,5.8c-3.7-0.2-7-2.5-8.6-5.8c-0.3-0.8-35-76.8-52.3-118.2h60.8
			v32.1c0,8.9,7.2,16.2,16.2,16.2c8.9,0,16.2-7.2,16.2-16.2v-32.1H136.3 M142.4,130.2h-38.4v36.1c0,6.7-5.5,12.2-12.2,12.2
			s-12.2-5.5-12.2-12.2v-36.1H8.9l2.3,5.5c15.2,36.5,43.6,99.3,52,117.6l0.3,0.7c2.2,4.8,6.9,7.9,12.2,8.2c5.3-0.2,10-3.4,12.2-8.2
			L140,135.8L142.4,130.2L142.4,130.2z"/>
		<path class="st5" d="M119.1,51.7l-1.3-0.7l-0.3-0.2c-11.3-5.6-26.1-8.9-42.3-8.9c-27.3,0-50.5,9.5-59.9,23
			c-16,18.4-18.4,45.1-5.8,66l1.2,1.9h66.4v33.5c0.2,8.2,7,14.6,15.2,14.4c7.9-0.2,14.2-6.5,14.4-14.4v-33.6h33.9l1.2-1.9
			c16-26.7,7.4-61.4-19.4-77.4C121.3,52.8,120.2,52.2,119.1,51.7z"/>
		<path class="st3" d="M149.7,101.9c0-15.9-6.7-31.1-18.5-41.8l-0.8-6.1c-4-30.2-31.8-51.4-62-47.4C43.8,9.9,24.4,29.2,21,53.8
			l-0.8,5.5c-1.8,1.7-3.5,3.6-4.9,5.6C-0.4,83.2-3,109.3,8.9,130.2l0,0l2.3,5.5c15.2,36.5,43.6,99.3,52,117.6l0.3,0.7
			c2.2,4.8,6.9,7.9,12.2,8.2c5.3-0.2,10-3.4,12.2-8.2L140,135.8l2.5-5.6l0,0C147.4,121.6,149.9,111.8,149.7,101.9z"/>
	</g>
</g>
</svg>
