<svg xmlns="http://www.w3.org/2000/svg" viewBox="0 0 72.71 78.96"><path d="M7.74 48.33c.57 6.72 2.55 15.92 5.19 21.75 1 2.12 2 3.67 2.87 4.29.29.19.68.07 1.16-.5 1.71-2 3.46-6.76 5.15-15.4.61-3.14 1.08-6.29 1.59-9.45.93-5.7 2.38-11.52 4.42-15.73s4.73-6.93 8.23-6.93 6.21 2.74 8.24 6.93c1.85 3.81 3.34 9.61 4.27 14.77a13 13 0 01-3.92 3c-.87-5.56-2.37-11.93-4.28-15.88-1.31-2.69-2.77-4.46-4.31-4.46s-3 1.76-4.3 4.46c-2 4.07-3.36 10-4.22 15.72-.2 1.3-.39 2.54-.59 3.73 2.9 2 6 3.82 9.11 5.56 7.32-4 14.55-8.94 20.24-15.12A43.81 43.81 0 0068 21.94a25.36 25.36 0 00.33-3.41 16.68 16.68 0 00-2.16-9.35A10 10 0 0059 4.55a13.71 13.71 0 00-2-.19c-4.63-.13-9.12 2.33-13.69 4.84-5.1 2.79-10.3 5.65-16.44 5.65a2.19 2.19 0 010-4.38 16.47 16.47 0 003.29-.34l-.86-.48c-4.57-2.5-9.07-5-13.69-4.83a15.34 15.34 0 00-2 .18 10 10 0 00-7.08 4.64A16.66 16.66 0 004.37 19a25.36 25.36 0 00.33 3.4 42.69 42.69 0 0011.4 22.88c1.28 1.37 2.65 2.67 4.08 3.93a45.18 45.18 0 01-.87 5 62.8 62.8 0 01-6.38-5.91A46.94 46.94 0 01.4 23.1a29.94 29.94 0 01-.39-4A21 21 0 012.84 7.31 14.23 14.23 0 0113 .7a20.09 20.09 0 012.54-.24C21.36.3 26.36 3 31.45 5.83c1.51.83 3 1.66 4.41 2.34 1.83-.84 3.62-1.82 5.4-2.8C46.35 2.58 51.35-.16 57.17 0a18.44 18.44 0 012.54.23 14.24 14.24 0 0110.16 6.63 21 21 0 012.83 11.79 29.94 29.94 0 01-.39 4A48.06 48.06 0 0159.8 48a68.64 68.64 0 01-9.56 8.49c1.79 9.89 3.68 15.2 5.51 17.35.48.57.86.69 1.16.5.92-.62 1.91-2.17 2.87-4.29 2.67-5.91 4.68-15.31 5.22-22a53.33 53.33 0 004.35-6.13c.75 6.34-1.78 21.54-5.59 30C62.47 74.7 61 76.9 59.31 78c-2.3 1.53-4.63 1.33-6.87-1.3s-4.23-7.9-6.12-17.44c-2.87 1.9-5.86 3.67-8.92 5.33a2.18 2.18 0 01-2.1 0c-3.07-1.67-6-3.41-8.92-5.28-1.89 9.51-4 14.92-6.11 17.4C18 79.34 15.7 79.53 13.39 78c-1.66-1.1-3.15-3.3-4.43-6.13-3.77-8.3-6.27-23.17-5.63-29.67a52.34 52.34 0 004.41 6.13" fill="#2bc9c6" data-name="tooth"/></svg>