<svg xmlns="http://www.w3.org/2000/svg" viewBox="0 0 6.83 469.81">
  <defs>
    <style>
      .color-a {
        fill: #00ff00;
      }
    </style>
  </defs>
  <title>Asset 1shape</title>
  <path class="color-a" d="M6.83,3.39A3.42,3.42,0,1,1,3.42,0,3.4,3.4,0,0,1,6.83,3.39Z"/>
  <path class="color-a" d="M3.42,9.2A3.33,3.33,0,1,1,.06,12.53,3.34,3.34,0,0,1,3.42,9.2Z"/>
  <path class="color-a" d="M3.42,18.4a3.27,3.27,0,1,1-3.3,3.27A3.28,3.28,0,0,1,3.42,18.4Z"/>
  <path class="color-a" d="M3.42,27.6A3.21,3.21,0,1,1,.18,30.81,3.22,3.22,0,0,1,3.42,27.6Z"/>
  <path class="color-a" d="M3.42,36.8A3.15,3.15,0,1,1,.24,40,3.16,3.16,0,0,1,3.42,36.8Z"/>
  <path class="color-a" d="M3.42,46A3.09,3.09,0,1,1,.3,49.09,3.1,3.1,0,0,1,3.42,46Z"/><path class="color-a" d="M3.42,55.2a3,3,0,1,1-3,3A3,3,0,0,1,3.42,55.2Z"/><path class="color-a" d="M3.42,64.4a3,3,0,1,1-3,3A3,3,0,0,1,3.42,64.4Z"/><path class="color-a" d="M3.42,73.6A2.91,2.91,0,1,1,.49,76.51,2.91,2.91,0,0,1,3.42,73.6Z"/><path class="color-a" d="M3.42,82.8A2.85,2.85,0,1,1,.55,85.65,2.85,2.85,0,0,1,3.42,82.8Z"/><path class="color-a" d="M3.42,92A2.79,2.79,0,1,1,.61,94.78,2.8,2.8,0,0,1,3.42,92Z"/><path class="color-a" d="M3.42,101.2a2.73,2.73,0,1,1-2.75,2.73A2.74,2.74,0,0,1,3.42,101.2Z"/><path class="color-a" d="M3.42,110.4a2.67,2.67,0,1,1-2.69,2.66A2.67,2.67,0,0,1,3.42,110.4Z"/><path class="color-a" d="M3.42,119.6a2.61,2.61,0,1,1-2.63,2.6A2.62,2.62,0,0,1,3.42,119.6Z"/><path class="color-a" d="M3.42,128.8a2.55,2.55,0,1,1-2.57,2.54A2.55,2.55,0,0,1,3.42,128.8Z"/><path class="color-a" d="M3.42,138a2.48,2.48,0,1,1-2.51,2.48A2.49,2.49,0,0,1,3.42,138Z"/><path class="color-a" d="M3.42,147.2A2.42,2.42,0,1,1,1,149.62,2.42,2.42,0,0,1,3.42,147.2Z"/><path class="color-a" d="M3.42,156.4A2.36,2.36,0,1,1,1,158.76,2.37,2.37,0,0,1,3.42,156.4Z"/><path class="color-a" d="M3.42,165.6a2.3,2.3,0,1,1-2.32,2.3A2.3,2.3,0,0,1,3.42,165.6Z"/><path class="color-a" d="M3.42,174.8A2.24,2.24,0,1,1,1.16,177,2.24,2.24,0,0,1,3.42,174.8Z"/><path class="color-a" d="M3.42,184a2.18,2.18,0,1,1-2.2,2.18A2.19,2.19,0,0,1,3.42,184Z"/><path class="color-a" d="M3.42,193.2a2.12,2.12,0,1,1-2.14,2.12A2.13,2.13,0,0,1,3.42,193.2Z"/><path class="color-a" d="M3.42,202.4a2.06,2.06,0,1,1-2.08,2.06A2.07,2.07,0,0,1,3.42,202.4Z"/><path class="color-a" d="M3.42,211.6a2,2,0,1,1-2,2A2,2,0,0,1,3.42,211.6Z"/><path class="color-a" d="M3.42,220.8a1.94,1.94,0,1,1-2,1.94A2,2,0,0,1,3.42,220.8Z"/><path class="color-a" d="M3.42,230a1.89,1.89,0,0,1,1.89,1.88A1.9,1.9,0,1,1,3.42,230Z"/><path class="color-a" d="M3.42,239.2A1.82,1.82,0,1,1,1.59,241,1.82,1.82,0,0,1,3.42,239.2Z"/><path class="color-a" d="M3.42,248.4a1.76,1.76,0,1,1-1.77,1.76A1.76,1.76,0,0,1,3.42,248.4Z"/><path class="color-a" d="M3.42,257.6a1.7,1.7,0,1,1-1.71,1.7A1.7,1.7,0,0,1,3.42,257.6Z"/><path class="color-a" d="M3.42,266.8a1.64,1.64,0,1,1-1.65,1.64A1.64,1.64,0,0,1,3.42,266.8Z"/><path class="color-a" d="M3.42,276a1.58,1.58,0,1,1-1.59,1.58A1.58,1.58,0,0,1,3.42,276Z"/><path class="color-a" d="M3.42,285.2a1.52,1.52,0,0,1,1.52,1.51,1.53,1.53,0,0,1-3.05,0A1.52,1.52,0,0,1,3.42,285.2Z"/><path class="color-a" d="M3.42,294.4A1.46,1.46,0,1,1,2,295.86,1.46,1.46,0,0,1,3.42,294.4Z"/><path class="color-a" d="M3.42,303.6A1.4,1.4,0,0,1,4.82,305a1.42,1.42,0,0,1-1.4,1.4A1.43,1.43,0,0,1,2,305,1.4,1.4,0,0,1,3.42,303.6Z"/><path class="color-a" d="M3.42,312.8a1.34,1.34,0,0,1,1.34,1.33,1.35,1.35,0,0,1-2.69,0A1.34,1.34,0,0,1,3.42,312.8Z"/><path class="color-a" d="M3.42,322a1.28,1.28,0,0,1,1.28,1.27,1.3,1.3,0,0,1-1.28,1.28,1.3,1.3,0,0,1-1.29-1.28A1.28,1.28,0,0,1,3.42,322Z"/><path class="color-a" d="M3.42,331.2a1.22,1.22,0,0,1,1.22,1.21,1.23,1.23,0,0,1-2.45,0A1.22,1.22,0,0,1,3.42,331.2Z"/><path class="color-a" d="M3.42,340.4a1.16,1.16,0,0,1,1.16,1.15,1.16,1.16,0,0,1-2.32,0A1.15,1.15,0,0,1,3.42,340.4Z"/><path class="color-a" d="M3.42,349.6a1.1,1.1,0,0,1,1.1,1.09,1.12,1.12,0,0,1-1.1,1.09,1.11,1.11,0,0,1-1.1-1.09A1.09,1.09,0,0,1,3.42,349.6Z"/><ellipse class="color-a" cx="3.42" cy="359.83" rx="1.04" ry="1.03"/><path class="color-a" d="M3.42,368a1,1,0,0,1,1,1,1,1,0,0,1-1.95,0A1,1,0,0,1,3.42,368Z"/><path class="color-a" d="M3.42,377.2a.91.91,0,0,1,.91.91.93.93,0,0,1-.91.91.94.94,0,0,1-.92-.91A.92.92,0,0,1,3.42,377.2Z"/><path class="color-a" d="M3.42,386.4a.85.85,0,0,1,.85.85.88.88,0,0,1-.85.85.88.88,0,0,1-.86-.85A.85.85,0,0,1,3.42,386.4Z"/><path class="color-a" d="M3.42,395.6a.79.79,0,0,1,.79.79.82.82,0,0,1-.79.79.82.82,0,0,1-.8-.79A.79.79,0,0,1,3.42,395.6Z"/><path class="color-a" d="M3.42,404.8a.73.73,0,0,1,.73.73.76.76,0,0,1-.73.73.76.76,0,0,1-.74-.73A.74.74,0,0,1,3.42,404.8Z"/><path class="color-a" d="M3.42,414a.67.67,0,0,1,.67.67.7.7,0,0,1-.67.67.7.7,0,0,1-.68-.67A.67.67,0,0,1,3.42,414Z"/><path class="color-a" d="M3.42,423.2a.61.61,0,0,1,.61.61.64.64,0,0,1-.61.6.64.64,0,0,1-.62-.6A.61.61,0,0,1,3.42,423.2Z"/><path class="color-a" d="M3.42,432.4A.55.55,0,0,1,4,433a.57.57,0,0,1-.55.54.57.57,0,0,1-.55-.54A.54.54,0,0,1,3.42,432.4Z"/><path class="color-a" d="M3.42,441.6a.49.49,0,0,1,.49.49.51.51,0,0,1-.49.48.51.51,0,0,1-.49-.48A.48.48,0,0,1,3.42,441.6Z"/><path class="color-a" d="M3.42,450.8a.42.42,0,0,1,.42.43.45.45,0,0,1-.42.42.45.45,0,0,1-.43-.42A.43.43,0,0,1,3.42,450.8Z"/><path class="color-a" d="M3.42,460a.36.36,0,0,1,.36.37.39.39,0,0,1-.36.36.39.39,0,0,1-.37-.36A.36.36,0,0,1,3.42,460Z"/><path class="color-a" d="M3.42,469.2a.31.31,0,0,0-.31.31.33.33,0,0,0,.31.3.33.33,0,0,0,.3-.3A.3.3,0,0,0,3.42,469.2Z"/></svg>
