<?xml version="1.0" encoding="utf-8"?>
<svg version="1.1" id="Layer_1" xmlns="http://www.w3.org/2000/svg" xmlns:xlink="http://www.w3.org/1999/xlink" x="0px" y="0px" viewBox="0 0 9 200" style="enable-background:new 0 0 9 200;" xml:space="preserve">
	<style type="text/css">
		.color-a {
			fill: #00FFFF;
		}
	</style>
	<g>
		<path class="color-a" d="M4.5,200c-0.88,0-1.59-0.71-1.59-1.59c0-0.88,0.74-1.59,1.59-1.59c0.85,0,1.59,0.71,1.59,1.59
		C6.09,199.29,5.38,200,4.5,200z"/>
		<path class="color-a" d="M4.5,190.72c-0.84,0-1.53-0.68-1.53-1.53c0-0.84,0.71-1.53,1.53-1.53c0.82,0,1.53,0.68,1.53,1.53
		C6.03,190.03,5.35,190.72,4.5,190.72z"/>
		<path class="color-a" d="M4.5,181.43c-0.81,0-1.47-0.66-1.47-1.47c0-0.81,0.68-1.47,1.47-1.47c0.78,0,1.47,0.66,1.47,1.47
		C5.97,180.78,5.31,181.43,4.5,181.43z"/>
		<path class="color-a" d="M4.5,172.15c-0.78,0-1.41-0.63-1.41-1.41c0-0.78,0.66-1.41,1.41-1.41c0.75,0,1.41,0.63,1.41,1.41
		C5.91,171.52,5.28,172.15,4.5,172.15z"/>
		<path class="color-a" d="M4.5,162.87c-0.74,0-1.35-0.6-1.35-1.35c0-0.74,0.63-1.34,1.35-1.34c0.71,0,1.35,0.6,1.35,1.34
		C5.85,162.26,5.24,162.87,4.5,162.87z"/>
		<path class="color-a" d="M4.5,153.58c-0.71,0-1.28-0.57-1.28-1.28s0.61-1.28,1.28-1.28c0.68,0,1.28,0.57,1.28,1.28
		S5.21,153.58,4.5,153.58z"/>
		<path class="color-a" d="M4.5,144.3c-0.68,0-1.22-0.55-1.22-1.22c0-0.68,0.58-1.22,1.22-1.22c0.65,0,1.22,0.55,1.22,1.22
		C5.72,143.75,5.18,144.3,4.5,144.3z"/>
		<path class="color-a" d="M4.5,135.02c-0.64,0-1.16-0.52-1.16-1.16c0-0.64,0.55-1.16,1.16-1.16c0.61,0,1.16,0.52,1.16,1.16
		C5.66,134.49,5.14,135.02,4.5,135.02z"/>
		<path class="color-a" d="M4.5,125.73c-0.61,0-1.1-0.49-1.1-1.1c0-0.61,0.53-1.1,1.1-1.1c0.58,0,1.1,0.49,1.1,1.1
		C5.6,125.24,5.11,125.73,4.5,125.73z"/>
		<path class="color-a" d="M4.5,116.45c-0.57,0-1.04-0.46-1.04-1.04s0.5-1.04,1.04-1.04c0.54,0,1.04,0.46,1.04,1.04
		S5.07,116.45,4.5,116.45z"/>
		<path class="color-a" d="M4.5,107.17c-0.54,0-0.98-0.44-0.98-0.98c0-0.54,0.47-0.98,0.98-0.98c0.51,0,0.98,0.44,0.98,0.98
		C5.48,106.73,5.04,107.17,4.5,107.17z"/>
		<path class="color-a" d="M4.5,97.88c-0.51,0-0.92-0.41-0.92-0.92c0-0.51,0.45-0.92,0.92-0.92c0.47,0,0.92,0.41,0.92,0.92
		C5.42,97.47,5.01,97.88,4.5,97.88z"/>
		<path class="color-a" d="M4.5,88.6c-0.47,0-0.86-0.38-0.86-0.86c0-0.47,0.42-0.86,0.86-0.86c0.44,0,0.86,0.38,0.86,0.86
		C5.36,88.22,4.98,88.6,4.5,88.6z"/>
		<path class="color-a" d="M4.5,79.32c-0.44,0-0.8-0.36-0.8-0.8c0-0.44,0.39-0.8,0.8-0.8c0.4,0,0.8,0.36,0.8,0.8
		C5.3,78.96,4.94,79.32,4.5,79.32z"/>
		<path class="color-a" d="M4.5,70.03c-0.41,0-0.73-0.33-0.73-0.73s0.36-0.73,0.73-0.73c0.37,0,0.73,0.33,0.73,0.73S4.91,70.03,4.5,70.03
		z"/>
		<path class="color-a" d="M4.5,60.75c-0.37,0-0.67-0.3-0.67-0.67c0-0.37,0.34-0.67,0.67-0.67c0.33,0,0.67,0.3,0.67,0.67
		C5.17,60.45,4.87,60.75,4.5,60.75z"/>
		<path class="color-a" d="M4.5,51.46c-0.34,0-0.61-0.27-0.61-0.61c0-0.34,0.31-0.61,0.61-0.61c0.3,0,0.61,0.27,0.61,0.61
		C5.11,51.19,4.84,51.46,4.5,51.46z"/>
		<path class="color-a" d="M4.5,42.18c-0.31,0-0.55-0.25-0.55-0.55c0-0.31,0.29-0.55,0.55-0.55c0.27,0,0.55,0.25,0.55,0.55
		C5.05,41.94,4.81,42.18,4.5,42.18z"/>
		<path class="color-a" d="M4.5,32.9c-0.27,0-0.49-0.22-0.49-0.49c0-0.27,0.26-0.49,0.49-0.49c0.23,0,0.49,0.22,0.49,0.49
		C4.99,32.68,4.77,32.9,4.5,32.9z"/>
		<path class="color-a" d="M4.5,23.61c-0.24,0-0.43-0.19-0.43-0.43c0-0.24,0.23-0.43,0.43-0.43c0.2,0,0.43,0.19,0.43,0.43
		C4.93,23.42,4.74,23.61,4.5,23.61z"/>
		<path class="color-a" d="M4.5,14.33c-0.2,0-0.37-0.17-0.37-0.37c0-0.2,0.21-0.37,0.37-0.37s0.37,0.16,0.37,0.37
		C4.87,14.17,4.7,14.33,4.5,14.33z"/>
		<path class="color-a" d="M4.5,5.05c0.17,0,0.31-0.14,0.31-0.31c0-0.17-0.18-0.31-0.31-0.31c-0.13,0-0.31,0.14-0.31,0.31
		C4.19,4.91,4.33,5.05,4.5,5.05z"/>
	</g>
</svg>
