<?xml version="1.0" encoding="utf-8"?>
<svg version="1.1" id="Layer_1" xmlns="http://www.w3.org/2000/svg" xmlns:xlink="http://www.w3.org/1999/xlink" x="0px" y="0px" viewBox="0 0 9 476" style="enable-background:new 0 0 9 476;" xml:space="preserve">
	<style type="text/css">
		.color-a {
			fill: #007e9b;
		}
	</style>
	<g>
		<g>
			<path class="color-a" d="M1.09,472.58c0-1.88,1.53-3.41,3.41-3.41c1.89,0,3.42,1.53,3.42,3.41c0,1.89-1.53,3.42-3.42,3.42
			C2.62,476,1.09,474.47,1.09,472.58z"/>
			<path class="color-a" d="M4.5,466.73c-1.85,0-3.35-1.5-3.35-3.35c0-1.85,1.5-3.35,3.35-3.35c1.85,0,3.35,1.5,3.35,3.35
			C7.85,465.23,6.35,466.73,4.5,466.73z"/>
			<path class="color-a" d="M4.5,457.47c-1.82,0-3.29-1.48-3.29-3.29c0-1.82,1.48-3.29,3.29-3.29c1.82,0,3.29,1.48,3.29,3.29
			C7.79,455.99,6.32,457.47,4.5,457.47z"/>
			<path class="color-a" d="M4.5,448.2c-1.78,0-3.23-1.45-3.23-3.23c0-1.78,1.45-3.23,3.23-3.23c1.78,0,3.23,1.45,3.23,3.23
			C7.73,446.75,6.28,448.2,4.5,448.2z"/>
			<path class="color-a" d="M4.5,438.93c-1.75,0-3.17-1.42-3.17-3.17c0-1.75,1.43-3.17,3.17-3.17c1.75,0,3.17,1.42,3.17,3.17
			C7.67,437.51,6.25,438.93,4.5,438.93z"/>
			<path class="color-a" d="M4.5,429.67c-1.72,0-3.11-1.39-3.11-3.11s1.4-3.11,3.11-3.11c1.71,0,3.11,1.39,3.11,3.11
			S6.22,429.67,4.5,429.67z"/>
			<path class="color-a" d="M4.5,420.4c-1.68,0-3.05-1.36-3.05-3.05c0-1.68,1.37-3.05,3.05-3.05c1.68,0,3.05,1.37,3.05,3.05
			C7.55,419.03,6.18,420.4,4.5,420.4z"/>
			<path class="color-a" d="M4.5,411.13c-1.65,0-2.99-1.34-2.99-2.99c0-1.65,1.34-2.99,2.99-2.99c1.64,0,2.99,1.34,2.99,2.99
			C7.49,409.79,6.15,411.13,4.5,411.13z"/>
			<path class="color-a" d="M4.5,401.86c-1.62,0-2.93-1.31-2.93-2.93c0-1.62,1.32-2.93,2.93-2.93c1.61,0,2.93,1.31,2.93,2.93
			C7.43,400.55,6.12,401.86,4.5,401.86z"/>
			<path class="color-a" d="M4.5,392.6c-1.58,0-2.87-1.28-2.87-2.87c0-1.58,1.29-2.87,2.87-2.87c1.58,0,2.87,1.28,2.87,2.87
			C7.37,391.31,6.08,392.6,4.5,392.6z"/>
			<path class="color-a" d="M4.5,383.33c-1.55,0-2.81-1.26-2.81-2.81c0-1.55,1.27-2.81,2.81-2.81c1.54,0,2.81,1.26,2.81,2.81
			C7.31,382.08,6.05,383.33,4.5,383.33z"/>
			<path class="color-a" d="M4.5,374.06c-1.52,0-2.74-1.23-2.74-2.74c0-1.52,1.24-2.74,2.74-2.74c1.51,0,2.74,1.23,2.74,2.74
			C7.24,372.84,6.02,374.06,4.5,374.06z"/>
			<path class="color-a" d="M4.5,364.8c-1.48,0-2.68-1.2-2.68-2.68c0-1.48,1.21-2.68,2.68-2.68c1.47,0,2.68,1.2,2.68,2.68
			C7.18,363.6,5.98,364.8,4.5,364.8z"/>
			<path class="color-a" d="M4.5,355.53c-1.45,0-2.62-1.17-2.62-2.62c0-1.45,1.19-2.62,2.62-2.62c1.44,0,2.62,1.17,2.62,2.62
			C7.12,354.36,5.95,355.53,4.5,355.53z"/>
			<path class="color-a" d="M4.5,346.26c-1.41,0-2.56-1.15-2.56-2.56c0-1.41,1.16-2.56,2.56-2.56c1.4,0,2.56,1.15,2.56,2.56
			C7.06,345.12,5.91,346.26,4.5,346.26z"/>
			<path class="color-a" d="M4.5,337c-1.38,0-2.5-1.12-2.5-2.5s1.13-2.5,2.5-2.5c1.37,0,2.5,1.12,2.5,2.5S5.88,337,4.5,337z"/>
			<path class="color-a" d="M4.5,327.73c-1.35,0-2.44-1.09-2.44-2.44c0-1.35,1.11-2.44,2.44-2.44s2.44,1.09,2.44,2.44
			C6.94,326.64,5.85,327.73,4.5,327.73z"/>
			<path class="color-a" d="M4.5,318.46c-1.31,0-2.38-1.07-2.38-2.38c0-1.31,1.08-2.38,2.38-2.38c1.3,0,2.38,1.06,2.38,2.38
			C6.88,317.4,5.81,318.46,4.5,318.46z"/>
			<path class="color-a" d="M4.5,309.2c-1.28,0-2.32-1.04-2.32-2.32c0-1.28,1.05-2.32,2.32-2.32c1.27,0,2.32,1.04,2.32,2.32
			C6.82,308.16,5.78,309.2,4.5,309.2z"/>
			<path class="color-a" d="M4.5,299.93c-1.25,0-2.26-1.01-2.26-2.26c0-1.25,1.03-2.26,2.26-2.26c1.23,0,2.26,1.01,2.26,2.26
			C6.76,298.92,5.75,299.93,4.5,299.93z"/>
			<path class="color-a" d="M4.5,290.66c-1.21,0-2.2-0.98-2.2-2.2c0-1.21,1-2.2,2.2-2.2c1.2,0,2.2,0.98,2.2,2.2
			C6.7,289.68,5.71,290.66,4.5,290.66z"/>
			<path class="color-a" d="M4.5,281.4c-1.18,0-2.14-0.95-2.14-2.13c0-1.18,0.98-2.13,2.14-2.13c1.16,0,2.13,0.96,2.13,2.13
			C6.63,280.44,5.68,281.4,4.5,281.4z"/>
			<path class="color-a" d="M4.5,272.13c-1.15,0-2.07-0.93-2.07-2.07c0-1.15,0.95-2.07,2.07-2.07c1.13,0,2.07,0.93,2.07,2.07
			C6.57,271.2,5.65,272.13,4.5,272.13z"/>
			<path class="color-a" d="M4.5,262.86c-1.11,0-2.01-0.9-2.01-2.01s0.92-2.01,2.01-2.01c1.09,0,2.01,0.9,2.01,2.01
			S5.61,262.86,4.5,262.86z"/>
			<path class="color-a" d="M4.5,253.6c-1.08,0-1.95-0.88-1.95-1.95c0-1.08,0.89-1.95,1.95-1.95c1.06,0,1.95,0.88,1.95,1.95
			C6.45,252.72,5.58,253.6,4.5,253.6z"/>
			<path class="color-a" d="M4.5,244.33c-1.04,0-1.89-0.85-1.89-1.89c0-1.04,0.87-1.89,1.89-1.89c1.02,0,1.89,0.85,1.89,1.89
			C6.39,243.48,5.55,244.33,4.5,244.33z"/>
			<path class="color-a" d="M4.5,235.06c-1.01,0-1.83-0.82-1.83-1.83c0-1.01,0.84-1.83,1.83-1.83c0.99,0,1.83,0.82,1.83,1.83
			C6.33,234.24,5.51,235.06,4.5,235.06z"/>
			<path class="color-a" d="M4.5,225.8c-0.98,0-1.77-0.79-1.77-1.77c0-0.98,0.81-1.77,1.77-1.77c0.95,0,1.77,0.79,1.77,1.77
			C6.27,225,5.48,225.8,4.5,225.8z"/>
			<path class="color-a" d="M4.5,216.53c-0.94,0-1.71-0.77-1.71-1.71c0-0.94,0.79-1.71,1.71-1.71c0.92,0,1.71,0.77,1.71,1.71
			C6.21,215.76,5.44,216.53,4.5,216.53z"/>
			<path class="color-a" d="M4.5,207.26c-0.91,0-1.65-0.74-1.65-1.65c0-0.91,0.76-1.65,1.65-1.65c0.88,0,1.65,0.74,1.65,1.65
			C6.15,206.52,5.41,207.26,4.5,207.26z"/>
			<path class="color-a" d="M4.5,197.99c-0.88,0-1.59-0.71-1.59-1.59s0.74-1.59,1.59-1.59c0.85,0,1.59,0.71,1.59,1.59
			S5.38,197.99,4.5,197.99z"/>
			<path class="color-a" d="M4.5,188.73c-0.84,0-1.53-0.68-1.53-1.52c0-0.84,0.71-1.52,1.53-1.52c0.82,0,1.52,0.68,1.52,1.52
			C6.02,188.04,5.34,188.73,4.5,188.73z"/>
			<path class="color-a" d="M4.5,179.46c-0.81,0-1.47-0.66-1.47-1.47s0.68-1.46,1.47-1.46c0.78,0,1.46,0.66,1.46,1.46
			S5.31,179.46,4.5,179.46z"/>
			<path class="color-a" d="M4.5,170.19c-0.77,0-1.4-0.63-1.4-1.4c0-0.78,0.66-1.4,1.4-1.4c0.75,0,1.4,0.63,1.4,1.4
			C5.9,169.56,5.28,170.19,4.5,170.19z"/>
			<path class="color-a" d="M4.5,160.93c-0.74,0-1.34-0.6-1.34-1.34c0-0.74,0.63-1.34,1.34-1.34c0.71,0,1.34,0.6,1.34,1.34
			C5.84,160.33,5.24,160.93,4.5,160.93z"/>
			<path class="color-a" d="M4.5,151.66c-0.71,0-1.28-0.57-1.28-1.28s0.6-1.28,1.28-1.28c0.68,0,1.28,0.57,1.28,1.28
			S5.21,151.66,4.5,151.66z"/>
			<path class="color-a" d="M4.5,142.39c-0.67,0-1.22-0.55-1.22-1.22c0-0.68,0.58-1.22,1.22-1.22c0.64,0,1.22,0.55,1.22,1.22
			C5.72,141.85,5.17,142.39,4.5,142.39z"/>
			<path class="color-a" d="M4.5,133.13c-0.64,0-1.16-0.52-1.16-1.16c0-0.64,0.55-1.16,1.16-1.16c0.61,0,1.16,0.52,1.16,1.16
			C5.66,132.61,5.14,133.13,4.5,133.13z"/>
			<path class="color-a" d="M4.5,123.86c-0.61,0-1.1-0.49-1.1-1.1c0-0.61,0.52-1.1,1.1-1.1c0.58,0,1.1,0.49,1.1,1.1
			C5.6,123.37,5.11,123.86,4.5,123.86z"/>
			<path class="color-a" d="M4.5,114.59c-0.57,0-1.04-0.46-1.04-1.04c0-0.57,0.5-1.04,1.04-1.04c0.54,0,1.04,0.46,1.04,1.04
			C5.54,114.13,5.07,114.59,4.5,114.59z"/>
			<path class="color-a" d="M4.5,105.33c-0.54,0-0.98-0.44-0.98-0.98c0-0.54,0.47-0.98,0.98-0.98c0.51,0,0.98,0.44,0.98,0.98
			C5.48,104.89,5.04,105.33,4.5,105.33z"/>
			<path class="color-a" d="M4.5,96.06c-0.51,0-0.92-0.41-0.92-0.91c0-0.51,0.45-0.92,0.92-0.92c0.47,0,0.92,0.41,0.92,0.92
			C5.42,95.65,5.01,96.06,4.5,96.06z"/>
			<path class="color-a" d="M4.5,86.79c-0.47,0-0.86-0.38-0.86-0.86s0.42-0.85,0.86-0.85c0.44,0,0.85,0.38,0.85,0.85
			S4.97,86.79,4.5,86.79z"/>
			<path class="color-a" d="M4.5,77.52c-0.44,0-0.8-0.36-0.8-0.79c0-0.44,0.39-0.8,0.8-0.8c0.4,0,0.79,0.36,0.79,0.8
			C5.29,77.17,4.94,77.52,4.5,77.52z"/>
			<path class="color-a" d="M4.5,68.26c-0.41,0-0.73-0.33-0.73-0.73s0.36-0.73,0.73-0.73c0.37,0,0.73,0.33,0.73,0.73
			S4.91,68.26,4.5,68.26z"/>
			<path class="color-a" d="M4.5,58.99c-0.37,0-0.67-0.3-0.67-0.67c0-0.37,0.34-0.67,0.67-0.67c0.33,0,0.67,0.3,0.67,0.67
			C5.17,58.69,4.87,58.99,4.5,58.99z"/>
			<path class="color-a" d="M4.5,49.72c-0.34,0-0.61-0.27-0.61-0.61c0-0.34,0.31-0.61,0.61-0.61c0.3,0,0.61,0.27,0.61,0.61
			C5.11,49.45,4.84,49.72,4.5,49.72z"/>
			<path class="color-a" d="M4.5,40.46c-0.3,0-0.55-0.25-0.55-0.55c0-0.3,0.29-0.55,0.55-0.55c0.27,0,0.55,0.25,0.55,0.55
			C5.05,40.21,4.8,40.46,4.5,40.46z"/>
			<path class="color-a" d="M4.5,31.19c-0.27,0-0.49-0.22-0.49-0.49c0-0.27,0.26-0.49,0.49-0.49c0.23,0,0.49,0.22,0.49,0.49
			C4.99,30.97,4.77,31.19,4.5,31.19z"/>
			<path class="color-a" d="M4.5,21.92c-0.24,0-0.43-0.19-0.43-0.43c0-0.24,0.23-0.43,0.43-0.43c0.2,0,0.43,0.19,0.43,0.43
			C4.93,21.73,4.74,21.92,4.5,21.92z"/>
			<path class="color-a" d="M4.5,12.66c-0.2,0-0.37-0.16-0.37-0.37c0-0.2,0.21-0.37,0.37-0.37s0.37,0.16,0.37,0.37
			C4.87,12.49,4.7,12.66,4.5,12.66z"/>
			<path class="color-a" d="M4.5,3.39c0.17,0,0.31-0.14,0.31-0.31S4.63,2.78,4.5,2.78c-0.13,0-0.31,0.14-0.31,0.31S4.33,3.39,4.5,3.39z"/>
		</g>
	</g>
</svg>
