<svg version="1.0" xmlns="http://www.w3.org/2000/svg" width="400" height="400" viewBox="0 0 300 300"><path d="M166.1 82.4c-1.5 1.8-.5 4 2.5 5.6 1.3.7 2.4 1.7 2.4 2.2 0 .5.5.6 1 .3.9-.5 1.2.1.9 2.1 0 .4.4 1 1.1 1.4.7.4.9 1.7.5 3.3-.4 1.5-1.1 2.5-1.5 2.2-.4-.3-1 .2-1.4 1-.3.8-1.6 1.5-2.8 1.5-1.9 0-2 .2-.8 1 1.3.9 1.2 1.3-.7 2.9-1.7 1.4-1.9 2.1-1 3.1 1 1 .8 1.2-.5.7s-1.8-.1-1.8 1.3c0 3.7 2.1 2.3 10.5-7.4 2.2-2.5 4.7-4.6 5.5-4.6.8 0 2-1.1 2.6-2.5 1-2 .9-2.7-.5-4-1-.8-2.2-1.5-2.7-1.5s-1.5-.9-2.2-2c-.7-1.1-1.9-2-2.7-2-.8 0-1.5-.4-1.5-.8 0-.5-1.3-1.8-2.9-3-2.4-1.7-3.1-1.9-4-.8zM3.6 91.6c-2.1 2-2 2.6.4 5.4 1.1 1.3 2 2.6 2.1 2.9.5 4.2 3.6 9 5.8 9.1.9 0 1.1.8.7 2.6-.4 1.4-.3 2.3.2 2 .5-.3.9.1.9.9s-.4 1.2-.8.9c-.4-.2-1 0-1.3.5-.7 1.1 3.5.8 5.4-.4.8-.5 1.1-.4.7.2-.4.6 0 1.4.9 1.7.8.3 1.3.2 1-.2-.3-.5.1-.9.8-.9.9 0 1.2.7.8 1.6-.4 1.2 0 1.1 1.8-.4 1.3-1.1 2-1.4 1.6-.8-.4.7-.2 1.3.3 1.3.6 0 1.1-.2 1.1-.4 0-1-3-6.1-3.5-5.9-.3.2-.5.1-.5-.2v-2.1c0-.8.5-1.2 1.1-.9.5.4 2-.4 3.2-1.7 1.3-1.4 2.9-2.2 3.6-2 .8.3 1.1 0 .7-.6-.3-.6.2-1.3 1.3-1.7 3.2-1 4.6-3.2 3.1-5-1.6-2-4.6-1.9-5.4.1-.4.9-1.3 1.4-2.1 1-.8-.3-1.5-.1-1.5.4 0 .6-.3.9-.7.8-1.4-.4-5.3 2.2-5.3 3.5 0 .7-1 1.8-2.1 2.6-1.9 1.1-2.1 1.1-1.6-.3.4-1-.1-2-1.4-2.6-1.1-.6-1.7-1.6-1.3-2.1.3-.6-.3-1.7-1.5-2.5-1.1-.8-2.8-3-3.7-4.9-1.8-3.9-2.6-4.2-4.8-1.9zm126 3.1c-1.2 1.3-18.9 2-23.3 1-1.3-.3-2.3-.3-2.3.1s-2.5.9-5.5 1c-3 .1-5.5-.2-5.5-.7 0-.5-1.6-.9-3.5-.8-1.9.1-3.5.4-3.5.7 0 .6-9.4.4-13.3-.4-1.9-.3-3 0-3.4.9-.4 1.1-1 1.2-2.5.4-1.1-.6-3.3-.9-4.9-.7-1.6.3-2.9.1-2.9-.3 0-.5-1-.5-2.3 0-1.2.5-4.7.7-7.7.6-3-.2-5.8.1-6.1.6-.6 1.1-.1 19 .6 19.7.3.3 1.3-.2 2.4-1.2 1.2-1.1 1.6-2.5 1.3-4.3-.4-1.9-.2-2.4.8-1.8.9.6 1 .3 0-1.4-.9-1.8-.9-2.6.2-3.9 1.1-1.3 1.1-1.4 0-.8-1.1.7-1.2.4-.3-1.2.8-1.6 1.8-1.9 4.2-1.5 2.2.3 2.9.1 2.4-.7-.4-.7.5-.4 2.1.6 1.5 1.1 2.5 1.4 2.1.7-.5-.9.2-.9 2.8-.2 2 .6 4.5.7 5.6.4 1.1-.4 2.7-.1 3.6.7 1.2.9 1.5.9.9 0-.4-.6-.3-1.2.3-1.2.5 0 1.2.4 1.6.9.5 1 3.6.7 5.4-.3.5-.4 1.2 0 1.4.6.4 1 .6.9.6-.1.1-1 .4-1.1 1.5-.2 1 .8 1.6.9 2.1.1.3-.5 1.7-1 3.1-1 1.4 0 2.2.4 1.9 1-.3.5-.1 1 .4 1 .6 0 1.1-.3 1.1-.8 0-.4 2.1-.8 4.6-.9 2.8-.1 5.5-1 6.8-2 1.9-1.7 2-1.7.7-.1-1.2 1.6-1.1 1.8.8 1.8 1.1 0 2.1-.6 2.1-1.3 0-.7.3-.8.8-.2.9 1.2 6.2 1.3 8.1.1 1-.6 1.2-.5.7.2-1.2 2 6.5.5 7.9-1.5 1.2-1.5 1.3-1.5 1.9.5 1 2.9 3.6 2.8 3.6-.1 0-1.7.2-1.9.9-.7.6.8.7 1.8.5 2.2-.3.4.2.5 1 .2.9-.3 1.6-1 1.6-1.5s1.1-.4 2.5.1c1.6.6 2.7.6 3.1-.2.4-.7.3-.8-.4-.4s-1.2.5-1.2.1c0-.9 4.4-2.3 5.4-1.8.4.3.2.9-.5 1.4-1 .6-.8.9.9.9 1.3 0 2.2-.6 2.2-1.5 0-.8.6-1.2 1.4-.9.8.3 1.6.1 2-.4.3-.5-2.7-.9-6.7-1-4 0-8.1-.3-9.2-.7-1.1-.3-2.4-.3-2.9.2zm22 1.5c.3.5 1 .6 1.5.3 1.3-.9 1.1-1.2-.6-1.2-.8 0-1.2.4-.9.9zm-2.1 1.8c.3.5.8 1 1.1 1 .2 0 .4-.5.4-1 0-.6-.5-1-1.1-1-.5 0-.7.4-.4 1z"/><path d="M123.6 99.9c-.4.7-.5 1.5-.2 1.8.9.9 1.9-.4 1.4-1.8-.4-1.1-.6-1.1-1.2 0zM23.5 120c.3.5.8 1 1.1 1 .2 0 .4-.5.4-1 0-.6-.5-1-1.1-1-.5 0-.7.4-.4 1zm11.9 4c-.6.6-2.4 1.2-4.1 1.3-1.7.1-2.9.4-2.7.6.5.5-7.8 8.1-9 8.1-.5 0-.3.7.4 1.5s.8 1.5.3 1.5-.8 1.6-.7 3.5c.2 2.5-.1 3.5-1.1 3.5-1.1 0-.9 1 .8 4.2 1.2 2.4 3 5.2 4 6.2.9 1.1 1.7 2.4 1.7 2.9 0 .4.8.7 1.8.5.9-.2 2.5.4 3.5 1.3 2 1.9 8 1.8 10.3-.2.8-.6 1.4-.9 1.4-.5s1.3 0 2.9-.8c1.6-.9 3.2-1.2 3.6-.8.5.4.5.1.1-.6s.2-2.6 1.4-4.2c2.3-3.3 2.1-6-.5-5.6-.8.1-3.4 2.1-5.8 4.3-3.1 3-4.9 4.1-6.9 4-1.6-.1-2.8-.5-2.8-1 0-.4-.7-.7-1.6-.7-2.2 0-5.6-4.3-4.1-5.2.7-.5.3-.8-1-.8-2.3 0-2.5-1-1.7-8.6.5-4.3 2-5.5 6.9-5.8 1.3-.1 2.2-1.1 2.6-3.1.6-2.6.7-2.7.8-.6.1 2.4.1 2.4 1.6.5 1.3-1.7 1.4-1.7 1.5-.2 0 1 .5 1.8 1.1 1.8.5 0 .8-.4.5-.8-.2-.4-.1-1.4.5-2.2.6-1.1.9-1.2.9-.2 0 .7.5 1 1 .7.6-.3 1-.2 1 .4 0 .5-.6 1.2-1.2 1.5-.7.3-.1.4 1.5.3 1.5-.2 2.6-.7 2.5-1.3-.2-.5-.6-.8-1-.7-.5.2-.8-.3-.8-1.1s-1.3-1.7-3-2.1c-1.6-.4-3.2-1.1-3.5-1.6-.8-1.2-1.9-1.1-3.1.1zm-1.5 7.3c0 .9-.2.8-.6-.1-.2-.6-1-.9-1.5-.6-.7.4-.8.2-.4-.5.9-1.3 2.6-.5 2.5 1.2z"/><path d="M166.5 124.1c-5.9 1.3-12.6 4-15.9 6.3-5.5 3.9-6.8 5.1-10.1 9.3l-3.3 4.3-3.7-4.6c-4.9-6-12.6-10.9-20-12.9-7.5-2.1-62.4-3-62.6-1.1-.1.6-.1 2.1-.2 3.3 0 1.3-.4 2.3-1 2.3-.5 0-.3.8.4 1.7 1.2 1.5 1.2 1.6-.1.8s-1.3-.7-.1.8c1.1 1.4 1.1 1.7 0 1.7-1 0-1 .3-.3.8.7.4 1.2 1.8 1.2 3.2 0 4.5.2 4.9 3 4.8 1.5 0 4.1 0 5.9.1l3.2.1.1 24.1c0 17.6-.3 23.9-1.1 23.3-1.6-1-10.1-.6-10.8.5-1.1 1.7-.5 18.2.6 18.9 1.3.8 51.9.7 57.3-.1 1.9-.3 6.4-1.7 9.9-3.1 3.5-1.4 6.8-2.3 7.3-2 .4.3.7.1.6-.3-.2-.5 1.3-2.5 3.2-4.4 2-1.9 4.5-4.8 5.7-6.4 2-2.8 2.2-2.9 2.9-1.1 2 5.1 14.6 14.5 21.7 16.2.4.1.9.3 1.2.4.3.1 1 .4 1.5.5.6.1 1.1.3 1.3.5 1.1.9 20.6 1.4 24.2.6 1.1-.2 4-.9 6.4-1.5 2.5-.5 4.9-.7 5.5-.4.5.3.6.1.2-.5-.6-1.1 0-1.4 2-1.1.4 0 1-.4 1.3-.9.3-.5 2-1.7 3.8-2.6l3.2-1.6-.2 3.7c-.2 3.1.1 3.7 2.3 4.3 1.4.3 12.4.5 24.5.5l22-.1v-10.2c.1-11.1.5-10.4-6.5-10.4-4.5 0-5.4-.6-3.8-2.6.8-1 .9-1.3.1-.9-.8.5-1.1-.2-.9-2.3l.2-3.1 10-.5c12.7-.6 12.4-.6 12.4-1.6 0-.4.6-.8 1.4-.8.7 0 2.6-.7 4.2-1.4 1.5-.8 3.2-1.2 3.7-.9.6.3.7.2.4-.4-.3-.5.7-2.2 2.4-3.7 1.6-1.5 2.9-3.4 2.9-4.2 0-.8.4-1.4.9-1.4s1.2-1.4 1.6-3c.4-1.7 1-2.8 1.3-2.6 1 .6.8-13.6-.1-15.2-.5-.7-.3-1.2.5-1.2s.9-.3.2-.8c-.5-.4-1.6-2.1-2.2-3.7-1.7-4-6.9-9.7-11.2-12.2-7.1-4.2-11-4.6-45.2-4.8-30.6-.1-32.8 0-32.8 1.6s-.4 1.6-5.7-.3c-6.4-2.3-20-3.2-26.8-1.7zm23.4 22.8c4.6 2.4 8 6.4 8.8 10.3l.5 2.7 9.7-.2 9.6-.2.3-7.3c.4-11.1 2.2-8.7 2.1 2.8 0 5.5-.4 10-.8 10s-1.3-.6-2-1.3c-.8-.6-1.1-.7-.8-.1.4.7-4.9 1-17.4 1l-17.9-.1-.1 3c-.2 7.6 0 16.7.4 17.2.3.2 3 .4 6.1.4 3.1 0 5.6.2 5.6.4s-1.6 1.6-3.5 3c-4.2 3.2-12.2 4.1-17.5 1.9-4.5-1.9-9.2-6.4-8.5-8.2.2-.7.1-1.1-.4-.7-.5.3-1.5-1.1-2.1-3.1-1.8-5.2-1.9-6.7-.6-8.3.9-1.2.8-1.3-.2-.7-2.5 1.5-.7-10.9 2.3-16 1.4-2.4 3-4.4 3.5-4.4s1.6-.7 2.4-1.6c.9-.8 2.8-1.8 4.3-2 1.5-.3 2.9-.7 3.1-.9.9-.9 9.6.7 13.1 2.4zm-84.9.3c8.4 4.3 12.3 18.4 8.6 31.2-2.7 9.3-8.4 13.3-18.6 13.2l-4.5-.1-.1-23.3-.1-23.2h5.1c3.4 0 6.7.8 9.6 2.2zm153.8-.4c4.1 3.6 4.1 10.9-.1 13.6-2.4 1.6-9.6 2.9-9.8 1.8-.1-.4-.2-4.4-.3-9l-.2-8.2h4.2c2.5 0 4.9.7 6.2 1.8zM46.5 133c.3.5.8 1 1.1 1 .2 0 .4-.5.4-1 0-.6-.5-1-1.1-1-.5 0-.7.4-.4 1z"/></svg>