<svg xmlns="http://www.w3.org/2000/svg" viewBox="0 0 227.43 484.89"><path d="M227.43 74.06c.18-24.45-4.55-40.06-14.9-49.09s-24.94-8.88-31-8.3l-7.65-8.39c-8.71-10.7-44.11-8-45.62-7.89-.84.09-20.54 2.1-27.25 9.13a20.64 20.64 0 01-14.78 6.17C69.59 6.92 60 5.74 59.54 5.69S19.79-.38 9.78 27C-.38 54.79-.71 71.59.48 85.58c1.18 14.22 4.42 37.13 18.94 72.11 5.95 14.34 12.8 23.21 18.49 28.64-3.28 2-5 4.14-5 6.42a3.91 3.91 0 00.28 1.51.32.32 0 000 .08C33.87 198 36 207.13 40 213.76a8.79 8.79 0 003.41 4.44c.23 5 1 17.53 3.52 21.73a30.12 30.12 0 007.81 9l3.9 38.15 7.9 8.28c0 .05.91.77.91.77l1 .37c.9.25 1.8.48 2.69.7-5.76 3-8.64 6.37-8.62 10 0 6.15 8.53 11 11.36 12.44-6.24 3-9.39 6.44-9.37 10.15 0 5.62 7.36 10.07 10.46 11.69-5.46 2.83-8.24 6-8.2 9.37 0 5.32 6.88 9.56 9.88 11.16-5 2.66-7.58 5.64-7.57 8.83 0 5 6.47 9.09 9.41 10.68-4.92 2.58-7.4 5.46-7.35 8.56 0 4.79 6 8.62 8.89 10.21-5 2.54-7.55 5.39-7.54 8.47 0 5.26 7.48 9.32 9.55 10.33a3.94 3.94 0 01.51.27l.19.05c.18 0 .36 0 .56.07a4 4 0 00-.81.3c-.14.05-.25.12-.38.17-5.23 2.51-7.86 5.36-7.81 8.45 0 4.42 5.45 8 8.19 9.45-4.27 2.38-6.42 5-6.38 7.88 0 5.17 7.2 9.17 8.92 10l.4 5.14v.29L117 484.89l31.61-24.7.21-.17 1-13.22c3.95-3 6-6.21 6-9.65.06-3.77-2.26-6.73-3.72-8.25 3.61-2.8 5.48-5.84 5.53-9.08.09-4.54-3.51-7.95-4.72-9a2.48 2.48 0 00-.37-.28c-.23-.15-.38-.28-.52-.35l.23-.14c.14-.11.28-.19.4-.3 4.21-3.05 6.37-6.4 6.43-9.9.07-4.2-2.88-7.49-4.42-8.89 4.24-3.14 6.42-6.55 6.48-10.15.08-4.62-3.33-8.14-4.81-9.46q6.09-4.73 6.21-10.15c.08-4.74-3.41-8.38-5-9.76 4.29-3.29 6.47-6.87 6.55-10.65.09-4.92-3.53-8.72-5.15-10.15 4.72-3.5 7.13-7.32 7.19-11.35.08-5.43-4.11-9.48-5.63-10.8 5.29-3.79 8-7.9 8.07-12.27a13.19 13.19 0 00-2.72-7.83 25.74 25.74 0 005.17-7.1l3.45-33.78a26.93 26.93 0 006.12-8.28c2.12-4.17 2-16.11 1.9-21.06a9.3 9.3 0 003.22-3.88c7.4-11.86 7.37-21.15 7.35-21.56 0-2-1.48-4-4.22-5.84 6-6.94 12.47-17.93 18.61-31.72 12.35-27.62 19.79-57.93 19.98-81.11zM102 10.44c6.37-6.68 26.22-8.71 26.42-8.73s36.19-2.77 44.51 7.43l7 7.7c-.75.11-1.17.17-1.19.19-13.2 1.26-15.25 2.29-18 4.15-15.35 11.9-29.08 12.18-31.5 12.13-10.62-10.88-27.42-9.92-29.53-9.74-4-2.57-7.71-4.77-11.14-6.64A21.45 21.45 0 00102 10.44zM34.18 192.67c.06-1.8 1.71-3.64 4.75-5.38a35.83 35.83 0 0010.33 6.83l1.2.59c3.52 1.92 7 3.55 10.56 5.05.71.32 1.41.62 2.14.9a127.77 127.77 0 0015.26 5.18 131.86 131.86 0 0014.9 3.05c-16.39-.9-30.11-2.89-40.17-5.41-.76-.22-1.46-.41-2.19-.59-9.48-2.64-15.32-5.76-16.53-8.88-.16-.76-.24-1.22-.25-1.34zM117 483.18l-27.71-20.81a95.77 95.77 0 0027.83 4.25 75.93 75.93 0 0027.29-4.88zM147.52 459c-27.52 12.53-56.35 2.75-60.74 1.13l-.33-4a114.28 114.28 0 0018.32 1.51c23.56 0 39.28-7.59 43.61-10zm7-22v.12c-.07 2.74-1.58 5.39-4.53 7.83-.36.32-.78.61-1.19.94l-.28.15c-2.78 1.64-26.32 14.62-62.16 8.69a2.07 2.07 0 01-.42-.08c-.14-.06-.51-.26-1-.54-2.29-1.29-7.38-4.59-7.41-8.44q0-3.69 6.13-7l.32-.16.17.06c.32.05.6.08.89.11a121.75 121.75 0 0019.2 1.53c24.34 0 40.72-7.41 45.45-9.86.72-.36 1.17-.62 1.35-.72l.08.1c1.3 1.44 3.38 4.04 3.38 7.27zm-2-24.78c1.32 1.21 3.89 4.07 3.85 7.58-.07 2.83-1.76 5.54-5 8a.25.25 0 01-.14.13 1.63 1.63 0 00-.14-.14l-.54.64-.13.11s-.18.11-.49.26c-3.74 2.09-28.18 14.4-64.9 8.59a3.27 3.27 0 01-.42-.06c-.1-.06-.28-.12-.53-.26v-.05a3 3 0 00-.44-.23c-2.38-1.29-7.78-4.61-7.81-8.5 0-2.45 2.21-4.83 6.57-7l.84-.41s1-.5 1.37-.63 1.59-.42 1.59-.42a127.65 127.65 0 0017.53 1.25c24.62 0 41.4-7.3 46.79-10a3.62 3.62 0 011.5.63c-.02.11.22.29.45.52zm5.23-12.41c0 2.83-1.69 5.59-4.89 8.14-.4.34-.84.67-1.32 1l-.14.06c-2.12 1.23-28.11 15.48-68 9.11a2.34 2.34 0 00-.3-.05l-1.15-.57c-2.5-1.36-8-4.78-8-8.8 0-2.53 2.24-5 6.74-7.27l.89-.42h.08l.17.05a.54.54 0 01.21.05 135.59 135.59 0 0021.49 1.74c26.48 0 44.24-8.14 49.19-10.72l.84-.46c.14.14.34.3.53.5 1.35 1.44 3.67 4.26 3.61 7.65zm2.07-19c-.06 3.06-1.93 6.05-5.54 8.82-.31.22-.61.46-.93.68l-.53.28c-4 2.21-30.65 15.71-70.66 9.22l-.23-.09c-.28-.18-.81-.44-1.45-.78-2.77-1.56-7.88-5-7.91-8.89 0-2.59 2.19-5.05 6.58-7.36.28-.14.58-.3.89-.44h.11a2.53 2.53 0 01.34.07 141.28 141.28 0 0022.18 1.79c28.29 0 47-8.91 51.5-11.35.65-.34 1-.55 1.06-.58l.32.27c1.39 1.29 4.28 4.44 4.22 8.35zm1.39-19.6c0 3.13-1.89 6.1-5.44 8.93-.4.31-.84.66-1.3 1l-.16.09c-2.41 1.33-30.58 16.77-73.87 9.77h-.07c-.11 0-.24-.11-.39-.18a12 12 0 01-1.06-.57c-2.84-1.57-8.41-5.17-8.42-9.37 0-2.73 2.33-5.33 7-7.77l.65-.33h.06l.64.09a146.13 146.13 0 0022.85 1.82c30.13 0 49.79-9.7 54-12 .42-.22.69-.36.78-.42.16.13.34.33.58.53 1.53 1.47 4.18 4.58 4.1 8.4zm1.59-20.41c-.05 3.19-1.9 6.29-5.47 9.17-.47.38-.93.72-1.46 1.09a.57.57 0 00-.13.1c-.28.17-30.12 17.84-76.93 10.32h-.18a1.2 1.2 0 00-.27-.12l-.08-.14h-.09c-.22-.09-.48-.26-.79-.42a30.56 30.56 0 01-5.69-3.8c-1.95-1.75-3.53-3.86-3.55-6.15 0-2.93 2.55-5.71 7.69-8.3a5.93 5.93 0 01.72-.34l.65.09a149.68 149.68 0 0023.77 1.9c31.32 0 51.87-10.05 56.31-12.47.18-.11.37-.18.51-.28.22.19.51.44.83.77 1.63 1.58 4.17 4.72 4.11 8.57zm2-21.53c-.06 3.41-2.05 6.69-5.89 9.78-.46.34-.95.71-1.47 1.07-.3.18-31.46 18.61-80.3 10.81h-.29c-.19-.1-.58-.28-1.16-.59-2.84-1.51-9.71-5.69-9.74-10.56 0-3.08 2.74-6 8.19-8.75.31-.17.64-.32 1-.48l-.23-.45.14.05h.44a159.87 159.87 0 0025.15 2c32 0 53.19-10.07 58.44-12.84l.3-.16c.2.16.57.5 1 .94 1.62 1.67 4.47 5.06 4.4 9.17zm2.43-23.05c0 3.7-2.29 7.25-6.61 10.57l-1.09.79-.38.2c-3.76 2.12-35.55 18.85-83.82 11-.19-.1-.72-.36-1.45-.75-3.08-1.66-9.92-5.93-9.93-10.91 0-3.19 2.77-6.23 8.33-9 .23-.12.48-.24.71-.37h.11c.2 0 .37.06.53.08s.59.08.87.14c48.77 11.18 80.76-3.1 86.93-6.21l1.4-.86a10.45 10.45 0 001.2-1l.84-.62a11.83 11.83 0 012.34 6.93zm5.79-47a1.62 1.62 0 010 .22l-2.26 22-.48 4.75-.47 4.62a25.28 25.28 0 01-4.73 6.5c-.33.31-.65.6-1 .91a16.61 16.61 0 01-1.85 1.36l-1.25.79c-4.61 2.35-29.3 13.92-68 9.44a164.72 164.72 0 01-18-3.12l-2-.43c-1.59-.39-3.21-.8-4.82-1.25h-.07v-.05l-7.23-7.58-.88-.92-3.72-36.55a31.44 31.44 0 005.88 3c.45.2.93.37 1.43.54 9.75 3.46 23.76 4.41 45.15 4.41h6.43c30.52-.23 46.77-1.6 56.44-8 .51-.35 1-.69 1.51-1.06zm6.45-10.57a28.55 28.55 0 01-4.78 7c-.45.45-.93.9-1.43 1.32-.1.06-.16.14-.25.19a13.11 13.11 0 01-1.32 1c-8.71 6.29-24 8.09-56.57 8.34-25 .19-40.21-.74-50.25-4-.53-.15-1-.34-1.56-.53a29.48 29.48 0 01-7.24-3.73c-.53-.36-1-.75-1.51-1.15a30 30 0 01-6.46-7.8c-2.15-3.68-3-14.68-3.25-20.12 10.53 6.7 36.73 11.34 68.13 11.34s57.66-4.64 68.19-11.35c.1 5.23.12 15.84-1.72 19.48zM186 211.3c-.41.75-.86 1.5-1.31 2.23 0 0 0 .06-.06.08a7.15 7.15 0 01-2.15 3c-.41.34-.86.68-1.36 1-9.62 6.6-36.94 11.5-68.15 11.5s-58.72-4.95-68.21-11.58a14.75 14.75 0 01-1.34-1.39 21.09 21.09 0 01-2.13-2.92c-.41-.67-.81-1.37-1.19-2.1a66.77 66.77 0 01-4.93-14c2.61 2.44 7.38 4.67 13.85 6.57.64.2 1.31.38 2 .57 14.59 4 36.75 6.48 62 6.48s47.45-2.49 62-6.48c.69-.19 1.36-.37 2-.57 7-2 11.95-4.47 14.4-7.13A47 47 0 01186 211.3zm5.82-18.55a3.2 3.2 0 010 .33c-.39 3.41-6.38 6.9-16.78 9.78l-2.18.56c-10.16 2.56-24 4.57-40.6 5.46a157.94 157.94 0 0032.1-7.88c.8-.28 1.55-.54 2.28-.82a127.46 127.46 0 0012.48-5.42l1.23-.62a25.76 25.76 0 007.66-6.28c2.46 1.6 3.77 3.25 3.77 4.89zm-4.05-6.59c-.3.34-.58.7-.87 1a25.53 25.53 0 01-6.79 5.66 135.4 135.4 0 01-15.69 6.8c-.78.26-1.59.56-2.43.84-20.8 7.13-57.69 14.88-96.49-.31-.74-.3-1.49-.59-2.25-.91C59 197.5 50 193 50 193a35.39 35.39 0 01-9.8-6.43c-.34-.29-.67-.59-1-1-5.68-5.28-12.61-14.09-18.55-28.42C6.19 122.38 3 99.59 1.78 85.48.63 71.62.94 55 11 27.46 20.67 1.1 59 6.94 59.37 7c.14 0 14.3 1.76 37.85 16.55-5.4 0-19.39 0-33.85 1a33.94 33.94 0 00-26.73 15.97c0 .08-4.41 8.86-10.31 10.27a7.26 7.26 0 01-6.24-1.57c-9.06-6.88.09-25.83.19-26l-1.19-.59c-.4.82-9.73 20.12.21 27.66a8.54 8.54 0 007.36 1.79c6.51-1.54 11-10.59 11.16-11A32.73 32.73 0 0163.48 25.9c18.29-1.31 35.88-1 36-1l2.35.05-.23-.15c5.62-.13 21.58.73 29.83 13.38 3.87 6 8.28 9 13.06 9.16h.29c8.07 0 14.2-8.33 14.46-8.67l-1.07-.78c-.08.06-6.12 8.31-13.65 8.12-4.33-.11-8.36-3-12-8.54a27.43 27.43 0 00-2.1-2.84c4.45-.09 17-1.44 31.07-12.39 2.34-1.57 3.88-2.61 17.44-3.9.18 0 19.75-3.65 32.67 7.61 10.1 8.78 14.69 24.05 14.5 48.1-.18 23-7.59 53.11-19.83 80.57-6.07 13.62-12.62 24.69-18.54 31.54z" fill="#fff" data-name="Layer 2"/></svg>