<svg xmlns="http://www.w3.org/2000/svg" xmlns:xlink="http://www.w3.org/1999/xlink" viewBox="0 0 137.66 118.09">
  <defs>
    <style>
      .cls-1 {
        fill: rgb(51, 51, 51);
      }

      .cls-2 {
        fill: rgb(51, 51, 51);
      }
    </style>
    <linearGradient id="New_Gradient_Swatch_1" data-name="New Gradient Swatch 1" x1="22.53" y1="95.76" x2="116.13" y2="2.16" gradientUnits="userSpaceOnUse">
      <stop offset="0" stop-color="#00adff"/>
      <stop offset="0.22" stop-color="#00b1ff"/>
      <stop offset="0.44" stop-color="#00bdff"/>
      <stop offset="0.66" stop-color="#00d1ff"/>
      <stop offset="0.89" stop-color="#00edff"/>
      <stop offset="1" stop-color="aqua"/>
    </linearGradient>
  </defs>
  <g id="Layer_2" data-name="Layer 2">
    <g id="interior">
      <g>
        <path class="cls-1" d="M101.62,110.1a114.78,114.78,0,0,0,16.62-19.18c12.47-17.77,19.92-36.47,19.92-50A40.44,40.44,0,0,0,97.77.5c-7.57,0-17.19,3-27.09,8.43l-1.35.74L68,8.93C58.09,3.49,48.47.5,40.89.5A40.44,40.44,0,0,0,.5,40.89c0,13.56,7.45,32.26,19.92,50A114.78,114.78,0,0,0,37,110.1c6.23,5.56,11.72,8.49,15.89,8.49,1.44,0,4.83-2.63,10.08-7.83,1.41-1.39,2.85-2.86,4.28-4.39l2-2.17,2.05,2.17c1.52,1.62,3,3.09,4.27,4.39,5.26,5.2,8.65,7.83,10.09,7.83C89.9,118.59,95.39,115.66,101.62,110.1ZM67.22,99.38c-2.7-3.09-5.38-6.3-7.95-9.56a180.23,180.23,0,0,1-12-16.95A73.65,73.65,0,0,1,39.5,56.65l0-.15a17.45,17.45,0,0,1-1.21-6.43c0-.13,0-.27,0-.4A17.94,17.94,0,0,1,56.09,32.22a17.67,17.67,0,0,1,9.69,2.87,18.21,18.21,0,0,1,3.55,3,18.37,18.37,0,0,1,3.56-3,17.74,17.74,0,0,1,9.68-2.86,17.94,17.94,0,0,1,17.84,17.44c0,.15,0,.28,0,.41a17.6,17.6,0,0,1-1,6v.58l-.31.34a76.47,76.47,0,0,1-7.73,15.89,180,180,0,0,1-12,16.94c-2.6,3.29-5.27,6.51-8,9.57l-2.1,2.4Zm17.62,17.19c-2.2-1.27-7.18-5.87-12.67-11.74L70.43,103l1.69-1.91c2.54-2.89,5-5.83,7.34-8.74,7.73-9.65,17.69-23.58,21.26-35.18l.07-.24A26.85,26.85,0,0,0,102,49.65,19.46,19.46,0,0,0,85.82,30.87a19.71,19.71,0,0,0-3.25-.27A19.28,19.28,0,0,0,71,34.42l-1.67,1.24-1.67-1.24A19.26,19.26,0,0,0,56.09,30.6,19.45,19.45,0,0,0,36.62,49.68a26.06,26.06,0,0,0,1.11,6.79l.29.31v.68C41.68,69,51.55,82.78,59.2,92.33c2.31,2.89,4.78,5.83,7.34,8.74L68.22,103l-1.74,1.86C61,110.7,56,115.3,53.82,116.57L53,117l-.88-.09c-7.37-.69-19.59-11.52-30.41-26.94C9.64,72.74,2.12,53.93,2.12,40.89A38.81,38.81,0,0,1,40.89,2.12c6.21,0,14.17,2.22,22.42,6.23,2,1,4,2.05,6,3.22,2-1.16,4-2.24,6-3.22,8.25-4,16.21-6.23,22.41-6.23a38.81,38.81,0,0,1,38.76,38.77c0,13-7.51,31.86-19.62,49.1-10.82,15.42-23,26.25-30.41,26.94l-.89.09Z" transform="translate(-0.5 -0.5)"/>
        <path class="cls-2" d="M97.77.5c-7.57,0-17.19,3-27.09,8.43l-1.35.74L68,8.93C58.09,3.49,48.47.5,40.89.5A40.44,40.44,0,0,0,.5,40.89c0,13.56,7.45,32.26,19.92,50A114.78,114.78,0,0,0,37,110.1c6.23,5.56,11.72,8.49,15.89,8.49,1.44,0,4.83-2.63,10.08-7.83,1.41-1.39,2.85-2.86,4.28-4.39l2-2.17,2.05,2.17c1.52,1.62,3,3.09,4.27,4.39,5.26,5.2,8.65,7.83,10.09,7.83,4.17,0,9.66-2.93,15.89-8.49a114.78,114.78,0,0,0,16.62-19.18c12.47-17.77,19.92-36.47,19.92-50A40.44,40.44,0,0,0,97.77.5ZM69.33,11.57c2-1.16,4-2.24,6-3.22,8.25-4,16.21-6.23,22.41-6.23a38.81,38.81,0,0,1,38.76,38.77c0,13-7.51,31.86-19.62,49.1-10.82,15.42-23,26.25-30.41,26.94l-.89.09-.77-.45c-2.2-1.27-7.18-5.87-12.67-11.74L70.43,103l1.69-1.91c2.54-2.89,5-5.83,7.34-8.74,7.73-9.65,17.69-23.58,21.26-35.18l.07-.24A26.85,26.85,0,0,0,102,49.65,19.46,19.46,0,0,0,85.82,30.87a19.71,19.71,0,0,0-3.25-.27A19.28,19.28,0,0,0,71,34.42l-1.67,1.24-1.67-1.24A19.26,19.26,0,0,0,56.09,30.6,19.45,19.45,0,0,0,36.62,49.68a26.06,26.06,0,0,0,1.11,6.79l.29.31v.68C41.68,69,51.55,82.78,59.2,92.33c2.31,2.89,4.78,5.83,7.34,8.74L68.22,103l-1.74,1.86C61,110.7,56,115.3,53.82,116.57L53,117l-.88-.09c-7.37-.69-19.59-11.52-30.41-26.94C9.64,72.74,2.12,53.93,2.12,40.89A38.81,38.81,0,0,1,40.89,2.12c6.21,0,14.17,2.22,22.42,6.23,2,1,4,2.05,6,3.22Zm0,26.54a18.37,18.37,0,0,1,3.56-3,17.74,17.74,0,0,1,9.68-2.86,17.94,17.94,0,0,1,17.84,17.44c0,.15,0,.28,0,.41a17.6,17.6,0,0,1-1,6v.58l-.31.34a76.47,76.47,0,0,1-7.73,15.89,180,180,0,0,1-12,16.94c-2.6,3.29-5.27,6.51-8,9.57l-2.1,2.4-2.11-2.4c-2.7-3.09-5.38-6.3-7.95-9.56a180.23,180.23,0,0,1-12-16.95A73.65,73.65,0,0,1,39.5,56.65l0-.15a17.45,17.45,0,0,1-1.21-6.43c0-.13,0-.27,0-.4A17.94,17.94,0,0,1,56.09,32.22a17.67,17.67,0,0,1,9.69,2.87,18.21,18.21,0,0,1,3.55,3Z" transform="translate(-0.5 -0.5)"/>
      </g>
    </g>
  </g>
</svg>
